<svg xmlns="http://www.w3.org/2000/svg" xmlns:xlink="http://www.w3.org/1999/xlink" viewBox="0 0 685 55.42"><defs><style>.cls-1{fill:url(#linear-gradient);}.cls-2{mask:url(#mask);}.cls-3{fill:url(#linear-gradient-2);}.cls-4{fill:url(#linear-gradient-3);}</style><linearGradient id="linear-gradient" x1="2.61" y1="27.71" x2="666.16" y2="27.71" gradientUnits="userSpaceOnUse"><stop offset="0.7" stop-color="#fff"/><stop offset="1"/></linearGradient><mask id="mask" x="0" y="0" width="1381.8" height="55.42" maskUnits="userSpaceOnUse"><rect class="cls-1" width="685.11" height="55.42"/></mask><linearGradient id="linear-gradient-2" x1="-67.09" y1="27.71" x2="1417" y2="27.71" gradientUnits="userSpaceOnUse"><stop offset="0" stop-color="#af7d04"/><stop offset="0.25" stop-color="#f1dd39"/><stop offset="0.52" stop-color="#ffff8e"/><stop offset="0.77" stop-color="#f1dd39"/><stop offset="1" stop-color="#af7d04"/></linearGradient><linearGradient id="linear-gradient-3" x1="690.9" y1="55.42" x2="690.9" y2="0" xlink:href="#linear-gradient-2"/></defs><g id="OBJECTS"><g class="cls-2"><path class="cls-3" d="M1381.8,55.42H0V5A5,5,0,0,1,5,0H1376.8a5,5,0,0,1,5,5Z"/><path class="cls-4" d="M1374.8,7V48.42H7V7H1374.8m2-7H5A5,5,0,0,0,0,5V55.42H1381.8V5a5,5,0,0,0-5-5Z"/></g></g></svg>