<svg xmlns="http://www.w3.org/2000/svg" xmlns:xlink="http://www.w3.org/1999/xlink" viewBox="0 0 200 63.02"><defs><style>.cls-1{fill:url(#linear-gradient);}.cls-2{mask:url(#mask);}.cls-3{fill:url(#linear-gradient-2);}.cls-4{fill:url(#linear-gradient-3);}</style><linearGradient id="linear-gradient" x1="183.85" y1="-8.35" x2="266.08" y2="-8.35" gradientTransform="translate(271.62 23.16) rotate(180)" gradientUnits="userSpaceOnUse"><stop offset="0" stop-color="#fff"/><stop offset="1"/></linearGradient><mask id="mask" x="-221.98" y="0" width="421.98" height="63.02" maskUnits="userSpaceOnUse"><rect class="cls-1" width="200" height="63.02"/></mask><linearGradient id="linear-gradient-2" x1="-221.98" y1="31.51" x2="200" y2="31.51" gradientUnits="userSpaceOnUse"><stop offset="0" stop-color="#af7d04"/><stop offset="0.25" stop-color="#f1dd39"/><stop offset="0.52" stop-color="#ffff8e"/><stop offset="0.77" stop-color="#f1dd39"/><stop offset="1" stop-color="#af7d04"/></linearGradient><linearGradient id="linear-gradient-3" x1="-10.99" y1="63.02" x2="-10.99" y2="0" xlink:href="#linear-gradient-2"/></defs><g id="DESIGNED_BY_FREEPIK" data-name="DESIGNED BY FREEPIK"><g class="cls-2"><path class="cls-3" d="M200,63H-222V10A10,10,0,0,1-212,0H190a10,10,0,0,1,10,10Z"/><path class="cls-4" d="M190,7a3,3,0,0,1,3,3V56H-215V10a3,3,0,0,1,3-3H190m0-7H-212a10,10,0,0,0-10,10V63H200V10A10,10,0,0,0,190,0Z"/></g></g></svg>