<svg xmlns="http://www.w3.org/2000/svg" xmlns:xlink="http://www.w3.org/1999/xlink" viewBox="0 0 200 63.02"><defs><style>.cls-1{fill:url(#linear-gradient);}.cls-2{fill:url(#linear-gradient-2);}</style><linearGradient id="linear-gradient" x1="-110.99" y1="31.51" x2="310.99" y2="31.51" gradientUnits="userSpaceOnUse"><stop offset="0" stop-color="#af7d04"/><stop offset="0.25" stop-color="#f1dd39"/><stop offset="0.52" stop-color="#ffff8e"/><stop offset="0.77" stop-color="#f1dd39"/><stop offset="1" stop-color="#af7d04"/></linearGradient><linearGradient id="linear-gradient-2" x1="100" y1="63.02" x2="100" y2="0" xlink:href="#linear-gradient"/></defs><g id="DESIGNED_BY_FREEPIK" data-name="DESIGNED BY FREEPIK"><path class="cls-1" d="M311,63H-111V10A10,10,0,0,1-101,0H301a10,10,0,0,1,10,10Z"/><path class="cls-2" d="M301,7a3,3,0,0,1,3,3V56H-104V10a3,3,0,0,1,3-3H301m0-7H-101a10,10,0,0,0-10,10V63H311V10A10,10,0,0,0,301,0Z"/></g></svg>