<svg xmlns="http://www.w3.org/2000/svg" xmlns:xlink="http://www.w3.org/1999/xlink" viewBox="0 0 685 55.42"><defs><style>.cls-1{fill:url(#linear-gradient);}.cls-2{mask:url(#mask);}.cls-3{fill:url(#linear-gradient-2);}.cls-4{fill:url(#linear-gradient-3);}</style><linearGradient id="linear-gradient" x1="-1390.88" y1="506.13" x2="-727.33" y2="506.13" gradientTransform="translate(-708.49 533.83) rotate(180)" gradientUnits="userSpaceOnUse"><stop offset="0.7" stop-color="#fff"/><stop offset="1"/></linearGradient><mask id="mask" x="-696.8" y="0" width="1381.8" height="55.42" maskUnits="userSpaceOnUse"><rect class="cls-1" x="-0.12" width="685.11" height="55.42"/></mask><linearGradient id="linear-gradient-2" x1="-763.89" y1="27.71" x2="720.2" y2="27.71" gradientUnits="userSpaceOnUse"><stop offset="0" stop-color="#af7d04"/><stop offset="0.25" stop-color="#f1dd39"/><stop offset="0.52" stop-color="#ffff8e"/><stop offset="0.77" stop-color="#f1dd39"/><stop offset="1" stop-color="#af7d04"/></linearGradient><linearGradient id="linear-gradient-3" x1="-5.9" y1="55.42" x2="-5.9" y2="0" xlink:href="#linear-gradient-2"/></defs><g id="OBJECTS"><g class="cls-2"><path class="cls-3" d="M685,55.42H-696.8V5a5,5,0,0,1,5-5H680a5,5,0,0,1,5,5Z"/><path class="cls-4" d="M678,7V48.42H-689.8V7H678m2-7H-691.8a5,5,0,0,0-5,5V55.42H685V5a5,5,0,0,0-5-5Z"/></g></g></svg>