<svg xmlns="http://www.w3.org/2000/svg" id="BACKGROUND" viewBox="0 0 45.05 46.07">
    <defs>
        <style>.cls-1{fill:#fff;}</style>
    </defs>
    <path class="cls-1" d="M35,39l-7.74-6.52-1.46-1.22-.39.41-4.49,5c-.32.36-.46.42-.88.18a16.31,16.31,0,0,1-1.57-1,32.12,32.12,0,0,1-8.9-10.12,12,12,0,0,1-1.35-2.87.6.6,0,0,1,.3-.76c1.23-.77,2.45-1.56,3.67-2.34l2.48-1.59-.18-.33q-3-5-5.89-9.91c-.34-.56-.42-.59-1-.33l-.22.1c-.55.33-1.1.67-1.66,1A15.38,15.38,0,0,0,2.51,10.9,7.32,7.32,0,0,0,0,17a14.4,14.4,0,0,0,.92,4A45.47,45.47,0,0,0,9.42,34.94a44.71,44.71,0,0,0,8.35,7.49,23.1,23.1,0,0,0,5.68,3.12,7.48,7.48,0,0,0,5.05.14,9.38,9.38,0,0,0,2.16-1.11,17.3,17.3,0,0,0,3.4-3.33,13.39,13.39,0,0,0,1-1.43C35.37,39.4,35.33,39.32,35,39Z"/>
    <path class="cls-1" d="M45,26a29.38,29.38,0,0,0-2.93-9.91A30.05,30.05,0,0,0,29,2.71,28.57,28.57,0,0,0,21.82,0a1.06,1.06,0,0,0-1.24.51,1.08,1.08,0,0,0,.81,1.61A26.91,26.91,0,0,1,30,5.75a27.88,27.88,0,0,1,12,16,27.09,27.09,0,0,1,.94,4.81,1.07,1.07,0,0,0,1.14,1,1.11,1.11,0,0,0,1-1.14A4.28,4.28,0,0,1,45,26Z"/>
    <path class="cls-1" d="M20.75,6.3a5.77,5.77,0,0,0-1.24-.23,1,1,0,0,0-1,1.39c.17.54.61.69,1.11.8A21.44,21.44,0,0,1,33.89,18.8a21.17,21.17,0,0,1,2.75,8.94,1.07,1.07,0,0,0,1.17,1.09c.64-.06,1-.55,1-1.47a20.4,20.4,0,0,0-.84-4.49Q33.82,9.94,20.75,6.3Z"/>
    <path class="cls-1" d="M17.29,14.27l.38.07A15.4,15.4,0,0,1,30.36,29.05a1.07,1.07,0,0,0,1.06,1.06,1.09,1.09,0,0,0,1.1-1c0-.2,0-.4,0-.6a17.58,17.58,0,0,0-4.87-11.13,17.12,17.12,0,0,0-6.3-4.21,15.26,15.26,0,0,0-3.75-1,1,1,0,0,0-1.2.88A1.07,1.07,0,0,0,17.29,14.27Z"/>
</svg>