<svg xmlns="http://www.w3.org/2000/svg" viewBox="0 0 210.95 175.51"><defs><style>.cls-1{isolation:isolate;}.cls-2{fill:#b3b3b3;}.cls-3{fill:#eddb8b;}.cls-4{fill:#875601;}.cls-5{fill:#f9ed38;}.cls-6{fill:#7c6d43;}.cls-7{fill:#f5911e;}.cls-8{fill:#f9ae3b;opacity:0.3;}.cls-17,.cls-9{fill:#a47c52;}.cls-10,.cls-17{mix-blend-mode:multiply;}.cls-11{fill:#43220a;}.cls-12{fill:#72bfbb;}.cls-13{fill:#a58c2f;}.cls-14{fill:#dd9f80;}.cls-15{fill:#2d2355;}.cls-16{fill:#f0caaf;}.cls-18,.cls-19{fill:#fff;}.cls-18{opacity:0.2;}.cls-19{opacity:0.08;}.cls-20{fill:#aa354b;}</style></defs><g class="cls-1"><g id="BACKGROUND"><ellipse id="_Path_" data-name="&lt;Path&gt;" class="cls-2" cx="107.98" cy="170.99" rx="102.98" ry="4.52"/><path class="cls-3" d="M15.69,153.47S-.73,144.94.85,128c1.77-18.88,16.67-21.64,18.69-33.16C23.66,71.29,7.44,74.07,7.86,46.12c.43-28.85,26.38-57,64.48-41.92,33.89,13.4,41.39,26.93,64.28,27.4s40.43-13.27,60,1.87C210,43.74,218,65.9,202.36,91.6s-3.71,31.79,2.47,43,2.48,18.84,2.48,18.84Z"/><rect class="cls-4" y="35.39" width="155.98" height="45.95"/><path class="cls-5" d="M12.42,58.7V56.8l2.14-.15V48.58h5.17a12.4,12.4,0,0,1,3.8.55,7.63,7.63,0,0,1,2.9,1.69,7.37,7.37,0,0,1,1.86,2.89,12.19,12.19,0,0,1,.65,4.18,12.37,12.37,0,0,1-.65,4.21,7.83,7.83,0,0,1-1.83,3,7.41,7.41,0,0,1-2.83,1.74,10.91,10.91,0,0,1-3.67.58h-5.4V58.7ZM18.69,64h.79a6.82,6.82,0,0,0,2.14-.32,3.9,3.9,0,0,0,1.63-1,4.91,4.91,0,0,0,1.06-1.86,9.34,9.34,0,0,0,.38-2.86,9.09,9.09,0,0,0-.38-2.81,4.62,4.62,0,0,0-1.06-1.81,3.8,3.8,0,0,0-1.63-1A7.48,7.48,0,0,0,19.48,52h-.79v4.64h3.52V58.7H18.69Z"/><path class="cls-5" d="M35.6,67.72a4.41,4.41,0,0,1-1.73-.33,3.7,3.7,0,0,1-1.3-.92,4.06,4.06,0,0,1-.83-1.37,4.67,4.67,0,0,1-.3-1.7,4,4,0,0,1,1.86-3.52,13.49,13.49,0,0,1,6-1.7,2.44,2.44,0,0,0-.55-1.51,2.07,2.07,0,0,0-1.64-.56,4.86,4.86,0,0,0-1.79.34,12.92,12.92,0,0,0-1.9.95l-1.49-2.79a14.44,14.44,0,0,1,2.83-1.36,9.52,9.52,0,0,1,3.13-.52A5.29,5.29,0,0,1,42,54.31a7.13,7.13,0,0,1,1.42,4.88v8.19H40.05l-.28-1.47h-.11a8.91,8.91,0,0,1-1.89,1.31A4.65,4.65,0,0,1,35.6,67.72ZM38,50.89a5.68,5.68,0,0,1-2.09-.35,4,4,0,0,1-1.46-1,4.29,4.29,0,0,1-.89-1.44,6,6,0,0,1-.32-1.78L35.6,46a3.2,3.2,0,0,0,.71,1.6,2.43,2.43,0,0,0,3.37,0,3.2,3.2,0,0,0,.71-1.6l2.36.4a6,6,0,0,1-.32,1.78,4.41,4.41,0,0,1-.87,1.44,4,4,0,0,1-1.47,1A5.75,5.75,0,0,1,38,50.89ZM37,64.44a2.25,2.25,0,0,0,1.21-.32,6.13,6.13,0,0,0,1.07-.89V60.72a7.41,7.41,0,0,0-3,.92,1.74,1.74,0,0,0-.84,1.44,1.22,1.22,0,0,0,.43,1A1.89,1.89,0,0,0,37,64.44Z"/><path class="cls-5" d="M46.92,67.38V53.08h3.37l.28,1.82h.12a10.78,10.78,0,0,1,2-1.52,4.73,4.73,0,0,1,2.5-.65,3.7,3.7,0,0,1,3.31,1.53,7.57,7.57,0,0,1,1,4.24v8.88H55.36V59.05A4,4,0,0,0,55,56.91a1.5,1.5,0,0,0-1.31-.57,2.45,2.45,0,0,0-1.35.36,7.78,7.78,0,0,0-1.24,1v9.66Z"/><path class="cls-5" d="M68,73.46a10.92,10.92,0,0,1-2.29-.22,6.78,6.78,0,0,1-1.86-.64,3.43,3.43,0,0,1-1.25-1.13,2.94,2.94,0,0,1-.45-1.64,3.33,3.33,0,0,1,2-2.89v-.11a3.12,3.12,0,0,1-.93-1,2.67,2.67,0,0,1-.37-1.47,2.76,2.76,0,0,1,.45-1.49,4.27,4.27,0,0,1,1.13-1.19v-.12a4.67,4.67,0,0,1-1.31-1.48,4.25,4.25,0,0,1-.58-2.24A5,5,0,0,1,63,55.63,4.83,4.83,0,0,1,64.29,54a5.33,5.33,0,0,1,1.84-1,7.5,7.5,0,0,1,2.17-.32,6.21,6.21,0,0,1,2.17.35h5.09v3.08H73.34a3,3,0,0,1,.32.81A4.48,4.48,0,0,1,73.79,58a5.12,5.12,0,0,1-.42,2.15,4.22,4.22,0,0,1-1.17,1.49,4.89,4.89,0,0,1-1.75.88,7.4,7.4,0,0,1-2.15.29,5.18,5.18,0,0,1-1.69-.29,1.43,1.43,0,0,0-.39.46,1.36,1.36,0,0,0-.11.61.86.86,0,0,0,.46.81,3.73,3.73,0,0,0,1.65.26h2.25a7.5,7.5,0,0,1,4,.85,3,3,0,0,1,1.36,2.78,4,4,0,0,1-.54,2.06A5,5,0,0,1,73.67,72a8,8,0,0,1-2.44,1.07A12.4,12.4,0,0,1,68,73.46Zm.65-2.65A4.67,4.67,0,0,0,71,70.3a1.45,1.45,0,0,0,.9-1.25.88.88,0,0,0-.55-.89,4.17,4.17,0,0,0-1.59-.23H68.27c-.49,0-.88,0-1.18-.05a5.2,5.2,0,0,1-.79-.13,2,2,0,0,0-.76,1.41,1.32,1.32,0,0,0,.85,1.23A5.07,5.07,0,0,0,68.64,70.81ZM68.3,60.29a1.79,1.79,0,0,0,1.36-.59,2.58,2.58,0,0,0,.55-1.81,2.39,2.39,0,0,0-.55-1.71,1.88,1.88,0,0,0-2.72,0,2.43,2.43,0,0,0-.55,1.73,2.58,2.58,0,0,0,.55,1.81A1.79,1.79,0,0,0,68.3,60.29Z"/><path class="cls-5" d="M83.66,67.38V53.08H87l.28,1.82h.11a11.13,11.13,0,0,1,2-1.52,4.79,4.79,0,0,1,2.51-.65,3.67,3.67,0,0,1,3.3,1.53,7.49,7.49,0,0,1,1,4.24v8.88H92.11V59.05a4,4,0,0,0-.41-2.14,1.5,1.5,0,0,0-1.31-.57A2.43,2.43,0,0,0,89,56.7a7.78,7.78,0,0,0-1.24,1v9.66Z"/><path class="cls-5" d="M99.76,67.38V47.17h4.14v5l-.2,2.56a11.1,11.1,0,0,1,1.83-1.34,4.77,4.77,0,0,1,2.47-.62,3.7,3.7,0,0,1,3.31,1.53,7.57,7.57,0,0,1,1,4.24v8.88H108.2V59.05a4,4,0,0,0-.41-2.14,1.5,1.5,0,0,0-1.31-.57,2.47,2.47,0,0,0-1.35.36,8.23,8.23,0,0,0-1.23,1v9.66Z"/><path class="cls-5" d="M119.34,67.72a4.37,4.37,0,0,1-1.73-.33,3.83,3.83,0,0,1-1.31-.92,4.41,4.41,0,0,1-.83-1.37,4.89,4.89,0,0,1-.29-1.7A4,4,0,0,1,117,59.88a13.49,13.49,0,0,1,6-1.7,2.44,2.44,0,0,0-.55-1.51,2.08,2.08,0,0,0-1.65-.56,4.85,4.85,0,0,0-1.78.34,12.92,12.92,0,0,0-1.9.95l-1.49-2.79a14.44,14.44,0,0,1,2.83-1.36,9.52,9.52,0,0,1,3.13-.52,5.26,5.26,0,0,1,4.12,1.58,7.08,7.08,0,0,1,1.43,4.88v8.19h-3.38l-.28-1.47h-.11a9.17,9.17,0,0,1-1.89,1.31A4.65,4.65,0,0,1,119.34,67.72Zm-2.75-18,3-3.78h4.23l3,3.78-1.57,1.5-3.52-2.66h-.11l-3.52,2.66Zm4.67,24.15a2.22,2.22,0,0,1-1.65-.62,2.13,2.13,0,0,1-.63-1.6,2.16,2.16,0,0,1,.63-1.6,2.49,2.49,0,0,1,3.29,0,2.13,2.13,0,0,1,.64,1.6,2.1,2.1,0,0,1-.64,1.6A2.22,2.22,0,0,1,121.26,73.86Zm-.51-9.42a2.25,2.25,0,0,0,1.21-.32,6.13,6.13,0,0,0,1.07-.89V60.72a7.41,7.41,0,0,0-3,.92,1.74,1.74,0,0,0-.84,1.44,1.22,1.22,0,0,0,.43,1A1.89,1.89,0,0,0,120.75,64.44Z"/><path class="cls-5" d="M130.66,72.68V53.08H134l.28,1.41h.12a7.37,7.37,0,0,1,1.84-1.25,4.69,4.69,0,0,1,2.12-.51,4.81,4.81,0,0,1,4,2,7,7,0,0,1,1.08,2.3,10.61,10.61,0,0,1,.38,3,10,10,0,0,1-.49,3.27A7.68,7.68,0,0,1,142,65.69a5.74,5.74,0,0,1-1.89,1.51,4.82,4.82,0,0,1-2.18.52,4.09,4.09,0,0,1-1.74-.39,5.54,5.54,0,0,1-1.58-1.11l.14,2.28v4.18ZM137,64.26a2.23,2.23,0,0,0,1.83-1,5.3,5.3,0,0,0,.76-3.21c0-2.58-.8-3.87-2.42-3.87a3.35,3.35,0,0,0-2.39,1.3v5.85a3.25,3.25,0,0,0,1.13.72A3.08,3.08,0,0,0,137,64.26Z"/><path class="cls-6" d="M13.23,153.08c42.24.12,100.22.15,139.76,0,1.33,0,5.52,0-1.7-4.61-6.11-3.95-25.43-.4-25.43-.4s4.5-1.8,4.48-4.13a6.33,6.33,0,0,0-3.91-5.34,14.58,14.58,0,0,0-6.85-.9,43.63,43.63,0,0,0-13.8,3.09,4,4,0,1,0-4.65-6.5c3-4,7.56-21.83-6.54-29.68-17.67-9.84-31.1-1.74-34,4.18C59.18,103,52.51,98.57,48.11,97.48c-10-2.48-16.54-1.75-25.89,2.62-3.31,1.55-7.74,6.82-9.94,9.74-3.45,4.56-4,10.63-4.17,16.35-.14,4.29,1.11,22.72,1.21,27"/><path class="cls-7" d="M46.3,148.46c1.79-.67,2.91-1.53,3-2.66.19-2-4.28-2-7.72-1.63,4.57-2.59,8.54-5.95,7-9.31-3.15-7-13.39.72-16.86,5.21,0,0,15.47-19.43,5.84-23C29,113.88,25.41,134.84,25.08,137c.31-2,3-20.9-6.93-20-10.42.94-8.72,32.94-8.72,32.94l-.11,3.32H57.43C59.15,147.89,51.82,147.82,46.3,148.46Z"/><path class="cls-3" d="M23.48,153.66s9.35-4.89,6.74-8.5c-1.65-2.27-4.83,1.6-4.83,1.6s4.18-5.48.56-7.15-5.78,4.58-5.78,4.58,1.4-5.54-1.46-6.32-3.08,5.54-3.08,5.54-3.7-5-5.9-1c-2,3.6,4.07,10.78,4.07,10.78"/><ellipse class="cls-8" cx="99.81" cy="152.37" rx="35.6" ry="2.81"/><path class="cls-9" d="M111.45,130c-2-6.74-.5-14,1.81-20.65a11.52,11.52,0,0,1,2.39-4.42A2.68,2.68,0,0,1,118,104c1.24.25,1.76,1.73,1.9,3,.88,8-4.35,15.24-5.68,23.13"/><path class="cls-9" d="M108.14,131.17c-2.34-4.91-8.48-7.1-10.89-12-.44-.89-.68-2.11.06-2.77a2.32,2.32,0,0,1,2.55.08,10.24,10.24,0,0,1,4.15,4.37,20.83,20.83,0,0,1,1.87,5.8m10.66,10.11a8,8,0,0,1,5-3.46c2-.57,4.08-.7,6.12-1.11,1.86-.37,3.87-1.14,4.68-2.86,1.16-2.48-2.38-4.28-4.41-3.92-2.64.48-3.87,1.39-9.66,6.36.12-2.21,16.13-17.06,9-18.24a4.26,4.26,0,0,0-1.38,0c-5.67.92-11.93,13.91-12.33,15.17a1.22,1.22,0,0,1-.36.62.91.91,0,0,1-1.17-.18,2.61,2.61,0,0,1-.51-1.18,80.38,80.38,0,0,1-1-8.64,16.19,16.19,0,0,0-2.74-8.15,1.88,1.88,0,0,0-.83-.7c-.94-.33-1.75.75-2.07,1.69a16.35,16.35,0,0,0,0,9.55,42.84,42.84,0,0,0,3.85,8.88"/><path class="cls-7" d="M124.71,133.07a9.59,9.59,0,0,0-3.09.52,15,15,0,0,0-30.05.44c0,.38,0,.75.05,1.13a8.32,8.32,0,0,0-15.48,4.23,8.43,8.43,0,0,0,.22,1.89,5.9,5.9,0,0,0-2.9-.75,6,6,0,0,0,0,11.94h51.25a9.7,9.7,0,0,0,0-19.4Z"/><g class="cls-10"><path class="cls-3" d="M166.16,62.89c0,.23,0,.46,0,.68a4.59,4.59,0,0,0-.37,1.79.87.87,0,0,0,.41.83,6,6,0,0,0,0,3.83v-7.4ZM161,77.34a3.59,3.59,0,0,0-.36.28l-.09.07,0,0a13,13,0,0,0-2.66,3.61,50.81,50.81,0,0,0-2.85,9l-.75-.76-9.7-14.69a30,30,0,1,0-4.54,3l1.34,2a4.69,4.69,0,0,0-.12,1.31,5.27,5.27,0,0,0-.08.84,1.43,1.43,0,0,0,.09.61c.25.45,1.3,1,1.69,1.27a4.15,4.15,0,0,1,.75,1c-.08.17-.11.3,0,.38.34.32,4.73,6.59,8.25,10.59l7.75,11.72,3.43,5.2c-.05,2.55-.11,5.38-.11,7.45-.18,4.11-.42,10.31-.6,14a5.22,5.22,0,0,0,3.86-5.12V74.91A12.67,12.67,0,0,0,161,77.34Zm-34.9-2a23.78,23.78,0,1,1,23.77-23.77A23.77,23.77,0,0,1,126.06,75.3Zm37.32,28.16-4.65-7a72.09,72.09,0,0,0,3.8-6.44,23.7,23.7,0,0,0,.76,3C163.71,94.19,163.51,100.88,163.38,103.46Z"/></g><path d="M164.72,168.35a6,6,0,0,1-2.46,1.87c-1.32.58-4.1.86-2.55,1.38a9.28,9.28,0,0,0,4.26.05,19.93,19.93,0,0,1,2.88-.17c1.42,0,1.43-.1,1.24-1.7C167.83,167.57,165.36,167.11,164.72,168.35Z"/><path d="M190.48,167.55c-.08.45.55,1.8-.58,2.79s-3.69,2-2,2.07a9.85,9.85,0,0,0,4.2-.79c.86-.42.17-1.1,1.24-1.43,1.42-.45,1.13-1.49.39-2.13C192.8,165.94,190.73,166.11,190.48,167.55Z"/><path class="cls-11" d="M185.06,122.64s3.39-10-6.22-18.17a36.75,36.75,0,0,1-9.28,2.3,22.74,22.74,0,0,1-4.9-.1s-.27,8.85-.28,13.62Z"/><path class="cls-11" d="M165.69,112.13c-.76.28-1,2.57-1.13,4.13s-.7,17.78-.93,20.71a10.26,10.26,0,0,0,0,1.36,4.77,4.77,0,0,0,0,.86c.2,4.76,1.21,19.82,1.11,29a1.78,1.78,0,0,0,.74.82,3.81,3.81,0,0,0,2.55-.16c.64-7.25,5.35-22.25,2.37-29.47a1.56,1.56,0,0,1-.06-1c1.43-4.56,4.25-13.39,4.84-16.88C176.15,115.64,169.47,110.7,165.69,112.13Z"/><path class="cls-11" d="M186.22,140.61a1.4,1.4,0,0,1-.39-.89c-.24-5-.16-16.19-.94-19.72-1.28-5.81-8-8.22-10.94-5.48-.6.55-.73,3.62-.25,5.12s4.33,18.06,5.22,20.86a9.39,9.39,0,0,0,.42,1.08,4.69,4.69,0,0,0,.22.81c1.59,4.49,8.16,16.94,10.77,25.77a1,1,0,0,0,.77.39,5.58,5.58,0,0,0,2.81-.8C192.38,160.6,192.1,147,186.22,140.61Z"/><path class="cls-12" d="M159.26,81.32c-1.61,3.1-3.34,11.33-3.74,12.59,0,0,4.22,1,3,4.73a56.65,56.65,0,0,0,5.81-9.34c1-1.79,2.33-1.21,2.33-1.21L162.4,77.33A11.28,11.28,0,0,0,159.26,81.32Z"/><path class="cls-12" d="M159.26,81.32c-1.61,3.1-3.34,11.33-3.74,12.59,0,0,4.22,1,3,4.73a56.65,56.65,0,0,0,5.81-9.34c1-1.79,2.33-1.21,2.33-1.21L162.4,77.33A11.28,11.28,0,0,0,159.26,81.32Z"/><path class="cls-12" d="M147.71,82.49s-3.13,2.34-2.64,2.82S154.74,99,157.16,99.18c1,.07,2.3-1.12,2.57-2.39.1-.47.17-1,.24-1.47C159,91.51,147.71,82.49,147.71,82.49Z"/><path class="cls-12" d="M147.71,82.49s-3.13,2.34-2.64,2.82S154.74,99,157.16,99.18c1,.07,2.3-1.12,2.57-2.39.1-.47.17-1,.24-1.47C159,91.51,147.71,82.49,147.71,82.49Z"/><path class="cls-13" d="M159.26,81.32c-1.61,3.1-3.34,11.33-3.74,12.59,0,0,4.22,1,3,4.73a56.65,56.65,0,0,0,5.81-9.34c1-1.79,2.33-1.21,2.33-1.21L162.4,77.33A11.28,11.28,0,0,0,159.26,81.32Z"/><path class="cls-13" d="M147.71,82.49s-3.13,2.34-2.64,2.82S154.74,99,157.16,99.18c1,.07,2.3-1.12,2.57-2.39.1-.47.17-1,.24-1.47C159,91.51,147.71,82.49,147.71,82.49Z"/><path class="cls-14" d="M142.86,79.58a4.9,4.9,0,0,0-.22,1.66l.67-.83Z"/><path class="cls-15" d="M169.82,58c-.85.24-1.3,1.34-1.58,2.08a11.89,11.89,0,0,0-.64,2.82,3.9,3.9,0,0,0,.14,2,4.83,4.83,0,0,0,.55.86,2,2,0,0,0,.4.42.61.61,0,0,0,.55.09c.27-.1.37-.41.45-.68a18.06,18.06,0,0,1,2-5.12"/><path class="cls-16" d="M168.88,63.62c0-.57-.61-.94-1.13-.35a3.53,3.53,0,0,0-.56,2.08c0,.82.6,1,1.12,1.09"/><path class="cls-13" d="M162,77.69a12.72,12.72,0,0,1,8.67-3c3.06.1,11.38.6,12.3,2.64.48,1,1,11.74.29,15.43-.52,2.77-1.86,9.64-1.86,11.3s.89,2.37.48,2.85c-.93,1.08-7.3,1.53-10.28,1.53-2.66,0-7.19-.71-7.42-1.56-.34-1.27.52-1.22.64-2.54s.45-9.93,0-11.34c-.88-2.55-1.31-6.69-2-8.57C162.19,83,160.73,78.71,162,77.69Z"/><path class="cls-17" d="M180.88,86.34c.31.66,2.47,4.12,2.47,4.12l.08.41a15.2,15.2,0,0,1-.22,1.85c-.52,2.77-1.86,9.64-1.86,11.3s.86,2.34.48,2.85c-.74,1-12.73,3.23-12.14.45.05-.25,10.07-7.89,10.12-8.15.46-2.19.86-3.77,1.07-5.37C181.36,90,180.56,85.68,180.88,86.34Z"/><path class="cls-16" d="M169.6,71a32.84,32.84,0,0,1-.17,3.62,5.62,5.62,0,0,1-.82.47s.49,3,1.24,2.8,5.76-2.76,5.76-2.76-.71-.28-.71-.57.68-5.75.68-5.75"/><path class="cls-16" d="M173.08,58.37c-.73.19-2.65-.2-3.18.59a18.44,18.44,0,0,0-1.2,3.25c-.39,1-.65,2.18-.94,3.27-.37,1.42-1,4,.4,5.2a1.82,1.82,0,0,0,1.07.55c.65.11,1.31.25,2,.37a6.63,6.63,0,0,0,3.16.06c1.35-.43,2.09-2.29,2.44-3.55l2-7.23Z"/><path class="cls-9" d="M169.48,79.24s-.29,13.58-.85,21.83l2,2.76,1.37-3.45a104.83,104.83,0,0,0-1.3-21Z"/><path class="cls-9" d="M169,78.05l0,.19a3.35,3.35,0,0,0,.41,1h0l1.22.1s.84-.44,1-.91-1.37-1.24-1.37-1.24l-.18.07A2.82,2.82,0,0,0,169,78Z"/><path class="cls-17" d="M175,73.72a5.12,5.12,0,0,1,1.4,1.41,14.46,14.46,0,0,1-3.62,5.17,7.18,7.18,0,0,0-2.49-3.11S174.55,76.43,175,73.72Z"/><path class="cls-17" d="M170.28,77.19a5.3,5.3,0,0,0-2.44,2.32,11.76,11.76,0,0,1,.33-4.3s1-1.28,1.35-1.31A6.73,6.73,0,0,0,170.28,77.19Z"/><path class="cls-14" d="M169.08,107.32a4.52,4.52,0,0,0-2.93,1.64c-.07.07-.15.16-.13.25s.16.18.28.2c.71.11.82-.34,1.48-.61l1.33-.58"/><path class="cls-11" d="M176.38,128.6a2.73,2.73,0,0,1-2.27-1.22l-32.8-49.65a2.72,2.72,0,0,1,4.53-3l32.81,49.65a2.72,2.72,0,0,1-2.27,4.22Z"/><path d="M178.59,127.46a2.59,2.59,0,0,1-.71.69,2.66,2.66,0,0,1-1.5.45,2.7,2.7,0,0,1-2.26-1.22L141.31,77.73a2.72,2.72,0,0,1,.77-3.77,2.16,2.16,0,0,1,.48-.24,2.69,2.69,0,0,0-.07,3.08l32.81,49.65a2.7,2.7,0,0,0,2.27,1.22A2.62,2.62,0,0,0,178.59,127.46Z"/><circle class="cls-18" cx="127.28" cy="51.75" r="25.18" transform="translate(-10.1 54.15) rotate(-23.13)"/><path class="cls-19" d="M146.85,41.84a21.94,21.94,0,0,0-34.59,25.89,21.94,21.94,0,1,1,34.59-25.89Z"/><path class="cls-20" d="M127.29,79.92A28.4,28.4,0,1,1,151,35.87h0a28.39,28.39,0,0,1-23.66,44.05Zm-.08-52.28a23.87,23.87,0,1,0,20,10.71h0A23.91,23.91,0,0,0,127.21,27.64Z"/><path class="cls-11" d="M127.3,81.46A29.94,29.94,0,1,1,152.24,35h0A29.94,29.94,0,0,1,127.3,81.46Zm-.09-55.12a25.2,25.2,0,1,0,21.06,11.3h0A25.18,25.18,0,0,0,127.21,26.34Z"/><path class="cls-16" d="M173.35,106.12c-1.17.25-4.31,1.18-4.64,1.34a13.6,13.6,0,0,0-2,1.48c-1.18,1.18-.58,1.73-1,3.34a.72.72,0,0,0,0,.25.27.27,0,0,0,.45.16c.13.2.49.08.67-.15,0,.16.22.26.58.06.2-.11.16-.1.61-.5a4.64,4.64,0,0,1,1.28-.77,10,10,0,0,0,1.24-.57c.48-.32,1.33-.39,1.75-1.75a1.39,1.39,0,0,1,.65-.66l1.92-1.2"/><path class="cls-13" d="M180.59,84.05c.5,1.77,2.57,14.11,2.57,14.11l-11.69,8.47,1,2.55s14-4.69,15.09-7.91,1.06-17.71-2.83-22.8A8.91,8.91,0,0,0,181,76"/><path class="cls-14" d="M168.59,110.56a10.55,10.55,0,0,0-.9.86,5,5,0,0,1-.86.93,6.11,6.11,0,0,1,.72-1A3.3,3.3,0,0,1,168.59,110.56Z"/><path class="cls-14" d="M168,109.79a3,3,0,0,0-.51.6,5.15,5.15,0,0,0-.4.67,5.85,5.85,0,0,1-.82,1.38c.18-.51.43-1,.65-1.46a2.88,2.88,0,0,1,.47-.67A2,2,0,0,1,168,109.79Z"/><path class="cls-14" d="M167.21,109.16a7.21,7.21,0,0,1-.47.62,2.49,2.49,0,0,0-.34.67c-.19.47-.36,1-.55,1.44a4.2,4.2,0,0,1,.38-1.52,2.31,2.31,0,0,1,.43-.67C166.83,109.51,167,109.36,167.21,109.16Z"/><path class="cls-16" d="M143.89,82.42s.6-1.55.79-2,.38-.77.49-.68.16.25.09.56-.41,1.33-.41,1.33"/><path d="M177.53,66.85c-.45-.26-.81-.55-1.1-.11-.16.24-.26.56-.53.64a.53.53,0,0,1-.61-.44,1.56,1.56,0,0,1,.1-.82l.55-1.78a2.68,2.68,0,0,0,.13-1.78,2.07,2.07,0,0,0-.56-.72,6,6,0,0,0-2.73-1.16c-1-.21-2-.31-2.94-.61a3.06,3.06,0,0,1-1.11-.56,2.42,2.42,0,0,1-.8-1.81,3.82,3.82,0,0,1,.58-1.93,3.08,3.08,0,0,0,.29.67,2.55,2.55,0,0,1,.53-.84c.29,1.59,7,1.06,8.56,1.76,1.08.49,2,.81,2,2.57a.63.63,0,0,0,.21.28,4.89,4.89,0,0,1,1.5,3.55c.14,1.95-1,4.07-2.11,5.68a3.54,3.54,0,0,1-.82,1,2.22,2.22,0,0,1-1.56.36c-.48-.1-1.44,0-1.45-.55s.75-1,1-1.26"/><path class="cls-16" d="M175.78,68.7a.74.74,0,0,0,.12.58.75.75,0,0,0,.8.12A2.12,2.12,0,0,0,178,67.76c.16-.85-.29-1.69-1.06-1.47a1.12,1.12,0,0,0-.73,1.11"/><path class="cls-14" d="M169.61,71.3l2.14.39a3,3,0,0,1-2.17.81"/><path class="cls-16" d="M145.09,84.93a4.15,4.15,0,0,0-.75-1c-.38-.32-1.44-.82-1.68-1.27s0-2.77.7-3,1.42,1.54,1.73,2.21a2.68,2.68,0,0,1,.07,1.59l.49.74S145.31,84.63,145.09,84.93Z"/><path class="cls-16" d="M142.86,80.36s.47-1.14.65-1.55.38-.77.5-.68a.7.7,0,0,1,.12.64c-.07.32-.42,1.34-.42,1.34"/><path class="cls-16" d="M143.17,81.09s.73-1.86,1-2.35.45-.93.6-.82.19.3.11.68-.51,1.61-.51,1.61"/><path class="cls-16" d="M143.66,81.6s.61-1.54.79-1.95.38-.77.5-.68.15.25.09.57-.42,1.33-.42,1.33"/></g></g></svg>