<svg id="BACKGROUND" xmlns="http://www.w3.org/2000/svg" viewBox="0 0 251.29 216.6"><defs><style>.cls-1{fill:#b3b3b3;}.cls-2{fill:#f5911e;}.cls-15,.cls-3,.cls-4,.cls-6,.cls-7{fill:none;stroke-miterlimit:10;}.cls-3,.cls-4,.cls-6,.cls-7{stroke:#fff9f7;}.cls-3{stroke-width:0.27px;}.cls-4{stroke-width:0.24px;}.cls-5{fill:#916217;}.cls-6{stroke-width:0.18px;}.cls-7{stroke-width:0.15px;}.cls-8{fill:#a58c2f;}.cls-9{fill:#7c6d41;}.cls-10{fill:#f7f2b8;}.cls-11{fill:#333;}.cls-12{fill:#fff;}.cls-13{fill:#eddb8b;}.cls-14{fill:#f9ed38;}.cls-15{stroke:#453ae9;stroke-width:0.25px;}.cls-16{fill:#ffb2b6;}.cls-17{fill:#43220a;}.cls-18{fill:#a47c52;}</style></defs><path class="cls-1" d="M235.16,185.85c-1.42-5-34.68.31-76.83,5.7s-76.07,11.6-75.78,13.85,27,3.42,69.13-2S235.79,188,235.16,185.85Z"/><path class="cls-1" d="M218.42,208.81c-.57-4.81-20.5-2.7-32.3-2.16-17.75.82-32.06,3.1-32,5.11s11.28,5.54,29,4.72S218.66,210.79,218.42,208.81Z"/><path class="cls-2" d="M98.73,188.34c.35,4.4-5,7.47-9.31,6.62s-7.67-4.2-10.74-7.37-6.45-6.48-10.8-7.24c-7.15-1.25-13.87,4.86-21.11,4.33s-12.13-7.15-16.32-13-9.87-12.17-17-11.58c-2.63.22-5.12,1.38-7.75,1.46S0,160,0,157.33s2.81-4.1,5.2-5.08l21-8.61c7.81-3.2,16.72-6.4,24.41-2.92,6.72,3,10.77,10.54,17.73,12.95,9.15,3.16,19.76-3.67,28.65.15,6.69,2.88,9.76,11.09,9,18.33s-4.57,13.77-8.27,20"/><path class="cls-3" d="M.82,158.09c10-5.52,26.88-4.83,37.5-.66,6.65,2.62,12.67,7.09,19.73,8.23,6.12,1,12.34-.65,18.53-.53,10,.19,20.54,7.38,26.46,15.5"/><path class="cls-3" d="M60.56,165.8s-4.84-22.17-14.73-26.34"/><path class="cls-3" d="M23.71,154.37s-1.07,5.42-10.3,5.72"/><path class="cls-3" d="M87.15,168s1.22-10.55-7-13.57"/><path class="cls-3" d="M95.68,173S89.2,183.69,76,184.76"/><path class="cls-3" d="M38.51,139.35s8.22,5.54,12.63,24.51"/><path class="cls-3" d="M58.05,165.66s-9.87,13-21.35,13.31"/><path class="cls-3" d="M24.12,164.28s12.17-.58,15.69-5.88"/><path class="cls-3" d="M9.09,150.58s2.31-1.22,6.08,3.26"/><path class="cls-3" d="M22.32,145.31s3.89,2,5.77,9.13"/><path class="cls-3" d="M67.88,180.35s17.86-1.26,16.34-13.79"/><path class="cls-3" d="M68.35,153.67s5.26,4.69,2.38,11"/><path class="cls-3" d="M95,153.35s6.1,11.53,3.36,21.06"/><path class="cls-2" d="M184.56,73.09c-3.55-1.56-3.72-7-1.27-10s6.42-4.19,10.14-5.26,7.69-2.31,10.08-5.35c3.93-5,2-12.74,5.38-18.13s10.56-6.43,16.82-7.24,13.51-2.59,16-8.39c.92-2.12,1.05-4.53,2.08-6.6s3.58-3.74,5.61-2.63,2,3.88,1.78,6.13l-2,19.81c-.76,7.37-2,15.59-7.85,20.1-5.13,3.94-12.61,4-17.36,8.36-6.23,5.77-5.34,16.8-12,22.09-5,4-12.61,3-17.89-.64s-8.76-9.24-12.08-14.7"/><path class="cls-4" d="M248.49,9.86c.13,10-7.39,22.8-15,29.28C228.69,43.21,222.74,46,218.94,51c-3.3,4.32-4.61,9.82-7.26,14.56-4.31,7.69-14.21,12.83-22.94,14"/><path class="cls-4" d="M217.79,52.89s19.16,5.43,26.48-.49"/><path class="cls-4" d="M241.89,29.11s-3.75-3.07-.16-10.34"/><path class="cls-4" d="M205.13,72.57s7.65,5.31,13.38.21"/><path class="cls-4" d="M197.71,77.09s-5.61-9.45-1-20.11"/><path class="cls-4" d="M247.38,46.78s-7.68,4.07-24.19-.38"/><path class="cls-4" d="M218.94,51s-6-13-1.46-22"/><path class="cls-4" d="M234.05,25.33S229.47,35,232.11,39.9"/><path class="cls-4" d="M250.87,19.37s0,2.29-5,3.35"/><path class="cls-4" d="M249.47,31.79s-3.18,2.16-9.45.68"/><path class="cls-4" d="M203.51,52.53s-6.42,14.34,3.9,18.35"/><path class="cls-4" d="M224,63.94s-5.8,2.12-9.49-2.72"/><path class="cls-4" d="M213.15,84.72s-11.44-.06-17.68-6.12"/><path class="cls-5" d="M86.86,167.86c-1.27,2.78-5.27,2.71-7.41.63s-2.89-5.3-3.55-8.32-1.46-6.24-3.63-8.27c-3.59-3.34-9.38-2.08-13.25-5s-4.41-8.69-4.8-13.73-1.47-10.9-5.68-13.14c-1.54-.81-3.32-1-4.82-1.92s-2.65-3-1.76-4.58,2.94-1.46,4.6-1.19l14.61,2.41c5.44.89,11.48,2.19,14.63,7.06,2.74,4.26,2.51,10.24,5.61,14.21,4.06,5.21,12.26,4.93,16,10.45,2.79,4.15,1.78,10.2-1.08,14.28s-7.14,6.64-11.29,9.09"/><path class="cls-6" d="M42.17,114.26c7.42.29,16.64,6.8,21.19,13.16,2.85,4,4.72,8.85,8.29,12.08,3.1,2.81,7.12,4.07,10.55,6.38,5.55,3.74,9,11.87,9.63,18.9"/><path class="cls-6" d="M53.87,131.22s6.68,3.58,12.52,1.19"/><path class="cls-6" d="M81,145.55s-17.63,3.24-24-.91"/><path class="cls-6" d="M56.2,120.29s-2.39,2.88-7.66-.28"/><path class="cls-6" d="M87.17,151.4s4.19-5.92.6-10.7"/><path class="cls-6" d="M90.27,157.5a16.32,16.32,0,0,1-14.93,0"/><path class="cls-6" d="M69.48,116.59s2.76,6.31-1.09,19.33"/><path class="cls-6" d="M49.29,112.73s1.7.1,2.32,4.16"/><path class="cls-6" d="M58.44,114.33s1.5,2.64.19,7.59"/><path class="cls-6" d="M72.27,151.9s10.4,5.7,13.72-2.4"/><path class="cls-6" d="M81.41,136s1.37,4.73-2.34,7.49"/><path class="cls-6" d="M96.44,145.45s-.43,9.15-5.13,13.9"/><path class="cls-5" d="M185.92,51.63c-2.57-.19-3.69-3.39-2.67-5.7s3.36-3.85,5.56-5.26,4.53-3,5.5-5.31c1.6-3.83-1.1-8,.09-12s5.61-6.05,9.5-7.84,8.22-4.37,8.76-8.37c.19-1.46-.17-2.93.11-4.39s1.61-3,3.12-2.74,2,1.9,2.29,3.3q1.19,6.15,2.38,12.31c.89,4.57,1.64,9.75-1.31,13.68-2.57,3.43-7.39,5-9.63,8.62-3,4.76-.32,11.19-3.61,15.75-2.48,3.43-7.58,4.4-11.65,3.34s-7.37-3.72-10.54-6.3"/><path class="cls-7" d="M215.35.41c2,6-.51,15.21-4.22,20.69-2.32,3.43-5.64,6.35-7.16,10.13-1.32,3.28-1.14,6.85-2,10.24-1.35,5.51-6.77,10.65-12.17,13.2"/><path class="cls-7" d="M205.33,14.68S204.44,21,208.06,25"/><path class="cls-7" d="M201.9,40.39s-7.75-13-6.31-19.31"/><path class="cls-7" d="M214.69,13.32s-3-1.05-2-6.16"/><path class="cls-7" d="M199.09,47s5.92,1.59,8.67-2.66"/><path class="cls-7" d="M195.15,51.29a13.83,13.83,0,0,1-4.38-11.85"/><path class="cls-7" d="M221.52,22.78s-4.19,4-15.66,4.81"/><path class="cls-7" d="M218.66,5.62S219.08,7,216,8.68"/><path class="cls-8" d="M220.08,13.35s-1.66,2-6,2.38"/><path class="cls-7" d="M194.31,35.36s-1.46,9.93,5.93,10.19"/><path class="cls-7" d="M209.62,37.94s-3.35,2.49-6.63.35"/><path class="cls-7" d="M206.53,52.65s-7.39,2.35-12.54,0"/><path class="cls-9" d="M87.57,199.15,64.67,28.68a5.55,5.55,0,0,1,4.75-6.23l118.84-16a5.53,5.53,0,0,1,6.22,4.75l22.9,170.48a5.53,5.53,0,0,1-4.75,6.22l-118.83,16A5.55,5.55,0,0,1,87.57,199.15Z"/><rect class="cls-9" x="50.44" y="40.86" width="181.18" height="128.67" rx="3.06" transform="translate(226.52 -48.58) rotate(82.35)"/><rect class="cls-10" x="88.95" y="25.51" width="104.15" height="159.37" transform="translate(-12.75 19.71) rotate(-7.65)"/><path class="cls-11" d="M127.51,24.13a1.94,1.94,0,0,1-2.25-1.54,2,2,0,0,1,4-.53A1.92,1.92,0,0,1,127.51,24.13Z"/><rect class="cls-5" x="106.73" y="71.3" width="62.39" height="6.59" rx="2.23" transform="translate(-8.97 19.73) rotate(-7.93)"/><rect class="cls-5" x="108.35" y="82.97" width="62.39" height="6.59" rx="2.23" transform="translate(-10.56 20.07) rotate(-7.93)"/><rect class="cls-5" x="109.98" y="94.64" width="62.39" height="6.59" rx="2.23" transform="translate(-12.16 20.4) rotate(-7.93)"/><rect class="cls-5" x="111.6" y="106.32" width="62.39" height="6.59" rx="2.23" transform="matrix(0.99, -0.14, 0.14, 0.99, -13.75, 20.74)"/><rect class="cls-5" x="113.18" y="117.64" width="62.39" height="6.59" rx="2.23" transform="translate(-15.3 21.06) rotate(-7.93)"/><path class="cls-12" d="M110.14,79.55l-.24-1.73.22,0,.78,1,.23.33h0a2.56,2.56,0,0,0,0-.27c0-.1,0-.19,0-.28l-.12-.89.21,0,.24,1.73-.23,0-.78-1-.23-.33h0a2.38,2.38,0,0,0,0,.26,2.33,2.33,0,0,1,0,.28l.12.9Z"/><path class="cls-12" d="M112.31,79.28a.4.4,0,0,1-.27-.06.38.38,0,0,1,0-.6,1.38,1.38,0,0,1,.58-.24l0-.12a.21.21,0,0,0-.06-.1l-.09-.06a.27.27,0,0,0-.13,0,.68.68,0,0,0-.2.07,1.11,1.11,0,0,0-.16.12l-.11-.14c.06,0,.12-.09.21-.14a.62.62,0,0,1,.27-.09.41.41,0,0,1,.36.09.67.67,0,0,1,.16.37l.11.79-.18,0,0-.15h0a.93.93,0,0,1-.18.16A.49.49,0,0,1,112.31,79.28Zm0-.19a.43.43,0,0,0,.17-.06l.16-.16-.05-.35-.26.09-.17.09a.41.41,0,0,0-.09.1.25.25,0,0,0,0,.12.2.2,0,0,0,.09.15A.27.27,0,0,0,112.35,79.09Z"/><path class="cls-12" d="M113.54,79.07l-.18-1.28.18,0,0,.18h0a.93.93,0,0,1,.16-.18.4.4,0,0,1,.21-.09.36.36,0,0,1,.24,0,.46.46,0,0,1,.15.16.85.85,0,0,1,.17-.2.35.35,0,0,1,.21-.1.33.33,0,0,1,.31.09.55.55,0,0,1,.15.36l.11.81-.21,0-.11-.78a.55.55,0,0,0-.09-.26.18.18,0,0,0-.19,0q-.15,0-.3.24l.13.92-.21,0-.11-.79a.45.45,0,0,0-.1-.25.2.2,0,0,0-.19-.06.48.48,0,0,0-.29.25l.12.92Z"/><path class="cls-12" d="M116.44,78.7a.7.7,0,0,1-.25,0,.61.61,0,0,1-.21-.11.65.65,0,0,1-.24-.46.71.71,0,0,1,0-.29.7.7,0,0,1,.1-.23.52.52,0,0,1,.17-.16.5.5,0,0,1,.2-.08.57.57,0,0,1,.23,0,.61.61,0,0,1,.18.09.57.57,0,0,1,.12.18.84.84,0,0,1,.07.24V78l-.86.12a.43.43,0,0,0,.17.3.38.38,0,0,0,.31.08.48.48,0,0,0,.17,0,.42.42,0,0,0,.14-.09l.09.13-.17.12A.69.69,0,0,1,116.44,78.7Zm-.51-.72.69-.09a.46.46,0,0,0-.13-.29.3.3,0,0,0-.25-.07l-.12,0a.28.28,0,0,0-.1.09.61.61,0,0,0-.07.14A.88.88,0,0,0,115.93,78Z"/><path class="cls-12" d="M111.74,91.07l-.24-1.72,1-.14,0,.18-.77.11.07.54.66-.09,0,.19-.65.09.08.63.81-.11,0,.18Z"/><path class="cls-12" d="M113.3,90.86l-.17-1.28.18,0,0,.18h0a.93.93,0,0,1,.16-.18.4.4,0,0,1,.2-.09.36.36,0,0,1,.24,0,.3.3,0,0,1,.15.16,2,2,0,0,1,.18-.21.51.51,0,0,1,.21-.1.4.4,0,0,1,.31.09.67.67,0,0,1,.15.36l.11.81-.21,0-.11-.78a.42.42,0,0,0-.1-.25.2.2,0,0,0-.19-.06c-.09,0-.19.09-.29.24l.13.93-.22,0L114,90a.49.49,0,0,0-.09-.26.24.24,0,0,0-.19,0q-.15,0-.3.24l.13.93Z"/><path class="cls-12" d="M116,90.52a.45.45,0,0,1-.28-.06.37.37,0,0,1-.14-.25.36.36,0,0,1,.14-.35,1.52,1.52,0,0,1,.58-.24l0-.12a.21.21,0,0,0-.06-.1l-.09-.06H116a.59.59,0,0,0-.2.07l-.16.12-.11-.14.2-.14a.71.71,0,0,1,.28-.09.41.41,0,0,1,.36.09.67.67,0,0,1,.16.37l.11.79-.18,0,0-.15h0a.69.69,0,0,1-.18.16A.43.43,0,0,1,116,90.52Zm0-.19a.49.49,0,0,0,.17-.06,1.2,1.2,0,0,0,.16-.16l0-.35-.27.09-.16.09a.41.41,0,0,0-.09.1.25.25,0,0,0,0,.12.22.22,0,0,0,.08.15A.25.25,0,0,0,116,90.33Z"/><path class="cls-12" d="M117.1,88.76a.2.2,0,0,1-.11,0,.15.15,0,0,1-.06-.09.2.2,0,0,1,0-.11.14.14,0,0,1,.1,0,.16.16,0,0,1,.12,0,.11.11,0,0,1,0,.1.12.12,0,0,1,0,.1A.2.2,0,0,1,117.1,88.76Zm.11,1.55L117,89l.22,0,.17,1.27Z"/><path class="cls-12" d="M118.29,90.2a.22.22,0,0,1-.19,0,.4.4,0,0,1-.08-.21l-.23-1.62.22,0,.22,1.63a.34.34,0,0,0,0,.08h.09l.06.16,0,0Z"/><path class="cls-12" d="M119.94,90a.45.45,0,0,1-.28-.06.4.4,0,0,1,0-.61,1.54,1.54,0,0,1,.58-.23s0-.08,0-.12a.21.21,0,0,0-.06-.1.15.15,0,0,0-.09-.06.27.27,0,0,0-.13,0,.68.68,0,0,0-.2.07l-.16.12-.11-.14.2-.14a.71.71,0,0,1,.28-.09.41.41,0,0,1,.36.09.67.67,0,0,1,.16.37l.11.79-.18,0,0-.15h0a.93.93,0,0,1-.18.16A.54.54,0,0,1,119.94,90Zm0-.19a.49.49,0,0,0,.17-.06,1.2,1.2,0,0,0,.16-.16l0-.35-.27.09-.16.09a.41.41,0,0,0-.09.1.25.25,0,0,0,0,.12.22.22,0,0,0,.08.15A.32.32,0,0,0,120,89.78Z"/><path class="cls-12" d="M121.61,89.73a.44.44,0,0,1-.41-.12.76.76,0,0,1-.21-.47.71.71,0,0,1,0-.29.6.6,0,0,1,.1-.23.61.61,0,0,1,.16-.16.48.48,0,0,1,.2-.07.44.44,0,0,1,.2,0l.18.08,0-.21-.07-.49.22,0,.26,1.87-.18,0,0-.14h0a.58.58,0,0,1-.16.15A.5.5,0,0,1,121.61,89.73Zm0-.19a.28.28,0,0,0,.16-.06.56.56,0,0,0,.14-.16l-.09-.66a.56.56,0,0,0-.17-.09h-.16a.35.35,0,0,0-.14.06.4.4,0,0,0-.1.12.38.38,0,0,0-.06.16.67.67,0,0,0,0,.2.6.6,0,0,0,.14.35A.3.3,0,0,0,121.63,89.54Z"/><path class="cls-12" d="M122.83,89.53l-.18-1.28.18,0,0,.23h0a.54.54,0,0,1,.13-.22.35.35,0,0,1,.19-.1h.14v.19h-.13a.33.33,0,0,0-.16.09.58.58,0,0,0-.12.25l.11.82Z"/><path class="cls-12" d="M124.43,89.34a.64.64,0,0,1-.24,0,.65.65,0,0,1-.22-.11.65.65,0,0,1-.24-.46.56.56,0,0,1,0-.29.54.54,0,0,1,.1-.23.54.54,0,0,1,.37-.24.79.79,0,0,1,.22,0,.52.52,0,0,1,.18.1.57.57,0,0,1,.12.18.61.61,0,0,1,.07.24s0,0,0,.07v.06l-.86.12a.45.45,0,0,0,.17.3.39.39,0,0,0,.32.08.43.43,0,0,0,.16,0,.67.67,0,0,0,.14-.09l.1.13-.18.12A.69.69,0,0,1,124.43,89.34Zm-.51-.72.69-.09a.46.46,0,0,0-.13-.29.28.28,0,0,0-.24-.07.29.29,0,0,0-.13,0,.28.28,0,0,0-.1.09.46.46,0,0,0-.07.14A.88.88,0,0,0,123.92,88.62Z"/><path class="cls-12" d="M125.75,89.16a.82.82,0,0,1-.27,0,.92.92,0,0,1-.23-.09l.09-.16.19.08a.47.47,0,0,0,.21,0,.31.31,0,0,0,.18-.09.19.19,0,0,0,0-.15.12.12,0,0,0,0-.08l-.07-.06-.1,0-.12,0-.14,0-.13-.06s-.08,0-.1-.09a.3.3,0,0,1-.06-.14.61.61,0,0,1,0-.14.54.54,0,0,1,.07-.13l.13-.1.18,0a.59.59,0,0,1,.23,0l.19.08-.09.15a.35.35,0,0,0-.14-.06.29.29,0,0,0-.16,0,.25.25,0,0,0-.17.08.15.15,0,0,0,0,.14.09.09,0,0,0,0,.07l.07,0,.1,0,.11,0,.15,0a.52.52,0,0,1,.13.06.24.24,0,0,1,.11.09.34.34,0,0,1,.06.15.76.76,0,0,1,0,.15.5.5,0,0,1-.08.14l-.13.1A.59.59,0,0,1,125.75,89.16Z"/><path class="cls-12" d="M127.05,89a.82.82,0,0,1-.27,0,.67.67,0,0,1-.23-.1l.09-.15.19.08a.47.47,0,0,0,.21,0,.31.31,0,0,0,.18-.09.19.19,0,0,0,0-.15.12.12,0,0,0,0-.08l-.07-.06-.1,0-.12,0-.14,0-.13,0a.45.45,0,0,1-.1-.09.3.3,0,0,1-.06-.14.61.61,0,0,1,0-.14.54.54,0,0,1,.07-.13l.13-.1.18-.05a.59.59,0,0,1,.23,0l.19.08-.09.15a.35.35,0,0,0-.14-.06.29.29,0,0,0-.16,0,.25.25,0,0,0-.17.08.14.14,0,0,0,0,.13.11.11,0,0,0,0,.08l.07,0,.1,0,.11,0,.15,0a.52.52,0,0,1,.13.06.31.31,0,0,1,.11.09.34.34,0,0,1,.06.15.76.76,0,0,1,0,.15.35.35,0,0,1-.08.13.47.47,0,0,1-.13.11A.59.59,0,0,1,127.05,89Z"/><path class="cls-12" d="M114,102.54a.6.6,0,0,1-.3,0,.59.59,0,0,1-.27-.14.65.65,0,0,1-.19-.26,1,1,0,0,1-.11-.37,1.21,1.21,0,0,1,0-.38,1.17,1.17,0,0,1,.12-.3.63.63,0,0,1,.22-.21.77.77,0,0,1,.3-.11.64.64,0,0,1,.28,0,.66.66,0,0,1,.22.12l-.1.16a.42.42,0,0,0-.17-.1.44.44,0,0,0-.2,0,.63.63,0,0,0-.22.08.61.61,0,0,0-.15.17.52.52,0,0,0-.08.23,1.5,1.5,0,0,0,0,.3,1.23,1.23,0,0,0,.08.29.6.6,0,0,0,.14.2.39.39,0,0,0,.19.12.43.43,0,0,0,.23,0,.49.49,0,0,0,.21-.08.66.66,0,0,0,.16-.17l.14.12a.88.88,0,0,1-.21.22A.62.62,0,0,1,114,102.54Z"/><path class="cls-12" d="M115.53,102.33a.59.59,0,0,1-.23,0,.53.53,0,0,1-.21-.11.51.51,0,0,1-.16-.19,1.07,1.07,0,0,1-.09-.27,1,1,0,0,1,0-.3.94.94,0,0,1,.1-.23.49.49,0,0,1,.17-.15.6.6,0,0,1,.45-.07.53.53,0,0,1,.21.11.77.77,0,0,1,.16.19,1,1,0,0,1,.09.28.92.92,0,0,1,0,.29.8.8,0,0,1-.1.23.85.85,0,0,1-.17.16A.57.57,0,0,1,115.53,102.33Zm0-.18a.27.27,0,0,0,.15-.05.4.4,0,0,0,.1-.12.31.31,0,0,0,0-.17.67.67,0,0,0,0-.2,1.17,1.17,0,0,0,0-.2.71.71,0,0,0-.1-.14.29.29,0,0,0-.28-.1.33.33,0,0,0-.15,0,.38.38,0,0,0-.1.12.49.49,0,0,0-.06.17.77.77,0,0,0,0,.21.59.59,0,0,0,.05.19.39.39,0,0,0,.1.14.3.3,0,0,0,.13.09A.26.26,0,0,0,115.5,102.15Z"/><path class="cls-12" d="M117,102.12a.37.37,0,0,1-.32-.08.66.66,0,0,1-.14-.36l-.12-.81.22,0,.11.78a.55.55,0,0,0,.09.25.22.22,0,0,0,.2.06.38.38,0,0,0,.17-.08.84.84,0,0,0,.14-.19l-.12-.9.21,0,.18,1.27-.18,0,0-.2h0a.85.85,0,0,1-.17.2A.4.4,0,0,1,117,102.12Z"/><path class="cls-12" d="M118.28,101.92l-.18-1.28.18,0,0,.18h0a1,1,0,0,1,.17-.18.46.46,0,0,1,.23-.09.34.34,0,0,1,.31.08.6.6,0,0,1,.15.36l.11.81-.21,0L119,101a.45.45,0,0,0-.1-.25.2.2,0,0,0-.19-.06.3.3,0,0,0-.17.08.86.86,0,0,0-.15.17l.12.93Z"/><path class="cls-12" d="M120.32,101.66a.48.48,0,0,1-.17,0,.4.4,0,0,1-.13-.07.57.57,0,0,1-.08-.13.85.85,0,0,1,0-.17l-.1-.71-.19,0,0-.17.19,0,0-.36.18,0,0,.35.35,0,0,.17-.34,0,.1.71a.38.38,0,0,0,.06.18.18.18,0,0,0,.17,0l.07,0,.07,0,.06.15-.11,0A.27.27,0,0,1,120.32,101.66Z"/><path class="cls-12" d="M121,101.54l-.18-1.28.18,0,0,.23h0a.54.54,0,0,1,.13-.21.32.32,0,0,1,.2-.1.33.33,0,0,1,.14,0l0,.2h-.12a.23.23,0,0,0-.16.08.53.53,0,0,0-.13.26l.12.82Z"/><path class="cls-12" d="M122.28,101.92h-.09l-.07,0,0-.17h0s0,0,0,0a.23.23,0,0,0,.17-.1.49.49,0,0,0,.08-.21l0-.1-.69-1.21.22,0,.36.67.09.17.08.17h0l0-.19,0-.18.13-.74.21,0-.29,1.45a1.33,1.33,0,0,1,0,.19.71.71,0,0,1-.08.15.32.32,0,0,1-.12.11A.38.38,0,0,1,122.28,101.92Z"/><path class="cls-12" d="M115,114.39l-.24-1.73.49-.07a1.24,1.24,0,0,1,.27,0,.47.47,0,0,1,.21.06.43.43,0,0,1,.16.14.58.58,0,0,1,.06.47.5.5,0,0,1-.1.19.62.62,0,0,1-.19.12.71.71,0,0,1-.26.07l-.28,0,.1.68Zm.1-.9.25,0a.63.63,0,0,0,.33-.14.32.32,0,0,0,.07-.28.3.3,0,0,0-.15-.25.77.77,0,0,0-.35,0l-.25,0Z"/><path class="cls-12" d="M116.65,114.15l-.26-1.87.22,0,.07.51,0,.26.17-.17a.54.54,0,0,1,.23-.1.36.36,0,0,1,.31.09.66.66,0,0,1,.14.36l.12.81-.22,0-.11-.78a.42.42,0,0,0-.09-.25.22.22,0,0,0-.2-.06.36.36,0,0,0-.17.07l-.15.18.13.92Z"/><path class="cls-12" d="M118.78,113.89a.6.6,0,0,1-.23,0,.56.56,0,0,1-.2-.11.49.49,0,0,1-.16-.19.62.62,0,0,1-.09-.28.7.7,0,0,1,0-.29.6.6,0,0,1,.1-.23.44.44,0,0,1,.17-.16.52.52,0,0,1,.22-.07.6.6,0,0,1,.23,0,.44.44,0,0,1,.2.11.49.49,0,0,1,.16.19.62.62,0,0,1,.09.28.7.7,0,0,1,0,.29.67.67,0,0,1-.1.23.5.5,0,0,1-.17.15A.53.53,0,0,1,118.78,113.89Zm0-.18a.35.35,0,0,0,.14-.06.38.38,0,0,0,.11-.11.84.84,0,0,0,0-.17.7.7,0,0,0-.06-.4.28.28,0,0,0-.09-.14.38.38,0,0,0-.13-.09.29.29,0,0,0-.16,0,.24.24,0,0,0-.14,0,.32.32,0,0,0-.11.12.69.69,0,0,0-.05.17.67.67,0,0,0,0,.2.59.59,0,0,0,.06.2.42.42,0,0,0,.09.14.38.38,0,0,0,.13.09A.42.42,0,0,0,118.76,113.71Z"/><path class="cls-12" d="M119.91,113.7l-.18-1.28.18,0,0,.18h0a1,1,0,0,1,.17-.18.37.37,0,0,1,.23-.1.33.33,0,0,1,.31.09.6.6,0,0,1,.15.36l.11.81-.22,0-.1-.78a.49.49,0,0,0-.1-.26.24.24,0,0,0-.19,0,.29.29,0,0,0-.17.07,1.36,1.36,0,0,0-.16.17l.13.93Z"/><path class="cls-12" d="M122.06,113.43a.65.65,0,0,1-.24,0,.53.53,0,0,1-.21-.11.43.43,0,0,1-.16-.19.58.58,0,0,1-.09-.27.7.7,0,0,1,0-.29.54.54,0,0,1,.1-.23.49.49,0,0,1,.16-.16.58.58,0,0,1,.21-.07.41.41,0,0,1,.22,0,.4.4,0,0,1,.18.1.43.43,0,0,1,.12.17.61.61,0,0,1,.07.24v.13l-.86.12a.5.5,0,0,0,.17.31.39.39,0,0,0,.32.07.3.3,0,0,0,.16,0,.42.42,0,0,0,.14-.09l.1.13-.18.12A.52.52,0,0,1,122.06,113.43Zm-.51-.72.69-.09a.52.52,0,0,0-.12-.29.28.28,0,0,0-.25-.06.31.31,0,0,0-.23.13.35.35,0,0,0-.06.14A.47.47,0,0,0,121.55,112.71Z"/><path class="cls-12" d="M116.56,125.66l-.24-1.73.49-.06a1.32,1.32,0,0,1,.27,0,.65.65,0,0,1,.21.06.43.43,0,0,1,.16.14.69.69,0,0,1,.08.23.5.5,0,0,1,0,.25.4.4,0,0,1-.1.18.91.91,0,0,1-.19.13l-.26.07-.28,0,.1.68Zm.1-.89.25,0a.56.56,0,0,0,.33-.13.34.34,0,0,0,.07-.29.3.3,0,0,0-.15-.24.56.56,0,0,0-.35,0l-.25,0Z"/><path class="cls-12" d="M118.41,125.44a.43.43,0,0,1-.28-.06.38.38,0,0,1-.15-.26.34.34,0,0,1,.15-.34,1.27,1.27,0,0,1,.57-.24.27.27,0,0,0,0-.12.31.31,0,0,0,0-.1l-.09-.06a.31.31,0,0,0-.14,0,.68.68,0,0,0-.2.07l-.16.12-.1-.14.2-.14a.62.62,0,0,1,.28-.09.43.43,0,0,1,.36.09.66.66,0,0,1,.15.37l.11.79-.18,0,0-.15h0l-.18.16A.6.6,0,0,1,118.41,125.44Zm0-.19a.36.36,0,0,0,.17-.07.53.53,0,0,0,.15-.15l0-.35-.26.09-.17.09a.24.24,0,0,0-.08.1.25.25,0,0,0,0,.12.2.2,0,0,0,.09.15A.31.31,0,0,0,118.45,125.25Z"/><path class="cls-12" d="M120,125.22a.74.74,0,0,1-.26,0,.85.85,0,0,1-.24-.09l.09-.16a.64.64,0,0,0,.19.08.47.47,0,0,0,.21,0,.26.26,0,0,0,.18-.09.19.19,0,0,0,0-.15.12.12,0,0,0,0-.08l-.07-.06-.1,0-.11,0-.15,0-.13-.06a.22.22,0,0,1-.1-.09.26.26,0,0,1-.06-.13.76.76,0,0,1,0-.15.54.54,0,0,1,.07-.13.38.38,0,0,1,.13-.09.48.48,0,0,1,.18-.06.59.59,0,0,1,.23,0l.19.08-.08.15-.15-.06a.43.43,0,0,0-.16,0,.25.25,0,0,0-.17.08.15.15,0,0,0,0,.14.09.09,0,0,0,0,.07l.07,0,.1,0,.11,0,.15,0,.14.06a.43.43,0,0,1,.1.09.34.34,0,0,1,.06.15.38.38,0,0,1,0,.15.5.5,0,0,1-.08.14.34.34,0,0,1-.13.1A.59.59,0,0,1,120,125.22Z"/><path class="cls-12" d="M121.27,125a.82.82,0,0,1-.27,0,.92.92,0,0,1-.23-.09l.09-.16.19.08a.47.47,0,0,0,.21,0,.26.26,0,0,0,.18-.09.19.19,0,0,0,0-.15.12.12,0,0,0,0-.08l-.07-.06-.1,0-.11,0-.15,0-.13-.06a.22.22,0,0,1-.1-.09.26.26,0,0,1-.06-.13.66.66,0,0,1,0-.15.54.54,0,0,1,.07-.13l.13-.1.18,0a.59.59,0,0,1,.23,0l.19.08-.08.15a.47.47,0,0,0-.15-.06.29.29,0,0,0-.16,0,.25.25,0,0,0-.17.08.18.18,0,0,0,0,.14.09.09,0,0,0,0,.07l.07,0,.1,0,.11,0,.15,0,.14.06a.28.28,0,0,1,.1.09.34.34,0,0,1,.06.15.38.38,0,0,1,0,.15.91.91,0,0,1-.07.14.5.5,0,0,1-.14.1A.59.59,0,0,1,121.27,125Z"/><path class="cls-12" d="M122.44,124.84l-.54-1.23.22,0,.3.72.06.17.06.17h0l0-.18c0-.07,0-.13,0-.19l.09-.77.21,0,.31.72c0,.06,0,.11.07.17s0,.11.07.17h0c0-.06,0-.12,0-.18s0-.13,0-.19l.08-.76.21,0-.17,1.32-.26,0-.28-.66a1.34,1.34,0,0,1-.07-.18l-.07-.18h0c0,.06,0,.13,0,.19l0,.19-.08.71Z"/><path class="cls-12" d="M124.81,124.54a.6.6,0,0,1-.23,0,.58.58,0,0,1-.21-.1.83.83,0,0,1-.16-.2.71.71,0,0,1-.08-.27,1,1,0,0,1,0-.3.76.76,0,0,1,.11-.22.44.44,0,0,1,.17-.16.53.53,0,0,1,.22-.08.46.46,0,0,1,.23,0,.54.54,0,0,1,.2.1.49.49,0,0,1,.16.19.66.66,0,0,1,.09.28.69.69,0,0,1,0,.29.54.54,0,0,1-.1.23.52.52,0,0,1-.17.16A.57.57,0,0,1,124.81,124.54Zm0-.17a.35.35,0,0,0,.14-.06.43.43,0,0,0,.11-.12.75.75,0,0,0,0-.16.67.67,0,0,0,0-.2.52.52,0,0,0-.06-.2.54.54,0,0,0-.09-.15.29.29,0,0,0-.14-.08.26.26,0,0,0-.15,0,.39.39,0,0,0-.15.06.52.52,0,0,0-.1.11.84.84,0,0,0-.05.17.74.74,0,0,0,0,.21.87.87,0,0,0,.05.19.56.56,0,0,0,.1.15.57.57,0,0,0,.13.08A.41.41,0,0,0,124.79,124.37Z"/><path class="cls-12" d="M125.93,124.36l-.17-1.28.17,0,.06.23h0a.55.55,0,0,1,.14-.21.3.3,0,0,1,.19-.1.33.33,0,0,1,.14,0l0,.2h-.12a.29.29,0,0,0-.16.09.45.45,0,0,0-.12.25l.11.83Z"/><path class="cls-12" d="M127.46,124.18a.49.49,0,0,1-.41-.12.79.79,0,0,1-.21-.48.71.71,0,0,1,0-.29.67.67,0,0,1,.1-.23.54.54,0,0,1,.15-.15.42.42,0,0,1,.21-.08.44.44,0,0,1,.2,0l.18.09,0-.22-.07-.49.22,0,.26,1.87-.18,0,0-.15h0a.57.57,0,0,1-.16.15A.4.4,0,0,1,127.46,124.18Zm0-.19a.33.33,0,0,0,.16-.07.67.67,0,0,0,.14-.15l-.09-.67-.17-.09a.43.43,0,0,0-.16,0,.24.24,0,0,0-.14,0,.4.4,0,0,0-.1.12.38.38,0,0,0-.06.16.74.74,0,0,0,0,.21.59.59,0,0,0,.14.34A.33.33,0,0,0,127.48,124Z"/><path class="cls-5" d="M95.47,52.44l-1.26-9.16,3-.41a6.34,6.34,0,0,1,1.37,0,2.91,2.91,0,0,1,1.16.34,2.37,2.37,0,0,1,.86.81,3.21,3.21,0,0,1,.47,1.36,3.46,3.46,0,0,1-.08,1.42,2.74,2.74,0,0,1-.61,1.08,3.3,3.3,0,0,1-1,.71,5.26,5.26,0,0,1-1.28.36L97,49.07l.43,3.1Zm1.31-5,1-.13c1.07-.15,1.53-.71,1.4-1.68a1.16,1.16,0,0,0-.57-1,2.15,2.15,0,0,0-1.26-.13l-.91.13Z"/><path class="cls-5" d="M103.26,51.37l-1.35-9.84,2-.27.33,2.41.08,1.26a5.59,5.59,0,0,1,.77-.77,2.3,2.3,0,0,1,1.14-.46,1.76,1.76,0,0,1,1.67.53,3.89,3.89,0,0,1,.77,2l.59,4.32-2,.27-.56-4.06a2.06,2.06,0,0,0-.33-1,.71.71,0,0,0-.66-.2,1.22,1.22,0,0,0-.62.27,4.36,4.36,0,0,0-.52.57l.65,4.71Z"/><path class="cls-5" d="M110.75,42.2a1.16,1.16,0,0,1-.86-.19,1.12,1.12,0,0,1-.21-1.55,1.28,1.28,0,0,1,1.64-.22,1,1,0,0,1,.41.72,1,1,0,0,1-.2.83A1.15,1.15,0,0,1,110.75,42.2Zm.12,8.12-1-7,2-.27,1,7Z"/><path class="cls-5" d="M117.54,49.58a3.63,3.63,0,0,1-1.36-.07,2.8,2.8,0,0,1-1.16-.57,3.29,3.29,0,0,1-.87-1,4.46,4.46,0,0,1-.46-1.51,4,4,0,0,1,.06-1.56,3.46,3.46,0,0,1,.54-1.25,3,3,0,0,1,.89-.86,2.76,2.76,0,0,1,1.13-.41,2.94,2.94,0,0,1,1.27.08,2.51,2.51,0,0,1,1,.58,3.22,3.22,0,0,1,.68,1,4.78,4.78,0,0,1,.35,1.3c0,.19,0,.37,0,.54v.39l-4,.54a1.73,1.73,0,0,0,.74,1,1.85,1.85,0,0,0,1.18.2,2.74,2.74,0,0,0,1.36-.66l.83,1.16a4.58,4.58,0,0,1-1,.73A3.84,3.84,0,0,1,117.54,49.58Zm-2.73-7.89-.73-.65,1.06-1.46,1.55-.21,1.42,1.12-.53.81-1.48-.72H116Zm.65,3.68,2.39-.33a1.65,1.65,0,0,0-.38-.92,1,1,0,0,0-.91-.24,1.14,1.14,0,0,0-.77.43A1.66,1.66,0,0,0,115.46,45.37Zm2.11-5.72.81-1.93,1.14.57-1.11,1.87Z"/><path class="cls-5" d="M123.47,48.76a1.74,1.74,0,0,1-1.67-.53,3.76,3.76,0,0,1-.77-2l-.59-4.33,2-.27L123,45.7a1.91,1.91,0,0,0,.34,1,.71.71,0,0,0,.66.2,1.18,1.18,0,0,0,.61-.27A2.85,2.85,0,0,0,125,46l-.63-4.6,2-.27,1,7-1.6.22-.28-1h0a3.89,3.89,0,0,1-.8,1A2.17,2.17,0,0,1,123.47,48.76Z"/><path class="cls-5" d="M132.81,50.08a3.56,3.56,0,0,1-.52,0,2,2,0,0,1-.43,0l.13-1.62.22,0a.88.88,0,0,0,.23,0,1.13,1.13,0,0,0,.73-.36,1.69,1.69,0,0,0,.31-.72l0-.37L130,40.6l2-.28,1.35,2.86c.14.31.28.62.4.94s.26.64.39,1h.06c0-.33.05-.67.08-1s.06-.69.1-1l.39-3.1,1.88-.26L135.34,47a9.75,9.75,0,0,1-.34,1.23,3.14,3.14,0,0,1-.49.91,2.41,2.41,0,0,1-.7.61A2.8,2.8,0,0,1,132.81,50.08Z"/><path class="cls-5" d="M141.53,46.28a3.44,3.44,0,0,1-1.36-.06,3.07,3.07,0,0,1-1.16-.57,3.2,3.2,0,0,1-.86-1,4.39,4.39,0,0,1-.47-1.51,4,4,0,0,1,.06-1.56,3.41,3.41,0,0,1,.54-1.24,3,3,0,0,1,.89-.86A3,3,0,0,1,140.3,39a2.94,2.94,0,0,1,1.27.09,2.5,2.5,0,0,1,1,.58,3.09,3.09,0,0,1,.67,1,4.68,4.68,0,0,1,.35,1.3c0,.19,0,.37.05.54v.38l-4,.55a1.71,1.71,0,0,0,.74,1,1.73,1.73,0,0,0,1.18.2,2.55,2.55,0,0,0,1.36-.66l.83,1.17a4.08,4.08,0,0,1-1.05.72A3.59,3.59,0,0,1,141.53,46.28Zm-3.87-8.4,1.18-2,2-.28,1.69,1.65-.65.83L140.05,37H140L138.5,38.5Zm1.8,4.2,2.38-.33a1.65,1.65,0,0,0-.38-.92,1,1,0,0,0-.9-.25,1.17,1.17,0,0,0-.78.44A1.63,1.63,0,0,0,139.46,42.08Z"/><path class="cls-5" d="M147.46,45.47a1.76,1.76,0,0,1-1.67-.53,3.8,3.8,0,0,1-.77-2l-.59-4.32,2-.27.56,4.06a2,2,0,0,0,.34,1,.72.72,0,0,0,.67.19,1,1,0,0,0,.6-.27,2.34,2.34,0,0,0,.46-.66l-.63-4.61,2-.26,1,7-1.6.22-.28-1h0a4.08,4.08,0,0,1-.8,1A2.22,2.22,0,0,1,147.46,45.47Z"/><path class="cls-5" d="M158.6,43.94a3.42,3.42,0,0,1-1.32-.07,3,3,0,0,1-1.13-.57,3.3,3.3,0,0,1-.85-1,4.46,4.46,0,0,1-.47-1.51,4,4,0,0,1,.07-1.59,3.23,3.23,0,0,1,.6-1.25,3.2,3.2,0,0,1,1-.86,3.53,3.53,0,0,1,1.27-.42,2.59,2.59,0,0,1,1.12.06,3.32,3.32,0,0,1,.92.41l-.74,1.46a1.4,1.4,0,0,0-.95-.28,1.37,1.37,0,0,0-1.06.69,2.31,2.31,0,0,0-.22,1.5,2.34,2.34,0,0,0,.62,1.39,1.31,1.31,0,0,0,1.14.39,1.41,1.41,0,0,0,.6-.24,3,3,0,0,0,.51-.43l1,1.24a2.93,2.93,0,0,1-1,.79A3.81,3.81,0,0,1,158.6,43.94Z"/><path class="cls-5" d="M161.68,33.59l-.67.72-1.63-1.48.94-.87Zm1.8,9.68a2.12,2.12,0,0,1-.84-.05,1.78,1.78,0,0,1-.68-.36,2.14,2.14,0,0,1-.49-.62,2.33,2.33,0,0,1-.25-.81,2,2,0,0,1,.64-1.83,6.34,6.34,0,0,1,2.73-1.22,1.24,1.24,0,0,0-.36-.7,1,1,0,0,0-.82-.17,2.3,2.3,0,0,0-.82.29,5,5,0,0,0-.84.59l-.89-1.27a6.22,6.22,0,0,1,1.25-.84,4.32,4.32,0,0,1,1.45-.46,2.48,2.48,0,0,1,2.06.5,3.55,3.55,0,0,1,1,2.28l.54,4-1.6.22-.23-.7h-.05a4.12,4.12,0,0,1-.81.76A2.15,2.15,0,0,1,163.48,43.27Zm-1.37-8.08-.73-.64,1.07-1.47,1.54-.21L165.41,34l-.52.82-1.49-.73h-.05Zm1.82,6.39a1,1,0,0,0,.55-.24,2.85,2.85,0,0,0,.45-.5l-.17-1.22a3.54,3.54,0,0,0-1.38.64.87.87,0,0,0-.3.76.59.59,0,0,0,.27.47A.9.9,0,0,0,163.93,41.58Z"/><path class="cls-5" d="M170.83,42.26a1.75,1.75,0,0,1-1.67-.53,3.8,3.8,0,0,1-.77-2l-.59-4.32,2-.27.55,4.06a1.93,1.93,0,0,0,.35,1,.7.7,0,0,0,.66.19,1,1,0,0,0,.6-.26,2.84,2.84,0,0,0,.47-.67l-.63-4.6,2-.27.95,7-1.6.22-.28-1h0a3.65,3.65,0,0,1-.8,1A2.19,2.19,0,0,1,170.83,42.26Z"/><path class="cls-5" d="M115.79,64l-1-7,1.6-.22.3,1.2h.06a2.6,2.6,0,0,1,.72-1.17,1.89,1.89,0,0,1,1-.48,2.56,2.56,0,0,1,.46,0,.93.93,0,0,1,.34.06l-.07,1.82-.36,0a1.7,1.7,0,0,0-.38,0,1.34,1.34,0,0,0-.74.39,2.14,2.14,0,0,0-.54,1.09l.56,4Z"/><path class="cls-5" d="M123.11,63.12a1.75,1.75,0,0,1-1.67-.53,3.8,3.8,0,0,1-.77-2l-.6-4.32,2-.27.56,4a2,2,0,0,0,.34,1,.75.75,0,0,0,.67.19,1,1,0,0,0,.6-.27,2.56,2.56,0,0,0,.47-.66L124,55.72l2-.27,1,7-1.6.22-.28-1h0a3.35,3.35,0,0,1-.8,1A2.23,2.23,0,0,1,123.11,63.12Zm0-8.35-1.1-.88,1.71-2.84,1.5,1.18Z"/><path class="cls-5" d="M131.24,62a2.65,2.65,0,0,1-1.07,0,1.89,1.89,0,0,1-.78-.45,2.26,2.26,0,0,1-.52-.8,4.73,4.73,0,0,1-.28-1.08l-.39-2.82-.9.12-.21-1.53,1-.22,0-1.89,1.63-.22.25,1.85,1.59-.22.22,1.62-1.59.22.39,2.79a1.28,1.28,0,0,0,.35.82.78.78,0,0,0,.65.17,1,1,0,0,0,.33-.09,1.83,1.83,0,0,0,.28-.14l.51,1.47-.6.25A3.48,3.48,0,0,1,131.24,62Z"/><path class="cls-5" d="M139,60.93a2.54,2.54,0,0,1-1.08,0,1.91,1.91,0,0,1-.78-.45,2.31,2.31,0,0,1-.52-.8,4.27,4.27,0,0,1-.27-1.08L136,55.73l-.91.12-.21-1.53,1-.22,0-1.89,1.62-.22.26,1.85,1.58-.21.23,1.61-1.59.22.38,2.79a1.31,1.31,0,0,0,.35.82.8.8,0,0,0,.66.17,1.36,1.36,0,0,0,.32-.08l.29-.14.51,1.46c-.17.08-.37.16-.61.25A3.4,3.4,0,0,1,139,60.93Z"/><path class="cls-5" d="M141.43,52.29a1.12,1.12,0,0,1-.85-.19,1.11,1.11,0,0,1-.22-1.55,1.19,1.19,0,0,1,.78-.41,1.24,1.24,0,0,1,.86.18,1.07,1.07,0,0,1,.42.73,1.08,1.08,0,0,1-.21.83A1.15,1.15,0,0,1,141.43,52.29Zm.12,8.12-1-7,2-.27.95,7Z"/><path class="cls-5" d="M145.05,50.18l-.66.72-1.63-1.48.94-.88Zm3.17,9.49a3.64,3.64,0,0,1-1.36-.07A2.87,2.87,0,0,1,145.7,59a3.26,3.26,0,0,1-.86-1,4.25,4.25,0,0,1-.47-1.51,4,4,0,0,1,.06-1.56,3.46,3.46,0,0,1,.54-1.25,3.16,3.16,0,0,1,.89-.86A2.76,2.76,0,0,1,147,52.4a2.79,2.79,0,0,1,1.27.08,2.51,2.51,0,0,1,1,.58,3.06,3.06,0,0,1,.68,1,4.78,4.78,0,0,1,.35,1.3c0,.19,0,.37.05.54v.39l-4,.54a1.68,1.68,0,0,0,.74,1,1.79,1.79,0,0,0,1.18.21,2.7,2.7,0,0,0,1.36-.66l.83,1.16a4.58,4.58,0,0,1-1.05.73A3.84,3.84,0,0,1,148.22,59.67Zm-2.73-7.9-.73-.64,1.07-1.46,1.54-.21,1.42,1.12-.53.81-1.48-.72h-.05Zm.66,3.69,2.38-.33a1.65,1.65,0,0,0-.38-.92,1,1,0,0,0-.9-.24,1.16,1.16,0,0,0-.78.43A1.65,1.65,0,0,0,146.15,55.46Z"/><path class="cls-5" d="M152.14,59l-.95-7,1.6-.22.25.87h.05a5.26,5.26,0,0,1,.84-.86,2.18,2.18,0,0,1,1.14-.48,1.75,1.75,0,0,1,1.67.53,3.76,3.76,0,0,1,.77,2l.59,4.33-2,.27-.55-4.06a2,2,0,0,0-.34-1,.7.7,0,0,0-.66-.2,1.11,1.11,0,0,0-.61.27,3.3,3.3,0,0,0-.52.57l.64,4.71Z"/><rect class="cls-5" x="128.28" y="150.95" width="38.59" height="8.01" transform="translate(-20.47 22.48) rotate(-8.15)"/><path class="cls-13" d="M137.46,157.77a.57.57,0,0,1-.26,0,.53.53,0,0,1-.22-.12,1,1,0,0,1-.17-.22,1.26,1.26,0,0,1-.09-.31,1.14,1.14,0,0,1,0-.32.68.68,0,0,1,.11-.26.62.62,0,0,1,.18-.18.54.54,0,0,1,.25-.09.62.62,0,0,1,.24,0,.77.77,0,0,1,.18.1l-.08.14a.39.39,0,0,0-.14-.08.36.36,0,0,0-.18,0,.48.48,0,0,0-.18.07.44.44,0,0,0-.19.34,1,1,0,0,0,0,.25.84.84,0,0,0,.07.24.57.57,0,0,0,.12.18.56.56,0,0,0,.15.1.44.44,0,0,0,.2,0,.36.36,0,0,0,.18-.07.58.58,0,0,0,.13-.14l.12.1a.74.74,0,0,1-.17.18A.5.5,0,0,1,137.46,157.77Z"/><path class="cls-13" d="M138.62,157.58l-.21-1.46.46-.06h.21a.34.34,0,0,1,.17,0,.25.25,0,0,1,.12.11.36.36,0,0,1,.07.18.45.45,0,0,1-.05.29.43.43,0,0,1-.22.17l.46.59-.21,0-.44-.57-.26,0,.09.61Zm.08-.79.24,0a.41.41,0,0,0,.25-.1.24.24,0,0,0,.06-.23.21.21,0,0,0-.12-.19.55.55,0,0,0-.27,0l-.24,0Z"/><path class="cls-13" d="M140.33,157.34l-.21-1.46.84-.12,0,.15-.65.1.06.46.56-.08,0,.15-.55.08.07.53.68-.1,0,.16Z"/><path class="cls-13" d="M141.75,157.13l.29-1.53.21,0L143,157l-.2,0-.2-.43-.53.08-.08.47Zm.33-.88,0,.23.44-.06-.1-.21a2.4,2.4,0,0,1-.11-.23l-.11-.24h0l0,.26C142.11,156.08,142.09,156.17,142.08,156.25Z"/><path class="cls-13" d="M143.78,156.84l-.19-1.3-.44.06,0-.15,1.07-.15,0,.15-.44.06.18,1.31Z"/><path class="cls-13" d="M145.11,156.65l-.21-1.46.84-.12,0,.16-.65.09.06.46.56-.08,0,.16-.55.08.07.53.68-.1,0,.16Z"/><path class="cls-13" d="M147.42,156.32l.29-1.53.2,0,.71,1.39-.2,0-.2-.43-.53.08-.08.46Zm.33-.88,0,.23.44-.06-.1-.21-.11-.23-.11-.24h0l0,.26C147.78,155.27,147.76,155.36,147.75,155.44Z"/><path class="cls-13" d="M149.8,156a.57.57,0,0,1-.26,0,.48.48,0,0,1-.22-.12.54.54,0,0,1-.17-.22.71.71,0,0,1-.09-.31.86.86,0,0,1,0-.32.74.74,0,0,1,.1-.26.77.77,0,0,1,.18-.18.73.73,0,0,1,.25-.08.42.42,0,0,1,.25,0,.52.52,0,0,1,.18.1l-.08.13-.15-.08a.32.32,0,0,0-.17,0,.48.48,0,0,0-.18.06.43.43,0,0,0-.13.14.68.68,0,0,0-.07.2.71.71,0,0,0,0,.25.84.84,0,0,0,.06.24.63.63,0,0,0,.12.18.39.39,0,0,0,.16.1.4.4,0,0,0,.19,0,.36.36,0,0,0,.18-.07.47.47,0,0,0,.14-.14l.11.1a.52.52,0,0,1-.17.19A.75.75,0,0,1,149.8,156Z"/><path class="cls-13" d="M151.45,155.77a.57.57,0,0,1-.26,0,1,1,0,0,1-.23-.12.73.73,0,0,1-.16-.22.94.94,0,0,1-.1-.31,1.11,1.11,0,0,1,0-.32.67.67,0,0,1,.1-.26.52.52,0,0,1,.18-.18.58.58,0,0,1,.25-.09.47.47,0,0,1,.24,0,.67.67,0,0,1,.19.1l-.08.14a.6.6,0,0,0-.15-.09.47.47,0,0,0-.17,0,.44.44,0,0,0-.19.07.41.41,0,0,0-.12.14.4.4,0,0,0-.07.2,1,1,0,0,0,0,.25,1.37,1.37,0,0,0,.07.24.43.43,0,0,0,.12.17.39.39,0,0,0,.16.1.4.4,0,0,0,.19,0,.36.36,0,0,0,.18-.07l.14-.14.11.1a.58.58,0,0,1-.17.18A.5.5,0,0,1,151.45,155.77Z"/><path class="cls-13" d="M153.08,155.54a.57.57,0,0,1-.26,0,.68.68,0,0,1-.22-.12,1,1,0,0,1-.16-.23,1.14,1.14,0,0,1-.09-.31.86.86,0,0,1,0-.32.69.69,0,0,1,.1-.25.58.58,0,0,1,.17-.18.61.61,0,0,1,.25-.08.57.57,0,0,1,.26,0,.72.72,0,0,1,.21.12.76.76,0,0,1,.17.22,1.26,1.26,0,0,1,.09.31,1.71,1.71,0,0,1,0,.32.74.74,0,0,1-.1.26.58.58,0,0,1-.17.18A.68.68,0,0,1,153.08,155.54Zm0-.16a.51.51,0,0,0,.17-.07.41.41,0,0,0,.12-.14.66.66,0,0,0,.06-.2.78.78,0,0,0,0-.26.84.84,0,0,0-.06-.24.52.52,0,0,0-.12-.17.4.4,0,0,0-.15-.1.55.55,0,0,0-.18,0,.33.33,0,0,0-.17.07.37.37,0,0,0-.12.13.59.59,0,0,0-.06.2,1,1,0,0,0,0,.25,1.37,1.37,0,0,0,.07.24.78.78,0,0,0,.11.18.54.54,0,0,0,.16.1A.35.35,0,0,0,153.06,155.38Z"/><path class="cls-13" d="M155,155.27a.5.5,0,0,1-.21,0,.37.37,0,0,1-.18-.08.44.44,0,0,1-.14-.18.72.72,0,0,1-.08-.29l-.13-.85.19,0,.12.86a.64.64,0,0,0,.06.22.73.73,0,0,0,.09.13.34.34,0,0,0,.12.06.33.33,0,0,0,.14,0,.31.31,0,0,0,.23-.13.53.53,0,0,0,.05-.15.88.88,0,0,0,0-.23l-.13-.86.18,0,.12.85a1,1,0,0,1,0,.3.51.51,0,0,1-.09.21.37.37,0,0,1-.15.13A.68.68,0,0,1,155,155.27Z"/><path class="cls-13" d="M156.34,155l-.21-1.45.19,0,.66.84.2.28h0c0-.08,0-.15-.05-.23a2.23,2.23,0,0,1,0-.23l-.11-.76.18,0,.21,1.46-.2,0-.66-.84-.2-.28h0a1.42,1.42,0,0,1,.05.22,1.57,1.57,0,0,1,0,.23l.11.76Z"/><path class="cls-13" d="M158.52,154.73l-.19-1.3-.44.06,0-.15,1.07-.16,0,.16-.44.06.19,1.31Z"/><path class="cls-14" d="M131.38,169.18l.25-1.33.18,0,.61,1.2-.18,0-.17-.36-.46.06-.07.4Zm.28-.76,0,.2.38-.06-.09-.18-.09-.2-.09-.21h0l0,.23A2.07,2.07,0,0,1,131.66,168.42Z"/><path class="cls-14" d="M132.89,169a.14.14,0,0,1-.13,0,.26.26,0,0,1-.06-.15l-.17-1.18.15,0,.18,1.2a.08.08,0,0,0,0,.05h.06l0,.12h-.09Z"/><path class="cls-14" d="M133.36,168.89l-.14-.93.13,0,0,.17h0a.42.42,0,0,1,.09-.16.26.26,0,0,1,.15-.07h.1V168h-.1a.23.23,0,0,0-.11.07.38.38,0,0,0-.09.18l.08.6Z"/><path class="cls-14" d="M134.53,168.75a.37.37,0,0,1-.18,0,.46.46,0,0,1-.16-.07.76.76,0,0,1-.11-.14.68.68,0,0,1-.07-.2.54.54,0,0,1,0-.22.59.59,0,0,1,.07-.16.46.46,0,0,1,.12-.12.47.47,0,0,1,.15-.06.49.49,0,0,1,.17,0l.13.07.09.13a.78.78,0,0,1,.05.18v.05a.06.06,0,0,1,0,0l-.64.09a.43.43,0,0,0,.13.22.31.31,0,0,0,.23.06l.12,0,.1-.07.08.1-.13.09A.69.69,0,0,1,134.53,168.75Zm-.37-.52.5-.08a.34.34,0,0,0-.1-.2.18.18,0,0,0-.18,0,.16.16,0,0,0-.09,0,.23.23,0,0,0-.07.07.31.31,0,0,0-.05.1A.53.53,0,0,0,134.16,168.23Z"/><path class="cls-14" d="M135.44,168.62a.3.3,0,0,1-.21,0,.27.27,0,0,1-.1-.19.25.25,0,0,1,.1-.25,1,1,0,0,1,.42-.18.19.19,0,0,0,0-.08.3.3,0,0,0,0-.08l-.07,0h-.1a.24.24,0,0,0-.14.05.36.36,0,0,0-.12.08l-.08-.1.15-.1a.48.48,0,0,1,.2-.07.3.3,0,0,1,.27.07.42.42,0,0,1,.11.27l.08.57-.13,0,0-.11h0l-.13.12A.44.44,0,0,1,135.44,168.62Zm0-.13.12-.05a.65.65,0,0,0,.11-.12l0-.26-.2.07a.35.35,0,0,0-.12.07.19.19,0,0,0-.06.07.28.28,0,0,0,0,.09.17.17,0,0,0,.06.11A.27.27,0,0,0,135.47,168.49Z"/><path class="cls-14" d="M136.66,168.45a.39.39,0,0,1-.3-.09.52.52,0,0,1-.16-.35.74.74,0,0,1,0-.21.59.59,0,0,1,.07-.16.34.34,0,0,1,.12-.12.34.34,0,0,1,.15-.06.32.32,0,0,1,.14,0l.13.06,0-.16-.05-.36.16,0,.2,1.37-.14,0,0-.11h0a.43.43,0,0,1-.12.11A.27.27,0,0,1,136.66,168.45Zm0-.14a.31.31,0,0,0,.12-.05.4.4,0,0,0,.1-.12l-.07-.48-.12-.06h-.12l-.1,0a.24.24,0,0,0-.08.09.34.34,0,0,0,0,.12V168a.45.45,0,0,0,.11.25A.21.21,0,0,0,136.67,168.31Z"/><path class="cls-14" d="M137.62,168.69h-.12l0-.13h.07a.14.14,0,0,0,.12-.07.38.38,0,0,0,.06-.16l0-.07-.51-.88.16,0,.26.49.07.12.06.13h0s0-.1,0-.14,0-.1,0-.14l.09-.54.16,0-.21,1.06a.74.74,0,0,1,0,.14.37.37,0,0,1,0,.11l-.09.08A.21.21,0,0,1,137.62,168.69Z"/><path class="cls-14" d="M139.12,168.07l-.2-1.37.16,0,0,.37,0,.19a1.59,1.59,0,0,1,.13-.13.38.38,0,0,1,.16-.06.22.22,0,0,1,.23.06.42.42,0,0,1,.11.26l.08.59-.15,0-.09-.58a.27.27,0,0,0-.07-.18.14.14,0,0,0-.14,0,.22.22,0,0,0-.12.05.75.75,0,0,0-.11.13l.09.68Z"/><path class="cls-14" d="M140.52,167.89a.26.26,0,0,1-.31-.23.26.26,0,0,1,.11-.25,1,1,0,0,1,.42-.18l0-.08a.1.1,0,0,0,0-.07.15.15,0,0,0-.06-.05h-.1a.3.3,0,0,0-.15.05l-.11.09-.08-.1a1,1,0,0,1,.15-.11.59.59,0,0,1,.2-.07.31.31,0,0,1,.26.07.48.48,0,0,1,.12.27l.08.57-.13,0,0-.11h0a.74.74,0,0,1-.13.12A.38.38,0,0,1,140.52,167.89Zm0-.13a.33.33,0,0,0,.12,0l.12-.11,0-.26-.19.06-.12.07a.16.16,0,0,0-.06.08.08.08,0,0,0,0,.08.11.11,0,0,0,.06.11A.25.25,0,0,0,140.55,167.76Z"/><path class="cls-14" d="M141.62,167.71l-.47-.89.16,0,.26.51.06.13.06.13h0s0-.1,0-.14l0-.15.1-.56.15,0-.2,1Z"/><path class="cls-14" d="M142.84,167.56a.4.4,0,0,1-.19,0,.51.51,0,0,1-.15-.07.53.53,0,0,1-.12-.14.66.66,0,0,1-.06-.2.74.74,0,0,1,0-.21.54.54,0,0,1,.07-.17l.12-.12a.44.44,0,0,1,.16-.06h.16l.13.07a.38.38,0,0,1,.09.13.48.48,0,0,1,0,.18v.09l-.63.09a.35.35,0,0,0,.13.23.34.34,0,0,0,.23.05.28.28,0,0,0,.12,0l.1-.07.07.1-.13.09Zm-.38-.52.5-.07a.29.29,0,0,0-.09-.21.2.2,0,0,0-.18,0,.17.17,0,0,0-.1,0,.46.46,0,0,0-.07.07.93.93,0,0,0-.05.1A.53.53,0,0,0,142.46,167Z"/><path class="cls-14" d="M144.3,167.35a.3.3,0,0,1-.21,0,.24.24,0,0,1-.1-.19.25.25,0,0,1,.1-.25,1,1,0,0,1,.42-.18s0-.05,0-.08a.43.43,0,0,0,0-.07.18.18,0,0,0-.07,0,.17.17,0,0,0-.1,0,.24.24,0,0,0-.14,0l-.12.09-.08-.1a1,1,0,0,1,.15-.11.68.68,0,0,1,.2-.07.3.3,0,0,1,.26.07.43.43,0,0,1,.12.27l.08.57-.13,0,0-.11h0a1.42,1.42,0,0,1-.13.12A.44.44,0,0,1,144.3,167.35Zm0-.13.12-.05.11-.11,0-.26-.19.06-.12.07a.16.16,0,0,0-.06.08.11.11,0,0,0,0,.08.17.17,0,0,0,.06.11A.27.27,0,0,0,144.33,167.22Z"/><path class="cls-14" d="M145.19,167.2l-.13-.94h.13l0,.13h0l.12-.14a.43.43,0,0,1,.17-.06.23.23,0,0,1,.23.06.49.49,0,0,1,.11.26l.08.59-.16,0-.08-.58a.34.34,0,0,0-.07-.18.14.14,0,0,0-.14,0,.22.22,0,0,0-.13.06.68.68,0,0,0-.11.12l.1.68Z"/><path class="cls-14" d="M147.14,167a.3.3,0,0,1-.21,0,.26.26,0,0,1-.11-.18.28.28,0,0,1,.11-.26,1.23,1.23,0,0,1,.42-.17s0-.06,0-.09a.43.43,0,0,0,0-.07l-.07,0a.16.16,0,0,0-.1,0,.44.44,0,0,0-.15,0l-.11.09-.08-.1.15-.11a.59.59,0,0,1,.2-.06.28.28,0,0,1,.26.06.56.56,0,0,1,.12.27l.08.58-.13,0,0-.11h0l-.13.11A.37.37,0,0,1,147.14,167Zm0-.14a.29.29,0,0,0,.13-.05.56.56,0,0,0,.11-.11l0-.26a.84.84,0,0,0-.19.07l-.12.06a.21.21,0,0,0-.06.08.12.12,0,0,0,0,.08.11.11,0,0,0,.06.11A.17.17,0,0,0,147.16,166.81Z"/><path class="cls-14" d="M148.4,166.76a.36.36,0,0,1-.33-.08.53.53,0,0,1-.11-.14.68.68,0,0,1-.07-.2.54.54,0,0,1,0-.22A.4.4,0,0,1,148,166a.3.3,0,0,1,.13-.12.44.44,0,0,1,.16-.06.46.46,0,0,1,.17,0l.12.06-.06.12-.1-.05h-.1l-.12,0-.08.09a.56.56,0,0,0,0,.12.38.38,0,0,0,0,.15.54.54,0,0,0,0,.15.36.36,0,0,0,.07.1.24.24,0,0,0,.11.06.23.23,0,0,0,.12,0,.21.21,0,0,0,.11,0,.36.36,0,0,0,.09-.08l.09.09a.69.69,0,0,1-.13.11A.3.3,0,0,1,148.4,166.76Z"/><path class="cls-14" d="M149.38,166.62h-.17a.48.48,0,0,1-.16-.08.53.53,0,0,1-.11-.14.66.66,0,0,1-.06-.2.54.54,0,0,1,0-.22.4.4,0,0,1,.08-.16.37.37,0,0,1,.13-.12.44.44,0,0,1,.16-.06.46.46,0,0,1,.17,0l.12.06-.06.12a.31.31,0,0,0-.1-.05h-.1l-.11,0a.38.38,0,0,0-.09.09.56.56,0,0,0,0,.12.43.43,0,0,0,0,.16.57.57,0,0,0,0,.14.39.39,0,0,0,.08.1.17.17,0,0,0,.1.06.25.25,0,0,0,.12,0l.11,0a.26.26,0,0,0,.09-.09l.09.1a.69.69,0,0,1-.13.11A.3.3,0,0,1,149.38,166.62Z"/><path class="cls-14" d="M150.36,166.48a.32.32,0,0,1-.17,0,.26.26,0,0,1-.15-.07.41.41,0,0,1-.12-.14.66.66,0,0,1-.06-.2.54.54,0,0,1,0-.22.59.59,0,0,1,.07-.16.49.49,0,0,1,.13-.12.44.44,0,0,1,.16-.06h.17a.55.55,0,0,1,.15.08.53.53,0,0,1,.11.14.48.48,0,0,1,.07.2.54.54,0,0,1,0,.22.46.46,0,0,1-.07.16.34.34,0,0,1-.12.12A.3.3,0,0,1,150.36,166.48Zm0-.13a.18.18,0,0,0,.1,0,.2.2,0,0,0,.08-.08.56.56,0,0,0,0-.12V166a.54.54,0,0,0,0-.15.43.43,0,0,0-.07-.1l-.1-.07h-.11a.15.15,0,0,0-.11,0,.3.3,0,0,0-.08.08.53.53,0,0,0,0,.12.38.38,0,0,0,0,.15.54.54,0,0,0,0,.15.36.36,0,0,0,.07.1.21.21,0,0,0,.1.06A.14.14,0,0,0,150.34,166.35Z"/><path class="cls-14" d="M151.45,166.33a.29.29,0,0,1-.23-.06.56.56,0,0,1-.11-.27l-.08-.59.16,0,.08.57a.3.3,0,0,0,.07.18.14.14,0,0,0,.14,0,.21.21,0,0,0,.13-.05,1,1,0,0,0,.1-.14l-.09-.66.15,0,.14.94-.13,0,0-.15h0l-.12.15A.44.44,0,0,1,151.45,166.33Z"/><path class="cls-14" d="M152.37,166.17l-.14-.93.13,0,0,.13h0a.8.8,0,0,1,.13-.13.29.29,0,0,1,.16-.07.25.25,0,0,1,.23.06.42.42,0,0,1,.11.26l.08.6-.15,0-.08-.57a.5.5,0,0,0-.07-.19.19.19,0,0,0-.15,0,.23.23,0,0,0-.12.06l-.11.12.09.68Z"/><path class="cls-14" d="M153.86,166a.28.28,0,0,1-.13,0l-.09,0a.21.21,0,0,1-.06-.1.42.42,0,0,1,0-.12l-.08-.52-.13,0,0-.12.14,0v-.26l.13,0,0,.26.25,0,0,.13-.26,0,.08.52a.22.22,0,0,0,0,.13.12.12,0,0,0,.12,0l.05,0,0,0,.05.11-.08,0Z"/><path class="cls-14" d="M154.4,165.49a.3.3,0,0,1,0-.13.24.24,0,0,1,0-.12.54.54,0,0,1,.05-.11l.06-.09a1,1,0,0,1,0-.1.31.31,0,0,0,0-.1.19.19,0,0,0-.07-.12.15.15,0,0,0-.15,0,.22.22,0,0,0-.11,0,.26.26,0,0,0-.09.09l-.1-.06a.41.41,0,0,1,.12-.14.36.36,0,0,1,.19-.07.33.33,0,0,1,.24,0,.25.25,0,0,1,.12.21.25.25,0,0,1,0,.12.49.49,0,0,1,0,.11l-.06.1a.31.31,0,0,0-.05.1.36.36,0,0,0,0,.11.49.49,0,0,0,0,.12Zm.13.4a.14.14,0,0,1-.13-.11.13.13,0,0,1,0-.09.14.14,0,0,1,.08-.05l.09,0a.09.09,0,0,1,0,.08.1.1,0,0,1,0,.09A.11.11,0,0,1,154.53,165.89Z"/><path class="cls-14" d="M156.17,165.65a.57.57,0,0,1-.26,0,.53.53,0,0,1-.21-.11l.08-.13a1,1,0,0,0,.17.1.45.45,0,0,0,.2,0,.3.3,0,0,0,.18-.08.19.19,0,0,0,0-.16.11.11,0,0,0,0-.08.12.12,0,0,0,0-.05l-.07,0-.09,0L156,165l-.1,0-.09-.05a.31.31,0,0,1-.07-.09.21.21,0,0,1,0-.12.2.2,0,0,1,0-.13.23.23,0,0,1,.06-.12.27.27,0,0,1,.12-.09l.15,0a.53.53,0,0,1,.22,0,.51.51,0,0,1,.18.09l-.07.11-.14-.07a.47.47,0,0,0-.17,0,.27.27,0,0,0-.16.08.14.14,0,0,0,0,.14.11.11,0,0,0,0,.08s0,0,0,.05l.08,0,.08,0,.19.05.1,0a.33.33,0,0,1,.1.06.24.24,0,0,1,.06.08.21.21,0,0,1,0,.12.26.26,0,0,1,0,.15.21.21,0,0,1-.07.12.4.4,0,0,1-.12.1A.48.48,0,0,1,156.17,165.65Z"/><path class="cls-14" d="M156.89,164.38l-.09,0a.16.16,0,0,1,0-.07.19.19,0,0,1,0-.08l.08,0a.11.11,0,0,1,.08,0,.08.08,0,0,1,0,.07.08.08,0,0,1,0,.08Zm.08,1.13-.14-.93.16,0,.14.93Z"/><path class="cls-14" d="M157.59,165.43l-.14-.94.13,0,0,.13h0a.8.8,0,0,1,.13-.13.29.29,0,0,1,.16-.07.28.28,0,0,1,.23.06.56.56,0,0,1,.11.27l.08.59-.16,0-.08-.57a.3.3,0,0,0-.07-.19.16.16,0,0,0-.14,0,.17.17,0,0,0-.12,0,.5.5,0,0,0-.11.13l.09.67Z"/><path class="cls-14" d="M159.16,165.64H159l-.13,0a.15.15,0,0,1-.09-.06.21.21,0,0,1,0-.11.17.17,0,0,1,0-.12.33.33,0,0,1,.08-.11h0a.15.15,0,0,1-.07,0,.12.12,0,0,1,0-.09.16.16,0,0,1,0-.1.28.28,0,0,1,.06-.08h0a.41.41,0,0,1-.1-.09.35.35,0,0,1-.06-.14.71.71,0,0,1,0-.15l.06-.11a.48.48,0,0,1,.11-.09l.13,0h.13l.33,0,0,.12-.2,0a.23.23,0,0,1,.07.07.36.36,0,0,1,0,.11.32.32,0,0,1,0,.14.24.24,0,0,1-.06.11.27.27,0,0,1-.1.08.28.28,0,0,1-.13,0h-.14l0,0a.08.08,0,0,0,0,.07.08.08,0,0,0,0,.07.28.28,0,0,0,.14,0l.18,0a.48.48,0,0,1,.25,0,.18.18,0,0,1,.1.16.2.2,0,0,1,0,.13.28.28,0,0,1-.08.11.5.5,0,0,1-.14.1Zm-.12-.83.07,0,.06-.05a.11.11,0,0,0,0-.08.14.14,0,0,0,0-.09.23.23,0,0,0-.08-.16.19.19,0,0,0-.15,0,.18.18,0,0,0-.16.24.12.12,0,0,0,0,.09.18.18,0,0,0,0,.07.09.09,0,0,0,.07,0Zm.12.72.13,0,.08-.05,0-.07a.11.11,0,0,0,0-.08.08.08,0,0,0-.06-.08.32.32,0,0,0-.14,0l-.16,0H159s0,0-.07,0a.24.24,0,0,0-.06.09.25.25,0,0,0,0,.08.14.14,0,0,0,.09.11A.41.41,0,0,0,159.16,165.53Z"/><path class="cls-14" d="M160.34,163.88a.08.08,0,0,1-.08,0,.08.08,0,0,1,0-.06.07.07,0,0,1,0-.08.08.08,0,0,1,.07,0,.11.11,0,0,1,.08,0,.12.12,0,0,1,.05.07.19.19,0,0,1,0,.08A.12.12,0,0,1,160.34,163.88Zm.08,1.14-.13-.94.16,0,.13.94Z"/><path class="cls-14" d="M161,164.93l-.13-.93.13,0,0,.13h0l.13-.13a.33.33,0,0,1,.17-.07.21.21,0,0,1,.22.06.37.37,0,0,1,.11.26l.09.59-.16,0-.08-.57a.38.38,0,0,0-.07-.19.14.14,0,0,0-.14,0,.31.31,0,0,0-.13.06l-.11.12.1.68Z"/><rect class="cls-15" x="109.61" y="142.53" width="2.03" height="2.03" transform="translate(-19.23 17.13) rotate(-8.15)"/><path class="cls-5" d="M116,143.2l-.15-1.06h.13l.14.94.46-.07,0,.11Z"/><path class="cls-5" d="M117.13,143.05a.22.22,0,0,1-.14,0,.31.31,0,0,1-.13-.06.4.4,0,0,1-.1-.12.69.69,0,0,1-.05-.17.54.54,0,0,1,0-.18.59.59,0,0,1,.06-.14.31.31,0,0,1,.11-.09.29.29,0,0,1,.13-.05.32.32,0,0,1,.14,0,.31.31,0,0,1,.13.06.4.4,0,0,1,.1.12.69.69,0,0,1,.05.17.54.54,0,0,1,0,.18l-.06.14a.31.31,0,0,1-.11.09A.29.29,0,0,1,117.13,143.05Zm0-.11a.12.12,0,0,0,.09,0,.19.19,0,0,0,.06-.07.36.36,0,0,0,0-.11v-.12a.34.34,0,0,0,0-.12.15.15,0,0,0-.06-.09l-.08-.05H117l-.09,0a.16.16,0,0,0-.06.08.3.3,0,0,0,0,.1v.12a.5.5,0,0,0,0,.13.16.16,0,0,0,.06.08.14.14,0,0,0,.08.05A.14.14,0,0,0,117.11,142.94Z"/><path class="cls-5" d="M117.81,142.93l-.11-.78h.11l0,.13h0a.57.57,0,0,1,.08-.13.23.23,0,0,1,.12-.06h.08v.12h-.07a.21.21,0,0,0-.1.06.26.26,0,0,0-.07.15l.07.5Z"/><path class="cls-5" d="M118.8,142.81a.25.25,0,0,1-.15,0,.26.26,0,0,1-.13-.06.35.35,0,0,1-.1-.11.49.49,0,0,1-.06-.17.51.51,0,0,1,0-.18.35.35,0,0,1,.06-.14.47.47,0,0,1,.1-.1.28.28,0,0,1,.13,0h.13a.24.24,0,0,1,.11.06.44.44,0,0,1,.08.11.54.54,0,0,1,0,.15v.07l-.53.08a.39.39,0,0,0,.1.19.27.27,0,0,0,.2,0,.17.17,0,0,0,.1,0l.08,0,.06.08-.1.07Zm-.32-.44.42-.06a.27.27,0,0,0-.07-.17.17.17,0,0,0-.16,0,.11.11,0,0,0-.07,0,.1.1,0,0,0-.06.05.18.18,0,0,0,0,.09A.3.3,0,0,0,118.48,142.37Z"/><path class="cls-5" d="M119.4,142.71l-.11-.79h.1l0,.11h0l.09-.11a.31.31,0,0,1,.13-.06.24.24,0,0,1,.15,0,.22.22,0,0,1,.09.1.69.69,0,0,1,.11-.13.18.18,0,0,1,.12-.05.18.18,0,0,1,.19.05.38.38,0,0,1,.1.22l.07.49-.13,0-.07-.48a.26.26,0,0,0-.06-.15.16.16,0,0,0-.12,0,.3.3,0,0,0-.18.15l.08.57-.13,0-.07-.48a.37.37,0,0,0,0-.15.16.16,0,0,0-.12,0,.3.3,0,0,0-.18.15l.08.57Z"/><path class="cls-5" d="M121.23,141.48a.08.08,0,0,1-.07,0l0-.06a.14.14,0,0,1,0-.07l.06,0a.08.08,0,0,1,.07,0,.1.1,0,0,1,0,0,.14.14,0,0,1,0,.07A.09.09,0,0,1,121.23,141.48Zm.07,1-.12-.78.14,0,.11.79Z"/><path class="cls-5" d="M121.86,142.69l-.16-1.11.11,0,0,.09h0a.43.43,0,0,1,.1-.09.24.24,0,0,1,.13-.05h.14a.41.41,0,0,1,.11.07.35.35,0,0,1,.07.12.43.43,0,0,1,0,.16.54.54,0,0,1,0,.18.39.39,0,0,1-.06.15l-.09.09a.29.29,0,0,1-.13.05.21.21,0,0,1-.11,0,.31.31,0,0,1-.12,0l0,.14,0,.26Zm.26-.47a.16.16,0,0,0,.09,0l.06-.07a.2.2,0,0,0,0-.11.28.28,0,0,0,0-.13.27.27,0,0,0,0-.12.22.22,0,0,0,0-.08.18.18,0,0,0-.07-.05h-.1l-.09,0-.1.1.06.41.11.05Z"/><path class="cls-5" d="M123,142.21h-.16a.59.59,0,0,1-.14-.06l0-.1.11.05a.19.19,0,0,0,.13,0,.16.16,0,0,0,.11,0,.09.09,0,0,0,0-.09.08.08,0,0,0,0-.05l0,0-.06,0H123l-.09,0s-.05,0-.08,0a.12.12,0,0,1-.06-.06.15.15,0,0,1,0-.08.28.28,0,0,1,0-.09.3.3,0,0,1,0-.08l.08-.05.11,0h.14l.12.05,0,.09-.09,0a.17.17,0,0,0-.1,0,.16.16,0,0,0-.11,0,.15.15,0,0,0,0,.09.05.05,0,0,0,0,0,.05.05,0,0,0,0,0,.08.08,0,0,0,.06,0l.06,0,.09,0,.09,0,.06.06a.25.25,0,0,1,0,.09.28.28,0,0,1,0,.09.36.36,0,0,1,0,.09l-.09.06Z"/><path class="cls-5" d="M123.85,142.09a.23.23,0,0,1-.19-.05.34.34,0,0,1-.09-.22l-.07-.5.13,0,.07.48a.3.3,0,0,0,.06.16.12.12,0,0,0,.12,0,.19.19,0,0,0,.1-.05.35.35,0,0,0,.09-.11l-.08-.56.13,0,.11.78-.11,0,0-.12h0a.4.4,0,0,1-.1.12A.3.3,0,0,1,123.85,142.09Z"/><path class="cls-5" d="M124.62,142l-.12-.78.12,0,0,.11h0a.52.52,0,0,1,.1-.11.17.17,0,0,1,.12,0,.24.24,0,0,1,.15,0,.1.1,0,1,0,.2,0,.2.2,0,0,1,.12-.06.23.23,0,0,1,.2.05.45.45,0,0,1,.09.22l.07.49-.13,0-.07-.47a.27.27,0,0,0-.06-.16.12.12,0,0,0-.12,0,.3.3,0,0,0-.18.15l.08.56-.13,0-.07-.48a.26.26,0,0,0-.06-.15.12.12,0,0,0-.11,0,.3.3,0,0,0-.18.15l.08.57Z"/><path class="cls-5" d="M126.79,141.67a.33.33,0,0,1-.26-.07.49.49,0,0,1-.13-.29.35.35,0,0,1,0-.18.58.58,0,0,1,0-.14.47.47,0,0,1,.1-.1.28.28,0,0,1,.12,0h.12l.12.05,0-.13,0-.3.13,0,.16,1.15H127l0-.09h0a.28.28,0,0,1-.09.1Zm0-.12a.21.21,0,0,0,.1,0,.24.24,0,0,0,.08-.09l-.06-.41a.24.24,0,0,0-.1,0h-.1a.2.2,0,0,0-.08,0,.23.23,0,0,0-.07.07l0,.1a.24.24,0,0,0,0,.12.34.34,0,0,0,.09.22A.17.17,0,0,0,126.8,141.55Z"/><path class="cls-5" d="M127.84,141.52h-.15l-.12-.06a.4.4,0,0,1-.1-.12.31.31,0,0,1,0-.17.54.54,0,0,1,0-.18.35.35,0,0,1,.06-.14.36.36,0,0,1,.11-.1.28.28,0,0,1,.13,0h.14l.13.07a.63.63,0,0,1,.1.12.69.69,0,0,1,0,.17.37.37,0,0,1,0,.18.26.26,0,0,1-.06.13.24.24,0,0,1-.1.1A.35.35,0,0,1,127.84,141.52Zm0-.11.09,0a.14.14,0,0,0,.06-.07.17.17,0,0,0,0-.1.24.24,0,0,0,0-.12.21.21,0,0,0,0-.12.35.35,0,0,0-.06-.09.24.24,0,0,0-.08-.06h-.1a.11.11,0,0,0-.08,0,.23.23,0,0,0-.07.07l0,.11v.12a.34.34,0,0,0,0,.12.19.19,0,0,0,0,.09l.09.05Z"/><path class="cls-5" d="M128.67,141.4a.12.12,0,0,1-.12,0,.32.32,0,0,1-.05-.13l-.14-1,.13,0,.14,1s0,0,0,.05h.06l0,.1h-.07Z"/><path class="cls-5" d="M129.36,141.3a.32.32,0,0,1-.14,0,.31.31,0,0,1-.13-.06.4.4,0,0,1-.1-.12.69.69,0,0,1-.05-.17.54.54,0,0,1,0-.18.61.61,0,0,1,.07-.14.22.22,0,0,1,.1-.09.29.29,0,0,1,.13-.05.22.22,0,0,1,.14,0,.31.31,0,0,1,.13.06.4.4,0,0,1,.1.12.31.31,0,0,1,0,.17.54.54,0,0,1,0,.18.35.35,0,0,1-.06.14.24.24,0,0,1-.11.09A.29.29,0,0,1,129.36,141.3Zm0-.11a.13.13,0,0,0,.09,0,.16.16,0,0,0,.07-.07l0-.1v-.12a.34.34,0,0,0,0-.12.15.15,0,0,0-.06-.09l-.08-.05a.14.14,0,0,0-.09,0,.16.16,0,0,0-.09,0,.16.16,0,0,0-.06.08.15.15,0,0,0,0,.1.24.24,0,0,0,0,.12.21.21,0,0,0,0,.12.35.35,0,0,0,.06.09l.08.05A.14.14,0,0,0,129.34,141.19Z"/><path class="cls-5" d="M130.05,141.18l-.12-.78.11,0,0,.14h0a.57.57,0,0,1,.08-.13.27.27,0,0,1,.12-.06h.09v.11h-.08a.18.18,0,0,0-.1.06.26.26,0,0,0-.07.15l.07.5Z"/><path class="cls-5" d="M131.38,141a.33.33,0,0,1-.17,0,.35.35,0,0,1-.14-.06l.05-.09.12.05h.13a.28.28,0,0,0,.11,0,.12.12,0,0,0,0-.1s0,0,0,0l0,0-.06,0-.07,0-.09,0-.08,0-.06-.06a.11.11,0,0,1,0-.08.27.27,0,0,1,0-.09.22.22,0,0,1,.05-.08l.07-.06a.45.45,0,0,1,.11,0h.14l.12.05-.05.1-.09,0h-.1s-.08,0-.1.05a.13.13,0,0,0,0,.08s0,0,0,.05l0,0,.06,0h.07l.09,0a.13.13,0,0,1,.08,0,.12.12,0,0,1,.06.06.19.19,0,0,1,0,.09.28.28,0,0,1,0,.09.12.12,0,0,1,0,.08.16.16,0,0,1-.08.06A.28.28,0,0,1,131.38,141Z"/><path class="cls-5" d="M131.9,140a.08.08,0,0,1-.07,0,.09.09,0,0,1,0-.06.07.07,0,0,1,0-.06l.06,0,.07,0a.09.09,0,0,1,0,.06.14.14,0,0,1,0,.06Zm.06,1-.11-.78.13,0,.12.78Z"/><path class="cls-5" d="M132.73,140.82h-.11l-.07,0a.24.24,0,0,1-.06-.08.3.3,0,0,1,0-.1l-.06-.43h-.12v-.1l.12,0,0-.22.11,0,0,.22.22,0v.11l-.21,0,.06.43a.23.23,0,0,0,0,.11.17.17,0,0,0,.1,0l0,0,0,0,0,.1-.07,0Z"/><path class="cls-5" d="M133.77,140.67a.21.21,0,0,1-.17,0,.2.2,0,0,1-.09-.15.24.24,0,0,1,.09-.22,1,1,0,0,1,.35-.14.14.14,0,0,0,0-.07l0-.06-.06,0h-.08a.33.33,0,0,0-.12.05l-.1.07-.07-.08.13-.09a.43.43,0,0,1,.17-.06.28.28,0,0,1,.22.06.37.37,0,0,1,.09.22l.07.48-.11,0,0-.09h0a.52.52,0,0,1-.11.1Zm0-.11a.22.22,0,0,0,.11-.05.38.38,0,0,0,.09-.09l0-.21-.16,0-.1.06a.13.13,0,0,0,0,.06.09.09,0,0,0,0,.07c0,.05,0,.08.05.09A.18.18,0,0,0,133.79,140.56Z"/><path class="cls-5" d="M134.52,140.54l-.11-.78.11,0,0,.11h0a.52.52,0,0,1,.1-.11.21.21,0,0,1,.12-.05.19.19,0,0,1,.15,0,.18.18,0,0,1,.09.1.75.75,0,0,1,.11-.13.31.31,0,0,1,.13-.06.21.21,0,0,1,.19,0,.5.5,0,0,1,.09.22l.07.5-.13,0-.07-.48a.27.27,0,0,0-.06-.16.11.11,0,0,0-.11,0,.3.3,0,0,0-.18.15l.08.56-.13,0-.07-.48a.26.26,0,0,0-.06-.15.12.12,0,0,0-.12,0,.3.3,0,0,0-.18.15l.08.56Z"/><path class="cls-5" d="M136.3,140.31h-.16a.38.38,0,0,1-.13-.06.27.27,0,0,1-.09-.12.43.43,0,0,1-.06-.17.37.37,0,0,1,0-.18.35.35,0,0,1,.06-.14.28.28,0,0,1,.1-.09.31.31,0,0,1,.12,0,.32.32,0,0,1,.14,0,.24.24,0,0,1,.11.06.27.27,0,0,1,.08.1.83.83,0,0,1,0,.15v0s0,0,0,0L136,140a.27.27,0,0,0,.1.19.28.28,0,0,0,.2,0l.1,0,.08-.06.06.08-.1.07Zm-.32-.44.42-.06a.25.25,0,0,0-.08-.17.2.2,0,0,0-.15,0l-.08,0-.06.06a.59.59,0,0,0,0,.08A.37.37,0,0,0,136,139.87Z"/><path class="cls-5" d="M137.13,140.19H137a.12.12,0,0,1-.08,0,.22.22,0,0,1-.05-.08.3.3,0,0,1,0-.1l-.07-.43h-.11l0-.1.13,0,0-.22.11,0,0,.22.21,0,0,.11-.21,0,.06.43a.23.23,0,0,0,0,.11.15.15,0,0,0,.1,0l.05,0,0,0,0,.1-.07,0Z"/><path class="cls-5" d="M137.57,140.38l0-.07.09-.09a.19.19,0,0,0,0-.13h-.08a.1.1,0,0,1,0-.07.06.06,0,0,1,0-.07l.06,0a.12.12,0,0,1,.09,0,.22.22,0,0,1,.05.11.3.3,0,0,1,0,.19A.32.32,0,0,1,137.57,140.38Z"/><path class="cls-5" d="M138.83,139.94h-.15a.33.33,0,0,1-.13-.07.33.33,0,0,1-.09-.11.34.34,0,0,1-.05-.17.54.54,0,0,1,0-.18.59.59,0,0,1,.06-.14.35.35,0,0,1,.11-.1.39.39,0,0,1,.14,0h.14a.31.31,0,0,1,.1.05l-.05.1-.08,0h-.09l-.09,0a.16.16,0,0,0-.07.07.3.3,0,0,0,0,.1v.13a.56.56,0,0,0,0,.12.47.47,0,0,0,.06.09s.05,0,.08,0a.14.14,0,0,0,.11,0,.14.14,0,0,0,.09,0l.08-.07.07.08a.48.48,0,0,1-.11.09A.28.28,0,0,1,138.83,139.94Z"/><path class="cls-5" d="M139.65,139.83h-.14a.31.31,0,0,1-.13-.06.4.4,0,0,1-.1-.12.42.42,0,0,1-.05-.17.54.54,0,0,1,0-.18.35.35,0,0,1,.06-.14.52.52,0,0,1,.11-.1.28.28,0,0,1,.13,0h.14l.13.07a.4.4,0,0,1,.1.12.58.58,0,0,1,0,.17.48.48,0,0,1,0,.17.46.46,0,0,1-.07.14.24.24,0,0,1-.1.1Zm0-.11.09,0a.13.13,0,0,0,.06-.07.3.3,0,0,0,0-.1.49.49,0,0,0,0-.12.21.21,0,0,0,0-.12.35.35,0,0,0-.06-.09.16.16,0,0,0-.08-.06h-.09a.12.12,0,0,0-.09,0,.23.23,0,0,0-.07.07l0,.11v.12a.34.34,0,0,0,0,.12.15.15,0,0,0,.06.09l.08.05Z"/><path class="cls-5" d="M140.33,139.71l-.11-.78.11,0,0,.11h0l.11-.11a.26.26,0,0,1,.14-.06.24.24,0,0,1,.19.05.5.5,0,0,1,.09.22l.07.5-.13,0-.07-.48a.26.26,0,0,0-.06-.15.16.16,0,0,0-.12,0,.19.19,0,0,0-.1.05.93.93,0,0,0-.1.1l.08.57Z"/><path class="cls-5" d="M141.54,139.56h-.16a.39.39,0,0,1-.15-.06l.06-.1a.34.34,0,0,0,.11.05.19.19,0,0,0,.13,0,.16.16,0,0,0,.11,0,.11.11,0,0,0,0-.09.05.05,0,0,0,0-.05.08.08,0,0,0,0,0l-.06,0h-.07l-.09,0a.19.19,0,0,1-.08,0,.15.15,0,0,1-.06,0,.25.25,0,0,1,0-.09.28.28,0,0,1,0-.09.16.16,0,0,1,0-.07.16.16,0,0,1,.08-.06l.11,0h.14l.12,0,0,.09-.1,0h-.09a.16.16,0,0,0-.11,0,.15.15,0,0,0,0,.09.05.05,0,0,0,0,0l0,0h.06l.07,0,.09,0,.09,0,.06.06a.36.36,0,0,1,0,.09.34.34,0,0,1,0,.1.59.59,0,0,1,0,.08l-.09.06Z"/><path class="cls-5" d="M142.45,139.43h-.15a.31.31,0,0,1-.13-.06.4.4,0,0,1-.1-.12.42.42,0,0,1,0-.17.54.54,0,0,1,0-.18.35.35,0,0,1,.06-.14.28.28,0,0,1,.1-.09.29.29,0,0,1,.13,0,.28.28,0,0,1,.13,0,.3.3,0,0,1,.11.07.27.27,0,0,1,.08.1.83.83,0,0,1,0,.15s0,0,0,0v0l-.53.07a.28.28,0,0,0,.11.19.25.25,0,0,0,.19,0l.1,0,.09-.06.06.08-.11.07Zm-.31-.44.41-.06a.3.3,0,0,0-.07-.18.19.19,0,0,0-.15,0l-.08,0a.12.12,0,0,0-.06.06.2.2,0,0,0,0,.08A.2.2,0,0,0,142.14,139Z"/><path class="cls-5" d="M143.36,139.3h-.15a.31.31,0,0,1-.13-.06.38.38,0,0,1-.09-.12.34.34,0,0,1-.05-.17.54.54,0,0,1,0-.18.35.35,0,0,1,.06-.14.52.52,0,0,1,.11-.1l.14-.05h.14l.1.05-.05.1-.08,0h-.09l-.09,0a.23.23,0,0,0-.07.07.42.42,0,0,0,0,.1v.13a.42.42,0,0,0,0,.12.47.47,0,0,0,.06.09l.08.05h.11a.14.14,0,0,0,.09,0l.08-.07.07.08a.31.31,0,0,1-.11.09Z"/><path class="cls-5" d="M144.14,139.18H144l-.08,0a.22.22,0,0,1,0-.08.36.36,0,0,1,0-.1l-.07-.44-.11,0,0-.1.12,0v-.22h.11l0,.22.21,0,0,.1-.21,0,.06.44a.28.28,0,0,0,0,.11.11.11,0,0,0,.1,0h0l0,0,0,.1-.07,0Z"/><path class="cls-5" d="M144.85,139.08h-.15l-.13-.07a.52.52,0,0,1-.1-.11.48.48,0,0,1-.05-.17.54.54,0,0,1,0-.18.35.35,0,0,1,.06-.14.47.47,0,0,1,.1-.1.45.45,0,0,1,.26,0,.2.2,0,0,1,.11.06.44.44,0,0,1,.08.11.54.54,0,0,1,0,.15.06.06,0,0,1,0,0v0l-.53.08a.33.33,0,0,0,.11.19.25.25,0,0,0,.19,0,.17.17,0,0,0,.1,0l.09-.05.06.08L145,139Zm-.31-.44.41-.06a.29.29,0,0,0-.07-.17.16.16,0,0,0-.15,0,.11.11,0,0,0-.08,0,.15.15,0,0,0-.06,0,.36.36,0,0,0,0,.09A.16.16,0,0,0,144.54,138.64Z"/><path class="cls-5" d="M145.68,139h-.11l-.07,0a.22.22,0,0,1-.05-.08l0-.11-.06-.43-.12,0v-.1l.12,0V138h.11l0,.21.21,0v.11l-.21,0,.06.44a.37.37,0,0,0,0,.11.1.1,0,0,0,.1,0h0l0,0,0,.09-.06,0Z"/><path class="cls-5" d="M146.33,138.87a.23.23,0,0,1-.19-.05.34.34,0,0,1-.09-.22l-.07-.5.13,0,.07.48a.27.27,0,0,0,.06.16.1.1,0,0,0,.11,0,.22.22,0,0,0,.11-.05.59.59,0,0,0,.09-.11l-.08-.56.13,0,.11.79h-.11l0-.12h0a.63.63,0,0,1-.1.12A.35.35,0,0,1,146.33,138.87Z"/><path class="cls-5" d="M147.42,138.72h-.16a.24.24,0,0,1-.13-.07.2.2,0,0,1-.09-.11.43.43,0,0,1-.06-.17.37.37,0,0,1,0-.18.35.35,0,0,1,.06-.14.32.32,0,0,1,.1-.1.28.28,0,0,1,.12,0,.33.33,0,0,1,.14,0,.41.41,0,0,1,.11.07.27.27,0,0,1,.08.1.54.54,0,0,1,0,.15v.08l-.52.07a.29.29,0,0,0,.1.19.28.28,0,0,0,.2.05l.1,0,.08,0,.06.08-.11.07Zm-.32-.44.42-.06a.3.3,0,0,0-.08-.18.19.19,0,0,0-.15,0l-.08,0a.17.17,0,0,0-.06.06.2.2,0,0,0,0,.08A.37.37,0,0,0,147.1,138.28Z"/><path class="cls-5" d="M148,138.61l-.11-.78.11,0,0,.14h0a.29.29,0,0,1,.08-.13.23.23,0,0,1,.12-.06h.08v.12h-.07a.12.12,0,0,0-.1.06.35.35,0,0,0-.08.15l.08.5Z"/><path class="cls-5" d="M149.32,138.44a.24.24,0,0,1-.17,0,.22.22,0,0,1-.09-.16.23.23,0,0,1,.09-.21.77.77,0,0,1,.35-.15s0,0,0-.07l0-.06-.06,0h-.08a.28.28,0,0,0-.13,0,.34.34,0,0,0-.09.08l-.07-.09.13-.09a.43.43,0,0,1,.16,0,.25.25,0,0,1,.23,0,.4.4,0,0,1,.09.23l.07.48h-.11l0-.09h0a.52.52,0,0,1-.11.1A.21.21,0,0,1,149.32,138.44Zm0-.11a.25.25,0,0,0,.11,0,.38.38,0,0,0,.09-.09l0-.22-.16.05-.1.06s-.05,0-.05.06,0,0,0,.07a.11.11,0,0,0,.05.1A.16.16,0,0,0,149.34,138.33Z"/><path class="cls-5" d="M150.34,138.3a.29.29,0,0,1-.25-.08.42.42,0,0,1-.13-.29.48.48,0,0,1,0-.17.35.35,0,0,1,.06-.14.28.28,0,0,1,.09-.1l.13-.05h.12l.11.05,0-.13,0-.3.13,0,.17,1.14-.11,0,0-.09h0a.28.28,0,0,1-.1.09A.27.27,0,0,1,150.34,138.3Zm0-.12a.18.18,0,0,0,.1,0,.38.38,0,0,0,.09-.09l-.06-.41a.34.34,0,0,0-.11,0h-.09l-.09,0a.14.14,0,0,0-.06.07.3.3,0,0,0,0,.1v.12a.5.5,0,0,0,.09.22A.21.21,0,0,0,150.35,138.18Z"/><path class="cls-5" d="M151,137.22a.07.07,0,0,1-.06,0,.07.07,0,0,1,0,0,.08.08,0,0,1,0-.07.06.06,0,0,1,.06,0,.08.08,0,0,1,.07,0,.06.06,0,0,1,0,.06.06.06,0,0,1,0,.06Zm.07.95-.11-.78.13,0,.11.78Z"/><path class="cls-5" d="M151.65,138.43l-.16-1.12h.11l0,.09h0l.1-.1.13,0a.32.32,0,0,1,.14,0,.23.23,0,0,1,.1.07.28.28,0,0,1,.08.11.43.43,0,0,1,0,.17.54.54,0,0,1,0,.18.58.58,0,0,1-.05.14.32.32,0,0,1-.1.1l-.12,0h-.11l-.12-.05,0,.13,0,.27Zm.26-.47.09,0a.22.22,0,0,0,.06-.07l0-.1a.29.29,0,0,0,0-.13,1,1,0,0,0,0-.12.41.41,0,0,0-.05-.09l-.07,0a.17.17,0,0,0-.1,0,.26.26,0,0,0-.1,0,.38.38,0,0,0-.09.09l.06.41a.18.18,0,0,0,.11,0Z"/><path class="cls-5" d="M152.55,137a.08.08,0,0,1-.07,0,.07.07,0,0,1,0,0,.08.08,0,0,1,0-.07.07.07,0,0,1,.06,0,.08.08,0,0,1,.07,0,.13.13,0,0,1,0,.06.11.11,0,0,1,0,.06Zm.06.95-.11-.78.13,0,.11.78Z"/><path class="cls-5" d="M153.34,137.87a.49.49,0,0,1-.17,0,.35.35,0,0,1-.14-.06l.05-.1.12.06a.28.28,0,0,0,.13,0,.13.13,0,0,0,.11,0,.1.1,0,0,0,0-.09.08.08,0,0,0,0-.05.1.1,0,0,0-.05,0l-.06,0h-.07l-.08,0-.09,0-.06-.05a.12.12,0,0,1,0-.09.27.27,0,0,1,0-.09l.05-.07a.12.12,0,0,1,.08-.06.17.17,0,0,1,.1,0,.38.38,0,0,1,.15,0l.11,0-.05.09-.09,0a.17.17,0,0,0-.1,0,.11.11,0,0,0-.1,0,.11.11,0,0,0,0,.08.13.13,0,0,0,0,.05l0,0,.06,0h.07l.09,0,.08,0a.15.15,0,0,1,.06.05.18.18,0,0,1,0,.09.31.31,0,0,1,0,.1s0,.05,0,.08l-.08.06Z"/><path class="cls-5" d="M154.24,137.74a.35.35,0,0,1-.15,0,.31.31,0,0,1-.13-.06.4.4,0,0,1-.1-.12.69.69,0,0,1-.05-.17.37.37,0,0,1,0-.18.35.35,0,0,1,.06-.14.52.52,0,0,1,.11-.1.33.33,0,0,1,.14,0h.13a.39.39,0,0,1,.11.06l-.05.09-.08,0h-.09a.16.16,0,0,0-.16.11.23.23,0,0,0,0,.1.24.24,0,0,0,0,.12.35.35,0,0,0,0,.12.22.22,0,0,0,.07.09l.08.05h.1l.1,0,.07-.07.07.08a.28.28,0,0,1-.1.09A.35.35,0,0,1,154.24,137.74Z"/><path class="cls-5" d="M154.71,136.69a.1.1,0,0,1-.07,0,.05.05,0,0,1,0,0,.06.06,0,0,1,0-.07.06.06,0,0,1,.06,0,.09.09,0,0,1,.07,0,.07.07,0,0,1,0,.06,0,0,0,0,1,0,.06A.09.09,0,0,1,154.71,136.69Zm.07.95-.11-.78.13,0,.11.78Z"/><path class="cls-5" d="M155.3,137.57l-.12-.79h.11l0,.11h0a.52.52,0,0,1,.1-.11.3.3,0,0,1,.14-.06.23.23,0,0,1,.19,0,.34.34,0,0,1,.09.22l.07.5-.13,0-.07-.48a.27.27,0,0,0-.06-.16.12.12,0,0,0-.12,0,.19.19,0,0,0-.1,0,.45.45,0,0,0-.09.1l.08.57Z"/><path class="cls-5" d="M156.61,137.75h-.13a.2.2,0,0,1-.11,0,.13.13,0,0,1-.07-.05.15.15,0,0,1,0-.09.13.13,0,0,1,0-.1.28.28,0,0,1,.07-.09h0l-.06,0a.1.1,0,0,1,0-.08.08.08,0,0,1,0-.08.21.21,0,0,1,0-.07h0l-.08-.08a.22.22,0,0,1-.05-.11.41.41,0,0,1,0-.12.31.31,0,0,1,.05-.1.22.22,0,0,1,.09-.07.2.2,0,0,1,.11,0h.11l.27,0,0,.1-.16,0,.05.07a.12.12,0,0,1,0,.09.2.2,0,0,1,0,.11.31.31,0,0,1-.05.1l-.09.06-.1,0h-.13a.08.08,0,0,0,0,0,.13.13,0,0,0,0,.06.07.07,0,0,0,0,.06.19.19,0,0,0,.11,0l.15,0a.34.34,0,0,1,.21,0,.15.15,0,0,1,.09.13.21.21,0,0,1,0,.11.31.31,0,0,1-.07.09l-.11.08Zm-.1-.7.07,0,0-.05s0,0,0-.06a.11.11,0,0,0,0-.08.19.19,0,0,0-.07-.13.16.16,0,0,0-.12,0,.16.16,0,0,0-.11.07.16.16,0,0,0,0,.14.14.14,0,0,0,0,.07l0,.06.06,0Zm.11.6a.17.17,0,0,0,.1,0l.07,0,.05-.06s0,0,0-.06a.07.07,0,0,0-.05-.07h-.12l-.13,0h-.11a.35.35,0,0,0-.05.08.15.15,0,0,0,0,.07.12.12,0,0,0,.08.09A.31.31,0,0,0,156.62,137.65Z"/><path class="cls-5" d="M158,137.2a.26.26,0,0,1-.15,0,.31.31,0,0,1-.13-.06.4.4,0,0,1-.1-.12.6.6,0,0,1-.05-.16.54.54,0,0,1,0-.18,1,1,0,0,1,.06-.14.32.32,0,0,1,.1-.1l.13-.05H158a.26.26,0,0,1,.18.17.33.33,0,0,1,0,.15s0,0,0,0v0l-.53.08a.4.4,0,0,0,.11.19.25.25,0,0,0,.19,0,.17.17,0,0,0,.1,0,.24.24,0,0,0,.09-.06l.06.08-.11.08Zm-.31-.44.42-.06a.27.27,0,0,0-.08-.17.16.16,0,0,0-.15,0l-.08,0-.06.06a.25.25,0,0,0,0,.09A.31.31,0,0,0,157.68,136.76Z"/><path class="cls-5" d="M158.73,137.1a.14.14,0,0,1-.11,0s0-.06-.05-.12l-.14-1,.13,0,.14,1,0,0h.06l0,.1,0,0Z"/><path class="cls-5" d="M159.05,136.07l-.06,0a.07.07,0,0,1,0-.06.07.07,0,0,1,0-.06.06.06,0,0,1,.06,0,.08.08,0,0,1,.07,0,.06.06,0,0,1,0,.06.07.07,0,0,1,0,.06Zm.07,1-.11-.78.13,0,.11.78Z"/><path class="cls-5" d="M159.89,136.93h-.11l-.08-.05,0-.07a.43.43,0,0,1,0-.11l-.06-.43h-.12l0-.1.13,0,0-.22.11,0,0,.22.21,0,0,.11-.21,0,.06.43a.23.23,0,0,0,0,.11.17.17,0,0,0,.1,0l0,0,0,0,0,.1-.07,0Z"/><path class="cls-5" d="M160.33,137.13l0-.08a.26.26,0,0,0,.09-.09.17.17,0,0,0,0-.12h-.08a.1.1,0,0,1,0-.07.08.08,0,0,1,0-.07l.07,0a.11.11,0,0,1,.08,0,.22.22,0,0,1,.05.12.28.28,0,0,1,0,.18A.4.4,0,0,1,160.33,137.13Z"/><path class="cls-5" d="M161.49,136.7a.33.33,0,0,1-.17,0,.35.35,0,0,1-.14-.06l0-.09.12.05h.13a.23.23,0,0,0,.11,0,.12.12,0,0,0,0-.1s0,0,0,0l-.05,0-.06,0-.07,0-.08,0-.09,0-.06-.05a.11.11,0,0,1,0-.08.27.27,0,0,1,0-.09.22.22,0,0,1,0-.08l.07-.06a.23.23,0,0,1,.11,0h.14a.33.33,0,0,1,.12.05l0,.09-.09,0h-.1c-.05,0-.08,0-.1.05a.13.13,0,0,0,0,.08s0,0,0,0l0,0,.06,0h.07l.09,0a.13.13,0,0,1,.08,0,.09.09,0,0,1,.06.06.19.19,0,0,1,0,.09.28.28,0,0,1,0,.09.12.12,0,0,1,0,.08.16.16,0,0,1-.08.06Z"/><path class="cls-5" d="M162.39,136.57a.26.26,0,0,1-.15,0,.31.31,0,0,1-.13-.06.4.4,0,0,1-.1-.12.6.6,0,0,1,0-.16.35.35,0,0,1,0-.18.3.3,0,0,1,.06-.14.24.24,0,0,1,.1-.1l.12-.05h.14a.24.24,0,0,1,.11.06.3.3,0,0,1,.07.11.33.33,0,0,1,.05.15v.07l-.52.08a.32.32,0,0,0,.1.19.26.26,0,0,0,.19,0,.2.2,0,0,0,.11,0,.21.21,0,0,0,.08-.06l.06.08-.11.08Zm-.31-.44.42-.06a.27.27,0,0,0-.08-.17.16.16,0,0,0-.15,0,.13.13,0,0,0-.08,0l-.06.05a.25.25,0,0,0,0,.09A.31.31,0,0,0,162.08,136.13Z"/><path class="cls-5" d="M163.26,136.45a.29.29,0,0,1-.25-.08.46.46,0,0,1-.13-.29.32.32,0,0,1,0-.17.46.46,0,0,1,.05-.14.47.47,0,0,1,.1-.1l.12,0h.12l.11.05,0-.13,0-.3.13,0,.16,1.15h-.11l0-.09h0a.2.2,0,0,1-.09.09A.31.31,0,0,1,163.26,136.45Zm0-.12a.21.21,0,0,0,.1,0,.29.29,0,0,0,.08-.1l-.06-.4a.19.19,0,0,0-.1,0h-.1l-.08,0a.27.27,0,0,0-.07.08l0,.1a.24.24,0,0,0,0,.12.29.29,0,0,0,.09.21A.18.18,0,0,0,163.28,136.33Z"/><path class="cls-5" d="M164.72,136.24a.31.31,0,0,1-.25-.07.49.49,0,0,1-.13-.29.54.54,0,0,1,0-.18.35.35,0,0,1,.06-.14.43.43,0,0,1,.09-.1.28.28,0,0,1,.13,0h.12l.11.05,0-.13,0-.3.14,0,.16,1.15H165l0-.09h0l-.1.1A.33.33,0,0,1,164.72,136.24Zm0-.12a.18.18,0,0,0,.1,0l.09-.09-.06-.41a.27.27,0,0,0-.11-.05h-.09l-.09,0a.22.22,0,0,0-.06.07.3.3,0,0,0,0,.1v.12a.5.5,0,0,0,.09.22A.21.21,0,0,0,164.73,136.12Z"/><path class="cls-5" d="M165.4,135.16a.08.08,0,0,1-.07,0,.1.1,0,0,1,0,0,.14.14,0,0,1,0-.07l.06,0a.08.08,0,0,1,.07,0,.13.13,0,0,1,0,.06.11.11,0,0,1,0,.06Zm.06,1-.11-.78.13,0,.12.78Z"/><path class="cls-5" d="M166.16,136a.25.25,0,0,1-.17,0,.24.24,0,0,1-.09-.16.22.22,0,0,1,.09-.21.89.89,0,0,1,.35-.15.19.19,0,0,0,0-.07s0,0,0-.06a.09.09,0,0,0-.06,0h-.08a.28.28,0,0,0-.12,0l-.1.07-.06-.08.12-.09a.49.49,0,0,1,.17-.06.26.26,0,0,1,.22.06.45.45,0,0,1,.1.23l.07.48h-.11l0-.09h0l-.11.1A.34.34,0,0,1,166.16,136Zm0-.11.1,0,.09-.1,0-.21-.16.05-.1.06-.05.06a.17.17,0,0,0,0,.07c0,.05,0,.08.06.09A.15.15,0,0,0,166.19,135.92Z"/><path class="cls-5" d="M166.91,135.9l-.11-.78h.11l0,.11h0a.36.36,0,0,1,.1-.11.31.31,0,0,1,.13-.06.2.2,0,0,1,.14,0,.18.18,0,0,1,.09.1l.11-.13a.31.31,0,0,1,.13-.06.24.24,0,0,1,.19.05.34.34,0,0,1,.09.22l.07.5-.13,0-.07-.48a.26.26,0,0,0-.06-.15.1.1,0,0,0-.11,0,.3.3,0,0,0-.18.15l.08.57-.13,0-.07-.48a.27.27,0,0,0-.06-.16.12.12,0,0,0-.12,0,.3.3,0,0,0-.18.15l.09.57Z"/><path class="cls-5" d="M168.81,135.63l-.11-.78.11,0,0,.11h0l.11-.11a.19.19,0,0,1,.13-.05.2.2,0,0,1,.2.05.45.45,0,0,1,.09.22l.07.49-.14,0-.06-.48a.26.26,0,0,0-.06-.15.16.16,0,0,0-.12,0,.23.23,0,0,0-.1.05l-.1.11.08.56Z"/><path class="cls-5" d="M170.12,135.47H170a.33.33,0,0,1-.13-.07.52.52,0,0,1-.1-.11.84.84,0,0,1-.05-.17.54.54,0,0,1,0-.18l.06-.14a.52.52,0,0,1,.11-.1l.13-.05h.14a.24.24,0,0,1,.13.07.52.52,0,0,1,.1.11.48.48,0,0,1,0,.17.54.54,0,0,1,0,.18.45.45,0,0,1-.06.14.52.52,0,0,1-.11.1Zm0-.11a.19.19,0,0,0,.09,0,.23.23,0,0,0,.07-.07l0-.1V135a.56.56,0,0,0,0-.12.24.24,0,0,0-.06-.09l-.08-.05H170a.19.19,0,0,0-.09,0,.13.13,0,0,0-.06.07.3.3,0,0,0,0,.1.62.62,0,0,0,0,.13.27.27,0,0,0,0,.12.24.24,0,0,0,.06.09l.08,0Z"/><path class="cls-5" d="M170.81,135.35l-.12-.79h.11l0,.11h0a.52.52,0,0,1,.1-.11.3.3,0,0,1,.14-.06.2.2,0,0,1,.19,0,.34.34,0,0,1,.09.22l.07.5-.13,0-.07-.48a.27.27,0,0,0-.06-.16.12.12,0,0,0-.12,0,.19.19,0,0,0-.1,0,.45.45,0,0,0-.09.1l.08.57Z"/><path class="cls-5" d="M172,135.19a.25.25,0,0,1-.2-.05.5.5,0,0,1-.09-.22l-.07-.5.14,0,.06.48a.53.53,0,0,0,.06.16.12.12,0,0,0,.12,0,.22.22,0,0,0,.11,0l.08-.11-.08-.56.14,0,.11.79h-.11l0-.12h0a.43.43,0,0,1-.11.12A.26.26,0,0,1,172,135.19Z"/><path class="cls-5" d="M172.8,135.06l-.11-.78.11,0,0,.11h0a.52.52,0,0,1,.1-.11.21.21,0,0,1,.13,0,.16.16,0,0,1,.14,0,.18.18,0,0,1,.09.1.5.5,0,0,1,.11-.13.31.31,0,0,1,.13-.06.21.21,0,0,1,.19.05.34.34,0,0,1,.09.22l.07.5-.13,0-.07-.48a.27.27,0,0,0-.06-.16.1.1,0,0,0-.11,0,.3.3,0,0,0-.18.15l.08.56-.13,0-.07-.48a.26.26,0,0,0-.06-.15.12.12,0,0,0-.12,0c-.06,0-.12.06-.18.14l.08.57Z"/><path class="cls-5" d="M174.26,134.85l-.11-.78.11,0,0,.12h0l.1-.11a.22.22,0,0,1,.12-.05.24.24,0,0,1,.15,0,.18.18,0,0,1,.09.1.47.47,0,0,1,.11-.13.26.26,0,0,1,.13-.06.21.21,0,0,1,.19,0,.5.5,0,0,1,.09.22l.07.5-.13,0-.07-.48a.27.27,0,0,0-.06-.16.12.12,0,0,0-.12,0,.3.3,0,0,0-.18.15l.09.56-.14,0-.06-.47a.53.53,0,0,0-.06-.16.12.12,0,0,0-.12,0,.3.3,0,0,0-.18.15l.08.56Z"/><path class="cls-5" d="M175.78,135h-.1v-.11h.06a.2.2,0,0,0,.11-.06.5.5,0,0,0,0-.13v-.06l-.43-.74.14,0,.22.41a.47.47,0,0,0,.05.1l.06.11h0s0-.08,0-.12a.36.36,0,0,1,0-.11l.07-.46h.13l-.17.89,0,.11a.26.26,0,0,1-.05.09.46.46,0,0,1-.07.07Z"/><path class="cls-5" d="M177,134.46l-.11-.79H177l0,.11h0a.55.55,0,0,1,.1-.11.35.35,0,0,1,.14-.06.2.2,0,0,1,.19.05.34.34,0,0,1,.09.22l.08.5-.14,0-.06-.48a.53.53,0,0,0-.06-.16.12.12,0,0,0-.12,0,.21.21,0,0,0-.11,0l-.09.11.08.57Z"/><path class="cls-5" d="M178,133.36a.1.1,0,0,1-.07,0,.05.05,0,0,1,0-.05.08.08,0,0,1,0-.07.06.06,0,0,1,.06,0H178a.07.07,0,0,1,0,.06.06.06,0,0,1,0,.07A.06.06,0,0,1,178,133.36Zm.07.95-.11-.78.13,0,.11.78Z"/><path class="cls-5" d="M178.9,134.21h-.12a.34.34,0,0,1-.12-.06h0v.08l-.1,0-.17-1.15.13,0,.05.32,0,.14a.47.47,0,0,1,.1-.1l.13-.05h.13a.41.41,0,0,1,.11.07.36.36,0,0,1,.08.12.62.62,0,0,1,0,.16.54.54,0,0,1,0,.18.58.58,0,0,1,0,.14.32.32,0,0,1-.1.1A.31.31,0,0,1,178.9,134.21Zm0-.11a.19.19,0,0,0,.08,0A.27.27,0,0,0,179,134a.62.62,0,0,0,0-.1v-.13l0-.12a.22.22,0,0,0,0-.08.12.12,0,0,0-.07-.05.16.16,0,0,0-.1,0,.33.33,0,0,0-.2.14l.06.41a.28.28,0,0,0,.12,0Z"/><path class="cls-5" d="M179.56,134.09l-.17-1.14.14,0,0,.31,0,.16.1-.1a.25.25,0,0,1,.14-.06.18.18,0,0,1,.19,0,.32.32,0,0,1,.09.22l.07.49-.13,0-.07-.48a.37.37,0,0,0,0-.15.12.12,0,0,0-.12,0,.21.21,0,0,0-.11,0,.53.53,0,0,0-.09.11l.08.56Z"/><path class="cls-5" d="M116.53,145.11a.38.38,0,0,1-.15,0,.31.31,0,0,1-.13-.06.4.4,0,0,1-.1-.12.69.69,0,0,1-.05-.17.37.37,0,0,1,0-.18.35.35,0,0,1,.06-.14.22.22,0,0,1,.1-.09.26.26,0,0,1,.12-.05.32.32,0,0,1,.14,0,.24.24,0,0,1,.11.06.36.36,0,0,1,.07.1.88.88,0,0,1,.05.15v.08l-.53.07a.32.32,0,0,0,.11.19.25.25,0,0,0,.19.05l.11,0,.08-.06.06.08a.41.41,0,0,1-.11.07A.29.29,0,0,1,116.53,145.11Zm-.31-.44.42-.06a.25.25,0,0,0-.08-.17.2.2,0,0,0-.15-.05l-.08,0-.06.06a.2.2,0,0,0,0,.08A.41.41,0,0,0,116.22,144.67Z"/><path class="cls-5" d="M117.36,145a.24.24,0,0,1-.19-.05.5.5,0,0,1-.09-.22l-.07-.5.13,0,.07.48a.27.27,0,0,0,.06.16.16.16,0,0,0,.12,0,.19.19,0,0,0,.1-.05.35.35,0,0,0,.09-.11l-.08-.56.13,0,.12.78-.12,0,0-.12h0a.4.4,0,0,1-.1.12A.3.3,0,0,1,117.36,145Z"/><path class="cls-5" d="M118.06,143.91l-.07,0a.06.06,0,0,1,0-.06s0,0,0-.06a.06.06,0,0,1,.06,0,.09.09,0,0,1,.07,0,.06.06,0,0,1,0,.06s0,0,0,.06A.09.09,0,0,1,118.06,143.91Zm.07,1-.11-.78.13,0,.11.78Z"/><path class="cls-5" d="M118.85,144.78h-.16a.59.59,0,0,1-.14-.06l0-.1a.34.34,0,0,0,.11,0,.2.2,0,0,0,.13,0,.16.16,0,0,0,.11,0,.09.09,0,0,0,0-.09.08.08,0,0,0,0-.05l0,0-.06,0h-.07l-.09,0s0,0-.08,0a.15.15,0,0,1-.06,0,.25.25,0,0,1,0-.09.28.28,0,0,1,0-.09l0-.08.08-.06.11,0h.14a.43.43,0,0,1,.12,0l-.05.09-.09,0h-.1a.23.23,0,0,0-.11,0,.15.15,0,0,0,0,.09.05.05,0,0,0,0,0,.05.05,0,0,0,0,0,.08.08,0,0,0,.06,0l.06,0,.09,0,.09,0,.06.06a.25.25,0,0,1,0,.09.28.28,0,0,1,0,.09.36.36,0,0,1,0,.09l-.09.06Z"/><path class="cls-5" d="M119.44,144.67l-.11-.78.11,0,0,.11h0a.52.52,0,0,1,.1-.11.21.21,0,0,1,.13-.05.17.17,0,0,1,.14,0,.18.18,0,0,1,.09.1.75.75,0,0,1,.11-.13.31.31,0,0,1,.13-.06.21.21,0,0,1,.19.05.34.34,0,0,1,.09.22l.07.5-.13,0-.07-.48a.27.27,0,0,0-.06-.16.11.11,0,0,0-.11,0,.3.3,0,0,0-.18.15l.08.56-.13,0-.07-.47a.27.27,0,0,0-.06-.16.12.12,0,0,0-.12,0,.3.3,0,0,0-.18.15l.08.56Z"/><path class="cls-5" d="M121.2,144.44a.34.34,0,0,1-.14,0,.27.27,0,0,1-.12-.06.29.29,0,0,1-.1-.12.43.43,0,0,1-.06-.17.55.55,0,0,1,0-.18.35.35,0,0,1,.06-.14l.1-.1.14,0a.23.23,0,0,1,.14,0,.27.27,0,0,1,.12.06.4.4,0,0,1,.1.12.43.43,0,0,1,.06.17.47.47,0,0,1,0,.17.34.34,0,0,1-.06.15.28.28,0,0,1-.1.09A.34.34,0,0,1,121.2,144.44Zm0-.11.09,0a.22.22,0,0,0,.06-.07.17.17,0,0,0,0-.1.24.24,0,0,0,0-.12l0-.12-.06-.09a.18.18,0,0,0-.08,0,.12.12,0,0,0-.1,0l-.09,0-.06.07a.2.2,0,0,0,0,.11.24.24,0,0,0,0,.12,1,1,0,0,0,0,.12l.06.09.08,0Z"/><path class="cls-5" d="M122.16,144.3a.28.28,0,0,1-.25-.07.46.46,0,0,1-.13-.29.54.54,0,0,1,0-.18.35.35,0,0,1,.06-.14.26.26,0,0,1,.09-.09.29.29,0,0,1,.13-.05.17.17,0,0,1,.12,0,.34.34,0,0,1,.11,0l0-.14,0-.3.14,0,.16,1.15-.11,0,0-.09h0l-.09.09A.21.21,0,0,1,122.16,144.3Zm0-.11.1,0,.09-.1-.06-.41-.11,0h-.09a.16.16,0,0,0-.09,0l-.06.07a.42.42,0,0,0,0,.1v.13a.51.51,0,0,0,.09.21A.18.18,0,0,0,122.17,144.19Z"/><path class="cls-5" d="M123.6,144.1h-.11l-.08,0a.22.22,0,0,1,0-.08l0-.1-.06-.44-.11,0,0-.1.12,0v-.23h.11l0,.22.21,0,0,.11-.21,0,.06.43a.18.18,0,0,0,0,.11.11.11,0,0,0,.1,0h0l0,0,0,.1-.07,0Z"/><path class="cls-5" d="M123.94,143.06a.07.07,0,0,1-.06,0,.05.05,0,0,1,0-.06s0-.05,0-.06a.09.09,0,0,1,.06,0,.08.08,0,0,1,.07,0,.06.06,0,0,1,0,.06.07.07,0,0,1,0,.06A.09.09,0,0,1,123.94,143.06Zm.07,1-.11-.79H124l.11.78Z"/><path class="cls-5" d="M124.53,143.94l-.11-.78.11,0,0,.12h0a1.27,1.27,0,0,1,.1-.12.34.34,0,0,1,.14,0,.18.18,0,0,1,.19,0,.32.32,0,0,1,.09.22l.07.49-.13,0-.07-.48a.26.26,0,0,0-.06-.15.1.1,0,0,0-.11,0,.21.21,0,0,0-.11,0,.53.53,0,0,0-.09.11l.08.56Z"/><path class="cls-5" d="M125.84,143.77h-.15a.38.38,0,0,1-.13-.06.54.54,0,0,1-.09-.12.34.34,0,0,1,0-.17.54.54,0,0,1,0-.18.59.59,0,0,1,.06-.14.52.52,0,0,1,.11-.1.39.39,0,0,1,.14-.05h.14l.1,0,0,.1-.08,0h-.09l-.09,0-.07.07a.3.3,0,0,0,0,.1v.13a.56.56,0,0,0,0,.12.47.47,0,0,0,.06.09l.09,0h.1a.14.14,0,0,0,.09,0l.08-.07.07.08a.48.48,0,0,1-.11.09A.28.28,0,0,1,125.84,143.77Z"/><path class="cls-5" d="M126.32,142.72a.08.08,0,0,1-.07,0,.09.09,0,0,1,0-.06s0-.05,0-.06l.06,0a.08.08,0,0,1,.07,0,.09.09,0,0,1,0,.06.14.14,0,0,1,0,.06A.09.09,0,0,1,126.32,142.72Zm.06,1-.11-.79h.13l.12.78Z"/><path class="cls-5" d="M127.17,143.58a.28.28,0,0,1-.25-.07.46.46,0,0,1-.13-.29.48.48,0,0,1,0-.17.3.3,0,0,1,.06-.14.45.45,0,0,1,.09-.1.29.29,0,0,1,.13-.05h.12l.11,0,0-.13,0-.3.14,0,.16,1.14-.11,0,0-.09h0a.38.38,0,0,1-.09.09A.21.21,0,0,1,127.17,143.58Zm0-.11.1,0a.45.45,0,0,0,.09-.1l-.06-.41-.1,0h-.1l-.09,0L127,143a.36.36,0,0,0,0,.11.53.53,0,0,0,0,.12.34.34,0,0,0,.08.21A.19.19,0,0,0,127.18,143.47Z"/><path class="cls-5" d="M128.15,143.45a.22.22,0,0,1-.2-.06.45.45,0,0,1-.09-.22l-.07-.49.13,0,.07.48a.26.26,0,0,0,.06.15.16.16,0,0,0,.12,0l.1-.05a.62.62,0,0,0,.09-.12l-.08-.55.13,0,.12.78-.11,0,0-.13h0l-.1.12A.26.26,0,0,1,128.15,143.45Z"/><path class="cls-5" d="M128.91,143.32l-.11-.79h.11l0,.11h0a.57.57,0,0,1,.11-.11.26.26,0,0,1,.13-.06.22.22,0,0,1,.2,0,.5.5,0,0,1,.09.22l.07.5h-.13l-.07-.47a.27.27,0,0,0-.06-.16.12.12,0,0,0-.12,0,.12.12,0,0,0-.1,0l-.1.1.08.57Z"/><path class="cls-5" d="M130.16,143.16h-.11l-.07,0a.22.22,0,0,1,0-.08.29.29,0,0,1,0-.1l-.06-.44-.12,0v-.1l.12,0,0-.23h.11l0,.22.21,0v.1l-.21,0,.06.44a.19.19,0,0,0,.05.11.1.1,0,0,0,.1,0h0l0,0,0,.1-.06,0Z"/><path class="cls-5" d="M131.25,143a.23.23,0,0,1-.19-.05.34.34,0,0,1-.09-.22l-.07-.5.13,0,.07.48a.27.27,0,0,0,.06.16s.06,0,.12,0a.19.19,0,0,0,.1,0,.35.35,0,0,0,.09-.11l-.08-.56.13,0,.11.79h-.11l0-.12h0a.63.63,0,0,1-.1.12A.3.3,0,0,1,131.25,143Z"/><path class="cls-5" d="M132.27,142.86h-.11a.2.2,0,0,1-.08,0,.22.22,0,0,1-.05-.08l0-.1-.06-.44-.11,0,0-.1.12,0v-.22H132l0,.22.21,0,0,.1-.21,0,.06.44a.28.28,0,0,0,0,.11.11.11,0,0,0,.1,0h.05l0,0,0,.09-.07,0Z"/><path class="cls-5" d="M133.27,142.71a.12.12,0,0,1-.12,0,.27.27,0,0,1-.05-.13l-.14-1,.13,0,.15,1s0,0,0,0h.06l0,.1h-.07Z"/><path class="cls-5" d="M133.84,142.63a.24.24,0,0,1-.17,0,.24.24,0,0,1-.09-.16.21.21,0,0,1,.08-.21.88.88,0,0,1,.36-.15.64.64,0,0,0,0-.07.13.13,0,0,0,0-.06.1.1,0,0,0-.05,0h-.08a.28.28,0,0,0-.13,0l-.09.07-.07-.08.13-.09a.38.38,0,0,1,.16-.06.25.25,0,0,1,.22.06.33.33,0,0,1,.1.23l.07.47-.11,0,0-.09h0a.52.52,0,0,1-.11.1A.29.29,0,0,1,133.84,142.63Zm0-.11.1,0,.1-.1,0-.21a.5.5,0,0,0-.16.05l-.1.06a.17.17,0,0,0-.06.06s0,0,0,.07,0,.08,0,.09A.16.16,0,0,0,133.86,142.52Z"/><path class="cls-5" d="M134.89,142.48a.34.34,0,0,1-.14,0,.27.27,0,0,1-.12-.06.4.4,0,0,1-.1-.12.43.43,0,0,1-.06-.17.55.55,0,0,1,0-.18.35.35,0,0,1,.06-.14.47.47,0,0,1,.1-.1l.14,0a.23.23,0,0,1,.14,0,.3.3,0,0,1,.22.18.43.43,0,0,1,.06.17.32.32,0,0,1,0,.17.34.34,0,0,1-.06.15.28.28,0,0,1-.1.09A.34.34,0,0,1,134.89,142.48Zm0-.11.09,0a.22.22,0,0,0,.06-.07.17.17,0,0,0,0-.1.24.24,0,0,0,0-.12,1,1,0,0,0,0-.12.35.35,0,0,0-.06-.09.18.18,0,0,0-.08-.05.11.11,0,0,0-.1,0,.16.16,0,0,0-.09,0l-.06.07a.35.35,0,0,0,0,.11.24.24,0,0,0,0,.12,1,1,0,0,0,0,.12l.06.09.08.05Z"/><path class="cls-5" d="M135.58,142.36l-.11-.78.11,0,0,.14h0a.26.26,0,0,1,.08-.13.24.24,0,0,1,.11-.06h.09v.12h-.08a.22.22,0,0,0-.1.06.35.35,0,0,0-.07.15l.07.5Z"/><path class="cls-5" d="M136.56,142.24a.38.38,0,0,1-.15,0,.31.31,0,0,1-.13-.06.4.4,0,0,1-.1-.12.58.58,0,0,1-.05-.17.48.48,0,0,1,0-.17.46.46,0,0,1,.07-.14.24.24,0,0,1,.1-.1.31.31,0,0,1,.12-.05h.14a.24.24,0,0,1,.11.06.3.3,0,0,1,.07.11.58.58,0,0,1,0,.14v.08l-.52.08a.27.27,0,0,0,.1.18.22.22,0,0,0,.19,0,.2.2,0,0,0,.11,0l.08-.06.06.08a.41.41,0,0,1-.11.07A.29.29,0,0,1,136.56,142.24Zm-.31-.44.42-.06a.25.25,0,0,0-.08-.17.16.16,0,0,0-.15,0l-.08,0-.06.06a.25.25,0,0,0,0,.09A.31.31,0,0,0,136.25,141.8Z"/><path class="cls-5" d="M137.48,142.11a.38.38,0,0,1-.15,0,.31.31,0,0,1-.13-.06.4.4,0,0,1-.1-.12.69.69,0,0,1,0-.17.48.48,0,0,1,0-.17.52.52,0,0,1,.07-.15.26.26,0,0,1,.09-.09.35.35,0,0,1,.13-.05.32.32,0,0,1,.14,0,.24.24,0,0,1,.11.06.3.3,0,0,1,.07.11.58.58,0,0,1,.05.14v.08l-.53.08a.33.33,0,0,0,.11.18.25.25,0,0,0,.19.05l.11,0,.08-.06.06.08a.41.41,0,0,1-.11.07A.29.29,0,0,1,137.48,142.11Zm-.31-.44.42-.06a.25.25,0,0,0-.08-.17.2.2,0,0,0-.15-.05l-.08,0-.06.06a.2.2,0,0,0,0,.08A.41.41,0,0,0,137.17,141.67Z"/><path class="cls-5" d="M138.32,142a.19.19,0,0,1-.11,0,.12.12,0,0,1-.08,0,.18.18,0,0,1,0-.07l0-.11-.06-.43h-.11l0-.1.12,0V141l.11,0,0,.22.21,0,0,.11-.21,0,.06.43a.23.23,0,0,0,0,.11.15.15,0,0,0,.1,0l0,0,0,0,0,.1-.07,0Z"/><path class="cls-5" d="M139.44,141.83a.32.32,0,0,1-.25-.07.49.49,0,0,1-.13-.29.35.35,0,0,1,0-.18.58.58,0,0,1,.05-.14l.1-.1a.28.28,0,0,1,.12,0h.12l.11.05,0-.13,0-.3.13,0,.16,1.15h-.11l0-.09h0a.28.28,0,0,1-.09.1Zm0-.12a.21.21,0,0,0,.1,0,.36.36,0,0,0,.08-.09l-.06-.41a.24.24,0,0,0-.1,0h-.1a.2.2,0,0,0-.08,0,.16.16,0,0,0-.07.07l0,.1a.24.24,0,0,0,0,.12.34.34,0,0,0,.09.22A.2.2,0,0,0,139.46,141.71Z"/><path class="cls-5" d="M140.5,141.68h-.15a.27.27,0,0,1-.12-.06.4.4,0,0,1-.1-.12.43.43,0,0,1-.06-.17.53.53,0,0,1,0-.18.35.35,0,0,1,.06-.14.47.47,0,0,1,.1-.1.33.33,0,0,1,.14,0,.33.33,0,0,1,.14,0,.47.47,0,0,1,.12.07.29.29,0,0,1,.1.12.38.38,0,0,1,.06.17.32.32,0,0,1,0,.17.3.3,0,0,1-.06.14.32.32,0,0,1-.1.1Zm0-.11.09,0,.06-.07a.17.17,0,0,0,0-.1.24.24,0,0,0,0-.12.34.34,0,0,0-.09-.21.21.21,0,0,0-.08-.06h-.1a.16.16,0,0,0-.09,0l-.06.07a.2.2,0,0,0,0,.11.24.24,0,0,0,0,.12,1,1,0,0,0,0,.12.7.7,0,0,0,.06.09l.08.05Z"/><path class="cls-5" d="M141.32,141.56a.13.13,0,0,1-.11,0,.22.22,0,0,1-.05-.13l-.14-1,.13,0,.14,1s0,0,0,0,0,0,0,0h0l0,.1h-.08Z"/><path class="cls-5" d="M142,141.46a.32.32,0,0,1-.14,0,.31.31,0,0,1-.13-.06.4.4,0,0,1-.1-.12.69.69,0,0,1-.05-.17.54.54,0,0,1,0-.18l.06-.14a.52.52,0,0,1,.11-.1l.13,0H142l.13.07a.4.4,0,0,1,.1.12.42.42,0,0,1,0,.17.54.54,0,0,1,0,.18.59.59,0,0,1-.06.14.31.31,0,0,1-.11.09A.29.29,0,0,1,142,141.46Zm0-.11a.13.13,0,0,0,.09,0,.16.16,0,0,0,.07-.07l0-.1V141a.34.34,0,0,0,0-.12.15.15,0,0,0-.06-.09.14.14,0,0,0-.08-.05.1.1,0,0,0-.09,0,.12.12,0,0,0-.09,0,.19.19,0,0,0-.06.07.36.36,0,0,0,0,.11.49.49,0,0,0,0,.12.21.21,0,0,0,0,.12.2.2,0,0,0,.06.09l.08.05Z"/><path class="cls-5" d="M142.71,141.34l-.12-.78.11,0,0,.14h0a.57.57,0,0,1,.08-.13.23.23,0,0,1,.12-.06H143v.12h-.07a.15.15,0,0,0-.1.06.26.26,0,0,0-.07.15l.07.5Z"/><path class="cls-5" d="M143.69,141.22a.38.38,0,0,1-.15,0,.31.31,0,0,1-.13-.06.4.4,0,0,1-.1-.12.43.43,0,0,1-.06-.17.91.91,0,0,1,0-.17.3.3,0,0,1,.06-.14.32.32,0,0,1,.1-.1.29.29,0,0,1,.13,0h.13a.24.24,0,0,1,.11.06.31.31,0,0,1,.08.11.57.57,0,0,1,0,.14v.08l-.53.08a.28.28,0,0,0,.11.18.21.21,0,0,0,.19.05.17.17,0,0,0,.1,0l.09-.06.05.08-.1.08Zm-.32-.44.42-.06a.25.25,0,0,0-.07-.17.17.17,0,0,0-.16,0l-.07,0a.17.17,0,0,0-.06.06.15.15,0,0,0,0,.09A.3.3,0,0,0,143.37,140.78Z"/><path class="cls-5" d="M144.73,141.05l-.11-.78.11,0,0,.11h0a.52.52,0,0,1,.1-.11.21.21,0,0,1,.12-.05.18.18,0,0,1,.15,0,.18.18,0,0,1,.09.1.5.5,0,0,1,.11-.13.31.31,0,0,1,.13-.06.21.21,0,0,1,.19.05.41.41,0,0,1,.09.22l.07.5-.13,0-.07-.48a.27.27,0,0,0-.06-.16.11.11,0,0,0-.11,0,.3.3,0,0,0-.18.15l.08.56-.13,0-.07-.48a.26.26,0,0,0-.06-.15.12.12,0,0,0-.12,0c-.06,0-.12.06-.18.15l.08.56Z"/><path class="cls-5" d="M146.37,140.84a.24.24,0,0,1-.17,0,.2.2,0,0,1-.09-.15.25.25,0,0,1,.08-.22,1.28,1.28,0,0,1,.36-.15.64.64,0,0,1,0-.07l0-.06-.05,0h-.08a.29.29,0,0,0-.13,0,.31.31,0,0,0-.09.07l-.07-.09.13-.08a.38.38,0,0,1,.16-.06.23.23,0,0,1,.22.06.3.3,0,0,1,.1.22l.07.48-.11,0,0-.1h0a.48.48,0,0,1-.11.09A.31.31,0,0,1,146.37,140.84Zm0-.12a.17.17,0,0,0,.11,0l.09-.09,0-.22-.16.06-.1,0s-.05,0-.05.07a.09.09,0,0,0,0,.07.11.11,0,0,0,0,.09A.16.16,0,0,0,146.39,140.72Z"/><path class="cls-5" d="M147.43,141h-.13l-.11,0a.13.13,0,0,1-.07-.06.2.2,0,0,1,0-.08.16.16,0,0,1,0-.1.3.3,0,0,1,.07-.1h0l-.06,0,0-.08a.15.15,0,0,1,0-.09.18.18,0,0,1,.05-.07h0l-.08-.08a.33.33,0,0,1-.05-.12.49.49,0,0,1,0-.12.31.31,0,0,1,0-.1.2.2,0,0,1,.09-.06l.11,0h.11l.27,0,0,.11-.16,0a.1.1,0,0,1,.05.06.16.16,0,0,1,0,.09.24.24,0,0,1,0,.12.26.26,0,0,1-.05.09.27.27,0,0,1-.08.07.23.23,0,0,1-.11,0h-.06l-.06,0s0,0,0,.05a.07.07,0,0,0,0,0,.07.07,0,0,0,0,.06.18.18,0,0,0,.11,0l.15,0a.35.35,0,0,1,.21,0,.16.16,0,0,1,.09.13.2.2,0,0,1,0,.11.36.36,0,0,1-.07.1l-.11.08Zm-.1-.69s0,0,.07,0l0,0a.09.09,0,0,0,0-.06.11.11,0,0,0,0-.08.2.2,0,0,0-.06-.13.15.15,0,0,0-.13,0,.14.14,0,0,0-.11.06.17.17,0,0,0,0,.14s0,.06,0,.08a.1.1,0,0,0,0,.05.09.09,0,0,0,.06,0Zm.11.6.1,0a.18.18,0,0,0,.07,0,.1.1,0,0,0,0-.06.13.13,0,0,0,0-.06.11.11,0,0,0-.06-.07h-.12l-.13,0h-.11l-.05.07a.2.2,0,0,0,0,.07.15.15,0,0,0,.08.1A.44.44,0,0,0,147.44,140.94Z"/><path class="cls-5" d="M148.05,140.58l-.11-.79h.11l0,.11h0l.1-.11a.35.35,0,0,1,.14-.06c.09,0,.15,0,.19.05a.41.41,0,0,1,.1.22l.07.5-.14,0-.06-.48a.35.35,0,0,0-.06-.16.12.12,0,0,0-.12,0,.16.16,0,0,0-.11,0,.47.47,0,0,0-.09.1l.08.57Z"/><path class="cls-5" d="M149.23,140.43a.25.25,0,0,1-.17,0,.2.2,0,0,1-.09-.15.24.24,0,0,1,.09-.22,1.33,1.33,0,0,1,.35-.15.25.25,0,0,0,0-.07s0,0,0-.06l-.06,0h-.08a.31.31,0,0,0-.12.05l-.1.07-.06-.09.12-.08a.49.49,0,0,1,.17-.06.23.23,0,0,1,.22.06.41.41,0,0,1,.1.22l.07.48-.11,0,0-.1h0a.48.48,0,0,1-.11.09A.35.35,0,0,1,149.23,140.43Zm0-.12a.13.13,0,0,0,.1,0l.1-.09,0-.22-.16.06-.1,0a.18.18,0,0,0,0,.07.15.15,0,0,0,0,.07.15.15,0,0,0,.06.09A.16.16,0,0,0,149.26,140.31Z"/><path class="cls-5" d="M150.61,140.23a.2.2,0,0,1-.17,0,.2.2,0,0,1-.09-.15.23.23,0,0,1,.08-.21.88.88,0,0,1,.36-.15.64.64,0,0,0,0-.07.09.09,0,0,0,0-.06.1.1,0,0,0,0,0h-.08l-.13.05-.09.07-.07-.08.13-.09a.38.38,0,0,1,.16-.06.25.25,0,0,1,.22.06.33.33,0,0,1,.1.23l.07.47-.11,0,0-.09h0a.52.52,0,0,1-.11.1Zm0-.11.1,0a.47.47,0,0,0,.1-.1l0-.22-.16.06-.1.06-.06.06a.09.09,0,0,0,0,.07c0,.05,0,.08.05.09A.16.16,0,0,0,150.63,140.12Z"/><path class="cls-5" d="M151.5,140.1a.1.1,0,0,1-.11,0,.16.16,0,0,1,0-.13l-.15-1,.14,0,.14,1a.05.05,0,0,0,0,0h0l0,.1h-.07Z"/><path class="cls-5" d="M151.82,139.07a.09.09,0,0,1-.07,0,.06.06,0,0,1,0-.06,0,0,0,0,1,0-.06.09.09,0,0,1,.06,0,.11.11,0,0,1,.07,0,.08.08,0,0,1,0,.12A.06.06,0,0,1,151.82,139.07Zm.07,1-.11-.79.13,0,.11.79Z"/><path class="cls-5" d="M153,140.21l0-.28,0-.14a.2.2,0,0,1-.09.09.21.21,0,0,1-.13.05.29.29,0,0,1-.25-.07.52.52,0,0,1-.13-.29.47.47,0,0,1,0-.17.38.38,0,0,1,0-.14.32.32,0,0,1,.1-.1.31.31,0,0,1,.12,0,.28.28,0,0,1,.13,0,.34.34,0,0,1,.11,0h0v-.07l.1,0,.16,1.11Zm-.26-.39.1,0a.39.39,0,0,0,.08-.1l-.06-.41-.1-.05h-.1a.11.11,0,0,0-.08,0,.23.23,0,0,0-.07.07l0,.11a.24.24,0,0,0,0,.12.34.34,0,0,0,.09.21A.18.18,0,0,0,152.69,139.82Z"/><path class="cls-5" d="M153.65,139.79a.18.18,0,0,1-.19,0,.32.32,0,0,1-.09-.22l-.07-.49.13,0,.07.47a.27.27,0,0,0,.06.16.1.1,0,0,0,.11,0,.18.18,0,0,0,.11,0,.62.62,0,0,0,.09-.12l-.08-.55.13,0,.11.78h-.11l0-.12h0a.63.63,0,0,1-.1.12A.18.18,0,0,1,153.65,139.79Z"/><path class="cls-5" d="M154.6,139.66a.2.2,0,0,1-.17,0,.2.2,0,0,1-.09-.15.25.25,0,0,1,.08-.22,1.07,1.07,0,0,1,.36-.14.64.64,0,0,0,0-.07.09.09,0,0,0,0-.06.1.1,0,0,0-.05,0h-.08a.29.29,0,0,0-.13,0,.31.31,0,0,0-.09.07l-.07-.08.12-.09a.49.49,0,0,1,.17-.06.25.25,0,0,1,.22.06.32.32,0,0,1,.1.22l.07.48-.11,0,0-.09h0a.56.56,0,0,1-.24.15Zm0-.11a.19.19,0,0,0,.1-.05.28.28,0,0,0,.1-.09l0-.22-.16.06-.1.06a.17.17,0,0,0-.06.06.09.09,0,0,0,0,.07c0,.05,0,.08.05.09A.16.16,0,0,0,154.62,139.55Z"/><path class="cls-5" d="M155.35,139.53l-.11-.78.1,0,0,.11h0a.52.52,0,0,1,.1-.11.17.17,0,0,1,.12,0,.19.19,0,0,1,.15,0,.18.18,0,0,1,.09.1.36.36,0,0,1,.11-.13.27.27,0,0,1,.12-.06.2.2,0,0,1,.19,0,.41.41,0,0,1,.1.22l.07.5h-.13l-.07-.47a.27.27,0,0,0-.06-.16.12.12,0,0,0-.12,0,.3.3,0,0,0-.18.15l.09.56-.14,0-.07-.48a.37.37,0,0,0-.05-.15.12.12,0,0,0-.12,0q-.09,0-.18.15l.08.56Z"/><path class="cls-5" d="M157.57,139.23a.43.43,0,0,1-.16,0l-.13-.07a.31.31,0,0,1-.09-.11.49.49,0,0,1-.06-.17.51.51,0,0,1,0-.18.35.35,0,0,1,.06-.14.32.32,0,0,1,.1-.1.28.28,0,0,1,.12,0h.14a.24.24,0,0,1,.11.06.44.44,0,0,1,.08.11.54.54,0,0,1,0,.15v0a0,0,0,0,1,0,0l-.53.08a.29.29,0,0,0,.1.19.23.23,0,0,0,.2,0,.19.19,0,0,0,.1,0l.08-.05.06.08-.1.07A.33.33,0,0,1,157.57,139.23Zm-.32-.43.42-.07a.3.3,0,0,0-.08-.17.16.16,0,0,0-.15,0,.13.13,0,0,0-.08,0l-.06,0,0,.09A.37.37,0,0,0,157.25,138.8Z"/><path class="cls-5" d="M158.17,139.13l-.12-.78.11,0,0,.14h0a.41.41,0,0,1,.08-.13.14.14,0,0,1,.12-.06h.08v.12h-.07a.14.14,0,0,0-.1,0,.4.4,0,0,0-.08.16l.08.5Z"/><path class="cls-5" d="M159,139a.24.24,0,0,1-.17,0,.24.24,0,0,1-.09-.16.21.21,0,0,1,.08-.21.88.88,0,0,1,.36-.15.64.64,0,0,0,0-.07.09.09,0,0,0,0-.06.1.1,0,0,0-.05,0H159l-.13,0-.1.07-.06-.08.12-.09a.49.49,0,0,1,.17-.06.25.25,0,0,1,.22.06.38.38,0,0,1,.1.22l.07.49h-.11l0-.09h0a.52.52,0,0,1-.11.1A.29.29,0,0,1,159,139Zm0-.11.1,0,.1-.1,0-.22-.16.06a.29.29,0,0,0-.1.06.17.17,0,0,0-.06.06.09.09,0,0,0,0,.07c0,.05,0,.08,0,.09A.16.16,0,0,0,159,138.92Z"/><path class="cls-5" d="M160,138.89a.33.33,0,0,1-.1,0l-.08,0a.18.18,0,0,1-.05-.07l0-.11-.06-.43h-.11l0-.1.12,0v-.22l.11,0,0,.22.21,0,0,.11-.21,0,.06.43a.16.16,0,0,0,0,.11s.05,0,.1,0l0,0,0,0,0,.1-.07,0Z"/><path class="cls-16" d="M152.87,111.52s-3.6-6.72-6.72-7.92c0,0-1.2-2.28,2-1.08a2.87,2.87,0,0,1-1.08-1.43.28.28,0,0,1,.28-.37c1.45.09,6.42,1,8.36,9.36l-2.76,2"/><rect class="cls-12" x="193.5" y="209.23" width="3.58" height="1.93" transform="translate(390.59 420.39) rotate(180)"/><rect class="cls-12" x="170.99" y="209.23" width="3.58" height="1.93" transform="translate(345.56 420.39) rotate(180)"/><path class="cls-9" d="M197.35,210.65v2.67h-8.48S187.46,208.9,197.35,210.65Z"/><path class="cls-9" d="M174.79,210.65v2.67h-8.48S164.9,208.9,174.79,210.65Z"/><path class="cls-17" d="M195.39,150.44l-1.12,35.12a14,14,0,0,0,.16,2.59l3.3,21.15h-6.41l-4.48-22.08a15.29,15.29,0,0,1-.25-1.89l-1.32-21a.27.27,0,0,0-.52-.08l-6.85,18.07a5.55,5.55,0,0,0-.35,1.5l-2.26,25.45h-5.54l-.28-27.65a5.45,5.45,0,0,1,.11-1.21l6.29-30.29Z"/><path class="cls-18" d="M176.45,128.36,164,126.8a4.39,4.39,0,0,1-3.29-1.58l-9.81-13.3,5.85-4.1,7.46,10.36a4.42,4.42,0,0,0,3.4,1.84l26.78-1.74L197.42,157l-23.73-2.82Z"/><path class="cls-18" d="M194.88,122.61l10.2,14.46a4.07,4.07,0,0,1-1,5.66l-9.94,7.05-3.94-6.12,7.75-4.21a.38.38,0,0,0,.09-.58l-6.38-6.94.58-10.2,1.17-1.16Z"/><path class="cls-16" d="M179.27,107.1a14.55,14.55,0,0,0-2.26,2.77l.72.62-1,2.77,4.83,1.23,3.38-8.31Z"/><path class="cls-17" d="M184.87,101.83c-1.82-.59-3.85.3-5.11,2.24a10,10,0,0,0-1.13,7.34,3,3,0,0,0-3.35,1.52,6.51,6.51,0,0,0-.65,4.85,5.6,5.6,0,0,0-3,1.48,4.06,4.06,0,0,0-.8,3.93c.6,1.45,2,1.59,3.21,1.55L197,124a3.22,3.22,0,0,0,1.76-.41,3.78,3.78,0,0,0,.92-4.09c-.56-1.39-2-1.91-3-1a5.33,5.33,0,0,0,1-5.4c-.69-1.81-2.44-2.64-3.77-1.79a8.14,8.14,0,0,0-.24-7.62,6.42,6.42,0,0,0-5.26-3.2,16.05,16.05,0,0,0-5.83,1.24l0,2.72"/></svg>