<svg xmlns="http://www.w3.org/2000/svg" viewBox="0 0 217.67 142.45"><defs><style>.cls-1{isolation:isolate;}.cls-2{fill:#b3b3b3;}.cls-3{fill:#eddb8b;}.cls-10,.cls-11,.cls-3,.cls-4,.cls-5,.cls-6,.cls-8,.cls-9{fill-rule:evenodd;}.cls-18,.cls-4{fill:#a47c52;}.cls-5{fill:#916217;}.cls-6{fill:#f9ae3b;}.cls-7,.cls-8,.cls-9{fill:#43220a;}.cls-9{opacity:0.5;mix-blend-mode:multiply;}.cls-10{fill:#f5911e;}.cls-11{fill:#b9c5e3;}.cls-12{fill:#875601;}.cls-13{fill:#f9ed38;}.cls-14{fill:#7c6d41;}.cls-15{fill:#e06d6d;}.cls-16{fill:none;stroke:#f9ae3b;stroke-miterlimit:10;stroke-width:0.5px;}.cls-17{fill:#cad1fc;}.cls-19{fill:#cf9c69;}.cls-20{fill:#ffc0b6;}</style></defs><g class="cls-1"><g id="BACKGROUND"><ellipse id="_Path_" data-name="&lt;Path&gt;" class="cls-2" cx="117.63" cy="138.67" rx="95.96" ry="3.77"/><path class="cls-3" d="M171.21,92h17.9c9.63,0,17.51,8.33,17.51,18.52h0c0,10.19-7.88,18.52-17.51,18.52H32.4c-15.6,0-28.36-13.5-28.36-30H4c0-16.5,12.76-30,28.36-30h0c6.6,0,12-5.71,12-12.69h0c0-7-5.39-12.68-12-12.68H26.85c-6.85,0-12.46-5.93-12.46-13.18h0c0-7.26,5.61-13.19,12.46-13.19H51.71a5,5,0,0,0,4.85-5.13h0a5,5,0,0,0-4.85-5.13H48.49a3.47,3.47,0,0,1-3.35-3.55h0A3.46,3.46,0,0,1,48.49,0H61.44c4.45,0,5,5.55,16.18,5.55h43.76a4.52,4.52,0,0,1,4.37,4.63h0a4.51,4.51,0,0,1-4.37,4.62h-4.2a6.54,6.54,0,0,0-6.33,6.7h0a6.55,6.55,0,0,0,6.33,6.7h6.32c17.06,0,19.47,4.71,22.46,14.09s18.5,10.13,18.5,10.13h9.6c5.25,0,9.55,4.54,9.55,10.1h0c0,5.55-4.3,10.09-9.55,10.09h-2.85A9.48,9.48,0,0,0,162,82.32h0A9.48,9.48,0,0,0,171.21,92ZM39.09,7.09a3.45,3.45,0,0,0,3.35-3.55,3.36,3.36,0,1,0-6.7,0A3.45,3.45,0,0,0,39.09,7.09Z"/><path class="cls-4" d="M150.66,81.65c5.35-5.44,9.32,1.47,8.77,8.41s-6.84,31.66-4.92,40.07a12.46,12.46,0,0,1,.28,1.52h-1.14c-.1-.15-.2-.31-.3-.49C147.3,120.84,143.31,89.14,150.66,81.65Z"/><path class="cls-5" d="M153.82,131.65c-6.79-19.28.46-48.66.48-48.76a.31.31,0,0,1,.38-.22.3.3,0,0,1,.22.37c0,.09-7.29,29.53-.43,48.61Z"/><path class="cls-6" d="M163.84,93.64c5.63-3,7,3.52,4.86,8.91-2,5-12,21.14-13.78,29.1h-1.79C151.9,120.68,156.6,97.48,163.84,93.64Z"/><path class="cls-5" d="M153.75,131.65c.74-16.58,12.64-36,12.68-36.1a.26.26,0,1,1,.44.26c0,.07-11.88,19.42-12.62,35.84Z"/><path class="cls-6" d="M140.05,101.16c-5.46-2.38-6.32,3.78-3.9,8.65,1.87,3.76,9.32,14.21,13.09,21.84h3.33C151.6,120.63,146.22,103.86,140.05,101.16Z"/><path class="cls-5" d="M151.38,131.65c-3.27-14.17-13.57-28.47-13.61-28.53a.24.24,0,0,0-.33-.05.23.23,0,0,0-.06.33c0,.06,10.25,14.23,13.51,28.25Z"/><rect class="cls-7" x="142.36" y="124.36" width="17.73" height="5.69" rx="0.87"/><polygon class="cls-8" points="156.47 127.57 145.97 127.57 143.23 130.04 145.47 138.67 151.22 138.67 156.98 138.67 159.22 130.04 156.47 127.57"/><polygon class="cls-9" points="143.23 130.04 143.69 131.81 158.76 131.81 159.22 130.04 143.23 130.04"/><path class="cls-10" d="M45.7,117.94a12.43,12.43,0,0,1-3.55-13.79c2.94-8.82-2.08-12.68-3-15.63s3-6.72,3.34-10.59-3.87-5.67-.88-10.52,1.61-7.14-.09-13.22,3.85-13.89,5.75-13.5-.79,2,.22,6S55.36,53.1,57,56.6s-3,6.92-1.21,11.57,9.52,4.7,10.78,9.12-4.37,8.45-3.76,13,5.25,7.84,6.77,11.66S73.93,113,66,119.67,45.7,117.94,45.7,117.94Z"/><path class="cls-11" d="M45.09,48.3a.47.47,0,0,1,.93-.18l15.73,82.16-1-.5Z"/><path class="cls-5" d="M41.42,107.69c0-.37.07-.74.13-1.12L59,121l-.91-4.78a.13.13,0,0,1,0-.06l-.47-2.45L42.83,101.5c.07-.38.12-.75.16-1.1l14.35,11.85-.83-4.32L42.85,96.65a13.49,13.49,0,0,0-.39-1.55l13.77,11.37-.41-2.14s0,0,0-.07L54,94.88,40.34,83.6l.44-.87,12.95,10.7-.89-4.68-10.77-8.9c.11-.33.2-.66.28-1l10.21,8.43-.68-3.52a.09.09,0,0,0,0,0l-2-10.23-8-6.6c.17-.29.32-.58.46-.85l7.26,6L47.92,63.1a.07.07,0,0,0,0-.05L45.09,48.3a.47.47,0,0,1,.93-.18l2.56,13.4L53,52.6l.76.58-4.92,9.87,1.93,10.07v0l1.79,9.31,7.33-10.39.85.44L52.85,83.76l.68,3.55,9.64-13.57c.28.15.56.31.82.48L53.91,88.41l.1.08a.47.47,0,0,1,.07.66.49.49,0,0,1-.18.14l1,5.23a.06.06,0,0,1,0,0L56.54,103,63.68,93a10.36,10.36,0,0,0,.5.93l-7.4,10.42.42,2.17,7.92-11.15.59.81-8.26,11.63,1.06,5.56s0,0,0,0l.29,1.54L69,100.63a9.5,9.5,0,0,1,.49,1L59.06,116.2l1.12,5.88s0,0,0,0v0q-.59.06-1.17.09Z"/><path class="cls-6" d="M43.06,134.9c-2-1.57-4.05-2.28-5.13-3.29-2.16-2-.68-7-2.23-10.37s-5.91-2.88-5.71-8.32-2-6.7-6.32-10.94S20.3,88.63,22.06,88.05s.27,2,3,4.87,9.57,1.61,12.6,3.74.8,7.15,4.46,10.18,10.13-.6,13.26,2.48.37,9.08,3,12.54,8.07,4,11.14,6.48c1.72,1.38,4.3,3.47,5.62,6.69Z"/><path class="cls-5" d="M57.62,135l-4.34-5.09L36.59,127c0-.31,0-.62,0-.93l15.81,2.76-3-3.46L36.25,123a7.77,7.77,0,0,0-.24-1l12.47,2.17-2.23-2.61,0,0L39.76,114,30,112.34c0-.33,0-.63,0-.93L38.84,113l-5.65-6.61,0,0L23.84,95.4a.44.44,0,0,1,.05-.63.46.46,0,0,1,.64,0L33,104.73l-.52-9.51.91.12L34,105.86l6.36,7.45,0,0,5.88,6.89,1.18-12.1.91,0-1.27,13.1,2.24,2.62L50.88,108c.31,0,.61,0,.91,0l-1.66,16.54.12,0a.45.45,0,0,1,.37.52.41.41,0,0,1-.08.19l3.3,3.87,0,0L58.81,135Zm1.65,0h.91l1.07-10.73a9.29,9.29,0,0,1-.85-.53L59.27,135Zm2.44,0,1-10c.28.14.58.27.87.39l-1,9.6Zm5.95,0,.74-7.43c.3.18.59.36.86.56L68.57,135Z"/><rect class="cls-12" y="21.57" width="217.67" height="38.01"/><path class="cls-13" d="M206.15,48.26l-6.33-6.33a9,9,0,1,0-6.9,3.25A8.8,8.8,0,0,0,197.36,44l6.53,6.53A1.62,1.62,0,0,0,205,51a1.6,1.6,0,0,0,1.13-2.73Zm-20.52-12a7.29,7.29,0,1,1,7.29,7.29A7.3,7.3,0,0,1,185.63,36.23Z"/><path class="cls-13" d="M20.45,49.77,15.09,33.48h4.75l2.05,7.68c.21.81.42,1.64.62,2.48l.63,2.55h.13c.19-.85.39-1.7.59-2.55s.41-1.67.63-2.48l2.08-7.68h4.52L25.9,49.77Z"/><path class="cls-13" d="M36.93,50.16a5,5,0,0,1-2-.37,4.45,4.45,0,0,1-1.49-1.06,4.71,4.71,0,0,1-.94-1.56,5.26,5.26,0,0,1-.34-1.93,4.59,4.59,0,0,1,2.12-4c1.41-1,3.68-1.61,6.83-1.94a2.83,2.83,0,0,0-.63-1.72,2.36,2.36,0,0,0-1.87-.64,5.6,5.6,0,0,0-2,.39,14.13,14.13,0,0,0-2.16,1.09l-1.7-3.19A15.86,15.86,0,0,1,36,33.68a10.53,10.53,0,0,1,3.57-.6,6,6,0,0,1,4.7,1.79c1.08,1.2,1.62,3.05,1.62,5.57v9.33H42l-.32-1.68h-.13a9.71,9.71,0,0,1-2.15,1.5A5.33,5.33,0,0,1,36.93,50.16Zm1.6-3.74a2.58,2.58,0,0,0,1.38-.36,6.93,6.93,0,0,0,1.22-1V42.18a8.4,8.4,0,0,0-3.47,1,2,2,0,0,0-1,1.65A1.37,1.37,0,0,0,37.2,46,2.14,2.14,0,0,0,38.53,46.42Z"/><path class="cls-13" d="M49.81,49.77V33.48h3.85L54,35.55h.13a13.07,13.07,0,0,1,2.25-1.73,5.4,5.4,0,0,1,2.85-.74A4.22,4.22,0,0,1,63,34.82a8.6,8.6,0,0,1,1.17,4.83V49.77H59.43V40.28A4.46,4.46,0,0,0,59,37.85a1.7,1.7,0,0,0-1.49-.66,2.83,2.83,0,0,0-1.54.41,8.34,8.34,0,0,0-1.41,1.17v11Z"/><path class="cls-13" d="M73.83,56.7a12.57,12.57,0,0,1-2.61-.25,7.45,7.45,0,0,1-2.12-.74,3.71,3.71,0,0,1-1.43-1.28,3.36,3.36,0,0,1-.51-1.87,3.8,3.8,0,0,1,2.28-3.28v-.13a3.67,3.67,0,0,1-1.06-1.09A3,3,0,0,1,68,46.39a3.15,3.15,0,0,1,.51-1.7,5.06,5.06,0,0,1,1.29-1.36V43.2a5.29,5.29,0,0,1-1.49-1.69A4.84,4.84,0,0,1,67.61,39a5.83,5.83,0,0,1,.54-2.58,5.48,5.48,0,0,1,1.46-1.83,6,6,0,0,1,2.1-1.1,8.17,8.17,0,0,1,2.47-.37,7.15,7.15,0,0,1,2.47.4h5.8V37H79.92a3.45,3.45,0,0,1,.37.92,5.17,5.17,0,0,1,.14,1.22A5.74,5.74,0,0,1,80,41.57a4.6,4.6,0,0,1-1.33,1.71,5.57,5.57,0,0,1-2,1,8.69,8.69,0,0,1-2.45.33,6.06,6.06,0,0,1-1.92-.33,1.52,1.52,0,0,0-.45.53,1.55,1.55,0,0,0-.13.69,1,1,0,0,0,.53.92,4.17,4.17,0,0,0,1.88.29h2.56a8.6,8.6,0,0,1,4.5,1,3.46,3.46,0,0,1,1.56,3.17,4.52,4.52,0,0,1-.63,2.35A5.56,5.56,0,0,1,80.3,55a9.49,9.49,0,0,1-2.78,1.22A14.36,14.36,0,0,1,73.83,56.7Zm.74-3a5.31,5.31,0,0,0,2.63-.58,1.66,1.66,0,0,0,1-1.43,1,1,0,0,0-.62-1,4.77,4.77,0,0,0-1.82-.27H74.15a12.47,12.47,0,0,1-1.35,0,6.58,6.58,0,0,1-.9-.14A2.23,2.23,0,0,0,71,51.81a1.5,1.5,0,0,0,1,1.39A5.8,5.8,0,0,0,74.57,53.68Zm-.39-12A2,2,0,0,0,75.74,41,3,3,0,0,0,76.36,39a2.8,2.8,0,0,0-.62-2,2.16,2.16,0,0,0-3.11,0A2.76,2.76,0,0,0,72,39,2.94,2.94,0,0,0,72.63,41,2,2,0,0,0,74.18,41.69Z"/><path class="cls-13" d="M88,50.16a2.7,2.7,0,0,1-2-.87,3,3,0,0,1-.81-2.15A3.08,3.08,0,0,1,86,45,2.83,2.83,0,0,1,90,45a3.08,3.08,0,0,1,.81,2.18A3,3,0,0,1,90,49.29,2.7,2.7,0,0,1,88,50.16Z"/><path class="cls-13" d="M101.5,50.16a8.3,8.3,0,0,1-3.1-.57,7.12,7.12,0,0,1-2.48-1.66,7.63,7.63,0,0,1-1.67-2.68,10.23,10.23,0,0,1-.61-3.63A9.28,9.28,0,0,1,94.32,38a7.72,7.72,0,0,1,4.45-4.33,8.84,8.84,0,0,1,3.15-.58,6.5,6.5,0,0,1,2.61.5,8.11,8.11,0,0,1,2,1.24L104.35,38a3.37,3.37,0,0,0-2.15-1,3.29,3.29,0,0,0-2.72,1.25,5.29,5.29,0,0,0-1,3.38,5.25,5.25,0,0,0,1,3.39A3.17,3.17,0,0,0,102,46.26a3.39,3.39,0,0,0,1.49-.35,7.75,7.75,0,0,0,1.37-.84l1.86,3.16a7.23,7.23,0,0,1-2.57,1.49A8.65,8.65,0,0,1,101.5,50.16Z"/><path class="cls-13" d="M110.35,49.77V37.26h-2.12V33.68l2.12-.17v-.89a9.63,9.63,0,0,1,.3-2.43,5.18,5.18,0,0,1,1-2,4.86,4.86,0,0,1,1.83-1.35,6.89,6.89,0,0,1,2.72-.49,7.86,7.86,0,0,1,1.82.2,14.14,14.14,0,0,1,1.36.39l-.87,3.55a4.77,4.77,0,0,0-1.63-.33,1.71,1.71,0,0,0-1.35.54,2.68,2.68,0,0,0-.48,1.79v1h2.85v3.78h-2.85V49.77Z"/><path class="cls-13" d="M124.26,49.77l-5.35-16.29h4.74l2,7.68c.22.81.43,1.64.63,2.48s.41,1.7.63,2.55h.12c.2-.85.39-1.7.6-2.55s.41-1.67.62-2.48l2.09-7.68h4.52l-5.2,16.29Z"/><path class="cls-13" d="M138.18,50.16a2.68,2.68,0,0,1-2-.87,3,3,0,0,1-.82-2.15,3.09,3.09,0,0,1,.82-2.18,2.82,2.82,0,0,1,4.07,0,3,3,0,0,1,.82,2.18,3,3,0,0,1-.82,2.15A2.66,2.66,0,0,1,138.18,50.16Z"/><path class="cls-13" d="M146.8,49.77l-5.35-16.29h4.74l2.05,7.68c.22.81.43,1.64.63,2.48s.41,1.7.62,2.55h.13q.28-1.27.6-2.55c.2-.84.41-1.67.62-2.48l2.09-7.68h4.52l-5.2,16.29Z"/><path class="cls-13" d="M159.91,49.77V33.48h3.85l.32,2.07h.13a12.69,12.69,0,0,1,2.25-1.73,5.4,5.4,0,0,1,2.85-.74,4.22,4.22,0,0,1,3.77,1.74,8.6,8.6,0,0,1,1.17,4.83V49.77h-4.72V40.28a4.46,4.46,0,0,0-.46-2.43,1.7,1.7,0,0,0-1.49-.66,2.83,2.83,0,0,0-1.54.41,8.34,8.34,0,0,0-1.41,1.17v11Z"/><path class="cls-14" d="M101.72,136.55s4.52,1.33,4.52,2.33c0,.57-6.65.42-7,0-.64-.62.5-2.5.5-2.5Z"/><path class="cls-15" d="M101.72,133.76v2.88a.9.9,0,0,1-.84.51,1.41,1.41,0,0,1-1.12-.51l-.07-3.6"/><path class="cls-14" d="M119.35,136.55s4.52,1.33,4.52,2.33c0,.57-6.65.42-7.05,0-.64-.62.5-2.5.5-2.5Z"/><path class="cls-15" d="M119.35,133.76v2.88a.9.9,0,0,1-.84.51,1.39,1.39,0,0,1-1.12-.51l-.07-3.6"/><path class="cls-14" d="M108.75,84.41c-.19.32-2.23,4.59-1,11.63.69,3.95,5,13.77,5,15.2.22,6,4.07,23,4.07,23s3.2.1,3.19,0,.55-20.34.34-27.77c-.34-11.91-1.87-24.37-1.87-24.37"/><path class="cls-16" d="M108.26,93.84s5.06,15.94,5.26,17a34.57,34.57,0,0,0,.38,3.74c.39,1.85,3.51,19.69,3.51,19.69"/><rect class="cls-17" x="116.8" y="133.78" width="3.32" height="1.12"/><path class="cls-14" d="M98.36,84.12A15.2,15.2,0,0,0,95.3,95.59c.45,4,2.65,14,2.44,15.43-.94,6.19,1.52,23.2,1.52,23.2s3.2.1,3.2,0c0-1,6.7-32,7.35-39.34a64.39,64.39,0,0,0,0-12.49"/><path class="cls-16" d="M98.06,86a19.63,19.63,0,0,0-1.68,6.92c-.33,5.17,2.58,17.18,2.48,18.3a85.29,85.29,0,0,0-.27,8.62c.47,6.7,1.13,14.44,1.13,14.44"/><polyline class="cls-16" points="109.08 99.87 110.1 93.89 110.81 92.82"/><rect class="cls-17" x="99.17" y="133.78" width="3.32" height="1.12"/><path class="cls-18" d="M110,58.13s5.63,3.51,6.36,5.76c0,0,1.46.8,1.64,1.36a47.23,47.23,0,0,1,.25,6.3C118.8,85,121,84.22,119.26,86.23c-1.31,1.56-5.58,1.25-11.26,1.24-2.44,0-11.27.11-11.57-1.72s.81-2.16.81-3.36.71-18.5.71-18.5c.49-.83,7.28-5.76,7.28-5.76A17.82,17.82,0,0,1,110,58.13Z"/><path class="cls-15" d="M137.86,50c.54,0,.65-.85.77-1.14.05.07.34,0,.42,0a1.05,1.05,0,0,0,.41-.4.74.74,0,0,0,0-.49.69.69,0,0,0-.26-.38c-.07,0,.05-.23-.26-.22a1.64,1.64,0,0,1,.52-.38c.1,0,.69-.31.68-.5s-.59,0-.92.11a2.5,2.5,0,0,0-1.05.71c0-.2.29-.46.12-.71s-.67.6-.86,1A10.77,10.77,0,0,0,137,49.1l-2.09,1.82a11.77,11.77,0,0,0,1.14,1.8C136.08,52.6,137.86,50,137.86,50Z"/><path class="cls-18" d="M110,58.13s3.67-.2,5.87-.15c4.83.09,7.84-.14,9.36-.73,2.49-1,11.36-7.83,11.36-7.83l1,1.09S133.41,61.56,127,64.8a25.42,25.42,0,0,1-12,2.42"/><path class="cls-15" d="M95,89.15a8.49,8.49,0,0,0-.19,2.53,4.52,4.52,0,0,0,.83,1.6c.3.25.55.39.73.23s0-1.08,0-1.29c.07-.57.28-1,.43-1s0,.7.31.72.25-.43.3-.72a3,3,0,0,0-.12-1.46c-.12-.43-1.24-1.39-1.24-1.39l-1.33-3-2.26,1Z"/><path class="cls-18" d="M105.23,58.13s-5.51.2-8.85,3c-2.43,2-8.41,5.83-8.54,13.62-.12,6.89,5.72,13.38,7,14.16,0,0,1.32-.64,1.06-1.15S94,76,94.51,74.72s7.36-7.2,7.36-7.2"/><line class="cls-19" x1="97.86" y1="71.93" x2="101.28" y2="68.15"/><path class="cls-7" d="M108.08,48.69a1.73,1.73,0,0,1,1.07.34,2.81,2.81,0,0,1,.74.87,4.05,4.05,0,0,1,.51,1.69,1.46,1.46,0,0,1-.07.69,1.16,1.16,0,0,1-.7.64,2.64,2.64,0,0,1-1,.12"/><path class="cls-20" d="M109.87,52.17a4.43,4.43,0,0,1,.22,1.69,2.14,2.14,0,0,1-.77,1.49,3.87,3.87,0,0,1-5.19-1.22,5.63,5.63,0,0,1-.88-4.13,3.46,3.46,0,0,1,3.45-2.4C109,47.86,109.33,50.4,109.87,52.17Z"/><path class="cls-20" d="M108.2,54.93l.51,2.85,1.25.35a2.22,2.22,0,0,1-2.12,1.11,4,4,0,0,1-2.61-1.11l1.42-.35V54.19"/><path class="cls-7" d="M109.33,46.55a2.75,2.75,0,0,0-3.53-.27.87.87,0,0,1-.51.26,1.69,1.69,0,0,1-.36-.12,1.42,1.42,0,0,0-1.56.52,3.06,3.06,0,0,0-.54,1.64.32.32,0,0,1-.24.32,2.3,2.3,0,0,0-1.09,1.3c-.53,1.61.73,3.1,1.6,4.31a1.52,1.52,0,0,0,1,.65c.17.05.51.11.64,0a.82.82,0,0,0,.23-.26c.09-.21-.05-.29-.08-.52a1.4,1.4,0,0,0-.16-.43c-.18-.38-.36-.75-.55-1.13l.07-.08a1.5,1.5,0,0,0,0-1.44c-.15-.33-.33-.78,0-1s.83-.24,1.09-.6c.1-.15.15-.34.3-.45s.52-.06.79,0c.64.16,1.17-.13,1.8-.12a2.05,2.05,0,0,0,1.27-.27A1.6,1.6,0,0,0,109.33,46.55Z"/><path class="cls-15" d="M104.49,52.75a.29.29,0,0,0-.25-.2.57.57,0,0,0-.61.46,1.07,1.07,0,0,0,.19.79,1.14,1.14,0,0,0,1.09.54c.2,0,.26-.2.32-.39"/></g></g></svg>