<svg id="BACKGROUND" xmlns="http://www.w3.org/2000/svg" viewBox="0 0 182.56 159.44"><defs><style>.cls-1,.cls-25{fill:#916217;}.cls-1,.cls-2,.cls-3,.cls-4{fill-rule:evenodd;}.cls-2,.cls-23{fill:#eddb8b;}.cls-27,.cls-3{fill:#f5911e;}.cls-4{fill:#e2e6f3;}.cls-5{fill:#a47c52;}.cls-6{fill:#f9ed38;}.cls-7{fill:#b3b3b3;}.cls-16,.cls-19,.cls-24,.cls-26,.cls-28,.cls-8{fill:#fff;}.cls-9{fill:#407bff;}.cls-10{fill:#e4897b;}.cls-11{fill:#824110;}.cls-12{fill:#2e353a;}.cls-13,.cls-18,.cls-22{fill:none;stroke-linecap:round;stroke-linejoin:round;}.cls-13{stroke:#577afa;stroke-width:0.19px;}.cls-14,.cls-24{opacity:0.2;}.cls-14,.cls-16,.cls-19,.cls-20,.cls-21,.cls-24,.cls-28,.cls-29{isolation:isolate;}.cls-15{fill:#7c6d41;}.cls-16{opacity:0.6;}.cls-17{fill:#de5753;}.cls-18,.cls-22{stroke:#2e353a;}.cls-18{stroke-width:0.29px;}.cls-19,.cls-29{opacity:0.8;}.cls-20{opacity:0.3;}.cls-21{opacity:0.4;}.cls-22{stroke-width:0.2px;}.cls-26{stroke:#43220a;stroke-miterlimit:10;}.cls-28{opacity:0.1;}.cls-30{fill:#f9bd0e;}.cls-31{fill:#c57a25;}</style></defs><path class="cls-1" d="M24.06,114.66a11.93,11.93,0,0,1-3.4-13.22c2.82-8.45-2-12.15-2.87-15S20.68,80,21,76.32s-3.71-5.44-.84-10.09,1.54-6.84-.09-12.66,3.69-13.32,5.51-12.94-.75,1.88.21,5.73,7.54,6.16,9.12,9.51S32.05,62.5,33.75,67s9.12,4.5,10.32,8.75-4.18,8.09-3.6,12.42,5,7.52,6.49,11.17,4.16,10.64-3.47,17S24.06,114.66,24.06,114.66Z"/><path class="cls-2" d="M23.48,47.92a.45.45,0,0,1,.89-.17l15.08,78.73-1-.48Z"/><path class="cls-2" d="M20,104.83a10.3,10.3,0,0,1,.12-1.07l16.73,13.82L36,113a.13.13,0,0,1,0-.06l-.45-2.34L21.32,98.9q.09-.54.15-1.05L35.22,109.2l-.79-4.14L21.34,94.26A12,12,0,0,0,21,92.77l13.2,10.9-.4-2.06a.13.13,0,0,0,0-.06l-1.72-9L18.93,81.75l.42-.83L31.76,91.17l-.86-4.49L20.58,78.16a9.1,9.1,0,0,0,.27-1l9.79,8.07L30,81.91s0,0,0,0l-1.88-9.8-7.66-6.33c.16-.28.31-.55.44-.81l7,5.74L26.2,62.1a.09.09,0,0,1,0-.05L23.48,47.92a.45.45,0,0,1,.89-.17l2.46,12.84L31.1,52l.73.56-4.72,9.46L29,71.71a0,0,0,0,0,0,0l1.71,8.93,7-10,.81.42L30.91,81.91l.65,3.4,9.25-13c.27.15.53.3.78.46L31.93,86.35l.1.08a.46.46,0,0,1,.06.64.48.48,0,0,1-.16.13l1,5v0l1.56,8.12,6.85-9.64a8.54,8.54,0,0,0,.48.89l-7.1,10,.4,2.09L42.68,93c.18.26.37.52.56.77l-7.92,11.15,1,5.33s0,0,0,0l.28,1.47,9.73-13.69a8.63,8.63,0,0,1,.46.91l-10,14,1.07,5.63a.06.06,0,0,1,0,0v0l-1.12.09Z"/><path class="cls-3" d="M21.53,130.91c-1.91-1.5-3.87-2.19-4.91-3.15-2.07-1.93-.65-6.72-2.14-9.94s-5.66-2.76-5.47-8S7.06,103.43,3,99.36-.28,86.56,1.41,86s.26,1.92,2.88,4.66,9.17,1.54,12.07,3.58.77,6.86,4.28,9.76,9.71-.58,12.71,2.38.36,8.7,2.89,12,7.73,3.87,10.67,6.21A16.44,16.44,0,0,1,52.29,131Z"/><path class="cls-4" d="M35.49,131l-4.16-4.87-16-2.79c0-.29,0-.59,0-.89l15.15,2.64-2.83-3.31L15,119.54c-.06-.31-.14-.62-.23-.92l12,2.08-2.14-2.49,0,0-6.19-7.25L9,109.29c0-.31,0-.61,0-.89l8.49,1.48-5.41-6.33,0,0L3.12,93.06a.43.43,0,1,1,.66-.56l8.11,9.5-.5-9.12.88.12.55,10.08,6.09,7.14,0,0,5.64,6.6,1.13-11.59.87,0-1.22,12.55,2.15,2.51L29,105.11c.3,0,.59,0,.87,0L28.31,121l.11,0a.43.43,0,0,1,.36.5.37.37,0,0,1-.08.18l3.17,3.71,0,0L36.63,131Zm1.58,0h.87l1-10.27c-.28-.16-.55-.33-.82-.51L37.07,131Zm2.34,0,1-9.56.84.37L40.28,131Zm5.7,0,.71-7.11a7.67,7.67,0,0,1,.82.53L46,131Z"/><path class="cls-5" d="M25.27,132.56c1.88-7.06.48-14.68-1.73-21.63a12.45,12.45,0,0,0-2.29-4.62,2.46,2.46,0,0,0-2.2-1c-1.19.26-1.69,1.81-1.82,3.13-.85,8.33,4.17,16,5.44,24.22"/><path class="cls-5" d="M30.61,129a23.34,23.34,0,0,1,1.79-6.07,10.35,10.35,0,0,1,4-4.57,2,2,0,0,1,2.43-.08c.72.69.49,2,.07,2.9-2.31,5.11-8.2,7.4-10.44,12.55m-.55-.55a46.66,46.66,0,0,0,3.68-9.3,18.65,18.65,0,0,0,0-10c-.31-1-1.08-2.12-2-1.78a2,2,0,0,0-.79.74c-1.68,2.42-2.32,5.51-2.63,8.53a87.77,87.77,0,0,1-.92,9.05,2.58,2.58,0,0,1-.49,1.23.81.81,0,0,1-1.11.2,1.29,1.29,0,0,1-.35-.65c-.38-1.33-6.37-14.93-11.8-15.88a3.72,3.72,0,0,0-1.33,0c-6.81,1.23,8.53,16.79,8.64,19.1-5.55-5.2-6.72-6.16-9.25-6.66-1.95-.38-5.34,1.51-4.22,4.11.77,1.8,2.7,2.6,4.48,3,2,.43,4,.56,5.86,1.16a7.71,7.71,0,0,1,4.76,3.63"/><path class="cls-6" d="M24.31,133a6.78,6.78,0,0,1,2.34.42c.17-6.65,5.16-12,11.3-12s11.3,5.54,11.3,12.37q0,.47,0,.93a6.16,6.16,0,0,1,5.39-3.37c3.46,0,6.26,3.07,6.26,6.85a7.24,7.24,0,0,1-.17,1.56,4.13,4.13,0,0,1,2.18-.62,4.93,4.93,0,0,1,0,9.82H24.31c-4,0-7.29-3.57-7.29-8S20.28,133,24.31,133Z"/><ellipse id="_Path_" data-name="&lt;Path&gt;" class="cls-7" cx="101.9" cy="154.73" rx="80.66" ry="4.71"/><g id="Group"><path class="cls-8" d="M74,35.08c-23.1,10.68-38.86,22.27-43.24,31.8C29,70.63,29,74.12,30.68,77.23c6.29,11.6,45.16,10.32,79.46,9.19,32.87-1.09,61.26-2,62.58,7,1.14,7.8-5.9,16.25-20.94,25.1a165.67,165.67,0,0,1-22.86,10.95l-.11,0a.31.31,0,0,1-.29-.22.34.34,0,0,1,.19-.43c.46-.17,46-17.35,43.39-35.32-1.23-8.46-30.72-7.48-61.94-6.45-36.16,1.19-73.55,2.43-80-9.52-1.79-3.32-1.78-7,.05-11,6.08-13.23,29.89-25.79,43.55-32.1"/><path class="cls-9" d="M74,35.08c-23.1,10.68-38.86,22.27-43.24,31.8C29,70.63,29,74.12,30.68,77.23c6.29,11.6,45.16,10.32,79.46,9.19,32.87-1.09,61.26-2,62.58,7,1.14,7.8-5.9,16.25-20.94,25.1a165.67,165.67,0,0,1-22.86,10.95l-.11,0a.31.31,0,0,1-.29-.22.34.34,0,0,1,.19-.43c.46-.17,46-17.35,43.39-35.32-1.23-8.46-30.72-7.48-61.94-6.45-36.16,1.19-73.55,2.43-80-9.52-1.79-3.32-1.78-7,.05-11,6.08-13.23,29.89-25.79,43.55-32.1"/><path class="cls-9" d="M74,35.08c-23.1,10.68-38.86,22.27-43.24,31.8C29,70.63,29,74.12,30.68,77.23a.33.33,0,0,1-.27.5.31.31,0,0,1-.27-.17c-1.79-3.32-1.78-7,.05-11,6.08-13.23,29.89-25.79,43.55-32.1"/><path class="cls-9" d="M128.81,129.5a.31.31,0,0,1-.29-.22.34.34,0,0,1,.19-.43c.46-.17,46-17.35,43.39-35.32a.34.34,0,0,1,.26-.38.33.33,0,0,1,.36.28c1.14,7.8-5.9,16.25-20.94,25.1a165.67,165.67,0,0,1-22.86,10.95Z"/></g><path class="cls-10" d="M121.11,58.74l.13-3.21s.86-.86.86-1.41-1-3.72-1.42-3.87-2.76,1-2.8,1.66a11.59,11.59,0,0,0,1.42,3.52L119,58.84Z"/><path class="cls-10" d="M156.15,54.3l-1.1-3.18A9.19,9.19,0,0,1,153.74,50c-.3-.4,1.39-3.42,1.64-3.42a8.75,8.75,0,0,1,2.28,1.28c.25.3-1.07,2.74-1.07,2.74l1.64,2.75Z"/><path class="cls-11" d="M149.72,53.77c1.52.15,8.86,8,8.86,8L155.41,53l2.52-.85s6.18,9.85,4.82,13.46-13.47-4.67-13.47-4.67Z"/><polygon class="cls-10" points="126.25 147.35 124.54 145.11 127.43 142.32 130.07 139.78 132.54 142.1 129.21 144.88 126.25 147.35"/><path class="cls-12" d="M124.44,144.43c.25-.18,2.37,3,2.37,3s-.47,3.31.48,5.44-.9,2-2.44-.07l-3.83-5C119.93,146.36,121.84,146.32,124.44,144.43Z"/><path class="cls-13" d="M126.77,148s1.42-.46,1.59.31-1.59-.31-1.59-.31,1.44,1.07,1.06,1.55C127.25,150.31,126.77,148,126.77,148Z"/><polygon class="cls-14" points="129.21 144.88 127.43 142.32 130.07 139.78 132.54 142.1 129.21 144.88"/><polygon class="cls-10" points="143.36 150.89 140.54 150.89 140.08 146.97 139.66 143.38 143 142.83 143.19 147.1 143.36 150.89"/><path class="cls-12" d="M139.94,150.71c0-.31,3.82-.07,3.82-.07s2.34,2.39,4.62,2.92,1,1.91-1.54,1.91h-6.3C138.73,155.47,139.86,153.93,139.94,150.71Z"/><path class="cls-13" d="M144.23,151s.49-1.4,1.2-1.07-1.2,1.07-1.2,1.07,1.71-.49,1.86.11C146.32,152,144.23,151,144.23,151Z"/><polygon class="cls-14" points="143.19 147.19 140.08 147.05 139.66 143.41 143 142.85 143.19 147.19"/><path class="cls-15" d="M150.38,83.19s8.32,19.65,9.62,28.28-28.23,31.75-28.23,31.75l-3-3.22s22-22.59,22-26.47-8.58-21.64-8.58-21.64S141.33,84.74,150.38,83.19Z"/><path class="cls-14" d="M144.89,122.28l-.53,10.18c-3,2.78-5.94,5.29-8.2,7.18a23.69,23.69,0,0,1-.59-6.84C138.55,129.57,142,125.72,144.89,122.28Z"/><path class="cls-15" d="M146.09,100.45c-2-4.59-3.94-8.56-3.94-8.56a7.26,7.26,0,0,1,.24-2.42,3,3,0,0,1,1-.4S145.8,92.93,146.09,100.45Z"/><path class="cls-12" d="M135.4,38.07a7.36,7.36,0,0,1,6.67-2.44c4.15.7,3.4,8.36,3.4,8.36a5.51,5.51,0,0,1,1.75,5.46c-.8,3.46-10.22,5.47-13.83,3.06s-.81-10,.92-11.13S135.4,38.07,135.4,38.07Z"/><path class="cls-15" d="M143.42,89.07l.5,27.67v28.33H139.2C128,91.4,135.67,78,135.67,78h0l0-.06c1.81-4,13.67-1,13.67-1a82.21,82.21,0,0,1,1.37,10.09Z"/><polygon class="cls-12" points="135.6 75.88 135.6 77.89 149.33 76.83 149.33 74.46 135.6 75.88"/><rect class="cls-9" x="139.61" y="75.05" width="0.68" height="3.47" transform="translate(-3.73 7.24) rotate(-2.92)"/><rect class="cls-8" x="143.25" y="75.08" width="3.01" height="2.29" transform="translate(-6.22 13.22) rotate(-5.12)"/><rect class="cls-9" x="148" y="74.12" width="0.68" height="3.47" transform="translate(-3.67 7.66) rotate(-2.92)"/><rect class="cls-16" x="139.61" y="75.05" width="0.68" height="3.47" transform="translate(-3.73 7.24) rotate(-2.92)"/><rect class="cls-16" x="148" y="74.12" width="0.68" height="3.47" transform="translate(-3.67 7.66) rotate(-2.92)"/><path class="cls-9" d="M149.39,74.7l-13.74,1.18c-.32-5.1-.65-8.39-3.67-17.49-.26-.8-.55-1.64-.86-2.53a40.1,40.1,0,0,1,5.7-1.38,44.06,44.06,0,0,1,6.17-.65c2.67,0,5.74.28,5.74.28s.43.11.71,2.94A121.43,121.43,0,0,1,149.39,74.7Z"/><path class="cls-6" d="M149.39,74.7l-13.74,1.18c-.32-5.1-.65-8.39-3.67-17.49-.26-.8-.55-1.64-.86-2.53a40.1,40.1,0,0,1,5.7-1.38,44.06,44.06,0,0,1,6.17-.65c2.67,0,5.74.28,5.74.28s.43.11.71,2.94A121.43,121.43,0,0,1,149.39,74.7Z"/><path class="cls-10" d="M141.85,56.87c-3.38-.44-4.4-1.88-4.4-1.88,2.15-2,.37-5.54.37-5.54l4.07.76a12.06,12.06,0,0,0-.16,1.72c0,2.47,1.09,2.49,1.09,2.49C143.53,55.76,141.85,56.87,141.85,56.87Z"/><path class="cls-14" d="M141.89,50.21a12.06,12.06,0,0,0-.16,1.72,9.93,9.93,0,0,1-3.91-2.48Z"/><path class="cls-10" d="M138.26,38.94c3.45-.82,5,.76,6.09,4.26,1.37,4.37,1.13,7.76-3.41,7.83C134.78,51.13,132.53,40.3,138.26,38.94Z"/><path class="cls-17" d="M142.08,43.54a7.73,7.73,0,0,0,1.34,1.19,1,1,0,0,1-.82.6Z"/><path class="cls-12" d="M139.9,43.75c.07.29,0,.55-.21.6s-.4-.14-.47-.42,0-.55.2-.6S139.82,43.47,139.9,43.75Z"/><path class="cls-12" d="M139.35,43.37l.55-.4S139.73,43.56,139.35,43.37Z"/><path class="cls-12" d="M143.39,42.78c.07.28,0,.55-.21.6s-.4-.14-.47-.42,0-.55.2-.6S143.31,42.5,143.39,42.78Z"/><path class="cls-12" d="M142.84,42.39l.55-.4S143.22,42.59,142.84,42.39Z"/><path class="cls-18" d="M139.3,41.38a1.85,1.85,0,0,0-1.38.88"/><path class="cls-18" d="M141.77,40.64a1.65,1.65,0,0,1,1.44,0"/><path class="cls-12" d="M142.42,46.81a9.21,9.21,0,0,0-.12,1.3l-.22,0c-1,.13-1.56-.14-1.82-.49a1.42,1.42,0,0,1-.25-.59,1.47,1.47,0,0,1,0-.36,4.76,4.76,0,0,0,2.07.15Z"/><path class="cls-8" d="M142.07,46.85l0,.38a3,3,0,0,1-2-.17,1.47,1.47,0,0,1,0-.36A4.76,4.76,0,0,0,142.07,46.85Z"/><path class="cls-17" d="M142.08,48.14c-1,.13-1.56-.14-1.82-.49a3.62,3.62,0,0,1,1.17.07A1.36,1.36,0,0,1,142.08,48.14Z"/><path class="cls-12" d="M135.86,45.65s.95-3.22.18-5.35c0,0,6.18-4.42,8.16,2.44,0,0-.79-6.32-6.76-5.05s-3.88,9.94-.2,11.8C137.24,49.49,135.29,47.66,135.86,45.65Z"/><path class="cls-10" d="M136.6,46.24a1.56,1.56,0,0,0-2-1c-1,.37-1,2.69,1.76,2.59C136.8,47.81,136.92,47.39,136.6,46.24Z"/><path class="cls-10" d="M149.44,57.05c-5.16,2.55-13.06,2-17.46,1.34-.26-.8-.55-1.64-.86-2.53a40.1,40.1,0,0,1,5.7-1.38,44.06,44.06,0,0,1,6.17-.65c2.67,0,5.74.28,5.74.28S149.16,54.22,149.44,57.05Z"/><path class="cls-11" d="M134,54.47s3.69,4.72,3.81,9.85-3.31,28.74-3.31,28.74l-4.12-1.17s3.12-18.18,0-35.74Z"/><path class="cls-11" d="M145.47,54a30,30,0,0,1,1.3,8.41c-.2,3.52,3.61,20.85,3.61,20.85l1.11,2.66-1.1-10.74s.66-15.77-.67-21.18Z"/><path class="cls-12" d="M138.26,38.94s1.28,4.34-2.62,6.31c-4.7,2.38-4.25,7.52.34,8.17,0,0-4.63-.46-5.53-3.49s1.65-7.67,1.65-7.67-1.41-2.56,2.39-4.57C136.64,36.55,138.26,38.94,138.26,38.94Z"/><polygon class="cls-9" points="138.6 144.39 144.49 143.52 144 145.88 139.13 146.53 138.6 144.39"/><polygon class="cls-9" points="128.75 138.92 132.7 143.21 130.73 144.34 127.68 141.11 128.75 138.92"/><path class="cls-9" d="M152.16,44.54a2.12,2.12,0,1,0-.51,3.31A2.41,2.41,0,0,0,152.16,44.54Z"/><path class="cls-9" d="M160.24,40.08l-2.45-4.5s-1.7,3.67-4.16,5l1.25,2.23.19.35,1.25,2.23c2.46-1.37,6.47-.91,6.47-.91Z"/><path class="cls-19" d="M152.16,44.54a2.12,2.12,0,1,0-.51,3.31A2.41,2.41,0,0,0,152.16,44.54Z"/><path class="cls-19" d="M160.24,40.08l-2.45-4.5s-1.7,3.67-4.16,5l1.25,2.23.19.35,1.25,2.23c2.46-1.37,6.47-.91,6.47-.91Z"/><path class="cls-9" d="M152,47.17a14.18,14.18,0,0,0,3.42,3.5.27.27,0,0,0,.34-.08l1.41-1.74a.27.27,0,0,0-.1-.43,9.73,9.73,0,0,1-3.25-2.2C152.6,44.78,152,47.17,152,47.17Z"/><path class="cls-20" d="M152,47.17a14.18,14.18,0,0,0,3.42,3.5.27.27,0,0,0,.34-.08l1.41-1.74a.27.27,0,0,0-.1-.43,9.73,9.73,0,0,1-3.25-2.2C152.6,44.78,152,47.17,152,47.17Z"/><path class="cls-8" d="M162.77,44.65c-.57.31-2.16-1.47-3.57-4s-2.09-4.81-1.53-5.12,2.16,1.47,3.57,4S163.33,44.34,162.77,44.65Z"/><path class="cls-21" d="M162.54,43.91c-.42.23-1.67-1.17-2.84-3.19l-.21-.35-.23-.42c-1.08-2-1.61-3.8-1.19-4s1.81,1.33,3.05,3.54S163,43.66,162.54,43.91Z"/><path class="cls-9" d="M151.43,48.31a7.9,7.9,0,0,1-1.7-2.39c-1.19-2.12-1.16-2.71-1.16-2.71l5.48-3.06a8.57,8.57,0,0,0,1.18,2.75,7.45,7.45,0,0,0,1.68,2.35Z"/><path class="cls-8" d="M159.7,40.72l-.21-.35-.23-.42.57-.18a.25.25,0,0,1,.31.14l.05.08a.27.27,0,0,1,0,.34Z"/><path class="cls-14" d="M159.7,40.72l-.21-.35-.23-.42.57-.18a.25.25,0,0,1,.31.14l.05.08a.27.27,0,0,1,0,.34Z"/><path class="cls-11" d="M130.39,56.15c-1.91.83-8.74,13-8.74,13l-.13-11.53-3.09-.4s-1.87,16.35,2.15,17.29S132,63.82,132,63.82Z"/><path class="cls-22" d="M137.82,38.42s1.77,1.27.45,4.61"/><path class="cls-22" d="M145.09,43.7s4.86,3.15,1.71,7.21"/><rect class="cls-15" x="41.81" y="13.97" width="78.52" height="141.23" rx="4.17"/><path class="cls-23" d="M117.71,18.7V150.22a1.92,1.92,0,0,1-1.95,1.92H46.23a1.72,1.72,0,0,1-1.74-1.77V18.55A1.56,1.56,0,0,1,46,16.93H63.36a1.21,1.21,0,0,1,1.12.78l.72,1.78a1.24,1.24,0,0,0,1.12.77H95.91A1.19,1.19,0,0,0,97,19.5l.72-1.78a1.24,1.24,0,0,1,1.12-.79H116A1.76,1.76,0,0,1,117.71,18.7Z"/><rect class="cls-16" x="52.75" y="21.02" width="0.9" height="1.21" transform="translate(106.4 43.25) rotate(180)"/><rect class="cls-16" x="51.27" y="20.62" width="0.9" height="1.61" transform="translate(103.45 42.85) rotate(180)"/><rect class="cls-16" x="49.8" y="20.22" width="0.9" height="2.01" transform="translate(100.5 42.45) rotate(180)"/><rect class="cls-16" x="48.33" y="19.82" width="0.9" height="2.41" transform="translate(97.56 42.05) rotate(180)"/><rect class="cls-16" x="109.08" y="20.58" width="0.54" height="1.21"/><rect class="cls-16" x="109.98" y="20.14" width="4.27" height="2.09" transform="translate(224.23 42.37) rotate(180)"/><circle class="cls-16" cx="79.44" cy="17.1" r="1"/><path class="cls-16" d="M82.48,17.1a.65.65,0,1,1-.64-.64A.65.65,0,0,1,82.48,17.1Z"/><path class="cls-24" d="M117.71,127.18v23a1.92,1.92,0,0,1-1.95,1.92H46.23a1.72,1.72,0,0,1-1.74-1.77V127.18Z"/><polygon class="cls-9" points="52.53 83.17 81.07 59.18 109.61 83.17 87.24 113.18 67.14 112.78 52.53 83.17"/><polygon class="cls-25" points="52.53 83.17 81.07 59.18 109.61 83.17 87.24 113.18 67.14 112.78 52.53 83.17"/><rect class="cls-26" x="60.77" y="51.28" width="40.6" height="59.36" rx="2.25"/><rect class="cls-25" x="65.1" y="56.64" width="31.96" height="1.21" rx="0.3"/><rect class="cls-25" x="65.1" y="60.66" width="31.96" height="1.21" rx="0.3"/><rect class="cls-25" x="65.1" y="64.68" width="31.96" height="1.21" rx="0.3"/><rect class="cls-25" x="65.1" y="68.71" width="31.96" height="1.21" rx="0.3"/><rect class="cls-25" x="65.1" y="72.73" width="31.96" height="1.21" rx="0.3"/><rect class="cls-25" x="65.1" y="76.75" width="31.96" height="1.21" rx="0.3"/><rect class="cls-25" x="65.1" y="80.77" width="31.96" height="1.21" rx="0.3"/><rect class="cls-25" x="65.1" y="84.79" width="31.96" height="1.21" rx="0.3"/><rect class="cls-25" x="65.1" y="88.82" width="31.96" height="1.21" rx="0.3"/><path class="cls-9" d="M82.6,104.08l-.16-.08a1.9,1.9,0,0,0-1.85,0l-.77.44L52.39,83.17v35.1a1.84,1.84,0,0,0,1.88,1.83h53.6c1,0,1.52-.79,1.52-1.83V83.17Z"/><path class="cls-27" d="M82.6,104.08l-.16-.08a1.9,1.9,0,0,0-1.85,0l-.77.44L52.39,83.17v35.1a1.84,1.84,0,0,0,1.88,1.83h53.6c1,0,1.52-.79,1.52-1.83V83.17Z"/><polygon class="cls-14" points="78.58 103.48 79.82 104.44 60.44 115.44 78.58 103.48"/><polygon class="cls-14" points="103.77 115.86 82.57 104.11 83.55 103.34 103.77 115.86"/><rect class="cls-25" x="49.76" y="130.64" width="10.68" height="10.12"/><rect class="cls-25" x="62.75" y="130.64" width="10.68" height="10.12"/><rect class="cls-25" x="75.74" y="130.64" width="10.68" height="10.12"/><rect class="cls-25" x="88.73" y="130.64" width="10.68" height="10.12"/><rect class="cls-25" x="101.72" y="130.64" width="10.68" height="10.12"/><path class="cls-7" d="M112.58,147.91H101.9a1.39,1.39,0,0,1-1.39-1.39h0a1.39,1.39,0,0,1,1.39-1.39h10.68a1.4,1.4,0,0,1,1.39,1.39h0A1.39,1.39,0,0,1,112.58,147.91Z"/><polygon class="cls-28" points="110.38 14.02 41.99 111.33 41.99 68.22 80.05 14.02 110.38 14.02"/><path class="cls-28" d="M70.64,14,42,54.93V18.3A4.14,4.14,0,0,1,46.14,14Z"/><g class="cls-29"><path class="cls-27" d="M74,35.08c-23.1,10.68-38.86,22.27-43.24,31.8C29,70.63,29,74.12,30.68,77.23a.33.33,0,0,1-.27.5.31.31,0,0,1-.27-.17c-1.79-3.32-1.78-7,.05-11,6.08-13.23,29.89-25.79,43.55-32.1"/><path class="cls-8" d="M128.81,129.5a.31.31,0,0,1-.29-.22.34.34,0,0,1,.19-.43c.46-.17,46-17.35,43.39-35.32a.34.34,0,0,1,.26-.38.33.33,0,0,1,.36.28c1.14,7.8-5.9,16.25-20.94,25.1a165.67,165.67,0,0,1-22.86,10.95Z"/></g><polygon class="cls-11" points="76.79 32.92 138.93 0 84.57 17.89 76.79 32.92"/><polygon class="cls-9" points="62.1 3.78 73.6 11.71 76.79 32.92 84.57 17.89 104.26 27.8 138.93 0 62.1 3.78"/><polygon class="cls-30" points="62.1 3.78 73.6 11.71 76.79 32.92 84.57 17.89 104.26 27.8 138.93 0 62.1 3.78"/><polygon class="cls-31" points="73.6 11.71 138.93 0 84.57 17.89 76.79 32.92 73.6 11.71"/></svg>