<svg id="BACKGROUND" xmlns="http://www.w3.org/2000/svg" viewBox="0 0 283.6 224"><defs><style>.cls-1{fill:#f9ae3b;}.cls-2{fill:#deab28;}.cls-3{fill:#d4a533;}.cls-4{fill:#bc8421;}.cls-5{fill:#f5911e;}.cls-6{fill:#9c720f;}.cls-7{fill:#f9ed38;}.cls-8{fill:#6a552b;}.cls-9{fill:#bc8e2d;}.cls-10{fill:#43220a;}.cls-11{fill:#d8a62f;}.cls-12{fill:#f1c76a;}.cls-13{fill:#e2a290;}.cls-14{fill:#a47c52;}.cls-15{fill:#7c6d41;}.cls-16{fill:#eddb8b;}.cls-17{fill:#dc8b7f;}.cls-18{fill:#ebcb82;}</style></defs><path class="cls-1" d="M24.57,167.31l-2.87-1.63a16.21,16.21,0,0,1-2.7,3.26,2,2,0,0,1-2.75,0l-.09-.09a2,2,0,0,1,.05-2.94,11.78,11.78,0,0,0,2.43-3c1-1.72,1-3.28-.23-4s-2.42-.1-4.45,1.71c-2.92,2.62-5.68,4-8.61,2.3-2.66-1.5-3.68-4.56-2.48-8.15L0,153.18l1.68-3,2.66,1.51a14.67,14.67,0,0,1,2-2.53,2,2,0,0,1,2.82,0h0a2,2,0,0,1,0,2.88,11,11,0,0,0-1.88,2.44c-1.11,2-.63,3.08.22,3.56,1,.57,2.23-.13,4.65-2.15,3.31-2.88,5.8-3.39,8.51-1.84s3.91,4.73,2.54,8.54l3.09,1.75Z"/><path class="cls-2" d="M162.62,213.38c7.23-9.74,13-9.82,13-9.82s2.64-17.12.53-24.4-11.62-.89-11.62-.89,12.62-24.74,7.44-27.51c-9.64-5.18-24.82,21.06-24.82,21.06s3.55-11.55-3.26-11.51c-10.28.07-11.17,26.54-11.17,26.54s-2-5.21-8.37-2.22c-6.84,3.22-8.69,22.6-9.07,37.58h36C156.49,219.06,160.7,216,162.62,213.38Z"/><path class="cls-3" d="M148.46,169.71s.42-13.16-6.4-13.12c-10.28.07-9.29,30.26-9.29,30.26s-4.3-8.54-10.64-5.55c-7,3.28-7.79,24.7-7.52,40.91h12L172,150.76C162.38,145.58,148.46,169.71,148.46,169.71Z"/><path class="cls-4" d="M204.44,221.36s32.82,3.77,40.77,1,2.68-7.24,2.68-7.24S264.7,213,266.33,208s-6.34-5-6.34-5,16.88-9.32,15-12.93c-3.52-6.72-22.46,2.45-22.46,2.45s6.54-5.25,2.6-7.88c-5.94-4-16.75,10.92-16.75,10.92s.87-3.79-3.94-4.54C225.79,189.6,204.44,221.36,204.44,221.36Z"/><path class="cls-3" d="M234.41,188.15c4.81.75,4,7.34,4,7.34s11.18-17.75,17.12-13.79c3.94,2.63-1.43,10-1.43,10s17.4-8.45,20.92-1.73l-67.39,29.25C210.05,215.53,226.35,186.9,234.41,188.15Z"/><path class="cls-4" d="M204.23,221.83s29.87-20.78,34.16-29.91-3.93-8.38-3.93-8.38,12.29-16.17,9.37-21.76-9.62,1.18-9.62,1.18,6.21-22.25,1.53-23.66c-8.71-2.63-17.23,25.54-17.23,25.54s-3.26-15.58-8.81-14.42c-8.37,1.74,0,24.79,0,24.79s-2.47-7.51-7.15-4C194.13,177.43,204.23,221.83,204.23,221.83Z"/><path class="cls-3" d="M194.36,171.54a11.87,11.87,0,0,0,6.33-7.74s0-13,8.41-14.78c5.55-1.16,9.44,9.31,9.44,9.31s8.49-21.66,17.2-19l-31.6,82.18C203,216.24,188.08,174.51,194.36,171.54Z"/><path class="cls-5" d="M195,221.9H134.8a3.47,3.47,0,0,1-3.47-3.48h0a3.47,3.47,0,0,1,3.47-3.48H195a3.47,3.47,0,0,1,3.47,3.48h0A3.47,3.47,0,0,1,195,221.9Z"/><path class="cls-6" d="M205.56,215.15H145.34a3.48,3.48,0,0,1-3.48-3.48h0a3.48,3.48,0,0,1,3.48-3.48h60.22a3.48,3.48,0,0,1,3.48,3.48h0A3.48,3.48,0,0,1,205.56,215.15Z"/><path class="cls-5" d="M197.13,208.76H136.91a3.48,3.48,0,0,1-3.48-3.48h0a3.48,3.48,0,0,1,3.48-3.48h60.22a3.48,3.48,0,0,1,3.48,3.48h0A3.48,3.48,0,0,1,197.13,208.76Z"/><path class="cls-6" d="M190.11,201.83H129.89a3.48,3.48,0,0,1-3.48-3.48h0a3.47,3.47,0,0,1,3.48-3.47h60.22a3.47,3.47,0,0,1,3.48,3.47h0A3.48,3.48,0,0,1,190.11,201.83Z"/><circle class="cls-1" cx="202.66" cy="193.81" r="30.11"/><circle class="cls-7" cx="202.66" cy="193.81" r="25.27"/><path class="cls-8" d="M194.84,210l1.43-4a20.54,20.54,0,0,1-4.67-2.71,2.57,2.57,0,0,1-.54-3.47l.09-.13a2.56,2.56,0,0,1,3.72-.56,14.91,14.91,0,0,0,4.24,2.42c2.38.86,4.35.53,4.95-1.14s-.4-3.07-3.11-5.23c-3.92-3.12-6.21-6.32-4.74-10.37,1.33-3.67,5-5.61,9.75-4.87l1.43-4,4.1,1.48-1.34,3.67a19.14,19.14,0,0,1,3.61,1.93,2.57,2.57,0,0,1,.65,3.55h0a2.56,2.56,0,0,1-3.64.62,13.81,13.81,0,0,0-3.48-1.84c-2.71-1-4-.14-4.44,1-.5,1.38.65,2.78,3.71,5.41,4.33,3.55,5.5,6.57,4.14,10.33s-5.13,5.93-10.23,5l-1.54,4.26Z"/><path class="cls-6" d="M94.07,220.67s-46.79-23.07-54.84-35.1S43,172.86,43,172.86,22.13,152.55,25.07,144s13.9-.38,13.9-.38S25.4,113.4,31.73,110.4C43.52,104.8,60.06,137,60.06,137s-3.55-14,4.57-13.52c12.24.69,11.74,32.29,11.74,32.29s1.38-12.12,8.76-8.18C98.37,154.61,94.07,220.67,94.07,220.67Z"/><path class="cls-9" d="M87.79,142.66c-5.76-3.2-11.5,6.15-11.5,6.15s.58-24.68-11.66-25.37C56.51,123,60.06,137,60.06,137S43.52,104.8,31.73,110.4L94.12,220.16C94.56,212.5,99.21,149,87.79,142.66Z"/><path class="cls-6" d="M92.86,221s-38.27,4.75-48.18.52S41.87,212,41.87,212,20.6,207.83,19,201.3s8.51-5.88,8.51-5.88-20.74-13.33-18-17.78c5.08-8.28,28.46,5.05,28.46,5.05s-7.89-7.27-2.64-10.28c7.91-4.55,20.44,15.36,20.44,15.36s-.78-4.9,5.42-5.45C72.27,181.35,92.86,221,92.86,221Z"/><path class="cls-9" d="M61.39,178.75c-6.2.55-5.67,9-5.67,9S43,164.17,35.05,168.72c-5.25,3,1,12.92,1,12.92s-21.47-12.28-26.55-4L93,220.75C90.13,215.79,71.79,177.84,61.39,178.75Z"/><path class="cls-10" d="M13.24,222.93h0A1.07,1.07,0,0,0,14.32,224h268.2a1.08,1.08,0,0,0,1.08-1.07h0a1.08,1.08,0,0,0-1.08-1.08H14.32A1.08,1.08,0,0,0,13.24,222.93Z"/><polygon class="cls-1" points="200.96 35.81 199.6 39.21 193.88 37.62 191.28 42.35 186.8 41.86 186.56 44.12 192.53 44.78 195.01 40.3 200.95 41.95 203 36.84 200.96 35.81"/><path class="cls-1" d="M221.29,126.91l1.4-3.48a18.45,18.45,0,0,1-4.08-2.56,2.29,2.29,0,0,1-.37-3.1l.09-.12a2.28,2.28,0,0,1,3.33-.38,13.33,13.33,0,0,0,3.7,2.29c2.09.84,3.85.61,4.44-.86s-.26-2.75-2.6-4.76c-3.4-2.9-5.34-5.82-3.9-9.38,1.3-3.22,4.59-4.84,8.83-4l1.4-3.48,3.6,1.45-1.3,3.22a16.71,16.71,0,0,1,3.15,1.84,2.29,2.29,0,0,1,.46,3.18h0a2.29,2.29,0,0,1-3.26.44,11.87,11.87,0,0,0-3-1.76c-2.39-1-3.57-.24-4,.78-.49,1.21.49,2.5,3.13,4.93,3.75,3.3,4.7,6,3.37,9.33s-4.76,5.13-9.27,4.16l-1.51,3.74Z"/><path class="cls-11" d="M144.11,221.86H73.38a5.11,5.11,0,0,1-5.11-5.11h0a5.11,5.11,0,0,1,5.11-5.1h70.73a5.1,5.1,0,0,1,5.1,5.1h0A5.1,5.1,0,0,1,144.11,221.86Z"/><path class="cls-12" d="M154.74,211.76H88.15a5.1,5.1,0,0,1-5.1-5.11h0a5.1,5.1,0,0,1,5.1-5.1h66.59a5.11,5.11,0,0,1,5.11,5.1h0A5.11,5.11,0,0,1,154.74,211.76Z"/><rect class="cls-11" x="76.57" y="191.34" width="73.67" height="10.21" rx="3.3"/><rect class="cls-12" x="76.3" y="181.16" width="73.8" height="10.21" rx="3.3"/><path class="cls-11" d="M147.3,181.76H82.72a5.1,5.1,0,0,1-5.11-5.1h0a5.1,5.1,0,0,1,5.11-5.1H147.3a5.1,5.1,0,0,1,5.1,5.1h0A5.1,5.1,0,0,1,147.3,181.76Z"/><path class="cls-12" d="M144.51,171.68H79.93a5.1,5.1,0,0,1-5.1-5.1h0a5.1,5.1,0,0,1,5.1-5.1h64.58a5.1,5.1,0,0,1,5.11,5.1h0A5.1,5.1,0,0,1,144.51,171.68Z"/><rect class="cls-12" x="80.89" y="141.76" width="71.87" height="10.21" rx="3.3"/><rect class="cls-11" x="88.95" y="151.58" width="69.25" height="10.21" rx="3.3"/><circle class="cls-1" cx="64.21" cy="193.36" r="29.96" transform="translate(-103.91 78.27) rotate(-37.24)"/><path class="cls-7" d="M81.25,174.88a25.14,25.14,0,1,1-35.52,1.44A25.15,25.15,0,0,1,81.25,174.88Z"/><path class="cls-8" d="M80.7,201.21a2,2,0,0,1-.1,2.54,19.42,19.42,0,0,1-5.84,4.34,15.77,15.77,0,0,1-12.09,1,14.63,14.63,0,0,1-6.77-5.05l-2.21,1.09a1.52,1.52,0,0,1-2-.7l0,0a1.52,1.52,0,0,1,.69-2l1.82-.89c-.37-.6-.62-1-.79-1.31a15.91,15.91,0,0,1-.8-2.06l-1.87.91a1.52,1.52,0,0,1-2-.69h0a1.52,1.52,0,0,1,.69-2l2.27-1.11a15.47,15.47,0,0,1,.32-8.38,16.73,16.73,0,0,1,8.62-9.51,17.08,17.08,0,0,1,5.77-1.74,2,2,0,0,1,2.25,1.74v0a2.05,2.05,0,0,1-1.76,2.32,14.62,14.62,0,0,0-4.48,1.42,10.87,10.87,0,0,0-5.63,6.14,9.06,9.06,0,0,0-.16,5.56l12.75-6.26a1.52,1.52,0,0,1,2,.69h0a1.51,1.51,0,0,1-.69,2l-13.32,6.54c.25.65.5,1.3.69,1.7s.5,1,.89,1.67l13.35-6.55a1.54,1.54,0,0,1,2.07.71h0a1.55,1.55,0,0,1-.71,2.07l-12.77,6.27a9.61,9.61,0,0,0,4.21,3,10.65,10.65,0,0,0,8.5-.73A16.93,16.93,0,0,0,77.73,201a2,2,0,0,1,3,.22Z"/><path class="cls-1" d="M80.69,113a1.58,1.58,0,0,1-.27,2,15.87,15.87,0,0,1-4.94,3,12.49,12.49,0,0,1-9.62-.14,11.48,11.48,0,0,1-5-4.5l-1.83.68a1.19,1.19,0,0,1-1.54-.7l0,0a1.2,1.2,0,0,1,.7-1.54l1.5-.57A11.23,11.23,0,0,1,59.2,110a10.25,10.25,0,0,1-.48-1.69l-1.55.58a1.2,1.2,0,0,1-1.54-.7h0a1.2,1.2,0,0,1,.7-1.55l1.87-.7a12.39,12.39,0,0,1,.9-6.6,13.26,13.26,0,0,1,7.54-6.84,13.47,13.47,0,0,1,4.69-.93A1.62,1.62,0,0,1,73,93.15v0a1.63,1.63,0,0,1-1.57,1.7,11.82,11.82,0,0,0-3.65.77,8.68,8.68,0,0,0-4.92,4.42,7.26,7.26,0,0,0-.55,4.38l10.55-4a1.2,1.2,0,0,1,1.55.7h0a1.21,1.21,0,0,1-.7,1.55l-11,4.13c.14.54.29,1.07.41,1.4s.32.84.58,1.39l11-4.15a1.23,1.23,0,0,1,1.58.72h0a1.22,1.22,0,0,1-.72,1.58l-10.57,4a7.73,7.73,0,0,0,3.1,2.69,8.48,8.48,0,0,0,6.77.08,13.67,13.67,0,0,0,3.52-2,1.58,1.58,0,0,1,2.32.41Z"/><path class="cls-1" d="M178.6,77.7,182,76l3.31,1.81a.52.52,0,0,0,.76-.54l-.58-3.73L188.2,71a.52.52,0,0,0-.27-.89l-3.73-.6-1.61-3.4a.52.52,0,0,0-.93,0l-1.73,3.36-3.74.48a.52.52,0,0,0-.3.88l2.66,2.68-.69,3.71A.51.51,0,0,0,178.6,77.7Z"/><polygon class="cls-1" points="111.04 9.29 107.56 9.64 106.38 4.11 101.23 4 99.66 0 97.64 0.79 99.73 6.14 104.61 6.24 105.85 12 111.08 11.47 111.04 9.29"/><path class="cls-1" d="M182.52,92.22l3.72,1.23s5.91-1.91,6.49-3.11.74-4.12,1.58-4.2a2.54,2.54,0,0,1,2.85,2.19c.28,1.45-1.84,5.64-1.51,6.08A20.2,20.2,0,0,0,199.53,96a2.9,2.9,0,0,1,1.92,2.34h0a1.58,1.58,0,0,1-1,1.71l-1.07.42.35,1.1a1.6,1.6,0,0,1-1,2l-.83.28.26.67a1.6,1.6,0,0,1-1,2.11l-.72.21,0,.2a1.59,1.59,0,0,1-1.16,1.78l-.72.19-9.91-3.27a7,7,0,0,1-2.51-1.46l-3.3-1.74a.82.82,0,0,1-.38-1l3.05-8.79A.83.83,0,0,1,182.52,92.22Z"/><path class="cls-1" d="M63.2,80.23a49.18,49.18,0,0,0-2.72-4.29c-7-10.09-17.38-19.81-29.55-19.44v-.08A26.5,26.5,0,0,1,46.55,59.9C54.36,64.11,62,72.13,66.13,78.29Z"/><path class="cls-13" d="M143.24,67.65a5.7,5.7,0,0,0,.34-2.39,40.61,40.61,0,0,0-.53-5.45c-.15-.5,6.52-2.58,6.52-2.58s10.7-.55,12.29-1.75,2.93-1.68,2.19-.44a30.11,30.11,0,0,1-5.17,6c-.7.44-9,2.53-9.16,2.53s-.1,5.23-.1,5.23Z"/><path class="cls-14" d="M150.18,65.42s-6.93-1.18-7.05-.48c-2.8,15.32-3.28,20.39-3.58,20.55-1.06.54-16.13-12.69-18.63-13.56a10.61,10.61,0,0,0-3.73-.31c-3,.09-2,0-3.52.1h-.13v2.79c3.34,3,11,48.5,11.63,48.47s15.83,3.77,15.56,2.5c0-.21-10.24-8.55-13.14-20.6-1-4-1.45-8.4-2-12.21,3.35,1.68,16.46,8.14,18.54,7.28C150.64,97.31,150.18,65.42,150.18,65.42Z"/><path class="cls-13" d="M176.2,146.21s14.05,11,14.52,13c.68,2.81,13.55-.89,10.45-1.46-.72-.13-3-.71-3.19-.81-1-.54-13.51-15.61-13.51-15.61Z"/><path class="cls-10" d="M207.2,157.72l-9-.73a12.76,12.76,0,0,1-7.5,2.22,11.44,11.44,0,0,0-.41,4.89c.06.45.14,1.82.6,1.79,1.66-.11,6.07-1.21,11.11-2.22,0,0,6.76-1.43,10.67-3.77S207.2,157.72,207.2,157.72Z"/><path class="cls-8" d="M113.22,118.6a61.31,61.31,0,0,0,21.67-.94c13.18-3.08,27.74-5.93,32-3.45,3.44,2,24.89,34.41,24.89,34.41l-8.29,6-23.62-26.45s-30.13,11.12-36.9,9.89C107.57,135.3,107.35,123,113.22,118.6Z"/><polygon class="cls-8" points="124.47 112.05 134.77 124.29 115.66 130.12 113.22 118.59 124.47 112.05"/><path class="cls-13" d="M145.4,168s-.63,17-1,19.88,7.21,11.5,6.24,8.5c-.22-.69-.8-3-.8-3.19,0-1.14,2.82-20.54,2.82-20.54Z"/><path class="cls-10" d="M153.5,201.65l-3.62-8.24a12.73,12.73,0,0,1-5.52-5.54,11.37,11.37,0,0,0-4.49,1.95c-.37.28-2.89,2.11-2.71,2.54.64,1.56,4.07,4.9,7.81,8.56a98.75,98.75,0,0,0,9.22,6.6C158.1,209.85,153.5,201.65,153.5,201.65Z"/><path class="cls-15" d="M162.08,134.44c-3.6-4.8-32.64-9.35-32.64-9.35l-8.1-15.57-17.92,11s1.79,14.26,3.14,18.06c1.79,5.08,13.83,5.34,21.18,5.26,6.76-.07,19.12,1.31,19.12,1.31l-4.18,36.87s8.21,1.87,10.52,1.57C153.46,183.59,166.56,140.41,162.08,134.44Z"/><path class="cls-16" d="M113.64,71.75l-10.11.56a3,3,0,0,1-.3.09c-.82.15-.08,29.6.66,40.6s2.22,15.62,2.22,15.62,13.71-2.43,17.91-4.06c1.75-.68,6-6,6-6a44.53,44.53,0,0,1-6.49-15.23c-1.67-7.27-3.74-20.16-4.93-22.85C115.86,74.34,113.64,71.75,113.64,71.75Z"/><path class="cls-13" d="M103.82,63.4l-.29,8.92s6.54,11.27,9.9,9.7c2.82-1.32.32-9.89.32-9.89s-.49-2-1.17-4.23a16.42,16.42,0,0,1-.83-4.54C111.82,60.31,103.82,63.4,103.82,63.4Z"/><path class="cls-10" d="M111.63,43.05s3.34,5,3.59,9.25a22.12,22.12,0,0,1-.65,7.11l-10.7-12.78Z"/><path class="cls-17" d="M116.32,51.43c.15,1.48-.42,2.76-1.28,2.84s-1.68-1-1.83-2.52.42-2.75,1.28-2.84S116.17,50,116.32,51.43Z"/><path class="cls-13" d="M100.41,48.68c-.24-.06-.22,12.25,3.35,15.15s9.78,3.15,11.59.23c2-3.22.1-16.19-5.21-19S100.41,48.68,100.41,48.68Z"/><path class="cls-10" d="M99.51,41c-2.73,2.39-4.05,4.14-5.89,8.38-2.27,5.22,2.23,10.63,6,12.78S103.71,67,103.71,67l.15-1.64a4.39,4.39,0,0,0-.59-2.78c-.32-.68-1.35-3-1.75-3.65-1.06-1.64-1.27-2-.75-3.55.41-1.2-.06-3.83.56-5.81l5.08-1.09a10.7,10.7,0,0,0,4.78-2.62C115.79,40.54,106.69,34.62,99.51,41Z"/><path class="cls-13" d="M102,56.72c.63,1.35.5,2.74-.29,3.1s-1.93-.43-2.55-1.78-.5-2.75.29-3.11S101.36,55.37,102,56.72Z"/><path class="cls-1" d="M33.63,61.13l-.82-5.67L37,51.57a.79.79,0,0,0-.4-1.36l-5.65-1L28.56,44a.79.79,0,0,0-1.41,0l-2.67,5.08-5.69.67a.79.79,0,0,0-.47,1.34l4,4.1-1.11,5.62a.79.79,0,0,0,1.12.86l5.14-2.54,5,2.8A.78.78,0,0,0,33.63,61.13Z"/><path class="cls-13" d="M67.4,22.76C68,25.13,69,28.88,69,28.88c-.08,1-.39,5.31-.75,10.56L76,36.35s-.09-8.56.25-9.08.78.11,3.15-3.27a6.68,6.68,0,0,0,.81-2.73s.14-2.15-.34-2.35a1,1,0,0,0-1.22.49c-.17.38-.12,1.24-.3,1.61a2.69,2.69,0,0,1-1.76.8c-.47,0,.06-6.36.06-6.36s.26-1.8.39-2.38.57-2,.57-2,.54-2.14-.12-2.3c-.39-.09-1.39,1.64-2.07,3.48s-1.15,4.07-1.36,4.05c-.49-.07-.23-3.54-.23-3.54a11.26,11.26,0,0,0,.48-2.34c.46-.92.77-2.63,0-2.77A14,14,0,0,0,73,9.83s-.43,1.53-.67,2.24a41.34,41.34,0,0,0-.73,4.12c-.19.73-.36.43-.44.46a18.94,18.94,0,0,1,.17-2.36A14.3,14.3,0,0,1,71.53,12a16.05,16.05,0,0,0,.33-2.42c.13-1.8-1-1.62-1.39,0-.15.62-.3,1.31-.46,2-.61,2.69-.59,5.28-.88,5.31s-.13-4.7-.13-4.7-.58-2.61-1.15-.19a21,21,0,0,0-.59,5.22C67.32,17.93,66.82,20.39,67.4,22.76Z"/><path class="cls-14" d="M103.52,72.32s-10-.47-12.59-1.64C89.36,70,76.49,59.6,76.49,59.6l.14-27.77-9-.69s-4.7,30.7-3.07,34.06S85,83,88.8,89.15c2.17,3.57,6.7,52.15,7.38,52.58,4.88,2.54,19.94,5.07,19.58,3.54C106,102.73,103.52,72.32,103.52,72.32Z"/><circle class="cls-1" cx="148.25" cy="30.14" r="30.11"/><circle class="cls-7" cx="148.25" cy="30.14" r="25.27" transform="translate(-3.02 28.2) rotate(-10.76)"/><path class="cls-8" d="M140.43,46.37l1.44-4a20.6,20.6,0,0,1-4.68-2.7,2.57,2.57,0,0,1-.53-3.47l.09-.14a2.56,2.56,0,0,1,3.71-.56A15.11,15.11,0,0,0,144.71,38c2.38.86,4.34.54,4.94-1.13s-.39-3.08-3.1-5.24c-3.92-3.12-6.21-6.31-4.75-10.36,1.33-3.68,5-5.62,9.75-4.87l1.44-4,4.09,1.48-1.33,3.68a19.19,19.19,0,0,1,3.61,1.93A2.56,2.56,0,0,1,160,23h0a2.57,2.57,0,0,1-3.64.63,13.16,13.16,0,0,0-3.48-1.85c-2.71-1-4-.13-4.43,1-.5,1.38.64,2.79,3.7,5.41,4.34,3.55,5.51,6.58,4.15,10.33s-5.13,5.94-10.23,5l-1.55,4.26Z"/><path class="cls-13" d="M147.48,60.41S150.27,59.22,151,59s3.14-.7,3.14-.7,3.71-3.81,4.65-3.91-2.16,4.16-2.16,4.16l-1.3,1.24s2.09-1.79,2.49-2,3.53-4.77,4.33-4.48-1.34,3.49-2.39,5.18S154,61.16,154,61.16Z"/><path class="cls-9" d="M180.78,72.7c0,.75-16.93,1-20.43,16l-2.26-.74c5-15.26,21.78-14.64,22.6-15.2l0,0Z"/><path class="cls-18" d="M252,169.23l.58-2a8.33,8.33,0,0,0,6.6-5.67,17.4,17.4,0,0,0,.61-2.86l-4.12-1.2.73-2.52,3.72,1.08a28.31,28.31,0,0,1,.82-4.45,7.69,7.69,0,0,1,9.95-5.57,10.5,10.5,0,0,1,3,1.34,1.47,1.47,0,0,1,.4,2h0a1.47,1.47,0,0,1-2,.44,8.9,8.9,0,0,0-2.19-.95c-3.12-.9-5,.88-5.85,3.73a23,23,0,0,0-.77,4.42l5.77,1.67-.74,2.52L263,159.63a14.49,14.49,0,0,1-1.46,4.44,8.65,8.65,0,0,1-4,3.51l0,.08L268,170.72a1.47,1.47,0,0,1,1,1.82l0,.1a1.46,1.46,0,0,1-1.81,1Z"/></svg>