<svg id="BACKGROUND" xmlns="http://www.w3.org/2000/svg" viewBox="0 0 243.66 189.3"><defs><style>.cls-1{fill:#b3b3b3;}.cls-2{fill:#f5911e;}.cls-3{fill:#e0e0e0;}.cls-4{fill:#ffbe9d;}.cls-5{fill:#a47c52;}.cls-6{opacity:0.4;}.cls-7{opacity:0.2;}.cls-8{fill:#263238;}.cls-9{fill:#455a64;}.cls-10{fill:#fafafa;}.cls-11{fill:#c39c51;}.cls-12{opacity:0.3;}.cls-13{fill:#eb996e;}.cls-14{fill:#7c6d41;}.cls-15{fill:#f9ed38;}.cls-16{fill:#a88f55;}.cls-17{fill:#916217;}.cls-18{fill:#bc9731;}.cls-19{fill:#824110;}.cls-20{opacity:0.5;}.cls-21{fill:#ebebeb;}</style></defs><ellipse id="_Path_" data-name="&lt;Path&gt;" class="cls-1" cx="99.83" cy="181.42" rx="99.83" ry="7.88"/><rect class="cls-2" x="32.06" y="50.49" width="52.1" height="77.29" transform="translate(-45.15 114.79) rotate(-70.85)"/><path class="cls-3" d="M103.16,77.2a4.25,4.25,0,0,1-.91.42c-.66.28-1.55.63-2.65,1.08l-9.8,3.84L57.27,95l-.26.1-.16-.24c-.11-.19-.24-.39-.37-.59L37.74,64.35l-5.62-9.11-1.49-2.49a4.9,4.9,0,0,1-.48-.9,6.52,6.52,0,0,1,.6.82l1.61,2.43,5.8,9,18.91,29.8.38.59L57,94.32l32.6-12.24,9.89-3.63,2.69-1A5.86,5.86,0,0,1,103.16,77.2Z"/><path class="cls-3" d="M13.06,101.07c-.1-.17,7.73-5,17.49-10.81S48.31,79.89,48.41,80.05s-7.74,5-17.5,10.81S13.16,101.23,13.06,101.07Z"/><path class="cls-3" d="M72.89,87.86c.18-.06,3.28,8.52,6.92,19.17s6.45,19.33,6.26,19.39-3.28-8.52-6.92-19.17S72.71,87.93,72.89,87.86Z"/><rect class="cls-2" x="147.17" y="-4.3" width="30.56" height="45.34" transform="translate(121.04 176.52) rotate(-81.78)"/><path class="cls-3" d="M187.16,6.87a3.19,3.19,0,0,1-.48.34l-1.4.91-5.22,3.3L162.71,22.21l-.14.09-.12-.13-.28-.29L148.05,6.74l-4.24-4.62L142.67.85a3.36,3.36,0,0,1-.38-.47,3.26,3.26,0,0,1,.44.41L143.92,2l4.34,4.53,14.21,15.05.28.3-.26,0L179.9,11.18,185.19,8l1.45-.85A2.94,2.94,0,0,1,187.16,6.87Z"/><path class="cls-3" d="M137.92,30.63c-.08-.09,3.9-3.74,8.87-8.17s9.08-8,9.15-7.86-3.9,3.74-8.87,8.17S138,30.71,137.92,30.63Z"/><path class="cls-3" d="M170.91,16.37c.1-.05,2.84,4.54,6.12,10.27s5.86,10.42,5.76,10.47-2.84-4.54-6.12-10.27S170.81,16.43,170.91,16.37Z"/><path class="cls-4" d="M69.8,52.27l6.79-2.41L73.68,46a14.7,14.7,0,0,1-.21-2.6,3.94,3.94,0,0,1,.23-1.32,6.06,6.06,0,0,1,.7-1.51.52.52,0,0,0-.46-.86,4.27,4.27,0,0,0-1.77,2.8c-.4,1.6-1.5-.75-1.91-1.61s-1.83-3.42-2.19-3.5c-.53-.12-.76.43-.32,1.27s1.56,3.45,1.1,3.65-2.51-4.17-2.51-4.17-.29-1-.83-.79c-1,.38,1.55,4.86,1.8,5.28s-.31.52-.48.2-2-4.4-2.95-4c-.76.29,2.05,3.71,1.94,4.76S64,40.73,63.24,41c-.27.11-.45.23.88,2.3a33.32,33.32,0,0,0,2.14,2.79h0l3.54,6.14"/><path class="cls-5" d="M130.84,60.56A125.09,125.09,0,0,0,125.18,49a8.13,8.13,0,0,0-6.59-4.27,10.52,10.52,0,0,0-2-.4l-12.56-.11a11.93,11.93,0,0,0-7.5,2.75c-.58.48-4.92,5.51-10.68,12.69L75.81,48.72l-6,3.55s6.53,22.53,14.72,21A20.42,20.42,0,0,0,93.16,69l6.38-5.14.15.85c.13,1,.45,2.72.69,3.73.77,3.22,1.2,7.46-.45,10.27,0,0-2.28,1.74-.47,3.65H123.1s3.35-2.27.29-4.79l-1.92-4.8,1.24-5.85.47-2.34,2.07,3.56s4.12,5.18,8.4,4.55c5.15-.77,8.13-10.15,3.49-22.54l-5.6,1.7Z"/><g class="cls-6"><polygon points="69.8 52.27 70.4 54.15 77.07 50.08 75.81 48.72 69.8 52.27"/></g><g class="cls-7"><path d="M99.93,78.67a7.43,7.43,0,0,0,5-3.06,7.83,7.83,0,0,0,1.42-5.81,2.63,2.63,0,0,0-1-1.85c-.75-.46-1.76-.22-2.54-.64a5.09,5.09,0,0,1-1.41-1.6c-.44-.56-1-1.45-1.71-1.16,0,0,.8,4.17,1.14,6a14.23,14.23,0,0,1-.19,6.48A8.31,8.31,0,0,1,99.93,78.67Z"/></g><path class="cls-8" d="M84.94,63.45a6.14,6.14,0,0,1,.35-2,11.14,11.14,0,0,1,.6-1.88,6.07,6.07,0,0,1-.35,2A10.78,10.78,0,0,1,84.94,63.45Z"/><path class="cls-8" d="M86.44,62.41A3.84,3.84,0,0,1,86,61a4,4,0,0,1-.16-1.43A4.19,4.19,0,0,1,86.28,61,4,4,0,0,1,86.44,62.41Z"/><polygon class="cls-9" points="131.51 34.81 122.93 48.72 129.69 50.59 137.18 39.04 131.51 34.81"/><path class="cls-4" d="M131,46.66l.29,2,1.2,1.54.12,1.26,4.3-1.31L135.15,44a12.8,12.8,0,0,0,.17-2.52l-1.18,1.58-.33-2.56-2.42-2a.6.6,0,0,0-.83.13h0a.59.59,0,0,0,.06.77l1.95,1.71.13,2.12L131.29,42a1,1,0,0,0-.5-.25l-2-.39a.51.51,0,0,0-.61.45h0a.51.51,0,0,0,.36.53l1.78.55,1.8,1.82L130.4,44l-2.39.34a.45.45,0,0,0-.4.45h0a.47.47,0,0,0,.49.47l1.52-.09.9.28-2.06.55a.41.41,0,0,0-.31.42h0a.41.41,0,0,0,.45.39Z"/><g class="cls-6"><polygon points="131.54 51.81 131.36 54.09 137.89 52.29 137.14 50.11 131.54 51.81"/></g><path class="cls-8" d="M122.93,48.72s-.57-.79-.53-.92,8.17-13.5,8.17-13.5l.94.51Z"/><path class="cls-8" d="M133.66,38.3a.3.3,0,1,1,.15.51.31.31,0,0,1-.16-.49"/><path class="cls-10" d="M128.29,55.46a1.32,1.32,0,0,1-.25.34,2.21,2.21,0,0,1-1,.55,4.62,4.62,0,0,1-1.89,0,5,5,0,0,0-5,1.33,9.65,9.65,0,0,1-2.95,1.83,4.83,4.83,0,0,1-1.9.15,8.68,8.68,0,0,1-1.9-.53c-1.24-.49-2.44-1.17-3.74-1.65a7.81,7.81,0,0,0-2-.44,7.2,7.2,0,0,0-2,.17c-1.29.26-2.49.71-3.69,1a9.31,9.31,0,0,1-6.34-.87,9.48,9.48,0,0,1-3.3-2.84,6.44,6.44,0,0,1-.79-1.39s.26.51.87,1.33a9.79,9.79,0,0,0,3.3,2.74,9.22,9.22,0,0,0,6.21.8c1.18-.25,2.38-.71,3.69-1a6.75,6.75,0,0,1,4.09.28c1.34.49,2.53,1.18,3.75,1.66a8.47,8.47,0,0,0,1.84.52,4.7,4.7,0,0,0,1.8-.14A9.59,9.59,0,0,0,120,57.5a6.7,6.7,0,0,1,2.66-1.44,6.46,6.46,0,0,1,2.49.14,4.64,4.64,0,0,0,1.84,0,2.23,2.23,0,0,0,1-.49C128.2,55.58,128.28,55.45,128.29,55.46Z"/><path class="cls-8" d="M131,64.5a9.25,9.25,0,0,1-.19-2.11,8.67,8.67,0,0,1,.06-2.11,8.91,8.91,0,0,1,.2,2.11A8.41,8.41,0,0,1,131,64.5Z"/><path class="cls-4" d="M116.18,151.69c.21.82,5,27.94,5,27.94l7.41-.55-1.36-27.7Z"/><path class="cls-11" d="M128.86,179.51l0-.78-7.9.16,0,2.57.49,0c2.17.07,11,.22,12.49-.21C135.57,180.78,128.86,179.51,128.86,179.51Z"/><g class="cls-12"><path d="M123.84,181.35a2.56,2.56,0,0,0-1-1.54,2.76,2.76,0,0,0-1.85-.49l0,2Z"/></g><g class="cls-12"><path d="M132.14,180.24s2.36.58,2.07.94-9.25.53-13.22.28v-.16l10.47-.11S131.69,180.26,132.14,180.24Z"/></g><path class="cls-8" d="M120.87,181.3h.53l1.43,0c1.21,0,2.87,0,4.72,0s3.51-.09,4.71-.15l1.43-.08.39,0h-.39l-1.43.06c-1.21,0-2.87.09-4.71.13s-3.51,0-4.72,0H121C120.92,181.29,120.87,181.29,120.87,181.3Z"/><path class="cls-8" d="M131.47,181.3a2.8,2.8,0,0,1,.25-.63,2.54,2.54,0,0,1,.48-.52,1,1,0,0,0-.56.47A1,1,0,0,0,131.47,181.3Z"/><path class="cls-8" d="M129.13,180.25s.13-.11.24-.28.18-.32.16-.33-.13.11-.24.28S129.1,180.24,129.13,180.25Z"/><path class="cls-8" d="M128.48,180s.14-.06.27-.18.23-.22.21-.24-.14.06-.27.18S128.46,179.93,128.48,180Z"/><path class="cls-8" d="M128.06,179.27a1.2,1.2,0,0,0,.42,0c.22,0,.41,0,.41-.05a1.2,1.2,0,0,0-.42,0C128.25,179.22,128.06,179.24,128.06,179.27Z"/><path class="cls-8" d="M127.91,178.79a.93.93,0,0,0,.47.11.83.83,0,0,0,.47-.07s-.22,0-.47,0A2.12,2.12,0,0,0,127.91,178.79Z"/><path class="cls-8" d="M129.38,179.61a1.5,1.5,0,0,0,.5,0,3.35,3.35,0,0,0,.54-.12,1.3,1.3,0,0,0,.3-.13.21.21,0,0,0,.12-.14.18.18,0,0,0-.08-.19,1,1,0,0,0-1.14.27.89.89,0,0,0-.15.32c0,.08,0,.13,0,.13a1.07,1.07,0,0,1,.22-.41.93.93,0,0,1,.42-.27.86.86,0,0,1,.61,0c.08,0,0,.14,0,.19a1.39,1.39,0,0,1-.28.12,3.41,3.41,0,0,1-.52.14C129.57,179.59,129.38,179.6,129.38,179.61Z"/><path class="cls-8" d="M129.51,179.63s.08-.12.05-.33a.71.71,0,0,0-.15-.34.52.52,0,0,0-.42-.23.19.19,0,0,0-.15.22.5.5,0,0,0,.09.21,1.39,1.39,0,0,0,.24.28.65.65,0,0,0,.3.18s-.11-.08-.25-.22a2.28,2.28,0,0,1-.22-.28c-.07-.1-.12-.28,0-.3a.47.47,0,0,1,.33.19.65.65,0,0,1,.15.3A1.53,1.53,0,0,1,129.51,179.63Z"/><path class="cls-8" d="M121,179.29s.22,0,.58,0a2.74,2.74,0,0,1,1.28.46,2.37,2.37,0,0,1,.81,1,3.32,3.32,0,0,1,.16.52s0-.05,0-.15a2.25,2.25,0,0,0-.09-.39,2.33,2.33,0,0,0-.82-1.08,2.51,2.51,0,0,0-1.33-.45,1.86,1.86,0,0,0-.44,0Z"/><path class="cls-8" d="M124.81,180.62a5.28,5.28,0,0,0,1.15.09,5.22,5.22,0,0,0,1.15-.11s-.52,0-1.15,0S124.81,180.6,124.81,180.62Z"/><path class="cls-8" d="M123.27,180.65s0,.1.1.21.09.2.11.2,0-.12,0-.24S123.29,180.63,123.27,180.65Z"/><path class="cls-8" d="M122.67,180s0,.09.12.16.17.13.19.11,0-.09-.12-.17S122.69,180,122.67,180Z"/><path class="cls-8" d="M121.84,179.69s.11,0,.22.06.2.09.22.08,0-.12-.19-.16S121.83,179.67,121.84,179.69Z"/><path class="cls-8" d="M121.24,179.56s0,.06.11.08.12,0,.13,0,0-.06-.1-.08S121.25,179.54,121.24,179.56Z"/><path class="cls-4" d="M97.33,149.42c0,.85-3.12,27.26-3.12,27.26l7.26,1.61,6.69-26.91Z"/><path class="cls-11" d="M101.8,179l.16-.76-7.71-1.72L93.68,179l.47.14c2.1.58,10.68,2.84,12.18,2.76C108,181.83,101.8,179,101.8,179Z"/><g class="cls-12"><path d="M96.48,179.59a2.49,2.49,0,0,0-.65-1.74,2.71,2.71,0,0,0-1.67-.92l-.45,2Z"/></g><g class="cls-12"><path d="M104.81,180.48s2.15,1.13,1.78,1.42-9.11-1.69-12.91-2.88l0-.16,10.2,2.39S104.36,180.4,104.81,180.48Z"/></g><path class="cls-8" d="M93.61,178.83l.13,0,.37.11,1.39.37c1.16.31,2.78.71,4.58,1.12s3.43.74,4.62,1l1.41.26.38.06.13,0-.13,0-.38-.09-1.4-.28c-1.18-.25-2.81-.59-4.61-1s-3.42-.8-4.59-1.09L94.12,179l-.37-.09Z"/><path class="cls-8" d="M103.9,181.36a1.94,1.94,0,0,1,1-1,1.05,1.05,0,0,0-.65.33A.93.93,0,0,0,103.9,181.36Z"/><path class="cls-8" d="M101.87,179.78s.16-.08.31-.22.25-.26.23-.28-.15.08-.3.22S101.86,179.76,101.87,179.78Z"/><path class="cls-8" d="M101.32,179.34s.15,0,.31-.11.27-.16.26-.19-.15,0-.31.11S101.31,179.31,101.32,179.34Z"/><path class="cls-8" d="M101.08,178.57s.17.09.39.14.4.08.41,0a1.16,1.16,0,0,0-.39-.13A1,1,0,0,0,101.08,178.57Z"/><path class="cls-8" d="M101.05,178.07s.16.14.42.22a.87.87,0,0,0,.47.05,2,2,0,0,0-.45-.13A2.33,2.33,0,0,0,101.05,178.07Z"/><path class="cls-8" d="M102.27,179.22a1.74,1.74,0,0,0,.5.11,4.63,4.63,0,0,0,.54,0,1.32,1.32,0,0,0,.33-.05.24.24,0,0,0,.15-.11.18.18,0,0,0,0-.21,1,1,0,0,0-1.17,0,.87.87,0,0,0-.23.27c0,.07,0,.12,0,.12a1.14,1.14,0,0,1,.31-.34.94.94,0,0,1,.48-.16.83.83,0,0,1,.58.17c.06.07,0,.15-.08.18s-.21,0-.31,0a4.66,4.66,0,0,1-.53,0C102.46,179.25,102.28,179.2,102.27,179.22Z"/><path class="cls-8" d="M102.39,179.27s.11-.09.13-.31a.7.7,0,0,0-.06-.36.5.5,0,0,0-.36-.33.2.2,0,0,0-.2.18.72.72,0,0,0,0,.22,1.44,1.44,0,0,0,.17.33.81.81,0,0,0,.24.25s-.07-.1-.18-.28a1.61,1.61,0,0,1-.14-.32c0-.11-.06-.3.07-.29s.23.16.28.27a.72.72,0,0,1,.08.33A1.38,1.38,0,0,1,102.39,179.27Z"/><path class="cls-8" d="M94.2,176.91s.23,0,.56.15a2.56,2.56,0,0,1,1.13.75,2.36,2.36,0,0,1,.55,1.19,3.67,3.67,0,0,1,0,.55s0-.05,0-.15a1.74,1.74,0,0,0,0-.4,2.28,2.28,0,0,0-.54-1.24,2.54,2.54,0,0,0-1.19-.76,1.67,1.67,0,0,0-.42-.08Z"/><path class="cls-8" d="M97.6,179.11a4.91,4.91,0,0,0,1.09.36,4.8,4.8,0,0,0,1.14.17s-.5-.11-1.12-.26S97.6,179.09,97.6,179.11Z"/><path class="cls-8" d="M96.09,178.77s0,.11,0,.23,0,.22.06.22.07-.1,0-.24S96.11,178.76,96.09,178.77Z"/><path class="cls-8" d="M95.67,178s0,.09.08.19.13.16.15.14,0-.1-.07-.19S95.69,178,95.67,178Z"/><path class="cls-8" d="M94.93,177.5s.1.05.21.11.17.14.19.13,0-.13-.15-.2S94.93,177.48,94.93,177.5Z"/><path class="cls-8" d="M94.38,177.23s0,.07.08.11.12,0,.13,0,0-.07-.08-.11S94.4,177.21,94.38,177.23Z"/><path class="cls-8" d="M124.55,31.81c-.2-.56-.67-1-.9-1.54a5.25,5.25,0,0,1,0-2.64c.09-.89-.09-2-.91-2.33a9.07,9.07,0,0,1-1-.35c-.63-.4-.6-1.3-.66-2a4.09,4.09,0,0,0-.37-1.42l.13,0a2.13,2.13,0,0,1,2.43,1.2,1.24,1.24,0,0,1-.09,1.19.78.78,0,0,1-.92.3.65.65,0,0,1-.33-.72.45.45,0,0,1,.51-.29.5.5,0,0,1,.37.2c.06.09.06.15.08.14a.25.25,0,0,0,0-.17.54.54,0,0,0-.4-.28.8.8,0,0,0-.37,0,.54.54,0,0,0-.31.33.81.81,0,0,0,.39.95,1,1,0,0,0,1.2-.33,1.48,1.48,0,0,0,.14-1.43A2.35,2.35,0,0,0,121,21.14a1.56,1.56,0,0,0,.14-1.26,1.8,1.8,0,0,0-1.09-1.1,2.3,2.3,0,0,0-1.39-.07,3.46,3.46,0,0,0-1.1.48c-.31.2-.54.42-.77.57a1.48,1.48,0,0,1-.64.25,1.2,1.2,0,0,1-.58-.12.66.66,0,0,0,.58.23,1.47,1.47,0,0,0,.72-.23c.25-.14.5-.35.8-.53a2.61,2.61,0,0,1,2.28-.34,1.52,1.52,0,0,1,.93.94,1.25,1.25,0,0,1-.33,1.27,2.76,2.76,0,0,0-1-1.06,2.09,2.09,0,0,0-2.83.71l-7.78-2.67a3.75,3.75,0,0,0-3.57-.72l-.16,0a2.53,2.53,0,0,0-1.32.22,4.28,4.28,0,0,0-1.32,1.15,2.79,2.79,0,0,1-.75.62.94.94,0,0,1-.15.06,6,6,0,0,1-1,0,14.84,14.84,0,0,0-2.14-.61,3.41,3.41,0,0,0-1.34.1,2.6,2.6,0,0,0-1.21.76,2.11,2.11,0,0,0-.52,1.38,3.93,3.93,0,0,0,.17,1.08,3.87,3.87,0,0,0-.23,1.47c0,.66.23,1.35.24,2a2.14,2.14,0,0,1-.64.32c-.41.13-.85.19-1.27.35A2.94,2.94,0,0,0,92,28.18a2.07,2.07,0,0,0,.21,2,3,3,0,0,0,.55,2.51A13.71,13.71,0,0,1,93.94,34a6.59,6.59,0,0,1,.57,2.74c.13.94.67,2,1.61,2.06.76.05,1.44-.59,2.2-.53,1.07.09,1.5,1.36,2.12,2.24A3.77,3.77,0,0,0,104,42c1-.13,1.92-.64,2.87-.4,1.19.3,1.91,1.7,3.12,1.87a3.16,3.16,0,0,0,2.42-1.09,4.85,4.85,0,0,1,2.25-1.49c1.08-.19,2.12.46,3.21.61a3.62,3.62,0,0,0,3.59-1.8c.6-1.08.59-2.41,1.15-3.52a19.09,19.09,0,0,1,1.45-2A2.77,2.77,0,0,0,124.55,31.81Zm-31.2-3.5a.8.8,0,0,0-.27,0l.21.05-.14.11a2.79,2.79,0,0,0-.92,1.41,2,2,0,0,1,0-1.61,2.73,2.73,0,0,1,1.55-1.61c.39-.15.82-.21,1.26-.34a2.35,2.35,0,0,0,.54-.24,1.93,1.93,0,0,1-.22.73C94.9,27.53,94,27.83,93.35,28.31Zm5.31-8.72a4.09,4.09,0,0,0-2.93,2.24,2.8,2.8,0,0,1-.08-.64A1.81,1.81,0,0,1,96.1,20a2.64,2.64,0,0,1,2.32-.78,5.06,5.06,0,0,1,1.27.33A5,5,0,0,0,98.66,19.59Zm3.9-.33-.29.1a3.71,3.71,0,0,0,.4-.39,4.24,4.24,0,0,1,1.24-1.15,2.45,2.45,0,0,1,1.15-.25,4.6,4.6,0,0,0-.59.29A16.12,16.12,0,0,1,102.56,19.26Z"/><path class="cls-4" d="M119.43,35.55a50.92,50.92,0,0,0,.06-9.3A5,5,0,0,0,114,21.63l-8.15.86a1.66,1.66,0,0,0-1.48,1.68l.84,20h-1.88v3.63a7.51,7.51,0,0,0,15,0V44.68a11.23,11.23,0,0,0-3.14-.57h-.29c0-1.84.15-3.27.15-3.27S118.68,40.25,119.43,35.55Z"/><path class="cls-8" d="M118.27,29.29a.61.61,0,0,1-.59.61.57.57,0,0,1-.62-.54.61.61,0,0,1,.58-.61A.59.59,0,0,1,118.27,29.29Z"/><path class="cls-8" d="M118.66,28.25c-.08.07-.54-.26-1.18-.26s-1.13.32-1.2.24,0-.17.25-.32a1.66,1.66,0,0,1,1-.3,1.49,1.49,0,0,1,.93.31C118.62,28.07,118.69,28.21,118.66,28.25Z"/><path class="cls-8" d="M111.93,29.29a.61.61,0,0,1-.58.61.56.56,0,0,1-.62-.54.59.59,0,0,1,.58-.61A.58.58,0,0,1,111.93,29.29Z"/><path class="cls-8" d="M112.28,28.37c-.07.08-.53-.26-1.18-.26s-1.12.33-1.19.25,0-.18.25-.33a1.65,1.65,0,0,1,1-.3,1.56,1.56,0,0,1,.94.31C112.25,28.19,112.32,28.33,112.28,28.37Z"/><path class="cls-8" d="M114.63,33.17a5.33,5.33,0,0,1,1.06-.19c.16,0,.32,0,.35-.16a.83.83,0,0,0-.11-.49c-.16-.4-.32-.82-.49-1.26a21.67,21.67,0,0,1-1.1-3.3A22.89,22.89,0,0,1,115.7,31c.16.45.32.87.47,1.27a1,1,0,0,1,.09.65.39.39,0,0,1-.28.24.73.73,0,0,1-.28,0A3.83,3.83,0,0,1,114.63,33.17Z"/><path class="cls-13" d="M115.08,40.85a12,12,0,0,1-6.29-1.68S110.32,42.4,115,42Z"/><path class="cls-13" d="M114.36,34.74a1.17,1.17,0,0,0-1-.44,1.05,1.05,0,0,0-.73.4.67.67,0,0,0,0,.77.79.79,0,0,0,.85.22,2.59,2.59,0,0,0,.82-.5.58.58,0,0,0,.19-.19.23.23,0,0,0,0-.24"/><path class="cls-8" d="M112.73,33.62c.1,0,.1.7.71,1.2s1.35.42,1.35.52-.16.14-.48.15a1.74,1.74,0,0,1-1.13-.4,1.48,1.48,0,0,1-.55-1C112.6,33.79,112.68,33.62,112.73,33.62Z"/><path class="cls-8" d="M112.57,27.23c-.06.18-.71.09-1.47.19s-1.37.29-1.48.14.07-.24.31-.42a2.49,2.49,0,0,1,1.1-.38,2.36,2.36,0,0,1,1.15.14C112.46,27,112.6,27.15,112.57,27.23Z"/><path class="cls-8" d="M118.42,26.92c-.12.15-.56,0-1.1,0s-1,.1-1.1-.06,0-.22.23-.36a1.5,1.5,0,0,1,.89-.24,1.47,1.47,0,0,1,.87.3C118.4,26.7,118.47,26.85,118.42,26.92Z"/><path class="cls-8" d="M121.23,22.06a3.5,3.5,0,0,0-2.54-2.65,21.26,21.26,0,0,0-2.52,0c-.69,0-.94-.6-1.6-.81-1.1-.36-1.95-1.59-4.32-1.33a3.68,3.68,0,0,0-2,1.64,3.82,3.82,0,0,0-2.76.31A4.84,4.84,0,0,0,103,22.94a15.28,15.28,0,0,0,.17,4.72l.3,2.15a3.88,3.88,0,0,0,.38,1.36l-1.08,10.06a4.19,4.19,0,0,0,5.32-2.92c.42-2-.68-4-.51-6,.1-1.2.78-2.31.78-3.52a4.94,4.94,0,0,0-.17-1.17h0c1.91-1.55,2.4-2.8,2.32-4.25a3.64,3.64,0,0,0,2,.66c1,0,2-.38,3,0a5.2,5.2,0,0,1,1.68,1.36,2.4,2.4,0,0,0,1.9.88,5.31,5.31,0,0,0,1-.35,1.19,1.19,0,0,1,1,0A7.79,7.79,0,0,0,121.23,22.06Z"/><path class="cls-9" d="M93.14,32.35a8.47,8.47,0,0,0,1.56.89,5.55,5.55,0,0,0,2,.44,4.29,4.29,0,0,0,2.6-.79A3.93,3.93,0,0,0,101,30.14a3,3,0,0,0-.35-1.76,1.9,1.9,0,0,0-1.54-1,1.4,1.4,0,0,0-.9.3,1.69,1.69,0,0,0-.55.82,2.06,2.06,0,0,0,.36,2,3.44,3.44,0,0,0,1.86,1.1,5.31,5.31,0,0,0,2.28,0,4.94,4.94,0,0,0,2.07-.93,4.09,4.09,0,0,0,1.29-1.77,4,4,0,0,0,.17-2.11,3.17,3.17,0,0,0-.36-1,2.09,2.09,0,0,0-.63-.75,1.47,1.47,0,0,0-.87-.33.79.79,0,0,0-.73.41,1.14,1.14,0,0,0-.09.85,1.57,1.57,0,0,0,.46.73,4,4,0,0,0,3.08.95A3.93,3.93,0,0,0,109,26.57a4.45,4.45,0,0,0,1-1.79,4.84,4.84,0,0,0,.14-1.78,2.56,2.56,0,0,1,.08.46,4.12,4.12,0,0,1-.13,1.34,4.34,4.34,0,0,1-1,1.87,4.24,4.24,0,0,1-5.77.26,1.79,1.79,0,0,1-.52-.83,1.33,1.33,0,0,1,.11-1,1,1,0,0,1,.92-.53,1.72,1.72,0,0,1,1,.37,2.22,2.22,0,0,1,.7.82,3.48,3.48,0,0,1,.39,1,4.19,4.19,0,0,1-.18,2.24,4.11,4.11,0,0,1-1.36,1.89,5.21,5.21,0,0,1-2.18,1,5.5,5.5,0,0,1-2.39,0,3.7,3.7,0,0,1-2-1.2,2.29,2.29,0,0,1-.48-1,2.43,2.43,0,0,1,.09-1.14,1.94,1.94,0,0,1,.63-.93,1.56,1.56,0,0,1,1-.34,2.09,2.09,0,0,1,1.73,1.08,3,3,0,0,1,.37,1.89A4.09,4.09,0,0,1,99.44,33a4.39,4.39,0,0,1-2.7.78,5.59,5.59,0,0,1-2.08-.48,6.57,6.57,0,0,1-1.16-.68l-.27-.22Z"/><path class="cls-9" d="M121.51,24.18a.8.8,0,0,1-.23.16,2.42,2.42,0,0,1-.74.27,3,3,0,0,1-1.26,0,3.5,3.5,0,0,1-1.49-.77,4.42,4.42,0,0,1-1.16-1.65,1.48,1.48,0,0,1,0-1.17,1,1,0,0,1,.44-.47.74.74,0,0,1,.68,0,1,1,0,0,1,.49,1.21,1.71,1.71,0,0,1-.93,1,3.61,3.61,0,0,1-2.74,0,6.76,6.76,0,0,1-1.27-.61,4.45,4.45,0,0,1-1.08-.86,1.08,1.08,0,0,1-.1-1.35.69.69,0,0,1,.67-.24,1,1,0,0,1,.58.37.83.83,0,0,1,.19.64,1.18,1.18,0,0,1-.26.58,1.55,1.55,0,0,1-1.05.53,2.84,2.84,0,0,1-1.06-.14,7.33,7.33,0,0,1-.9-.35,3.2,3.2,0,0,1-1.33-1,1.79,1.79,0,0,1-.34-1.21,1.31,1.31,0,0,1,.28-.75.61.61,0,0,1,.2-.18,1.44,1.44,0,0,0-.38.94,1.74,1.74,0,0,0,.36,1.12,3,3,0,0,0,1.28.93,4.26,4.26,0,0,0,1.87.45,1.3,1.3,0,0,0,.89-.46.73.73,0,0,0,.07-.94c-.21-.28-.67-.4-.88-.11a.68.68,0,0,0-.13.51,1,1,0,0,0,.24.52,4.51,4.51,0,0,0,1,.8,6.51,6.51,0,0,0,1.22.58,3.31,3.31,0,0,0,2.55,0,1.45,1.45,0,0,0,.8-.83.8.8,0,0,0-.36-.93.61.61,0,0,0-.81.35,1.29,1.29,0,0,0,0,1,4.11,4.11,0,0,0,1.08,1.59,3.18,3.18,0,0,0,2.61.84A3.89,3.89,0,0,0,121.51,24.18Z"/><path class="cls-9" d="M107.82,35.21a.67.67,0,0,1-.21.16,1.69,1.69,0,0,1-.68.28,2.22,2.22,0,0,1-1.18-.07,1.89,1.89,0,0,1-1.17-1,.78.78,0,0,1,.18-.92.83.83,0,0,1,1,0,2.13,2.13,0,0,1,.73,2,2.5,2.5,0,0,1-1.38,1.94,2.76,2.76,0,0,1-2.54-.19,2.85,2.85,0,0,1-1-.91,1.6,1.6,0,0,1-.23-1.29,1.21,1.21,0,0,1,.33-.58.87.87,0,0,1,.63-.24,1.24,1.24,0,0,1,1,.68,2.61,2.61,0,0,1,.28,1.11,3.64,3.64,0,0,1-.11,1,3.32,3.32,0,0,1-.93,1.65,2.38,2.38,0,0,1-2.59.45,2.05,2.05,0,0,1-.61-.41c-.12-.12-.17-.2-.16-.2a3.17,3.17,0,0,0,.81.52,2.39,2.39,0,0,0,1.11.14,2.32,2.32,0,0,0,1.31-.63,3.16,3.16,0,0,0,.86-1.57,3.59,3.59,0,0,0,.08-1,2.36,2.36,0,0,0-.26-1,1,1,0,0,0-.81-.55.76.76,0,0,0-.72.64,1.41,1.41,0,0,0,.2,1.1,2.8,2.8,0,0,0,.89.82,2.56,2.56,0,0,0,2.32.18,2.23,2.23,0,0,0,1.24-1.75,1.88,1.88,0,0,0-.61-1.81.63.63,0,0,0-.78,0,.6.6,0,0,0-.13.71,1.74,1.74,0,0,0,1,.95,2.21,2.21,0,0,0,1.11.11A2.81,2.81,0,0,0,107.82,35.21Z"/><path class="cls-14" d="M88.23,150.49s3.17,6.16,11.44,3.17c0,0,8.1,4.4,15.84-.53,0,0,10,1.34,15.49-1.3L124,91.3,123.1,82H101s-6.57,3-7.63,17.6S90,134.29,90,134.29Z"/><path class="cls-9" d="M115,153.31s0-.06,0-.18l0-.54c0-.48-.09-1.18-.16-2.06-.14-1.8-.31-4.4-.5-7.61-.38-6.42-.79-15.31-1-25.13s-.19-18.71-.09-25.15c0-3.22.11-5.82.17-7.62,0-.89,0-1.58.07-2.07l0-.54a1.23,1.23,0,0,1,0-.18s0,.06,0,.18V83l0,2.07-.09,7.62c-.06,6.44-.06,15.33.15,25.15s.6,18.7.94,25.12c.17,3.2.32,5.8.42,7.61,0,.89.08,1.58.11,2.07l0,.54C115.05,153.25,115.05,153.31,115,153.31Z"/><path class="cls-9" d="M117,136s0-.07.17-.1a.85.85,0,0,1,.54.07,1,1,0,0,1,.51.64.92.92,0,0,1-1.46.83.9.9,0,0,1-.29-.77.8.8,0,0,1,.21-.49c.1-.09.17-.11.17-.1s-.21.2-.21.6a.8.8,0,0,0,.26.59.72.72,0,0,0,1.09-.62.75.75,0,0,0-.37-.53A1.08,1.08,0,0,0,117,136Z"/><path class="cls-9" d="M116.49,118s.05-.06.18-.09a.74.74,0,0,1,.53.06.92.92,0,0,1,.51.65.83.83,0,0,1-.46.88.87.87,0,0,1-1-.05,1,1,0,0,1-.29-.77.86.86,0,0,1,.22-.5c.09-.09.17-.11.17-.1a1.21,1.21,0,0,0-.21.61.74.74,0,0,0,.26.58.64.64,0,0,0,.73,0,.65.65,0,0,0,.36-.64.76.76,0,0,0-.37-.52A1.17,1.17,0,0,0,116.49,118Z"/><path class="cls-9" d="M116.21,102.12s0-.06.17-.1a.85.85,0,0,1,.54.07,1,1,0,0,1,.51.64.92.92,0,0,1-1.46.83.9.9,0,0,1-.29-.76.8.8,0,0,1,.21-.5c.1-.09.17-.11.17-.1s-.21.2-.21.6a.76.76,0,0,0,.26.59.72.72,0,0,0,1.09-.62.75.75,0,0,0-.37-.53A1.08,1.08,0,0,0,116.21,102.12Z"/><path class="cls-9" d="M115.64,85.11s0-.06.17-.1a.84.84,0,0,1,.54.07.92.92,0,0,1,.51.64.87.87,0,0,1-.46.89.85.85,0,0,1-1-.06.91.91,0,0,1-.29-.76.75.75,0,0,1,.22-.5c.09-.09.16-.11.17-.1a1.17,1.17,0,0,0-.22.61.79.79,0,0,0,.27.58.66.66,0,0,0,.73,0,.63.63,0,0,0,.35-.64.75.75,0,0,0-.36-.52A1.18,1.18,0,0,0,115.64,85.11Z"/><path class="cls-14" d="M213.55,2.31A27.59,27.59,0,0,0,186,29.9c0,.14,0,.28,0,.42L139.45,46.48l48.74-5.7A27.6,27.6,0,1,0,213.55,2.31Z"/><path class="cls-15" d="M197.89,41.72h30l-4-4.66V25.9A10.91,10.91,0,0,0,212.88,15h0A10.91,10.91,0,0,0,202,25.91V36.52Z"/><path class="cls-15" d="M208.68,40.25a4.63,4.63,0,1,0,9-1.56"/><rect class="cls-15" x="211.6" y="10.45" width="2.94" height="6.25"/><path class="cls-11" d="M63.11,125.18c1.54,5.24.37,12-1.51,17.11a25.88,25.88,0,0,1-10,12.64,1.78,1.78,0,0,1-1.72.38,1.73,1.73,0,0,1-.69-1.29,26.67,26.67,0,0,1,13.92-28.84"/><path class="cls-16" d="M63.11,125.18c1.54,5.24.37,12-1.51,17.11a25.88,25.88,0,0,1-10,12.64,1.78,1.78,0,0,1-1.72.38,1.73,1.73,0,0,1-.69-1.29,26.67,26.67,0,0,1,13.92-28.84"/><path class="cls-17" d="M39.81,100.31c3.27-.09,5.42,3.54,5.75,6.79s-.4,6.62.55,9.75c1.22,4,4.93,6.81,6,10.8,1.32,4.71-1.26,9.6-1.38,14.49-.06,2.38.46,4.79,0,7.13a9,9,0,0,1-8.52,7.13,9,9,0,0,1-8.66-7c-.76-3.67.85-7.56-.12-11.18-.71-2.67-2.79-4.94-3-7.7-.2-3.28,2.35-6.12,2.82-9.38s-1.18-6.44-1.42-9.73c-.44-5.89,2-10.51,7.87-11.14"/><path class="cls-8" d="M47,167.38a1.31,1.31,0,0,0,.09-.32l.22-.95c.17-.82.45-2,.8-3.48a115.92,115.92,0,0,1,3.37-11.27C53,147,54.67,143.21,56,140.49c.65-1.36,1.19-2.45,1.58-3.2.17-.36.31-.64.43-.87a1.48,1.48,0,0,0,.13-.32,2.57,2.57,0,0,0-.19.29l-.48.84c-.42.74-1,1.82-1.67,3.17a99,99,0,0,0-7.9,22.18c-.33,1.48-.57,2.67-.71,3.51-.07.39-.12.7-.16,1S47,167.38,47,167.38Z"/><path class="cls-8" d="M40,116.37a2.89,2.89,0,0,0,0,.52c0,.37.11.87.19,1.5.17,1.32.42,3.18.72,5.47.61,4.62,1.45,11,2.34,18.07s1.65,13.46,2.2,18.09c.27,2.29.5,4.16.65,5.48.08.63.15,1.12.2,1.49a3.2,3.2,0,0,0,.08.52,4.22,4.22,0,0,0,0-.53c0-.36-.08-.86-.14-1.49-.13-1.33-.32-3.2-.55-5.5-.5-4.63-1.23-11-2.11-18.1s-1.77-13.44-2.44-18.06c-.34-2.28-.62-4.14-.82-5.46-.1-.62-.18-1.12-.24-1.48A4.73,4.73,0,0,0,40,116.37Z"/><rect class="cls-14" x="33.57" y="160.98" width="24.78" height="2.89"/><polygon class="cls-14" points="35.87 163.87 38.78 181.43 54.15 181.43 56.17 163.87 35.87 163.87"/><path class="cls-9" d="M56.24,163.75c0,.07-4.57.18-10.22.25s-10.22.08-10.23,0,4.58-.18,10.23-.25S56.24,163.68,56.24,163.75Z"/><path class="cls-9" d="M55.4,172.54l-.14,0h-.41a9.29,9.29,0,0,1-1.58-.06,4.8,4.8,0,0,1-2.35-.88,3.36,3.36,0,0,1-1-1.2,2.38,2.38,0,0,1-.14-1.77,1.59,1.59,0,0,1,1.54-1.11,1.38,1.38,0,0,1,1,.48,2.29,2.29,0,0,1,.48,1,3.39,3.39,0,0,1-2.36,3.69,3.75,3.75,0,0,1-4.39-2,3.22,3.22,0,0,1-.36-1.33A2.15,2.15,0,0,1,46,168a1.69,1.69,0,0,1,1.23-.74,1.46,1.46,0,0,1,1.3.64A2.33,2.33,0,0,1,49,169.3a3.1,3.1,0,0,1-.36,1.37,4.31,4.31,0,0,1-2,1.88,8.34,8.34,0,0,1-2.53.71,5.57,5.57,0,0,1-2.51-.22,3.6,3.6,0,0,1-1.89-1.48,2.62,2.62,0,0,1-.25-2.24A2,2,0,0,1,41,167.93a2,2,0,0,1,1.81.68,1.7,1.7,0,0,1,.17,1.74,2.73,2.73,0,0,1-1,1.19,6.31,6.31,0,0,1-1.23.6q-.59.21-1.08.36a14,14,0,0,1-1.55.35l-.4.06h-.14a.32.32,0,0,1,.13,0l.4-.09a15.65,15.65,0,0,0,1.53-.39c.32-.11.68-.23,1.07-.38a6.47,6.47,0,0,0,1.2-.61,2.51,2.51,0,0,0,1-1.13,1.54,1.54,0,0,0-.15-1.57,1.76,1.76,0,0,0-3,.67,2.4,2.4,0,0,0,.23,2.06,3.43,3.43,0,0,0,1.78,1.38,5.26,5.26,0,0,0,2.41.19,7.68,7.68,0,0,0,2.45-.69,4,4,0,0,0,1.86-1.77,2.37,2.37,0,0,0,0-2.5,1.21,1.21,0,0,0-1.08-.55,1.47,1.47,0,0,0-1.05.64,1.91,1.91,0,0,0-.32,1.21,3.08,3.08,0,0,0,.33,1.23,3.55,3.55,0,0,0,4.11,1.91,3.2,3.2,0,0,0,2.23-3.43,2.08,2.08,0,0,0-.43-.91,1.18,1.18,0,0,0-.82-.42,1.43,1.43,0,0,0-1.37,1,2.2,2.2,0,0,0,.13,1.64,3.06,3.06,0,0,0,1,1.16,4.76,4.76,0,0,0,2.27.9,10.15,10.15,0,0,0,1.57.1h.55Z"/><polygon class="cls-18" points="145.49 111.42 223.43 84.31 243.66 136.69 162.5 163.43 145.49 111.42"/><path class="cls-11" d="M145.49,111.42l26.82-42.48a4.47,4.47,0,0,1,5.37-1.8l45.75,17.17"/><g class="cls-12"><path class="cls-19" d="M145.49,111.42l26.82-42.48a4.47,4.47,0,0,1,5.37-1.8l45.75,17.17"/></g><path class="cls-8" d="M162.5,163.43c-.13-.06,3.8-9,8.79-20s9.12-19.85,9.25-19.79-3.81,9-8.79,20S162.63,163.49,162.5,163.43Z"/><path class="cls-8" d="M243.66,136.69c-.07.13-8.44-4.5-18.69-10.32s-18.49-10.64-18.43-10.77,8.44,4.5,18.69,10.33S243.73,136.57,243.66,136.69Z"/><g class="cls-20"><polyline points="223.43 84.31 194.85 128.98 145.49 111.42"/></g><polygon class="cls-10" points="150.41 112.99 142 88.63 210.14 64.58 219.63 89.99 194.7 128.57 150.41 112.99"/><path class="cls-8" d="M150.41,113l.81.27,2.35.82,8.93,3.12,32.23,11.3-.09,0,24.92-38.59V90L213.9,74.91l-3.84-10.3.11,0L142,88.68l0-.07c2.63,7.67,4.72,13.76,6.16,17.93.71,2.09,1.26,3.7,1.64,4.79l.42,1.24c.09.27.13.42.13.42l-.15-.41c-.09-.28-.24-.69-.43-1.23-.38-1.08-.94-2.69-1.66-4.77L142,88.65l0-.06,0,0,68.13-24.08.09,0,0,.09q1.89,5.06,3.85,10.3L219.72,90l0,0,0,0c-9.23,14.27-17.76,27.46-24.94,38.58l0,0h0l-32.23-11.38-8.91-3.16-2.33-.83Z"/><path class="cls-8" d="M203.5,80.54s-10.41,3.7-23.29,8.16-23.33,8-23.35,8,10.41-3.71,23.29-8.17S203.49,80.49,203.5,80.54Z"/><path class="cls-8" d="M205.84,87.43s-10.41,3.7-23.28,8.17-23.34,8-23.35,8,10.4-3.7,23.29-8.17S205.83,87.38,205.84,87.43Z"/><path class="cls-8" d="M208.54,95.37s-10.41,3.71-23.29,8.17-23.33,8-23.35,8,10.41-3.71,23.3-8.17S208.53,95.33,208.54,95.37Z"/><path class="cls-8" d="M211.24,103.32c0,.05-9.93,3.54-22.21,7.79s-22.27,7.67-22.28,7.63,9.93-3.54,22.22-7.8S211.23,103.27,211.24,103.32Z"/><path class="cls-8" d="M204.86,113.26a1.23,1.23,0,0,1-.27.12l-.77.29c-.7.24-1.68.6-2.88,1l-9.49,3.37c-3.7,1.33-7.07,2.5-9.51,3.33l-2.89,1-.79.26-.28.08a1.23,1.23,0,0,1,.27-.12l.78-.28,2.87-1,9.49-3.38c3.7-1.33,7.07-2.49,9.51-3.33l2.89-1,.79-.26Z"/><path class="cls-8" d="M198.33,123c0,.05-2.2.84-5,1.78s-5,1.65-5,1.6,2.2-.84,4.95-1.77S198.31,122.91,198.33,123Z"/><circle class="cls-8" cx="216.71" cy="101.46" r="8.73"/><circle class="cls-9" cx="214.56" cy="102.19" r="8.73" transform="translate(-21.47 74.45) rotate(-18.76)"/><path class="cls-21" d="M214.31,98l2.33,6.87-1.28.43-2-5.8-1.45.49-.36-1.07Z"/></svg>