<svg id="BACKGROUND" xmlns="http://www.w3.org/2000/svg" viewBox="0 0 177.34 152.86"><defs><style>.cls-1{fill:#b3b3b3;}.cls-2{fill:#f5911e;}.cls-15,.cls-3,.cls-4,.cls-6,.cls-7{fill:none;stroke-miterlimit:10;}.cls-3,.cls-4,.cls-6,.cls-7{stroke:#fff9f7;}.cls-3{stroke-width:0.27px;}.cls-4{stroke-width:0.24px;}.cls-5{fill:#916217;}.cls-6{stroke-width:0.18px;}.cls-7{stroke-width:0.15px;}.cls-8{fill:#a58c2f;}.cls-9{fill:#7c6d41;}.cls-10{fill:#f7f2b8;}.cls-11{fill:#333;}.cls-12{fill:#fff;}.cls-13{fill:#eddb8b;}.cls-14{fill:#f9ed38;}.cls-15{stroke:#453ae9;stroke-width:0.25px;}.cls-16{fill:#ffb2b6;}.cls-17{fill:#43220a;}.cls-18{fill:#a47c52;}</style></defs><path class="cls-1" d="M166,131.16c-1-3.53-24.48.21-54.22,4S58.05,143.37,58.26,145s19,2.42,48.78-1.39S166.4,132.7,166,131.16Z"/><path class="cls-1" d="M154.15,147.36c-.41-3.39-14.47-1.9-22.8-1.52-12.52.57-22.63,2.19-22.56,3.6s8,3.91,20.48,3.34S154.31,148.76,154.15,147.36Z"/><path class="cls-2" d="M69.68,132.91c.24,3.11-3.52,5.28-6.58,4.68s-5.41-3-7.57-5.2-4.56-4.58-7.63-5.12c-5-.88-9.78,3.44-14.89,3.06s-8.57-5-11.52-9.18-7-8.59-12-8.17c-1.85.15-3.61,1-5.47,1s-4-1.12-4-3,2-2.9,3.67-3.59l14.83-6.07c5.51-2.26,11.8-4.52,17.23-2.06,4.73,2.14,7.59,7.44,12.51,9.14,6.45,2.23,13.94-2.59,20.21.11,4.73,2,6.89,7.82,6.34,12.93s-3.23,9.72-5.84,14.15"/><path class="cls-3" d="M.58,111.57c7.05-3.9,19-3.41,26.46-.47,4.7,1.85,8.94,5,13.93,5.81,4.31.7,8.71-.46,13.08-.38,7.09.14,14.49,5.21,18.66,10.94"/><path class="cls-3" d="M42.74,117s-3.42-15.65-10.39-18.59"/><path class="cls-3" d="M16.73,108.94s-.75,3.83-7.27,4"/><path class="cls-3" d="M61.5,118.52s.87-7.44-4.93-9.57"/><path class="cls-3" d="M67.52,122.07a19,19,0,0,1-13.89,8.32"/><path class="cls-3" d="M27.18,98.34s5.8,3.91,8.91,17.3"/><path class="cls-3" d="M41,116.91s-7,9.18-15.07,9.39"/><path class="cls-3" d="M17,115.94s8.59-.42,11.07-4.15"/><path class="cls-3" d="M6.42,106.27s1.63-.86,4.29,2.3"/><path class="cls-3" d="M15.75,102.55S18.5,104,19.82,109"/><path class="cls-3" d="M47.9,127.27s12.61-.89,11.54-9.72"/><path class="cls-3" d="M48.24,108.45s3.71,3.31,1.68,7.76"/><path class="cls-3" d="M67.07,108.22s4.3,8.14,2.37,14.86"/><path class="cls-2" d="M130.25,51.58c-2.51-1.1-2.63-4.91-.9-7s4.53-3,7.16-3.71,5.43-1.63,7.11-3.78c2.77-3.54,1.4-9,3.8-12.79s7.45-4.54,11.87-5.11,9.53-1.83,11.3-5.92c.65-1.5.75-3.2,1.47-4.66s2.53-2.64,4-1.86,1.42,2.74,1.25,4.33q-.71,7-1.43,14c-.54,5.2-1.39,11-5.54,14.19-3.62,2.78-8.9,2.79-12.25,5.89-4.4,4.07-3.77,11.86-8.46,15.59-3.52,2.82-8.9,2.1-12.62-.45s-6.19-6.52-8.53-10.38"/><path class="cls-4" d="M175.36,7c.1,7.07-5.21,16.09-10.59,20.66-3.38,2.87-7.58,4.85-10.26,8.37-2.32,3-3.25,6.93-5.12,10.28-3,5.43-10,9-16.19,9.91"/><path class="cls-4" d="M153.7,37.32s13.52,3.84,18.68-.34"/><path class="cls-4" d="M170.71,20.54s-2.65-2.16-.12-7.29"/><path class="cls-4" d="M144.76,51.21s5.4,3.75,9.45.15"/><path class="cls-4" d="M139.53,54.4a16.65,16.65,0,0,1-.69-14.19"/><path class="cls-4" d="M174.58,33s-5.42,2.87-17.07-.26"/><path class="cls-4" d="M154.51,36s-4.21-9.18-1-15.54"/><path class="cls-4" d="M165.18,17.87s-3.24,6.82-1.38,10.29"/><path class="cls-4" d="M177,13.67s0,1.62-3.55,2.37"/><path class="cls-4" d="M176.06,22.43s-2.25,1.53-6.67.48"/><path class="cls-4" d="M143.62,37.07s-4.53,10.12,2.75,13"/><path class="cls-4" d="M158.05,45.12s-4.1,1.5-6.7-1.91"/><path class="cls-4" d="M150.43,59.79s-8.08,0-12.48-4.32"/><path class="cls-5" d="M61.3,118.46c-.9,2-3.72,1.91-5.23.45s-2-3.74-2.51-5.87-1-4.41-2.56-5.84c-2.53-2.36-6.62-1.47-9.35-3.54S38.54,97.53,38.27,94s-1-7.69-4-9.27c-1.09-.58-2.35-.72-3.4-1.36S29,81.22,29.61,80.1s2.08-1,3.25-.83L43.17,81c3.83.63,8.1,1.54,10.32,5,1.94,3,1.78,7.23,4,10,2.87,3.67,8.66,3.48,11.27,7.37,2,2.93,1.25,7.2-.76,10.08s-5,4.69-8,6.41"/><path class="cls-6" d="M29.76,80.64c5.24.2,11.74,4.8,15,9.28,2,2.81,3.34,6.25,5.86,8.53,2.18,2,5,2.87,7.44,4.5,3.92,2.64,6.37,8.37,6.8,13.34"/><path class="cls-6" d="M38,92.6s4.72,2.53,8.84.85"/><path class="cls-6" d="M57.13,102.72S44.69,105,40.2,102.07"/><path class="cls-6" d="M39.66,84.89s-1.69,2-5.4-.19"/><path class="cls-6" d="M61.51,106.84s3-4.17.43-7.55"/><path class="cls-6" d="M63.7,111.15a11.51,11.51,0,0,1-10.53,0"/><path class="cls-6" d="M49,82.28s1.95,4.45-.77,13.64"/><path class="cls-6" d="M34.79,79.55s1.19.07,1.63,2.94"/><path class="cls-6" d="M41.24,80.69s1.06,1.86.14,5.35"/><path class="cls-6" d="M51,107.2s7.34,4,9.69-1.69"/><path class="cls-6" d="M57.45,96s1,3.33-1.65,5.28"/><path class="cls-6" d="M68.06,102.65s-.3,6.45-3.62,9.81"/><path class="cls-5" d="M131.21,36.44c-1.82-.14-2.61-2.4-1.89-4s2.37-2.72,3.93-3.72,3.19-2.11,3.88-3.75c1.13-2.7-.78-5.68.06-8.46s4-4.27,6.7-5.53,5.81-3.08,6.19-5.91c.14-1-.12-2.07.07-3.09S151.29-.16,152.36,0s1.42,1.34,1.61,2.33L155.65,11c.63,3.23,1.16,6.89-.92,9.66-1.82,2.42-5.22,3.53-6.8,6.09-2.08,3.35-.22,7.89-2.54,11.11-1.75,2.42-5.35,3.11-8.23,2.36s-5.2-2.63-7.43-4.45"/><path class="cls-7" d="M152,.29c1.38,4.22-.36,10.73-3,14.6-1.64,2.42-4,4.48-5.05,7.15-.93,2.31-.81,4.83-1.39,7.23-.95,3.89-4.78,7.51-8.59,9.31"/><path class="cls-7" d="M144.9,10.36s-.62,4.49,1.93,7.26"/><path class="cls-7" d="M142.49,28.5S137,19.3,138,14.88"/><path class="cls-7" d="M151.51,9.4s-2.11-.74-1.43-4.35"/><path class="cls-7" d="M140.5,33.2s4.18,1.12,6.12-1.88"/><path class="cls-7" d="M137.72,36.2a9.79,9.79,0,0,1-3.09-8.37"/><path class="cls-7" d="M156.33,16.07s-3,2.86-11.05,3.4"/><path class="cls-7" d="M154.31,4s.3,1-1.85,2.16"/><path class="cls-8" d="M155.31,9.42s-1.16,1.39-4.21,1.68"/><path class="cls-7" d="M137.13,25s-1,7,4.19,7.2"/><path class="cls-7" d="M147.93,26.78a4.31,4.31,0,0,1-4.68.24"/><path class="cls-7" d="M145.75,37.16s-5.21,1.66-8.85,0"/><rect class="cls-9" x="53.31" y="9.64" width="92.43" height="129.21" rx="3.91" transform="translate(-9 13.91) rotate(-7.65)"/><rect class="cls-9" x="35.6" y="28.84" width="127.86" height="90.8" rx="3.06" transform="translate(159.86 -34.28) rotate(82.35)"/><rect class="cls-10" x="62.78" y="18.01" width="73.5" height="112.47" transform="matrix(0.99, -0.13, 0.13, 0.99, -9, 13.91)"/><path class="cls-11" d="M90,17a1.29,1.29,0,1,1,1.24-1.46A1.36,1.36,0,0,1,90,17Z"/><rect class="cls-5" x="75.32" y="50.32" width="44.03" height="4.65" rx="2.23" transform="translate(-6.33 13.92) rotate(-7.93)"/><rect class="cls-5" x="76.47" y="58.55" width="44.03" height="4.65" rx="2.23" transform="translate(-7.45 14.16) rotate(-7.93)"/><rect class="cls-5" x="77.61" y="66.79" width="44.03" height="4.65" rx="2.23" transform="translate(-8.58 14.4) rotate(-7.93)"/><rect class="cls-5" x="78.76" y="75.03" width="44.03" height="4.65" rx="2.23" transform="translate(-9.7 14.64) rotate(-7.93)"/><rect class="cls-5" x="79.87" y="83.02" width="44.03" height="4.65" rx="2.23" transform="translate(-10.8 14.87) rotate(-7.93)"/><path class="cls-12" d="M77.72,56.14l-.16-1.22.15,0,.55.7.17.23h0a1.06,1.06,0,0,1,0-.19,1.29,1.29,0,0,1,0-.19l-.08-.63.14,0L78.59,56l-.16,0-.55-.71-.16-.23h0c0,.06,0,.13,0,.19l0,.19.09.64Z"/><path class="cls-12" d="M79.26,56a.29.29,0,0,1-.2-.05.23.23,0,0,1-.1-.17.26.26,0,0,1,.1-.25,1.07,1.07,0,0,1,.41-.17s0-.06,0-.08a.16.16,0,0,0,0-.07l-.06,0a.16.16,0,0,0-.1,0,.34.34,0,0,0-.14,0l-.11.08-.08-.09a.71.71,0,0,1,.14-.1.48.48,0,0,1,.2-.07.26.26,0,0,1,.25.07.39.39,0,0,1,.11.26l.08.55-.12,0,0-.11h0l-.12.12A.44.44,0,0,1,79.26,56Zm0-.13.12,0a1.13,1.13,0,0,0,.11-.11l0-.25-.18.06-.12.07a.19.19,0,0,0-.06.07.12.12,0,0,0,0,.08.15.15,0,0,0,.06.11A.23.23,0,0,0,79.29,55.82Z"/><path class="cls-12" d="M80.13,55.8,80,54.9l.13,0,0,.13h0l.12-.13a.35.35,0,0,1,.14-.06.3.3,0,0,1,.17,0,.32.32,0,0,1,.11.12,1,1,0,0,1,.12-.15.26.26,0,0,1,.15-.07.28.28,0,0,1,.22.06.45.45,0,0,1,.1.26l.08.57-.15,0-.08-.55a.31.31,0,0,0-.06-.18.17.17,0,0,0-.14,0,.31.31,0,0,0-.2.17l.09.65-.16,0-.07-.56a.3.3,0,0,0-.07-.17.14.14,0,0,0-.14,0,.33.33,0,0,0-.2.17l.09.65Z"/><path class="cls-12" d="M82.17,55.54a.33.33,0,0,1-.17,0,.35.35,0,0,1-.15-.07.38.38,0,0,1-.11-.14.53.53,0,0,1-.06-.19.74.74,0,0,1,0-.21.77.77,0,0,1,.07-.16.63.63,0,0,1,.12-.11.24.24,0,0,1,.14,0,.29.29,0,0,1,.16,0,.24.24,0,0,1,.13.07.36.36,0,0,1,.08.12.42.42,0,0,1,.05.17v.09l-.61.08a.36.36,0,0,0,.12.22.27.27,0,0,0,.23,0,.2.2,0,0,0,.11,0l.1-.07.07.1-.12.08A.69.69,0,0,1,82.17,55.54ZM81.81,55,82.3,55a.37.37,0,0,0-.09-.2.18.18,0,0,0-.17-.05.12.12,0,0,0-.09,0l-.08.06a.3.3,0,0,0,0,.1A.5.5,0,0,0,81.81,55Z"/><path class="cls-12" d="M78.86,64.27l-.17-1.22.7-.09,0,.13-.55.07,0,.38.47-.06v.13l-.46.07.06.44.57-.08,0,.13Z"/><path class="cls-12" d="M80,64.12l-.13-.91H80l0,.13h0a.47.47,0,0,1,.11-.13.26.26,0,0,1,.15-.07.24.24,0,0,1,.17,0,.27.27,0,0,1,.1.11.87.87,0,0,1,.12-.14.34.34,0,0,1,.15-.07.25.25,0,0,1,.22.06.39.39,0,0,1,.11.25l.08.57-.16,0L81,63.41a.3.3,0,0,0-.07-.17.12.12,0,0,0-.13,0,.32.32,0,0,0-.21.17l.09.65-.15,0-.08-.55a.31.31,0,0,0-.06-.18.17.17,0,0,0-.14,0,.35.35,0,0,0-.21.17l.09.66Z"/><path class="cls-12" d="M81.85,63.88a.34.34,0,0,1-.2,0,.27.27,0,0,1-.1-.18.27.27,0,0,1,.1-.25,1.25,1.25,0,0,1,.41-.17s0-.05,0-.08a.16.16,0,0,0,0-.07l-.06,0h-.1l-.14.05-.12.09-.07-.1.14-.1a.48.48,0,0,1,.2-.07.29.29,0,0,1,.25.07.42.42,0,0,1,.11.26l.08.55-.12,0,0-.1h0l-.12.11A.44.44,0,0,1,81.85,63.88Zm0-.13a.31.31,0,0,0,.12,0l.11-.11,0-.25a.75.75,0,0,0-.18.07l-.12.06a.19.19,0,0,0-.06.07.14.14,0,0,0,0,.09.14.14,0,0,0,.06.1A.22.22,0,0,0,81.88,63.75Z"/><path class="cls-12" d="M82.64,62.64l-.08,0a.16.16,0,0,1,0-.07.08.08,0,0,1,0-.07.1.1,0,0,1,.07,0,.08.08,0,0,1,.08,0,.07.07,0,0,1,0,.06.08.08,0,0,1,0,.08Zm.07,1.1-.12-.91.15,0,.13.9Z"/><path class="cls-12" d="M83.48,63.65a.16.16,0,0,1-.14,0,.23.23,0,0,1,0-.15l-.16-1.14.15,0,.16,1.15a.08.08,0,0,0,0,0h.07l0,.11,0,0Z"/><path class="cls-12" d="M84.64,63.49a.25.25,0,0,1-.19,0,.24.24,0,0,1-.1-.18.25.25,0,0,1,.1-.25,1.18,1.18,0,0,1,.4-.17.31.31,0,0,0,0-.08.16.16,0,0,0,0-.07l-.06,0h-.1l-.14.05-.11.09-.08-.1a1,1,0,0,1,.15-.1.54.54,0,0,1,.19-.07.31.31,0,0,1,.26.07.48.48,0,0,1,.11.26l.08.55-.13,0,0-.1h0a.69.69,0,0,1-.13.11A.44.44,0,0,1,84.64,63.49Zm0-.13a.22.22,0,0,0,.12,0,.5.5,0,0,0,.11-.1l0-.26-.19.07-.12.06a.16.16,0,0,0-.06.08.19.19,0,0,0,0,.08.14.14,0,0,0,.06.1A.17.17,0,0,0,84.67,63.36Z"/><path class="cls-12" d="M85.82,63.32a.34.34,0,0,1-.29-.08.52.52,0,0,1-.15-.34.45.45,0,0,1,0-.2.44.44,0,0,1,.06-.16.57.57,0,0,1,.11-.11.3.3,0,0,1,.15,0,.33.33,0,0,1,.14,0l.13.06,0-.15,0-.35.15,0,.19,1.33h-.13l0-.1h0l-.11.11A.3.3,0,0,1,85.82,63.32Zm0-.13a.16.16,0,0,0,.11,0,.32.32,0,0,0,.1-.1L86,62.56a.31.31,0,0,0-.12-.05.2.2,0,0,0-.11,0,.21.21,0,0,0-.1,0,.27.27,0,0,0-.07.08.34.34,0,0,0,0,.12.33.33,0,0,0,0,.14.44.44,0,0,0,.1.25A.23.23,0,0,0,85.84,63.19Z"/><path class="cls-12" d="M86.68,63.18l-.13-.9.13,0,0,.16h0a.56.56,0,0,1,.1-.15A.24.24,0,0,1,87,62.2h.1v.13H87a.19.19,0,0,0-.11.07.3.3,0,0,0-.09.17l.08.58Z"/><path class="cls-12" d="M87.81,63.05a.49.49,0,0,1-.17,0,.37.37,0,0,1-.26-.21.53.53,0,0,1-.06-.19.74.74,0,0,1,0-.21.77.77,0,0,1,.07-.16.32.32,0,0,1,.12-.11.35.35,0,0,1,.14-.06h.16l.13.07a.41.41,0,0,1,.08.13.42.42,0,0,1,0,.17.07.07,0,0,1,0,.05v0l-.61.08a.36.36,0,0,0,.12.22.27.27,0,0,0,.23.05.35.35,0,0,0,.11,0l.1-.07.07.09L88,63A.69.69,0,0,1,87.81,63.05Zm-.36-.51.49-.07a.34.34,0,0,0-.09-.2.2.2,0,0,0-.17,0,.12.12,0,0,0-.09,0,.16.16,0,0,0-.08.06.3.3,0,0,0,0,.1A.43.43,0,0,0,87.45,62.54Z"/><path class="cls-12" d="M88.74,62.92a.55.55,0,0,1-.18,0l-.17-.07.06-.11.13.06a.38.38,0,0,0,.15,0,.2.2,0,0,0,.13-.06.11.11,0,0,0,0-.11.14.14,0,0,0,0-.06l-.06,0-.07,0-.08,0-.1,0-.09,0a.27.27,0,0,1-.08-.07.12.12,0,0,1,0-.09.21.21,0,0,1,0-.11.41.41,0,0,1,0-.09L88.5,62l.13,0a.29.29,0,0,1,.16,0l.14.05-.06.11-.11,0a.2.2,0,0,0-.11,0c-.06,0-.1,0-.12,0a.19.19,0,0,0,0,.1s0,0,0,0a.1.1,0,0,0,0,0l.07,0,.07,0,.11,0,.09,0a.27.27,0,0,1,.08.07.3.3,0,0,1,0,.1.37.37,0,0,1,0,.11.41.41,0,0,1,0,.09.27.27,0,0,1-.1.08Z"/><path class="cls-12" d="M89.66,62.79a.41.41,0,0,1-.19,0,.46.46,0,0,1-.16-.07l.06-.11a.38.38,0,0,0,.13.06.26.26,0,0,0,.15,0,.23.23,0,0,0,.13-.06.2.2,0,0,0,0-.11.05.05,0,0,0,0,0,.1.1,0,0,0,0,0l-.07,0-.08,0-.1,0-.1,0-.07-.06a.35.35,0,0,1,0-.2.19.19,0,0,1,0-.09.31.31,0,0,1,.09-.07l.13,0a.42.42,0,0,1,.16,0l.13,0,0,.11-.11,0a.21.21,0,0,0-.11,0,.17.17,0,0,0-.12.06.11.11,0,0,0,0,.09.14.14,0,0,0,0,.06l.06,0,.06,0,.08,0,.11,0,.09,0,.08.07a.28.28,0,0,1,0,.11.34.34,0,0,1,0,.1.31.31,0,0,1,0,.1l-.1.07Z"/><path class="cls-12" d="M80.45,72.37a.49.49,0,0,1-.21,0,.5.5,0,0,1-.19-.1.66.66,0,0,1-.14-.18,1,1,0,0,1-.08-.26.8.8,0,0,1,0-.27.58.58,0,0,1,.08-.21.49.49,0,0,1,.16-.16.65.65,0,0,1,.21-.07.44.44,0,0,1,.2,0,.38.38,0,0,1,.15.09l-.07.11a.24.24,0,0,0-.12-.07.22.22,0,0,0-.14,0,.33.33,0,0,0-.15.05.32.32,0,0,0-.11.12.44.44,0,0,0-.06.16.74.74,0,0,0,0,.21.65.65,0,0,0,.06.21.71.71,0,0,0,.1.14.38.38,0,0,0,.13.09.42.42,0,0,0,.16,0,.34.34,0,0,0,.15-.06.43.43,0,0,0,.11-.12l.1.09a.67.67,0,0,1-.14.15A.66.66,0,0,1,80.45,72.37Z"/><path class="cls-12" d="M81.53,72.22h-.16a.36.36,0,0,1-.15-.08.47.47,0,0,1-.11-.13.93.93,0,0,1-.07-.2,1.27,1.27,0,0,1,0-.2.67.67,0,0,1,.07-.17l.12-.11a.43.43,0,0,1,.16,0,.29.29,0,0,1,.16,0,.51.51,0,0,1,.15.07.53.53,0,0,1,.11.14.59.59,0,0,1,.06.2.44.44,0,0,1,0,.2.29.29,0,0,1-.07.16.25.25,0,0,1-.12.11A.39.39,0,0,1,81.53,72.22Zm0-.13.1,0a.3.3,0,0,0,.08-.08.24.24,0,0,0,0-.12.33.33,0,0,0,0-.14.33.33,0,0,0,0-.14.24.24,0,0,0-.06-.1.21.21,0,0,0-.1-.06.14.14,0,0,0-.11,0,.19.19,0,0,0-.1,0,.31.31,0,0,0-.07.09.34.34,0,0,0,0,.12v.14a.57.57,0,0,0,0,.14.36.36,0,0,0,.07.1.24.24,0,0,0,.09.06Z"/><path class="cls-12" d="M82.59,72.07a.29.29,0,0,1-.23-.06.49.49,0,0,1-.1-.26l-.08-.57.16,0,.07.55a.3.3,0,0,0,.07.18.14.14,0,0,0,.14,0,.31.31,0,0,0,.12-.05,1,1,0,0,0,.1-.14l-.09-.64.15,0L83,72H82.9l0-.14h0a.4.4,0,0,1-.11.14A.33.33,0,0,1,82.59,72.07Z"/><path class="cls-12" d="M83.47,71.92l-.13-.9.13,0,0,.13h0l.12-.13a.28.28,0,0,1,.16-.06A.21.21,0,0,1,84,71a.39.39,0,0,1,.1.25l.08.57-.15,0L84,71.29a.38.38,0,0,0-.06-.18.2.2,0,0,0-.14,0,.23.23,0,0,0-.12.06l-.11.12.09.65Z"/><path class="cls-12" d="M84.91,71.75h-.12a.19.19,0,0,1-.09,0,.35.35,0,0,1-.06-.09l0-.12-.07-.5-.13,0,0-.12.14,0V70.6l.13,0,0,.25.24,0,0,.12-.24,0,.07.5c0,.06,0,.1,0,.12a.12.12,0,0,0,.11,0l0,0,0,0,0,.11-.08,0Z"/><path class="cls-12" d="M85.39,71.66l-.12-.91h.12l0,.16h0a.32.32,0,0,1,.09-.15.25.25,0,0,1,.14-.08h.09v.14h-.09a.17.17,0,0,0-.11.06.45.45,0,0,0-.09.17l.08.58Z"/><path class="cls-12" d="M86.29,71.93h-.11l0-.12h.07a.19.19,0,0,0,.12-.07.33.33,0,0,0,0-.15l0-.07L86,70.66l.15,0,.26.48.06.12.06.12h0s0-.09,0-.13,0-.1,0-.14l.09-.52.15,0-.2,1,0,.13a.3.3,0,0,1-.06.11.18.18,0,0,1-.08.07A.22.22,0,0,1,86.29,71.93Z"/><path class="cls-12" d="M81.15,80.72,81,79.5l.35,0a.61.61,0,0,1,.19,0,.42.42,0,0,1,.15,0,.31.31,0,0,1,.11.09.69.69,0,0,1,0,.17.31.31,0,0,1,0,.17.27.27,0,0,1-.07.13.38.38,0,0,1-.13.09.61.61,0,0,1-.18,0l-.21,0,.07.48Zm.07-.63.18,0a.45.45,0,0,0,.23-.1.25.25,0,0,0,.05-.2.2.2,0,0,0-.11-.17.45.45,0,0,0-.24,0l-.18,0Z"/><path class="cls-12" d="M82.32,80.56l-.18-1.32.15,0,0,.37,0,.18a.68.68,0,0,1,.12-.12.33.33,0,0,1,.16-.07.25.25,0,0,1,.22.06.42.42,0,0,1,.11.26l.08.57-.16,0-.07-.55a.3.3,0,0,0-.07-.18.14.14,0,0,0-.14,0,.31.31,0,0,0-.12.05l-.11.12.1.66Z"/><path class="cls-12" d="M83.83,80.37a.33.33,0,0,1-.17,0,.37.37,0,0,1-.14-.07.38.38,0,0,1-.11-.14.4.4,0,0,1-.07-.19.48.48,0,0,1,0-.21.77.77,0,0,1,.07-.16.32.32,0,0,1,.12-.11.47.47,0,0,1,.15-.06h.17a.39.39,0,0,1,.14.08.33.33,0,0,1,.12.14.53.53,0,0,1,.06.19.49.49,0,0,1,0,.21.46.46,0,0,1-.07.16.43.43,0,0,1-.12.11A.44.44,0,0,1,83.83,80.37Zm0-.12.1,0s.06,0,.07-.09A.21.21,0,0,0,84,80a.38.38,0,0,0,0-.15.74.74,0,0,0,0-.14l-.06-.1a.21.21,0,0,0-.1-.06.2.2,0,0,0-.11,0l-.1,0a.27.27,0,0,0-.07.08.56.56,0,0,0,0,.12.38.38,0,0,0,0,.15.4.4,0,0,0,0,.13.3.3,0,0,0,.07.11l.09.06Z"/><path class="cls-12" d="M84.62,80.24l-.13-.9.13,0,0,.13h0a.37.37,0,0,1,.12-.13.3.3,0,0,1,.38,0,.45.45,0,0,1,.1.26l.08.57-.15,0-.08-.55a.31.31,0,0,0-.06-.18.17.17,0,0,0-.14,0,.22.22,0,0,0-.12,0l-.11.12.09.66Z"/><path class="cls-12" d="M86.14,80.05A.32.32,0,0,1,86,80a.35.35,0,0,1-.15-.07.38.38,0,0,1-.11-.14.54.54,0,0,1-.07-.19.72.72,0,0,1,0-.21.77.77,0,0,1,.07-.16.32.32,0,0,1,.12-.11.24.24,0,0,1,.14,0,.29.29,0,0,1,.16,0,.31.31,0,0,1,.13.06.57.57,0,0,1,.08.13.48.48,0,0,1,.05.17v.09l-.61.08a.36.36,0,0,0,.12.22.25.25,0,0,0,.22,0,.21.21,0,0,0,.12,0l.1-.07.07.1L86.3,80A.5.5,0,0,1,86.14,80.05Zm-.36-.51.49-.06a.37.37,0,0,0-.09-.2.19.19,0,0,0-.18,0,.11.11,0,0,0-.08,0,.24.24,0,0,0-.08.06.3.3,0,0,0,0,.1A.5.5,0,0,0,85.78,79.54Z"/><path class="cls-12" d="M82.26,88.68l-.17-1.22.34,0h.19a.29.29,0,0,1,.16,0,.22.22,0,0,1,.1.09.43.43,0,0,1,.06.17.32.32,0,0,1,0,.17.33.33,0,0,1-.07.13.34.34,0,0,1-.14.09l-.18.05-.2,0,.07.48Zm.07-.63.18,0a.37.37,0,0,0,.23-.09.25.25,0,0,0,.05-.2c0-.09-.05-.15-.11-.17a.48.48,0,0,0-.25,0l-.17,0Z"/><path class="cls-12" d="M83.56,88.52a.25.25,0,0,1-.19,0,.28.28,0,0,1-.11-.18.25.25,0,0,1,.1-.24.93.93,0,0,1,.41-.17.29.29,0,0,0,0-.09s0,0,0-.06a.15.15,0,0,0-.06,0h-.1a.24.24,0,0,0-.14,0l-.11.08-.08-.1.15-.1a.53.53,0,0,1,.19-.06.26.26,0,0,1,.25.06.49.49,0,0,1,.12.26l.07.56-.12,0,0-.11h0a.63.63,0,0,1-.12.11A.44.44,0,0,1,83.56,88.52Zm0-.13a.28.28,0,0,0,.12,0l.11-.11,0-.25-.18.06-.12.06a.21.21,0,0,0-.06.08.19.19,0,0,0,0,.08s0,.09.06.1A.16.16,0,0,0,83.59,88.39Z"/><path class="cls-12" d="M84.67,88.37a.59.59,0,0,1-.19,0l-.17-.07.06-.11.14.06a.35.35,0,0,0,.15,0,.2.2,0,0,0,.12-.06.11.11,0,0,0,0-.11.14.14,0,0,0,0-.06l-.06,0s0,0-.07,0l-.08,0-.1,0-.09,0a.23.23,0,0,1-.07-.07.13.13,0,0,1,0-.09.21.21,0,0,1,0-.11.22.22,0,0,1,.14-.15.21.21,0,0,1,.12,0,.29.29,0,0,1,.16,0l.14,0-.06.11-.11,0a.2.2,0,0,0-.11,0,.14.14,0,0,0-.12,0,.19.19,0,0,0,0,.1s0,0,0,0a.1.1,0,0,0,0,0l.07,0,.08,0,.1,0a.25.25,0,0,1,.09,0,.27.27,0,0,1,.08.07.3.3,0,0,1,0,.1.41.41,0,0,1,0,.11.2.2,0,0,1,0,.09.27.27,0,0,1-.1.08A.4.4,0,0,1,84.67,88.37Z"/><path class="cls-12" d="M85.58,88.24a.41.41,0,0,1-.19,0l-.16-.07.06-.11a.4.4,0,0,0,.28.07.23.23,0,0,0,.13-.06.11.11,0,0,0,0-.11.05.05,0,0,0,0,0,.1.1,0,0,0,0,0l-.07,0-.08,0-.1,0-.1,0-.07-.06a.35.35,0,0,1,0-.2.19.19,0,0,1,0-.09l.09-.07.13,0a.42.42,0,0,1,.16,0l.13,0-.05.11-.11,0a.2.2,0,0,0-.11,0,.23.23,0,0,0-.12,0,.14.14,0,0,0,0,.1.09.09,0,0,0,0,.06l0,0,.06,0,.08,0,.11,0a.32.32,0,0,1,.09,0,.27.27,0,0,1,.08.07.3.3,0,0,1,0,.1.37.37,0,0,1,0,.11.19.19,0,0,1-.05.09.39.39,0,0,1-.1.08Z"/><path class="cls-12" d="M86.4,88.1,86,87.24l.15,0,.21.51,0,.12a.56.56,0,0,0,0,.12h0s0-.09,0-.13,0-.09,0-.13l.07-.54.15,0,.21.5a.61.61,0,0,1,0,.12l.05.12h0s0-.09,0-.13a.62.62,0,0,1,0-.13l.06-.54.14,0-.11.94L87,88l-.2-.46,0-.13a.61.61,0,0,1,0-.12h0s0,.09,0,.13,0,.09,0,.14l-.06.5Z"/><path class="cls-12" d="M88.08,87.89a.29.29,0,0,1-.16,0,.51.51,0,0,1-.15-.07.53.53,0,0,1-.17-.33.74.74,0,0,1,0-.21.48.48,0,0,1,.08-.16.38.38,0,0,1,.11-.11A.3.3,0,0,1,88,87a.43.43,0,0,1,.16,0,.44.44,0,0,1,.15.08.4.4,0,0,1,.11.14.53.53,0,0,1,.06.19.74.74,0,0,1,0,.21.77.77,0,0,1-.07.16l-.12.11A.43.43,0,0,1,88.08,87.89Zm0-.12.11,0a.27.27,0,0,0,.07-.08.56.56,0,0,0,0-.12v-.15a.74.74,0,0,0,0-.14.36.36,0,0,0-.07-.1.24.24,0,0,0-.09-.06H88a.23.23,0,0,0-.1,0,.3.3,0,0,0-.08.08.56.56,0,0,0,0,.12.76.76,0,0,0,0,.15.58.58,0,0,0,0,.14.36.36,0,0,0,.07.1l.1.06Z"/><path class="cls-12" d="M88.87,87.76l-.12-.9.12,0,0,.16h0a.38.38,0,0,1,.09-.15.23.23,0,0,1,.14-.07.33.33,0,0,1,.1,0l0,.14h-.09A.24.24,0,0,0,89,87a.38.38,0,0,0-.08.18l.08.58Z"/><path class="cls-12" d="M90,87.63a.34.34,0,0,1-.29-.08.57.57,0,0,1-.15-.34.44.44,0,0,1,0-.2.38.38,0,0,1,.06-.16.29.29,0,0,1,.11-.11.47.47,0,0,1,.15-.06H90a.34.34,0,0,1,.12.06l0-.15,0-.35.15,0,.18,1.32-.12,0,0-.1h0a1.27,1.27,0,0,1-.12.1A.35.35,0,0,1,90,87.63Zm0-.13a.22.22,0,0,0,.11,0,.36.36,0,0,0,.1-.11l-.07-.47a.34.34,0,0,0-.12-.06.2.2,0,0,0-.11,0,.18.18,0,0,0-.1,0,.27.27,0,0,0-.07.08.36.36,0,0,0,0,.11.52.52,0,0,0,.1.39A.21.21,0,0,0,90,87.5Z"/><path class="cls-5" d="M67.37,37l-.88-6.46,2.11-.29a3.9,3.9,0,0,1,1,0,2.18,2.18,0,0,1,.82.24A1.66,1.66,0,0,1,71,31a2.18,2.18,0,0,1,.33,1,2.38,2.38,0,0,1-.06,1,1.91,1.91,0,0,1-.43.76,2.32,2.32,0,0,1-.71.5,3.14,3.14,0,0,1-.9.25l-.76.11.3,2.18Zm.93-3.54.68-.1c.75-.1,1.08-.49,1-1.18a.8.8,0,0,0-.39-.67,1.58,1.58,0,0,0-.9-.09l-.64.09Z"/><path class="cls-5" d="M72.87,36.25l-1-6.94,1.38-.19.23,1.7.06.89a3.52,3.52,0,0,1,.55-.54,1.49,1.49,0,0,1,.8-.33,1.23,1.23,0,0,1,1.18.37,2.78,2.78,0,0,1,.54,1.41l.42,3.05-1.39.19L75.3,33a1.37,1.37,0,0,0-.24-.71.48.48,0,0,0-.46-.14.8.8,0,0,0-.44.18,3.16,3.16,0,0,0-.36.41l.45,3.32Z"/><path class="cls-5" d="M78.16,29.78a.83.83,0,0,1-.61-.13.73.73,0,0,1-.3-.52.73.73,0,0,1,.15-.58.84.84,0,0,1,.55-.28.83.83,0,0,1,.61.12.74.74,0,0,1,.29.52.77.77,0,0,1-.14.58A.8.8,0,0,1,78.16,29.78Zm.08,5.73-.67-4.91L79,30.41l.68,4.91Z"/><path class="cls-5" d="M83,35a2.57,2.57,0,0,1-1-.05,2.09,2.09,0,0,1-.82-.4,2.35,2.35,0,0,1-.61-.74,3.22,3.22,0,0,1-.33-1.06,3.07,3.07,0,0,1,0-1.1,2.61,2.61,0,0,1,.38-.88,2.18,2.18,0,0,1,.64-.61,1.89,1.89,0,0,1,.79-.29,1.86,1.86,0,0,1,.89.06,1.61,1.61,0,0,1,.69.41,2.14,2.14,0,0,1,.48.69,3.77,3.77,0,0,1,.25.92,2.64,2.64,0,0,1,0,.38,1.29,1.29,0,0,1,0,.28L81.63,33a1.14,1.14,0,0,0,1.35.87,1.85,1.85,0,0,0,1-.46l.58.82a3.24,3.24,0,0,1-.74.51A2.74,2.74,0,0,1,83,35ZM81,29.42,80.51,29l.75-1,1.09-.15,1,.79-.37.58-1-.51h0Zm.47,2.6,1.68-.23a1.18,1.18,0,0,0-.27-.65.7.7,0,0,0-.64-.18.88.88,0,0,0-.55.31A1.18,1.18,0,0,0,81.49,32ZM83,28l.57-1.36.81.4-.79,1.32Z"/><path class="cls-5" d="M87.14,34.41A1.23,1.23,0,0,1,86,34a2.7,2.7,0,0,1-.55-1.41L85,29.58l1.38-.19.39,2.86A1.41,1.41,0,0,0,87,33a.51.51,0,0,0,.47.13.69.69,0,0,0,.43-.19,1.79,1.79,0,0,0,.33-.47l-.45-3.24L89.17,29l.68,4.91-1.13.15-.2-.67h0a2.55,2.55,0,0,1-.56.68A1.52,1.52,0,0,1,87.14,34.41Z"/><path class="cls-5" d="M93.73,35.35l-.37,0a1.55,1.55,0,0,1-.31,0l.1-1.15.15,0h.16A.78.78,0,0,0,94,34a1.18,1.18,0,0,0,.22-.51l0-.26-2.46-4.54,1.39-.19,1,2c.1.21.2.43.29.65s.18.46.27.69h0l.06-.72c0-.24,0-.49.07-.72l.27-2.19L96.45,28l-.94,5.18a6.68,6.68,0,0,1-.24.87,2.28,2.28,0,0,1-.34.64,1.71,1.71,0,0,1-.5.43A2.22,2.22,0,0,1,93.73,35.35Z"/><path class="cls-5" d="M99.88,32.66a2.57,2.57,0,0,1-1,0,2.24,2.24,0,0,1-.82-.4,2.47,2.47,0,0,1-.61-.74,3.28,3.28,0,0,1-.33-1.07,3.09,3.09,0,0,1,0-1.1,2.62,2.62,0,0,1,.39-.88,2.15,2.15,0,0,1,.63-.61,2,2,0,0,1,.79-.29,2.21,2.21,0,0,1,.9.06,1.86,1.86,0,0,1,.69.41,2.21,2.21,0,0,1,.47.7,3.18,3.18,0,0,1,.25.92c0,.13,0,.26,0,.38a1.94,1.94,0,0,1,0,.27l-2.79.38a1.22,1.22,0,0,0,.52.73,1.3,1.3,0,0,0,.83.15,1.87,1.87,0,0,0,1-.47l.58.82a3.07,3.07,0,0,1-.74.52A2.71,2.71,0,0,1,99.88,32.66Zm-2.73-5.93L98,25.29l1.41-.19,1.19,1.16-.46.58-1.3-.75h0l-1.06,1.07Zm1.27,3,1.68-.23a1.25,1.25,0,0,0-.27-.65.69.69,0,0,0-.64-.17.84.84,0,0,0-.55.31A1.15,1.15,0,0,0,98.42,29.69Z"/><path class="cls-5" d="M104.07,32.09a1.24,1.24,0,0,1-1.18-.38,2.55,2.55,0,0,1-.54-1.41l-.42-3.05,1.38-.19.39,2.87a1.31,1.31,0,0,0,.25.71.49.49,0,0,0,.47.14.82.82,0,0,0,.42-.19,1.73,1.73,0,0,0,.33-.47l-.45-3.25,1.39-.19.67,4.91-1.13.16-.19-.67h0a2.6,2.6,0,0,1-.57.68A1.62,1.62,0,0,1,104.07,32.09Z"/><path class="cls-5" d="M111.93,31A2.45,2.45,0,0,1,111,31a2.11,2.11,0,0,1-.79-.4,2.32,2.32,0,0,1-.6-.74,2.86,2.86,0,0,1-.33-1.07,3,3,0,0,1,0-1.12,2.34,2.34,0,0,1,.43-.88,2.29,2.29,0,0,1,.7-.61,2.4,2.4,0,0,1,.9-.3,1.87,1.87,0,0,1,.79,0,2.41,2.41,0,0,1,.65.3l-.52,1a1,1,0,0,0-.67-.2.94.94,0,0,0-.75.48,2,2,0,0,0,.28,2,.92.92,0,0,0,.8.28,1,1,0,0,0,.43-.17,2.6,2.6,0,0,0,.36-.3l.68.87a2.16,2.16,0,0,1-.69.56A3,3,0,0,1,111.93,31Z"/><path class="cls-5" d="M114.1,23.7l-.47.51-1.15-1,.66-.62Zm1.27,6.83a1.44,1.44,0,0,1-.59,0,1.22,1.22,0,0,1-.49-.26,1.47,1.47,0,0,1-.34-.43,1.73,1.73,0,0,1-.18-.57,1.41,1.41,0,0,1,.46-1.29,4.31,4.31,0,0,1,1.92-.86.91.91,0,0,0-.25-.5.74.74,0,0,0-.58-.12,1.63,1.63,0,0,0-.58.21,3.73,3.73,0,0,0-.59.41l-.63-.89a4.72,4.72,0,0,1,.88-.6,3.2,3.2,0,0,1,1-.32,1.76,1.76,0,0,1,1.46.35,2.45,2.45,0,0,1,.7,1.61l.39,2.82-1.13.15-.16-.49h0a3.12,3.12,0,0,1-.57.53A1.43,1.43,0,0,1,115.37,30.53Zm-1-5.7-.51-.45.75-1,1.09-.15,1,.79-.37.57-1-.51h0Zm1.29,4.51a.76.76,0,0,0,.39-.16,2.37,2.37,0,0,0,.31-.36l-.12-.86a2.5,2.5,0,0,0-1,.45.65.65,0,0,0-.22.54.43.43,0,0,0,.2.33A.66.66,0,0,0,115.69,29.34Z"/><path class="cls-5" d="M120.56,29.82a1.23,1.23,0,0,1-1.18-.37,2.7,2.7,0,0,1-.55-1.41L118.42,25l1.38-.19.39,2.86a1.31,1.31,0,0,0,.25.72.48.48,0,0,0,.46.13.69.69,0,0,0,.43-.19,1.58,1.58,0,0,0,.33-.47l-.45-3.24,1.38-.19.68,4.91-1.13.15-.2-.67h0a2.55,2.55,0,0,1-.56.68A1.52,1.52,0,0,1,120.56,29.82Z"/><path class="cls-5" d="M80.19,45.34l-.67-4.92,1.13-.15.18.61h0a4.26,4.26,0,0,1,.58-.62,1.55,1.55,0,0,1,.81-.33,1.23,1.23,0,0,1,1.18.37A2.69,2.69,0,0,1,84,41.71l.42,3L83,45l-.4-2.86a1.33,1.33,0,0,0-.23-.72.5.5,0,0,0-.47-.13.76.76,0,0,0-.43.18,2.57,2.57,0,0,0-.37.41l.46,3.32Z"/><path class="cls-5" d="M86.77,44.56a1.44,1.44,0,0,1-.59,0,1.34,1.34,0,0,1-.49-.25,1.67,1.67,0,0,1-.34-.44,1.73,1.73,0,0,1-.18-.57A1.4,1.4,0,0,1,85.63,42a4.31,4.31,0,0,1,1.92-.86.91.91,0,0,0-.25-.5.7.7,0,0,0-.58-.11,1.44,1.44,0,0,0-.58.2,3.73,3.73,0,0,0-.59.41l-.63-.89a5.26,5.26,0,0,1,.88-.6,3.2,3.2,0,0,1,1-.32,1.76,1.76,0,0,1,1.46.35,2.55,2.55,0,0,1,.7,1.62l.39,2.81-1.13.15-.16-.49h0a2.83,2.83,0,0,1-.57.53A1.55,1.55,0,0,1,86.77,44.56Zm.32-1.2a.76.76,0,0,0,.39-.16,2.37,2.37,0,0,0,.31-.36L87.67,42a2.35,2.35,0,0,0-1,.46.62.62,0,0,0-.22.53.43.43,0,0,0,.2.33A.6.6,0,0,0,87.09,43.36Zm.61,3.22a.76.76,0,0,1-.58-.14.74.74,0,0,1-.29-.52.77.77,0,0,1,.14-.58.74.74,0,0,1,.52-.29.79.79,0,0,1,.73,1.24A.74.74,0,0,1,87.7,46.58Z"/><path class="cls-5" d="M90.79,45.74,89.86,39,91,38.85l.16.47h0a2.53,2.53,0,0,1,.56-.52,1.48,1.48,0,0,1,.68-.27,1.6,1.6,0,0,1,1.44.5,2.45,2.45,0,0,1,.46.74,3.63,3.63,0,0,1,.27,1,3.33,3.33,0,0,1,0,1.14,2.47,2.47,0,0,1-.33.9,2,2,0,0,1-.55.6,1.61,1.61,0,0,1-.71.28,1.36,1.36,0,0,1-.6-.05,2,2,0,0,1-.58-.31l.15.77.2,1.44Zm1.73-3.18a.77.77,0,0,0,.56-.43,1.88,1.88,0,0,0,.1-1.14c-.12-.88-.45-1.29-1-1.22a1.16,1.16,0,0,0-.74.56l.28,2a1.19,1.19,0,0,0,.41.2A1.23,1.23,0,0,0,92.52,42.56Z"/><path class="cls-5" d="M99.63,42.79a1.71,1.71,0,0,1-.76,0,1.3,1.3,0,0,1-.55-.31,1.71,1.71,0,0,1-.37-.56,3,3,0,0,1-.19-.77l-.28-2-.64.09-.15-1.08L97.4,38l0-1.33,1.15-.16.18,1.31,1.12-.15.16,1.13-1.12.16.27,2a1,1,0,0,0,.24.58.62.62,0,0,0,.47.12.9.9,0,0,0,.22-.06,1,1,0,0,0,.21-.1l.36,1-.43.18A2.74,2.74,0,0,1,99.63,42.79Z"/><path class="cls-5" d="M101.33,36.69a.82.82,0,0,1-.6-.13.73.73,0,0,1-.3-.52.66.66,0,0,1,.15-.58.91.91,0,0,1,1.15-.15.68.68,0,0,1,.29.51.7.7,0,0,1-.14.58A.8.8,0,0,1,101.33,36.69Zm.09,5.73-.68-4.91,1.38-.19.68,4.91Z"/><path class="cls-5" d="M103.89,35.2l-.47.51-1.15-1,.66-.62Zm2.23,6.7a2.57,2.57,0,0,1-1,0,2.16,2.16,0,0,1-.82-.4,2.35,2.35,0,0,1-.61-.74,3.22,3.22,0,0,1-.33-1.06,3.08,3.08,0,0,1,0-1.1,2.62,2.62,0,0,1,.39-.88,2.15,2.15,0,0,1,.63-.61,2.1,2.1,0,0,1,.79-.29,1.91,1.91,0,0,1,.9.06,1.74,1.74,0,0,1,.69.41,2.21,2.21,0,0,1,.47.7,3.21,3.21,0,0,1,.25.91c0,.14,0,.26,0,.38a2.18,2.18,0,0,1,0,.28l-2.79.38a1.15,1.15,0,0,0,1.36.87,1.86,1.86,0,0,0,1-.46l.58.82a3,3,0,0,1-.74.51A2.74,2.74,0,0,1,106.12,41.9Zm-1.92-5.57-.52-.45.75-1,1.09-.15,1,.79-.37.58-1.05-.51h0Zm.46,2.6,1.68-.23a1.21,1.21,0,0,0-.27-.65.67.67,0,0,0-.64-.17.87.87,0,0,0-.55.3A1.26,1.26,0,0,0,104.66,38.93Z"/><path class="cls-5" d="M108.89,41.4l-.68-4.92,1.13-.15.18.61h0a4.85,4.85,0,0,1,.59-.61A1.55,1.55,0,0,1,111,36a1.22,1.22,0,0,1,1.17.37,2.7,2.7,0,0,1,.55,1.41l.42,3-1.39.19-.39-2.86a1.41,1.41,0,0,0-.24-.72.51.51,0,0,0-.46-.14.88.88,0,0,0-.44.19,3.16,3.16,0,0,0-.36.41l.45,3.32Z"/><rect class="cls-5" x="90.53" y="106.53" width="27.23" height="5.65" transform="translate(-14.45 15.86) rotate(-8.15)"/><path class="cls-13" d="M97,111.34a.36.36,0,0,1-.18,0,.35.35,0,0,1-.16-.08.4.4,0,0,1-.12-.16.64.64,0,0,1-.06-.22.54.54,0,0,1,0-.22.62.62,0,0,1,.07-.19.37.37,0,0,1,.13-.12.48.48,0,0,1,.18-.06.32.32,0,0,1,.17,0l.13.07-.06.1a.24.24,0,0,0-.11-.06.23.23,0,0,0-.12,0,.29.29,0,0,0-.13,0,.27.27,0,0,0-.08.1.29.29,0,0,0,0,.14.48.48,0,0,0,0,.17.69.69,0,0,0,0,.17.57.57,0,0,0,.08.13.41.41,0,0,0,.11.07.32.32,0,0,0,.14,0,.29.29,0,0,0,.13,0l.09-.1.08.07a.37.37,0,0,1-.12.13A.43.43,0,0,1,97,111.34Z"/><path class="cls-13" d="M97.83,111.21l-.15-1,.32-.05h.15a.24.24,0,0,1,.12,0,.23.23,0,0,1,.09.08.25.25,0,0,1,0,.13.26.26,0,0,1,0,.2.28.28,0,0,1-.16.12l.33.42-.15,0-.31-.4-.18,0,.06.44Zm0-.56.17,0a.3.3,0,0,0,.18-.07.17.17,0,0,0,0-.16.17.17,0,0,0-.08-.14.38.38,0,0,0-.19,0l-.17,0Z"/><path class="cls-13" d="M99,111l-.14-1,.59-.09V110l-.46.07,0,.32.39-.06v.12l-.39,0,.06.37.48-.06V111Z"/><path class="cls-13" d="M100,110.89l.2-1.08.14,0,.5,1-.14,0-.14-.3-.38.05,0,.33Zm.23-.62,0,.16.31,0-.07-.15c0-.06,0-.11-.08-.16s-.05-.11-.07-.17h0c0,.06,0,.12,0,.18Z"/><path class="cls-13" d="M101.47,110.69l-.14-.92-.3,0,0-.11.75-.11,0,.11-.31,0,.13.92Z"/><path class="cls-13" d="M102.41,110.55l-.15-1,.59-.08,0,.11-.46.06,0,.33.39-.06,0,.11-.39.06,0,.37.48-.07,0,.11Z"/><path class="cls-13" d="M104,110.32l.2-1.08.15,0,.49,1-.14,0-.14-.3-.37,0-.06.33Zm.23-.62,0,.16.31,0-.07-.15-.08-.17s-.05-.11-.07-.17h0c0,.06,0,.12,0,.18Z"/><path class="cls-13" d="M105.72,110.1a.59.59,0,0,1-.19,0,.51.51,0,0,1-.16-.09.58.58,0,0,1-.11-.15.81.81,0,0,1-.07-.22.88.88,0,0,1,0-.23.49.49,0,0,1,.08-.18.37.37,0,0,1,.12-.13.64.64,0,0,1,.18-.06.47.47,0,0,1,.17,0,.41.41,0,0,1,.13.08l-.06.09-.1-.06h-.12l-.13,0a.28.28,0,0,0-.09.1.58.58,0,0,0-.05.14,1.21,1.21,0,0,0,0,.18.85.85,0,0,0,0,.17.38.38,0,0,0,.09.12.26.26,0,0,0,.11.07.2.2,0,0,0,.13,0,.25.25,0,0,0,.13,0,.32.32,0,0,0,.1-.1l.08.07a.3.3,0,0,1-.12.13A.36.36,0,0,1,105.72,110.1Z"/><path class="cls-13" d="M106.88,109.93a.35.35,0,0,1-.18,0,.4.4,0,0,1-.16-.08.48.48,0,0,1-.12-.16,1.14,1.14,0,0,1-.07-.22.59.59,0,0,1,0-.23.56.56,0,0,1,.07-.18.37.37,0,0,1,.13-.12.36.36,0,0,1,.17-.07.36.36,0,0,1,.18,0l.13.07L107,109l-.11-.05a.16.16,0,0,0-.12,0,.21.21,0,0,0-.13,0,.38.38,0,0,0-.09.09.57.57,0,0,0,0,.14.54.54,0,0,0,0,.18.48.48,0,0,0,.05.17.36.36,0,0,0,.08.12.19.19,0,0,0,.11.07.32.32,0,0,0,.14,0,.33.33,0,0,0,.12,0,.47.47,0,0,0,.1-.1l.08.07a.49.49,0,0,1-.12.13A.43.43,0,0,1,106.88,109.93Z"/><path class="cls-13" d="M108,109.76a.37.37,0,0,1-.18,0,.28.28,0,0,1-.15-.08.61.61,0,0,1-.12-.16.71.71,0,0,1-.06-.22.45.45,0,0,1,0-.23.64.64,0,0,1,.06-.18.49.49,0,0,1,.13-.12.43.43,0,0,1,.17-.06.35.35,0,0,1,.18,0,.51.51,0,0,1,.16.09.58.58,0,0,1,.11.15,1,1,0,0,1,.07.21.88.88,0,0,1,0,.23.75.75,0,0,1-.07.18.3.3,0,0,1-.12.13A.35.35,0,0,1,108,109.76Zm0-.11a.31.31,0,0,0,.12-.05.27.27,0,0,0,.08-.1.29.29,0,0,0,0-.14.54.54,0,0,0,0-.18.48.48,0,0,0-.05-.17.32.32,0,0,0-.08-.12.3.3,0,0,0-.11-.07h-.12a.3.3,0,0,0-.21.15.47.47,0,0,0,0,.14.48.48,0,0,0,0,.17.69.69,0,0,0,0,.17.57.57,0,0,0,.08.13.41.41,0,0,0,.11.07A.28.28,0,0,0,108,109.65Z"/><path class="cls-13" d="M109.37,109.57a.38.38,0,0,1-.15,0,.27.27,0,0,1-.12-.06.4.4,0,0,1-.1-.12.65.65,0,0,1-.06-.21l-.09-.6.13,0,.09.61a.54.54,0,0,0,0,.15.22.22,0,0,0,.07.09l.08,0h.1l.09,0a.23.23,0,0,0,.07-.07.3.3,0,0,0,0-.1.92.92,0,0,0,0-.16l-.08-.61.12,0,.09.61a.74.74,0,0,1,0,.21.34.34,0,0,1-.06.15.28.28,0,0,1-.1.09A.37.37,0,0,1,109.37,109.57Z"/><path class="cls-13" d="M110.33,109.42l-.15-1,.14,0,.46.59.14.2h0l0-.16a.51.51,0,0,1,0-.17l-.08-.53.13,0,.14,1-.13,0-.47-.59-.14-.2h0a.94.94,0,0,1,0,.16l0,.16.07.54Z"/><path class="cls-13" d="M111.87,109.2l-.13-.92-.31,0,0-.11.76-.11v.11l-.31.05.13.92Z"/><path class="cls-14" d="M92.72,119.39l.17-.93.13,0,.43.85h-.12L93.2,119l-.32,0,0,.29Zm.2-.53,0,.14.27,0-.06-.13a.61.61,0,0,0-.07-.14l-.06-.15h0a.78.78,0,0,1,0,.16A1,1,0,0,1,92.92,118.86Z"/><path class="cls-14" d="M93.79,119.25a.1.1,0,0,1-.1,0,.16.16,0,0,1,0-.11l-.12-.83.11,0,.12.85v0h0l0,.09h-.06Z"/><path class="cls-14" d="M94.11,119.19l-.09-.66h.09l0,.12h0a.23.23,0,0,1,.07-.11.21.21,0,0,1,.1-.06h.07v.1h-.06a.12.12,0,0,0-.08,0,.32.32,0,0,0-.07.13l.06.43Z"/><path class="cls-14" d="M94.94,119.09a.29.29,0,0,1-.13,0,.27.27,0,0,1-.19-.15.33.33,0,0,1,0-.14.38.38,0,0,1,0-.15.61.61,0,0,1,0-.12.24.24,0,0,1,.09-.08l.1,0h.12a.22.22,0,0,1,.15.14.34.34,0,0,1,0,.12v.07l-.44.06a.24.24,0,0,0,.09.16.18.18,0,0,0,.16,0l.09,0,.07,0,.05.07-.09.06Zm-.26-.37.35,0a.21.21,0,0,0-.07-.15.12.12,0,0,0-.12,0l-.07,0a.12.12,0,0,0,0,0,.15.15,0,0,0,0,.07A.28.28,0,0,0,94.68,118.72Z"/><path class="cls-14" d="M95.58,119a.17.17,0,0,1-.14,0,.2.2,0,0,1-.08-.13.19.19,0,0,1,.08-.18.72.72,0,0,1,.29-.13s0,0,0-.06l0,0,0,0a.16.16,0,0,0-.07,0,.29.29,0,0,0-.1,0l-.09.07,0-.07.11-.08a.46.46,0,0,1,.14,0,.21.21,0,0,1,.18,0,.38.38,0,0,1,.09.19l.05.41h-.09l0-.08h0a.39.39,0,0,1-.1.08A.22.22,0,0,1,95.58,119Zm0-.1a.16.16,0,0,0,.09,0l.08-.08,0-.18-.13,0-.09,0s0,0,0,0a.13.13,0,0,0,0,.06.09.09,0,0,0,0,.08A.14.14,0,0,0,95.6,118.9Z"/><path class="cls-14" d="M96.44,118.87a.21.21,0,0,1-.21-.06.34.34,0,0,1-.11-.24.38.38,0,0,1,0-.15.61.61,0,0,1,0-.12.3.3,0,0,1,.08-.08l.1,0h.11l.09,0,0-.11,0-.25.11,0,.14,1h-.09l0-.08h0a.34.34,0,0,1-.09.08A.18.18,0,0,1,96.44,118.87Zm0-.09.09,0,.07-.08,0-.34s-.06,0-.09,0h-.08l-.07,0a.34.34,0,0,0-.06.06.94.94,0,0,0,0,.09v.1a.3.3,0,0,0,.08.18A.15.15,0,0,0,96.45,118.78Z"/><path class="cls-14" d="M97.12,119.05H97V119h0a.13.13,0,0,0,.09,0,.36.36,0,0,0,0-.11v0l-.36-.63H97l.19.34a.41.41,0,0,0,0,.09l0,.09h0s0-.07,0-.1,0-.07,0-.1l.07-.38h.11l-.15.75a.29.29,0,0,1,0,.09l0,.08a.34.34,0,0,1-.06.06A.16.16,0,0,1,97.12,119.05Z"/><path class="cls-14" d="M98.18,118.61l-.14-1h.11l0,.26V118a.38.38,0,0,1,.09-.09.17.17,0,0,1,.12,0,.17.17,0,0,1,.16,0,.3.3,0,0,1,.07.19l.06.42h-.11l0-.4a.23.23,0,0,0-.05-.13.11.11,0,0,0-.11,0l-.08,0a.36.36,0,0,0-.08.09l.07.47Z"/><path class="cls-14" d="M99.17,118.48a.22.22,0,0,1-.14,0,.21.21,0,0,1,0-.32,1.14,1.14,0,0,1,.3-.12.14.14,0,0,0,0-.06.08.08,0,0,0,0,0s0,0,0,0h-.07l-.1,0L99,118l0-.07.1-.07a.38.38,0,0,1,.15,0,.18.18,0,0,1,.18,0,.33.33,0,0,1,.08.19l.06.4-.09,0,0-.08h0a.24.24,0,0,1-.09.08A.21.21,0,0,1,99.17,118.48Zm0-.09a.32.32,0,0,0,.09,0l.08-.08,0-.19-.14,0-.08,0a.12.12,0,0,0,0,0s0,0,0,.06a.09.09,0,0,0,0,.08Z"/><path class="cls-14" d="M99.94,118.36l-.33-.63.12,0,.18.36,0,.09a.69.69,0,0,1,0,.1h0s0-.07,0-.1,0-.07,0-.11l.07-.39h.11l-.14.69Z"/><path class="cls-14" d="M100.8,118.25a.57.57,0,0,1-.13,0,.3.3,0,0,1-.11-.06.27.27,0,0,1-.08-.1.33.33,0,0,1,0-.14.38.38,0,0,1,0-.15.61.61,0,0,1,0-.12.24.24,0,0,1,.09-.08l.1,0h.12a.2.2,0,0,1,.09.05.15.15,0,0,1,.06.09.42.42,0,0,1,0,.12v.07l-.45.06a.24.24,0,0,0,.09.16.18.18,0,0,0,.16,0,.32.32,0,0,0,.09,0l.07,0,.05.07a.47.47,0,0,1-.09.06A.34.34,0,0,1,100.8,118.25Zm-.26-.37.35,0a.3.3,0,0,0-.06-.15.15.15,0,0,0-.13,0l-.07,0,0,0a.09.09,0,0,0,0,.07A.28.28,0,0,0,100.54,117.88Z"/><path class="cls-14" d="M101.83,118.1a.19.19,0,0,1-.22-.16.19.19,0,0,1,.08-.18.66.66,0,0,1,.29-.12s0,0,0-.06l0,0a.05.05,0,0,0,0,0h-.07l-.1,0-.08.06-.06-.07a.52.52,0,0,1,.11-.07.34.34,0,0,1,.14,0,.21.21,0,0,1,.19,0,.31.31,0,0,1,.08.19l.06.4h-.1l0-.07h0l-.09.08A.28.28,0,0,1,101.83,118.1Zm0-.09.09,0s0,0,.08-.07l0-.19-.13.05a.19.19,0,0,0-.09,0,.1.1,0,0,0,0,0,.13.13,0,0,0,0,.06.11.11,0,0,0,0,.08Z"/><path class="cls-14" d="M102.46,118l-.09-.66.09,0,0,.1h0l.09-.1a.33.33,0,0,1,.12,0,.18.18,0,0,1,.16,0,.38.38,0,0,1,.07.18l.06.42-.11,0-.06-.41a.22.22,0,0,0,0-.13.1.1,0,0,0-.1,0,.11.11,0,0,0-.08,0,.36.36,0,0,0-.08.09l.07.48Z"/><path class="cls-14" d="M103.83,117.82a.22.22,0,0,1-.14,0,.16.16,0,0,1-.07-.13.17.17,0,0,1,.07-.18.88.88,0,0,1,.29-.13.13.13,0,0,0,0-.06l0-.05,0,0h-.06a.2.2,0,0,0-.11,0l-.08.06-.06-.07.11-.07a.34.34,0,0,1,.14,0,.24.24,0,0,1,.19,0,.33.33,0,0,1,.08.19l.06.4-.09,0,0-.08h0l-.09.08A.33.33,0,0,1,103.83,117.82Zm0-.1a.11.11,0,0,0,.08,0,.6.6,0,0,0,.08-.08l0-.18-.14,0-.09,0,0,0a.13.13,0,0,0,0,.06s0,.07,0,.08A.13.13,0,0,0,103.86,117.72Z"/><path class="cls-14" d="M104.73,117.69h-.13a.19.19,0,0,1-.1-.05.25.25,0,0,1-.08-.1.34.34,0,0,1,0-.14.24.24,0,0,1,0-.15.33.33,0,0,1,.05-.12.32.32,0,0,1,.09-.08.28.28,0,0,1,.12,0,.2.2,0,0,1,.11,0,.19.19,0,0,1,.09,0l0,.08-.07,0s0,0-.07,0a.11.11,0,0,0-.08,0,.09.09,0,0,0-.06.06.12.12,0,0,0,0,.09.35.35,0,0,0,0,.2.22.22,0,0,0,0,.08l.07,0h.09a.13.13,0,0,0,.08,0l.06,0,.06.06-.09.08Z"/><path class="cls-14" d="M105.42,117.59a.25.25,0,0,1-.12,0,.22.22,0,0,1-.11,0,.27.27,0,0,1-.08-.1.58.58,0,0,1,0-.14.66.66,0,0,1,0-.15.33.33,0,0,1,.05-.12l.09-.08a.28.28,0,0,1,.12,0,.24.24,0,0,1,.12,0l.08,0,0,.08-.07,0h-.07a.11.11,0,0,0-.08,0s0,0-.06.06a.94.94,0,0,0,0,.09.35.35,0,0,0,0,.2.22.22,0,0,0,.05.08l.07,0h.09a.2.2,0,0,0,.08,0l.06,0,.06.06a.24.24,0,0,1-.09.08Z"/><path class="cls-14" d="M106.11,117.49a.48.48,0,0,1-.12,0l-.11-.06a.27.27,0,0,1-.08-.1.33.33,0,0,1,0-.14.38.38,0,0,1,0-.15.33.33,0,0,1,0-.12.24.24,0,0,1,.09-.08l.11,0a.25.25,0,0,1,.12,0,.22.22,0,0,1,.11,0,.27.27,0,0,1,.08.1.58.58,0,0,1,.05.14.66.66,0,0,1,0,.15.33.33,0,0,1,0,.12.24.24,0,0,1-.09.08A.21.21,0,0,1,106.11,117.49Zm0-.09.07,0,0-.06a.14.14,0,0,0,0-.09.35.35,0,0,0,0-.2.22.22,0,0,0,0-.08l-.07,0H106l-.07,0,0,.06a.16.16,0,0,0,0,.09v.1a.62.62,0,0,0,0,.1.22.22,0,0,0,0,.08l.07,0Z"/><path class="cls-14" d="M106.88,117.38a.17.17,0,0,1-.16,0,.37.37,0,0,1-.08-.19l-.06-.42h.12l.06.4a.2.2,0,0,0,0,.13.12.12,0,0,0,.1,0,.19.19,0,0,0,.09,0,.29.29,0,0,0,.08-.1l-.07-.47h.11l.09.66h-.09l0-.1h0a.39.39,0,0,1-.08.1A.22.22,0,0,1,106.88,117.38Z"/><path class="cls-14" d="M107.53,117.27l-.1-.66h.1l0,.09h0l.09-.09a.22.22,0,0,1,.12,0,.17.17,0,0,1,.16,0,.37.37,0,0,1,.08.19l.06.42h-.12l0-.4a.27.27,0,0,0,0-.13.1.1,0,0,0-.1,0,.19.19,0,0,0-.09,0l-.08.09.07.48Z"/><path class="cls-14" d="M108.58,117.14h-.09a.09.09,0,0,1-.06,0,.18.18,0,0,1-.05-.07.64.64,0,0,1,0-.09l0-.36h-.1v-.08l.1,0v-.19h.09l0,.18.18,0v.09l-.18,0,0,.37a.19.19,0,0,0,0,.09.08.08,0,0,0,.08,0h0l0,0,0,.09-.06,0Z"/><path class="cls-14" d="M109,116.79a.28.28,0,0,1,0-.09s0-.06,0-.09l0-.07,0-.07,0-.07a.15.15,0,0,0,0-.07.2.2,0,0,0,0-.09.11.11,0,0,0-.1,0,.19.19,0,0,0-.08,0,.23.23,0,0,0-.07.07l-.07,0a.2.2,0,0,1,.09-.09.31.31,0,0,1,.13-.06.31.31,0,0,1,.17,0,.2.2,0,0,1,.08.23l0,.08,0,.07,0,.07a.24.24,0,0,0,0,.08.14.14,0,0,0,0,.09Zm.1.28s0,0-.06,0a.1.1,0,0,1,0,0,.08.08,0,0,1,0-.07.05.05,0,0,1,0,0,.06.06,0,0,1,.06,0l0,.06a.14.14,0,0,1,0,.07A.05.05,0,0,1,109.06,117.07Z"/><path class="cls-14" d="M110.21,116.9a.37.37,0,0,1-.18,0,.35.35,0,0,1-.15-.07l.05-.09a.31.31,0,0,0,.13.06.22.22,0,0,0,.14,0,.19.19,0,0,0,.13,0,.13.13,0,0,0,0-.12.08.08,0,0,0,0,0,.08.08,0,0,0,0,0l0,0-.06,0-.14,0-.06,0-.07,0,0-.06,0-.08a.31.31,0,0,1,0-.1.14.14,0,0,1,.05-.08A.27.27,0,0,1,110,116l.11,0a.38.38,0,0,1,.15,0,.31.31,0,0,1,.13.06l-.05.08-.1,0a.25.25,0,0,0-.12,0,.16.16,0,0,0-.11,0,.1.1,0,0,0,0,.1.13.13,0,0,0,0,.06l0,0,0,0,.05,0,.14,0,.07,0,.07,0,0,.06a.24.24,0,0,1,0,.09.17.17,0,0,1,0,.1.41.41,0,0,1,0,.09.22.22,0,0,1-.09.07A.42.42,0,0,1,110.21,116.9Z"/><path class="cls-14" d="M110.72,116a.07.07,0,0,1-.06,0,.05.05,0,0,1,0,0s0,0,0,0a.05.05,0,0,1,0,0h0a.1.1,0,0,1,0,0,.14.14,0,0,1,0,.06Zm.06.81-.1-.66.11,0,.1.66Z"/><path class="cls-14" d="M111.21,116.75l-.09-.67h.09l0,.1h0l.08-.09a.26.26,0,0,1,.12,0,.2.2,0,0,1,.16,0,.33.33,0,0,1,.08.19l.06.42h-.11l-.06-.4a.32.32,0,0,0,0-.13.15.15,0,0,0-.1,0l-.09,0-.08.09.07.48Z"/><path class="cls-14" d="M112.32,116.89h-.11l-.09,0a.18.18,0,0,1-.07,0l0-.07a.15.15,0,0,1,0-.09.33.33,0,0,1,.06-.08h0a.1.1,0,0,1,0,0s0,0,0-.06a.12.12,0,0,1,0-.08.1.1,0,0,1,0,0h0a.13.13,0,0,1-.07-.06.19.19,0,0,1-.05-.1.31.31,0,0,1,0-.1.25.25,0,0,1,0-.09l.08,0a.16.16,0,0,1,.09,0h.1l.22,0,0,.08-.14,0s0,0,.05.05l0,.08a.34.34,0,0,1,0,.1.3.3,0,0,1,0,.08.18.18,0,0,1-.07,0,.16.16,0,0,1-.09,0,0,0,0,0,1,0,0h-.06a.08.08,0,0,0,0,0,.07.07,0,0,0,0,0,.1.1,0,0,0,0,.05h.22a.27.27,0,0,1,.18,0,.13.13,0,0,1,.07.11.14.14,0,0,1,0,.09.16.16,0,0,1-.06.08.22.22,0,0,1-.09.07A.58.58,0,0,1,112.32,116.89Zm-.08-.58.05,0,0,0a.08.08,0,0,0,0,0,.08.08,0,0,0,0-.07.14.14,0,0,0,0-.11.14.14,0,0,0-.11,0,.11.11,0,0,0-.09,0,.21.21,0,0,0,0,.12s0,0,0,.06l0,0,.05,0Zm.09.51.08,0s0,0,.06,0a.1.1,0,0,0,0,0s0,0,0,0a.05.05,0,0,0,0-.06.17.17,0,0,0-.1,0h-.2s0,0,0,.06a.07.07,0,0,0,0,.06.07.07,0,0,0,.06.07A.32.32,0,0,0,112.33,116.82Z"/><path class="cls-14" d="M113.16,115.66l-.06,0a.05.05,0,0,1,0,0,.07.07,0,0,1,0,0s0,0,0,0h.06a.05.05,0,0,1,0,0,.07.07,0,0,1,0,.06Zm0,.8-.09-.66.11,0,.09.66Z"/><path class="cls-14" d="M113.65,116.4l-.1-.66.1,0,0,.1h0l.09-.1a.33.33,0,0,1,.12,0,.18.18,0,0,1,.16,0,.34.34,0,0,1,.08.18l.06.42-.12,0,0-.41a.32.32,0,0,0-.05-.13.17.17,0,0,0-.1,0,.19.19,0,0,0-.09,0l-.08.09.07.48Z"/><rect class="cls-15" x="77.35" y="100.58" width="1.43" height="1.43" transform="translate(-13.57 12.09) rotate(-8.15)"/><path class="cls-5" d="M81.86,101.08l-.11-.74h.1l.09.66.33,0V101Z"/><path class="cls-5" d="M82.69,101h-.1a.18.18,0,0,1-.09,0,.27.27,0,0,1-.07-.08.56.56,0,0,1,0-.12.53.53,0,0,1,0-.13.3.3,0,0,1,0-.1.23.23,0,0,1,.07-.07l.1,0h.1a.18.18,0,0,1,.09,0l.07.08a.28.28,0,0,1,0,.13.24.24,0,0,1,0,.12.3.3,0,0,1,0,.1.46.46,0,0,1-.07.07Zm0-.08.06,0s0,0,.05,0,0,0,0-.07v-.09l0-.09a.21.21,0,0,0,0-.06.09.09,0,0,0-.06,0s0,0-.06,0a.08.08,0,0,0-.06,0s0,0,0,0a.19.19,0,0,0,0,.07v.09a.24.24,0,0,0,0,.09.21.21,0,0,1,0,.06l.06,0Z"/><path class="cls-5" d="M83.17,100.9l-.07-.56h.07l0,.1h0a.19.19,0,0,1,0-.09.12.12,0,0,1,.09,0h.06v.08h0a.1.1,0,0,0-.07,0,.23.23,0,0,0,0,.11l0,.35Z"/><path class="cls-5" d="M83.87,100.81h-.11l-.09,0a.27.27,0,0,1-.07-.08.34.34,0,0,1,0-.12.53.53,0,0,1,0-.13.18.18,0,0,1,0-.09.16.16,0,0,1,.07-.07l.09,0h.09l.08,0,.06.08,0,.1v.05l-.37.06a.19.19,0,0,0,.07.13.17.17,0,0,0,.14,0l.07,0,.06,0,0,.06-.07,0A.29.29,0,0,1,83.87,100.81Zm-.22-.31.29,0c0-.06,0-.1,0-.12a.11.11,0,0,0-.11,0l0,0a.1.1,0,0,0,0,0,.16.16,0,0,0,0,.06Z"/><path class="cls-5" d="M84.29,100.74l-.08-.56h.08l0,.08h0l.07-.08.09,0a.15.15,0,0,1,.1,0,.16.16,0,0,1,.07.07.35.35,0,0,1,.07-.09.12.12,0,0,1,.09,0,.16.16,0,0,1,.14,0,.34.34,0,0,1,.06.16l0,.35H85l0-.34a.16.16,0,0,0,0-.11.11.11,0,0,0-.08,0,.27.27,0,0,0-.13.1l.06.4-.09,0,0-.34a.23.23,0,0,0,0-.11.09.09,0,0,0-.09,0s-.08,0-.12.1l0,.4Z"/><path class="cls-5" d="M85.58,99.87h0a.05.05,0,0,1,0,0s0,0,0,0a.05.05,0,0,1,0,0h0s0,0,0,0a.09.09,0,0,1,0,0Zm0,.67-.08-.55h.09l.08.55Z"/><path class="cls-5" d="M86,100.73l-.11-.79H86l0,.06h0l.08-.07a.32.32,0,0,1,.09,0,.34.34,0,0,1,.1,0,.18.18,0,0,1,.07,0,.35.35,0,0,1,.06.09l0,.11v.13a.3.3,0,0,1,0,.1.23.23,0,0,1-.07.07.16.16,0,0,1-.09,0,.11.11,0,0,1-.08,0,.13.13,0,0,1-.08,0l0,.1,0,.18Zm.18-.34.07,0,0-.05a.14.14,0,0,0,0-.07.17.17,0,0,0,0-.1.19.19,0,0,0,0-.08l0-.06s0,0-.06,0h-.06a.09.09,0,0,0-.07,0l-.07.07,0,.29.08,0A.06.06,0,0,0,86.21,100.39Z"/><path class="cls-5" d="M86.86,100.38a.24.24,0,0,1-.12,0l-.1,0,0-.07s0,0,.08,0h.09a.15.15,0,0,0,.08,0,.14.14,0,0,0,0-.06l0,0,0,0-.05,0h-.11l0,0a.1.1,0,0,1,0,0,.08.08,0,0,1,0-.05.16.16,0,0,1,0-.07l0,0,.06,0s.05,0,.08,0h.09a.24.24,0,0,1,.09,0l0,.07-.06,0H86.8a.15.15,0,0,0-.08,0,.07.07,0,0,0,0,.06,0,0,0,0,0,0,0l0,0,0,0h.12l0,0a.12.12,0,0,1,.05,0l0,.06a.2.2,0,0,1,0,.07s0,0,0,0a.1.1,0,0,1-.06,0Z"/><path class="cls-5" d="M87.43,100.3a.12.12,0,0,1-.13,0,.26.26,0,0,1-.07-.15l0-.35h.1l0,.33a.16.16,0,0,0,0,.11.11.11,0,0,0,.08,0l.07,0a.29.29,0,0,0,.07-.08l-.06-.39h.09l.08.55h-.07l0-.09h0a.22.22,0,0,1-.07.09A.23.23,0,0,1,87.43,100.3Z"/><path class="cls-5" d="M88,100.21l-.08-.55H88l0,.07h0l.06-.07a.12.12,0,0,1,.09,0,.13.13,0,0,1,.11,0,.22.22,0,0,1,.06.07.24.24,0,0,1,.08-.09.13.13,0,0,1,.09,0,.14.14,0,0,1,.13,0,.26.26,0,0,1,.07.16l0,.35h-.1l0-.33a.14.14,0,0,0,0-.11.1.1,0,0,0-.08,0,.24.24,0,0,0-.13.11l.06.4h-.09l0-.34a.28.28,0,0,0,0-.11.11.11,0,0,0-.08,0,.19.19,0,0,0-.13.11l.06.4Z"/><path class="cls-5" d="M89.5,100a.18.18,0,0,1-.17,0,.34.34,0,0,1-.1-.2.53.53,0,0,1,0-.13.25.25,0,0,1,0-.09.14.14,0,0,1,.06-.07l.09,0h.09l.08,0,0-.09,0-.21.09,0,.12.81h-.08l0-.06h0a.23.23,0,0,1-.07.07A.12.12,0,0,1,89.5,100Zm0-.08a.09.09,0,0,0,.07,0,.17.17,0,0,0,.06-.06l0-.29-.07,0h-.07l-.06,0,0,0s0,.05,0,.07v.09a.26.26,0,0,0,.06.15A.11.11,0,0,0,89.51,99.92Z"/><path class="cls-5" d="M90.25,99.9h-.1a.19.19,0,0,1-.09,0,.22.22,0,0,1-.07-.09.36.36,0,0,1,0-.11.28.28,0,0,1,0-.13.31.31,0,0,1,0-.1.23.23,0,0,1,.07-.07.16.16,0,0,1,.09,0h.1a.19.19,0,0,1,.09.05.27.27,0,0,1,.07.08.56.56,0,0,1,0,.12.28.28,0,0,1,0,.13.31.31,0,0,1,0,.1s0,0-.07.06Zm0-.08.07,0,0,0a.24.24,0,0,0,0-.08.11.11,0,0,0,0-.08.24.24,0,0,0,0-.09l0-.06-.06,0a.08.08,0,0,0-.07,0l-.06,0a.1.1,0,0,0,0,0l0,.07a.28.28,0,0,0,0,.09.29.29,0,0,0,0,.09l0,.06a.09.09,0,0,0,.06,0Z"/><path class="cls-5" d="M90.83,99.81a.08.08,0,0,1-.08,0,.19.19,0,0,1,0-.09l-.1-.7h.1l.1.71a0,0,0,0,0,0,0h0l0,.07h0Z"/><path class="cls-5" d="M91.32,99.74a.17.17,0,0,1-.1,0l-.09,0-.07-.08a.21.21,0,0,1,0-.12.24.24,0,0,1,0-.12.26.26,0,0,1,.11-.17.19.19,0,0,1,.1,0,.17.17,0,0,1,.1,0,.2.2,0,0,1,.09,0,.19.19,0,0,1,.07.08.34.34,0,0,1,0,.12.45.45,0,0,1,0,.12.26.26,0,0,1-.11.17A.17.17,0,0,1,91.32,99.74Zm0-.07.06,0,0,0a.14.14,0,0,0,0-.07v-.09a.19.19,0,0,0,0-.08l0-.07a.09.09,0,0,0-.05,0h-.07l-.06,0,0,0a.14.14,0,0,0,0,.07v.09s0,.06,0,.08a.09.09,0,0,0,0,.06.1.1,0,0,0,0,0Z"/><path class="cls-5" d="M91.81,99.66l-.08-.55h.07l0,.1h0a.21.21,0,0,1,.06-.1.12.12,0,0,1,.08,0H92v.09H92a.11.11,0,0,0-.07,0,.28.28,0,0,0-.05.11l.05.36Z"/><path class="cls-5" d="M92.74,99.54h-.11l-.1-.05,0-.07.08,0h.09a.2.2,0,0,0,.08,0,.07.07,0,0,0,0-.06s0,0,0,0l0,0a.05.05,0,0,0,0,0h0l-.06,0-.06,0,0,0a.08.08,0,0,1,0-.06.06.06,0,0,1,0-.06l0-.06,0,0,.08,0h.1l.08,0,0,.06-.07,0h-.07s-.06,0-.07,0a.08.08,0,0,0,0,.06l0,0,0,0h.09l.06,0,.06,0,.05,0a.14.14,0,0,1,0,.07s0,0,0,.06l0,.06-.06,0Z"/><path class="cls-5" d="M93.11,98.79s0,0,0,0a.05.05,0,0,1,0,0s0,0,0,0,0,0,0,0h0a.05.05,0,0,1,0,0,.07.07,0,0,1,0,0Zm0,.68-.08-.56h.09l.08.55Z"/><path class="cls-5" d="M93.7,99.4h-.08l-.05,0a.1.1,0,0,1,0-.05s0,0,0-.08l0-.3h-.08v-.07l.09,0,0-.16h.08l0,.16.15,0v.07l-.14,0,0,.31a.11.11,0,0,0,0,.08.08.08,0,0,0,.07,0h0l0,0,0,.07,0,0Z"/><path class="cls-5" d="M94.43,99.3a.14.14,0,0,1-.12,0,.17.17,0,0,1-.06-.11.15.15,0,0,1,.06-.15.67.67,0,0,1,.25-.1.43.43,0,0,0,0,0l0,0s0,0,0,0,0,0,0,0a.14.14,0,0,0-.09,0,.18.18,0,0,0-.07.05l0-.06.09-.06a.28.28,0,0,1,.12,0,.17.17,0,0,1,.16,0,.34.34,0,0,1,.07.16l0,.34h-.07l0-.07h0l-.08.07Zm0-.08a.09.09,0,0,0,.07,0l.07-.07,0-.15-.11,0a.29.29,0,0,0-.08,0s0,0,0,0a.11.11,0,0,0,0,0,.07.07,0,0,0,0,.07Z"/><path class="cls-5" d="M95,99.21l-.08-.55H95l0,.07h0l.07-.08a.16.16,0,0,1,.09,0,.14.14,0,0,1,.11,0,.22.22,0,0,1,.06.07.35.35,0,0,1,.07-.09.18.18,0,0,1,.1,0,.14.14,0,0,1,.13,0,.26.26,0,0,1,.06.16l0,.35h-.09l0-.33a.14.14,0,0,0,0-.11.1.1,0,0,0-.08,0,.24.24,0,0,0-.13.11l.06.4H95.3l0-.34a.23.23,0,0,0,0-.11s0,0-.09,0a.21.21,0,0,0-.12.1l.06.41Z"/><path class="cls-5" d="M96.21,99h-.1A.19.19,0,0,1,96,99a.18.18,0,0,1-.07-.08.34.34,0,0,1,0-.12.24.24,0,0,1,0-.12,1,1,0,0,1,0-.1A.27.27,0,0,1,96,98.5a.12.12,0,0,1,.09,0,.14.14,0,0,1,.09,0,.2.2,0,0,1,.08,0,.22.22,0,0,1,0,.08.17.17,0,0,1,0,.1v.06l-.38,0a.24.24,0,0,0,.08.13.21.21,0,0,0,.14,0s0,0,.07,0l.06,0,0,.06-.08.05A.15.15,0,0,1,96.21,99ZM96,98.73l.3,0a.33.33,0,0,0-.05-.12.11.11,0,0,0-.11,0l-.06,0,0,0,0,.06S96,98.71,96,98.73Z"/><path class="cls-5" d="M96.8,99h-.07l-.06,0,0-.06a.14.14,0,0,1,0-.07l-.05-.31h-.08v-.07h.09v-.16h.07l0,.15.15,0v.08l-.15,0,0,.31,0,.07a.08.08,0,0,0,.07,0h.06l0,.06-.05,0Z"/><path class="cls-5" d="M97.12,99.1l0,0a.15.15,0,0,0,.07-.07.15.15,0,0,0,0-.09h-.06a.05.05,0,0,1,0,0,.07.07,0,0,1,0,0l0,0a.09.09,0,0,1,.06,0,.08.08,0,0,1,0,.07.22.22,0,0,1,0,.14A.28.28,0,0,1,97.12,99.1Z"/><path class="cls-5" d="M98,98.79h-.1l-.09,0a.22.22,0,0,1-.07-.09.2.2,0,0,1,0-.11.28.28,0,0,1,0-.13.3.3,0,0,1,0-.1.27.27,0,0,1,.08-.07.17.17,0,0,1,.1,0H98l.08,0,0,.07a.09.09,0,0,0-.06,0h-.06l-.06,0a.12.12,0,0,0,0,0l0,.07v.09a.32.32,0,0,0,0,.09.21.21,0,0,0,0,.06s0,0,.06,0H98s0,0,.07,0a.12.12,0,0,0,.05-.05l0,.06a.13.13,0,0,1-.07.06Z"/><path class="cls-5" d="M98.58,98.71h-.1l-.09,0a.29.29,0,0,1-.07-.08.34.34,0,0,1,0-.12.45.45,0,0,1,0-.12.23.23,0,0,1,0-.1.16.16,0,0,1,.07-.07.17.17,0,0,1,.1,0h.1a.2.2,0,0,1,.09.05.29.29,0,0,1,.07.08.34.34,0,0,1,0,.12.45.45,0,0,1,0,.12.23.23,0,0,1,0,.1.46.46,0,0,1-.07.07Zm0-.08s0,0,.06,0a.12.12,0,0,0,.05,0,.14.14,0,0,0,0-.07v-.09s0-.06,0-.08a.09.09,0,0,0,0-.06.1.1,0,0,0,0,0h-.07s-.05,0-.06,0a.12.12,0,0,0,0,0,.14.14,0,0,0,0,.07v.09a.19.19,0,0,0,0,.08l0,.07,0,0Z"/><path class="cls-5" d="M99.06,98.62,99,98.07h.07l0,.08h0a.27.27,0,0,1,.07-.08.18.18,0,0,1,.1,0,.14.14,0,0,1,.13,0,.26.26,0,0,1,.07.16l.05.35h-.1l0-.34a.28.28,0,0,0-.05-.11s0,0-.08,0l-.07,0-.07.08.06.4Z"/><path class="cls-5" d="M99.92,98.51H99.8l-.1,0,0-.07s.05,0,.08,0h.09a.15.15,0,0,0,.08,0,.07.07,0,0,0,0-.06.05.05,0,0,0,0,0l0,0,0,0H99.8l0,0a.1.1,0,0,1,0,0,.08.08,0,0,1,0,0v-.07l0,0,.06,0s0,0,.08,0h.1s0,0,.08,0l0,.07a.09.09,0,0,0-.06,0h-.07a.15.15,0,0,0-.08,0,.13.13,0,0,0,0,.06,0,0,0,0,0,0,0l0,0,0,0H100l.06,0,0,.05a.16.16,0,0,1,0,.06.2.2,0,0,1,0,.07s0,0,0,0a.1.1,0,0,1-.06,0Z"/><path class="cls-5" d="M100.56,98.42a.41.41,0,0,1-.11,0l-.09,0a.27.27,0,0,1-.07-.08.34.34,0,0,1,0-.12.45.45,0,0,1,0-.12.18.18,0,0,1,0-.1.16.16,0,0,1,.07-.07l.09,0h.09l.08,0,.06.08a.3.3,0,0,1,0,.1v.06l-.37.05a.19.19,0,0,0,.07.13.17.17,0,0,0,.14,0l.07,0,.06,0,0,.06-.07,0A.17.17,0,0,1,100.56,98.42Zm-.22-.31.29,0c0-.06,0-.1,0-.12a.11.11,0,0,0-.11,0l0,0a.1.1,0,0,0,0,0,.33.33,0,0,0,0,.06A.16.16,0,0,0,100.34,98.11Z"/><path class="cls-5" d="M101.2,98.33h-.1a.19.19,0,0,1-.09,0,.27.27,0,0,1-.07-.08.56.56,0,0,1,0-.12.53.53,0,0,1,0-.13.3.3,0,0,1,0-.1.27.27,0,0,1,.08-.07.29.29,0,0,1,.1,0,.27.27,0,0,1,.09,0l.08,0,0,.07-.06,0a.06.06,0,0,0-.06,0l-.07,0a.1.1,0,0,0,0,.05.11.11,0,0,0,0,.08.11.11,0,0,0,0,.08.24.24,0,0,0,0,.09l0,.06s0,0,.06,0h.07a.11.11,0,0,0,.07,0l0,0,.05,0a.27.27,0,0,1-.08.07A.19.19,0,0,1,101.2,98.33Z"/><path class="cls-5" d="M101.75,98.25h-.08l0,0a.21.21,0,0,1,0-.06s0,0,0-.07l0-.31-.08,0v-.08h.09l0-.16h.08l0,.15.15,0v.08l-.14,0,0,.31a.08.08,0,0,0,0,.07.06.06,0,0,0,.07,0h.06l0,.07,0,0Z"/><path class="cls-5" d="M102.25,98.18h-.1a.18.18,0,0,1-.1,0l-.07-.08a.53.53,0,0,1,0-.12.28.28,0,0,1,0-.13.3.3,0,0,1,0-.1l.07-.07.09,0h.1s0,0,.08,0a.18.18,0,0,1,0,.07l0,.11v0l-.38.06a.2.2,0,0,0,.08.13.14.14,0,0,0,.13,0l.08,0a.1.1,0,0,0,0,0l.05.06-.08.05Zm-.22-.31.3,0a.23.23,0,0,0-.06-.13.12.12,0,0,0-.1,0,.07.07,0,0,0-.06,0,.08.08,0,0,0,0,0l0,.05A.22.22,0,0,0,102,97.87Z"/><path class="cls-5" d="M102.84,98.09h-.08a.05.05,0,0,1-.05,0l0,0s0-.05,0-.08l0-.3h-.08v-.07l.09,0,0-.16h.08l0,.16.14,0v.07l-.14,0,0,.3a.1.1,0,0,0,0,.08.08.08,0,0,0,.07,0h0l0,0,0,.07,0,0Z"/><path class="cls-5" d="M103.3,98a.14.14,0,0,1-.14,0,.26.26,0,0,1-.06-.15l0-.35.09,0,0,.34a.23.23,0,0,0,0,.11.08.08,0,0,0,.08,0,.11.11,0,0,0,.08,0,.28.28,0,0,0,.06-.08l-.06-.39.1,0,.07.56h-.07l0-.09h0a.22.22,0,0,1-.07.09A.25.25,0,0,1,103.3,98Z"/><path class="cls-5" d="M104.06,97.92a.33.33,0,0,1-.1,0l-.1,0-.07-.08a.27.27,0,0,1,0-.12.28.28,0,0,1,0-.13.25.25,0,0,1,0-.09.27.27,0,0,1,.07-.08l.09,0h.1l.07,0a.17.17,0,0,1,.06.08l0,.1v.05l-.37.06a.2.2,0,0,0,.08.13.14.14,0,0,0,.13,0l.07,0a.13.13,0,0,0,.06,0l0,.06-.08,0A.29.29,0,0,1,104.06,97.92Zm-.22-.31.3,0a.17.17,0,0,0-.06-.12.11.11,0,0,0-.11,0l0,0a.08.08,0,0,0,0,0,.06.06,0,0,0,0,.06A.15.15,0,0,0,103.84,97.61Z"/><path class="cls-5" d="M104.48,97.85l-.07-.56h.07l0,.1h0a.19.19,0,0,1,0-.09.12.12,0,0,1,.09,0,.06.06,0,0,1,.06,0v.08h0a.1.1,0,0,0-.07,0,.23.23,0,0,0,0,.11l0,.35Z"/><path class="cls-5" d="M105.41,97.73a.16.16,0,0,1-.12,0,.14.14,0,0,1-.07-.11.15.15,0,0,1,.06-.15.76.76,0,0,1,.25-.1.07.07,0,0,0,0,0s0,0,0,0l0,0a.06.06,0,0,0-.06,0,.16.16,0,0,0-.09,0l-.07,0,0-.06.08-.06a.28.28,0,0,1,.12,0,.17.17,0,0,1,.16,0,.34.34,0,0,1,.07.16l.05.33-.08,0,0-.07h0l-.08.07Zm0-.08.08,0,.06-.07,0-.15-.11,0s-.06,0-.07,0,0,0,0,0a.11.11,0,0,0,0,0s0,.06,0,.07Z"/><path class="cls-5" d="M106.12,97.62a.18.18,0,0,1-.17-.05.29.29,0,0,1-.09-.2.28.28,0,0,1,0-.13.25.25,0,0,1,0-.09.22.22,0,0,1,.06-.07l.09,0h.09l.08,0,0-.09,0-.21.09,0,.12.81-.08,0,0-.07h0a.23.23,0,0,1-.07.07A.12.12,0,0,1,106.12,97.62Zm0-.08a.13.13,0,0,0,.08,0,.16.16,0,0,0,.05-.06l0-.29-.07,0h-.07l-.06,0,0,0a.36.36,0,0,0,0,.07v.09a.26.26,0,0,0,.06.15A.11.11,0,0,0,106.13,97.54Z"/><path class="cls-5" d="M106.6,96.86s0,0,0,0a.05.05,0,0,1,0,0s0,0,0,0,0,0,0,0h0s0,0,0,0a.07.07,0,0,1,0,0Zm.05.68-.08-.56h.09l.08.55Z"/><path class="cls-5" d="M107.05,97.72l-.11-.79H107l0,.06h0s0,0,.08-.06a.18.18,0,0,1,.09,0,.13.13,0,0,1,.09,0,.2.2,0,0,1,.08,0l.06.09,0,.11v.13a1,1,0,0,1,0,.1.46.46,0,0,1-.07.07.16.16,0,0,1-.09,0,.22.22,0,0,1-.08,0l-.08,0v.1l0,.18Zm.18-.33.06,0,0,0a.14.14,0,0,0,0-.07.17.17,0,0,0,0-.1.24.24,0,0,0,0-.08l0-.06-.06,0h-.06a.15.15,0,0,0-.07,0,.23.23,0,0,0-.07.07l0,.29a.13.13,0,0,0,.08,0Z"/><path class="cls-5" d="M107.68,96.71h-.05a.08.08,0,0,1,0,0,.07.07,0,0,1,0,0l0,0s0,0,0,0,0,0,0,0a.09.09,0,0,1,0,0Zm0,.67-.08-.55h.09l.08.55Z"/><path class="cls-5" d="M108.24,97.32a.24.24,0,0,1-.12,0l-.1,0,0-.06.08,0h.09s.07,0,.08,0a.07.07,0,0,0,0-.06.05.05,0,0,0,0,0l0,0,0,0h0l-.06,0-.06,0,0,0a.08.08,0,0,1,0-.06.13.13,0,0,1,0-.06.05.05,0,0,1,0,0,.12.12,0,0,1,0,0l.08,0h.1a.11.11,0,0,1,.08,0l0,.06-.06,0h-.07s-.06,0-.07,0a.07.07,0,0,0,0,.06s0,0,0,0,0,0,0,0h0l0,0h.06l.06,0s0,0,0,0a.09.09,0,0,1,0,.07v.06a.21.21,0,0,1,0,.06s0,0,0,0Z"/><path class="cls-5" d="M108.87,97.23h-.1l-.09,0a.27.27,0,0,1-.07-.08.21.21,0,0,1,0-.12.28.28,0,0,1,0-.13.3.3,0,0,1,0-.1l.08-.07.1,0h.09l.08,0,0,.07-.06,0s0,0-.06,0l-.06,0s0,0,0,0l0,.08V97s0,.06,0,.08a.13.13,0,0,0,0,.06l.06,0h.07l.07,0s0,0,0,0l.05,0a.23.23,0,0,1-.07.07A.17.17,0,0,1,108.87,97.23Z"/><path class="cls-5" d="M109.21,96.49h0a.05.05,0,0,1,0,0,.09.09,0,0,1,0,0l0,0h0s0,0,0,0a.06.06,0,0,1,0,0A.05.05,0,0,1,109.21,96.49Zm.05.67-.08-.55h.09l.08.55Z"/><path class="cls-5" d="M109.62,97.11l-.08-.55h.08l0,.07h0l.08-.07a.19.19,0,0,1,.1,0,.18.18,0,0,1,.13,0,.27.27,0,0,1,.06.16l0,.35H110l0-.34a.16.16,0,0,0,0-.11.08.08,0,0,0-.08,0s0,0-.08,0a.81.81,0,0,0-.06.08l.06.4Z"/><path class="cls-5" d="M110.55,97.24h-.09l-.08,0a.1.1,0,0,1,0,0l0-.06a.17.17,0,0,1,0-.07s0,0,.06-.07h0l0,0s0,0,0,0a.15.15,0,0,1,0-.07s0,0,0,0h0l-.06,0a.14.14,0,0,1,0-.09.11.11,0,0,1,0-.08.16.16,0,0,1,0-.07.1.1,0,0,1,.06,0l.08,0s0,0,0,0h0l.19,0v.07l-.12,0a.08.08,0,0,1,0,0s0,0,0,.07a.22.22,0,0,1,0,.08l0,.07-.06,0-.08,0h-.08l0,0v0s0,0,0,0h.08l.1,0a.33.33,0,0,1,.15,0,.1.1,0,0,1,.06.1.09.09,0,0,1,0,.07.18.18,0,0,1,0,.07l-.08,0Zm-.07-.5h0l0,0s0,0,0,0V96.6s0-.08,0-.09a.1.1,0,0,0-.16,0,.11.11,0,0,0,0,.1.07.07,0,0,0,0,.05.08.08,0,0,0,0,0,.05.05,0,0,0,0,0A0,0,0,0,0,110.48,96.74Zm.08.43.07,0,.05,0,0,0a.09.09,0,0,0,0,0,.1.1,0,0,0,0,0,.26.26,0,0,0-.09,0h-.16a.1.1,0,0,0,0,0,.07.07,0,0,0,0,0,.12.12,0,0,0,.06.06A.23.23,0,0,0,110.56,97.17Z"/><path class="cls-5" d="M111.53,96.85a.4.4,0,0,1-.11,0,.19.19,0,0,1-.09,0,.27.27,0,0,1-.07-.08.34.34,0,0,1,0-.12.24.24,0,0,1,0-.12.31.31,0,0,1,0-.1.23.23,0,0,1,.07-.07.12.12,0,0,1,.09,0,.14.14,0,0,1,.09,0,.2.2,0,0,1,.08,0,.22.22,0,0,1,.05.08.17.17,0,0,1,0,.1v.06l-.38,0a.24.24,0,0,0,.08.13.17.17,0,0,0,.14,0l.07,0,.06,0,0,.06-.08,0A.14.14,0,0,1,111.53,96.85Zm-.23-.31.3,0a.23.23,0,0,0,0-.12.11.11,0,0,0-.11,0l-.06,0s0,0,0,0a.16.16,0,0,0,0,.06S111.3,96.51,111.3,96.54Z"/><path class="cls-5" d="M112.05,96.78a.1.1,0,0,1-.08,0s0,0,0-.08l-.1-.7.1,0,.1.71s0,0,0,0h0l0,.07h0Z"/><path class="cls-5" d="M112.28,96.05h0s0,0,0,0a.09.09,0,0,1,0,0l.05,0h0a.05.05,0,0,1,0,0,.09.09,0,0,1,0,0Zm0,.67-.08-.55h.1l.08.55Z"/><path class="cls-5" d="M112.86,96.66h-.07l-.06,0,0-.06a.14.14,0,0,1,0-.07l0-.31-.09,0v-.08h.09V96h.08l0,.15.15,0v.08l-.15,0,0,.31a.16.16,0,0,0,0,.07s0,0,.06,0h.07l0,.06,0,0Z"/><path class="cls-5" d="M113.18,96.8l0,0a.13.13,0,0,0,.06-.07.15.15,0,0,0,0-.09h-.06a.05.05,0,0,1,0,0,.07.07,0,0,1,0-.05l0,0s0,0,.06,0a.08.08,0,0,1,0,.07.22.22,0,0,1,0,.14A.28.28,0,0,1,113.18,96.8Z"/><path class="cls-5" d="M114,96.5h-.11a.23.23,0,0,1-.1,0l0-.07.08,0a.17.17,0,0,0,.1,0,.08.08,0,0,0,.07,0,.06.06,0,0,0,0-.07v0l0,0h-.09l-.06,0-.06,0,0,0s0,0,0-.06a.13.13,0,0,1,0-.06.09.09,0,0,1,0-.06l0,0,.08,0a.17.17,0,0,1,.1,0,.2.2,0,0,1,.08,0l0,.06L114,96h-.07s-.06,0-.07,0,0,0,0,0a.05.05,0,0,0,0,0l0,0H114l.06,0,.06,0,.05,0a.14.14,0,0,1,0,.06v.07l0,.06-.06,0Z"/><path class="cls-5" d="M114.63,96.41h-.1l-.1,0a.29.29,0,0,1-.1-.2.28.28,0,0,1,0-.13.3.3,0,0,1,0-.1.46.46,0,0,1,.07-.07.32.32,0,0,1,.09,0h.1l.08,0a.18.18,0,0,1,.05.07l0,.11v0l-.37,0a.22.22,0,0,0,.08.14.14.14,0,0,0,.13,0l.07,0a.15.15,0,0,0,.06,0l0,0-.08.05Zm-.22-.31.3,0a.23.23,0,0,0-.06-.13.17.17,0,0,0-.1,0l-.06,0,0,0,0,.06A.19.19,0,0,0,114.41,96.1Z"/><path class="cls-5" d="M115.25,96.32a.23.23,0,0,1-.18,0,.32.32,0,0,1-.09-.21.24.24,0,0,1,0-.12.3.3,0,0,1,0-.1l.07-.07a.11.11,0,0,1,.08,0h.09l.08,0,0-.09,0-.22h.09l.12.81h-.08v-.06h0l-.07.06A.2.2,0,0,1,115.25,96.32Zm0-.08.07,0a.18.18,0,0,0,0-.07l0-.29a.11.11,0,0,0-.07,0h-.07l-.06,0a.1.1,0,0,0,0,0s0,0,0,.07v.09a.34.34,0,0,0,.06.15A.2.2,0,0,0,115.26,96.24Z"/><path class="cls-5" d="M116.27,96.17a.2.2,0,0,1-.17,0,.34.34,0,0,1-.1-.2.53.53,0,0,1,0-.13.18.18,0,0,1,0-.1l.06-.07.09,0h.09l.08,0,0-.09,0-.21.09,0,.12.81h-.08l0-.06h0a.46.46,0,0,1-.07.07A.12.12,0,0,1,116.27,96.17Zm0-.08a.09.09,0,0,0,.07,0,.22.22,0,0,0,.06-.07l0-.28-.07,0s0,0-.07,0l-.06,0,0,0s0,.05,0,.07v.09a.26.26,0,0,0,.06.15A.13.13,0,0,0,116.28,96.09Z"/><path class="cls-5" d="M116.75,95.41h0a.05.05,0,0,1,0,0,.09.09,0,0,1,0,0l0,0h0s0,0,0,0a.06.06,0,0,1,0,0Zm0,.67-.08-.55h.09l.08.55Z"/><path class="cls-5" d="M117.29,96a.27.27,0,0,1-.12,0,.17.17,0,0,1-.06-.11.15.15,0,0,1,.06-.15.67.67,0,0,1,.25-.1.43.43,0,0,0,0,0l0,0a.05.05,0,0,0,0,0h0l-.09,0-.07.06,0-.06.09-.06a.28.28,0,0,1,.12,0,.17.17,0,0,1,.16,0,.3.3,0,0,1,.06.15l0,.34h-.07l0-.06h0a.23.23,0,0,1-.07.07Zm0-.08.07,0a.46.46,0,0,0,.07-.07l0-.15-.12,0-.07,0a.05.05,0,0,0,0,0,.09.09,0,0,0,0,.05.1.1,0,0,0,0,.07Z"/><path class="cls-5" d="M117.82,95.94l-.08-.56h.08l0,.08h0l.07-.08.09,0a.15.15,0,0,1,.1,0,.16.16,0,0,1,.07.07.35.35,0,0,1,.07-.09.12.12,0,0,1,.09,0,.16.16,0,0,1,.14,0,.3.3,0,0,1,.06.16l0,.35h-.09l0-.34a.23.23,0,0,0,0-.11.11.11,0,0,0-.08,0,.23.23,0,0,0-.13.1l.06.4-.09,0,0-.34a.23.23,0,0,0,0-.11.09.09,0,0,0-.09,0s-.08,0-.12.1l0,.4Z"/><path class="cls-5" d="M119.16,95.75l-.08-.56h.08l0,.08h0l.07-.08.1,0a.14.14,0,0,1,.14,0,.26.26,0,0,1,.06.15l0,.35h-.09l-.05-.33a.23.23,0,0,0,0-.11.12.12,0,0,0-.09,0l-.07,0a.22.22,0,0,0-.06.07l0,.4Z"/><path class="cls-5" d="M120.08,95.63H120l-.09,0a.2.2,0,0,1-.06-.09.21.21,0,0,1,0-.12.24.24,0,0,1,0-.12.3.3,0,0,1,0-.1.27.27,0,0,1,.08-.07.16.16,0,0,1,.09,0h.1l.09,0a.27.27,0,0,1,.07.08.34.34,0,0,1,0,.12.53.53,0,0,1,0,.13.15.15,0,0,1,0,.09.16.16,0,0,1-.07.07Zm0-.08s.05,0,.06,0a.08.08,0,0,0,.05,0,.14.14,0,0,0,0-.07.11.11,0,0,0,0-.08.2.2,0,0,0,0-.09l0-.06-.06,0H120l-.06,0s0,0,0,0,0,0,0,.07v.09l0,.09,0,.06s0,0,0,0Z"/><path class="cls-5" d="M120.57,95.54l-.08-.55h.08v.08h0l.07-.08a.18.18,0,0,1,.1,0,.17.17,0,0,1,.14,0,.34.34,0,0,1,.06.16l.05.35h-.09l0-.33a.19.19,0,0,0,0-.11.12.12,0,0,0-.09,0l-.07,0a.45.45,0,0,0-.07.07l.06.4Z"/><path class="cls-5" d="M121.44,95.43a.16.16,0,0,1-.14,0,.34.34,0,0,1-.06-.16l0-.35h.09l0,.33a.19.19,0,0,0,0,.11s0,0,.09,0l.07,0,.06-.09,0-.39h.09l.08.55h-.08l0-.08h0l-.07.08A.18.18,0,0,1,121.44,95.43Z"/><path class="cls-5" d="M122,95.34l-.08-.55H122l0,.08h0a.27.27,0,0,1,.07-.08.13.13,0,0,1,.09,0,.16.16,0,0,1,.1,0,.13.13,0,0,1,.06.07l.08-.09.09,0a.12.12,0,0,1,.13,0,.21.21,0,0,1,.07.15l0,.35-.09,0-.05-.34a.23.23,0,0,0,0-.11.11.11,0,0,0-.08,0,.22.22,0,0,0-.13.11l.06.4h-.1l0-.33a.14.14,0,0,0,0-.11.1.1,0,0,0-.08,0,.24.24,0,0,0-.13.11l.06.4Z"/><path class="cls-5" d="M123,95.19l-.07-.55H123l0,.08h0a.27.27,0,0,1,.07-.08l.08,0h.11l.06.07a.6.6,0,0,1,.08-.08.13.13,0,0,1,.09,0,.17.17,0,0,1,.13,0,.21.21,0,0,1,.07.15l0,.35-.1,0,0-.34a.23.23,0,0,0,0-.11.07.07,0,0,0-.08,0s-.08,0-.13.1l.06.4-.09,0,0-.34a.23.23,0,0,0,0-.11.08.08,0,0,0-.08,0s-.09,0-.13.1l.06.4Z"/><path class="cls-5" d="M124.07,95.28H124V95.2h0s.06,0,.07,0a.19.19,0,0,0,0-.09v0l-.3-.52.1,0,.15.29a.25.25,0,0,1,0,.07.59.59,0,0,1,0,.08h0a.22.22,0,0,1,0-.08s0-.06,0-.08l.06-.32.09,0-.13.63a.19.19,0,0,1,0,.08l0,.07,0,.05Z"/><path class="cls-5" d="M125,94.92l-.08-.56H125l0,.08h0l.07-.08.1,0a.16.16,0,0,1,.14,0,.34.34,0,0,1,.06.16l.05.35h-.09l0-.33a.19.19,0,0,0,0-.11.12.12,0,0,0-.09,0l-.07,0a.22.22,0,0,0-.06.07l0,.4Z"/><path class="cls-5" d="M125.62,94.14h-.05l0,0s0,0,0,0a.05.05,0,0,1,0,0h.05a.05.05,0,0,1,0,0s0,0,0,.05A.05.05,0,0,1,125.62,94.14Zm0,.67-.08-.55h.09l.08.55Z"/><path class="cls-5" d="M126.28,94.74h-.08l-.09,0h0v.06H126l-.11-.81H126l0,.22v.1a.27.27,0,0,1,.08-.07.11.11,0,0,1,.08,0h.1l.08,0a.22.22,0,0,1,0,.08.24.24,0,0,1,0,.12.24.24,0,0,1,0,.12.36.36,0,0,1,0,.11s0,0-.06.07A.32.32,0,0,1,126.28,94.74Zm0-.08.06,0a.1.1,0,0,0,0,0s0,0,0-.08v-.09s0-.06,0-.08,0,0,0-.06a.1.1,0,0,0,0,0h-.07a.26.26,0,0,0-.13.09l0,.29a.12.12,0,0,0,.08,0A.06.06,0,0,0,126.25,94.66Z"/><path class="cls-5" d="M126.74,94.66l-.11-.81h.09l0,.22,0,.11.07-.08.1,0a.17.17,0,0,1,.13,0,.22.22,0,0,1,.07.16l0,.35h-.1l0-.34a.16.16,0,0,0,0-.11.07.07,0,0,0-.08,0,.09.09,0,0,0-.07,0,.29.29,0,0,0-.07.08l.06.4Z"/><path class="cls-5" d="M82.27,102.43h-.11l-.09-.05a.27.27,0,0,1-.07-.08.42.42,0,0,1,0-.12.53.53,0,0,1,0-.13.25.25,0,0,1,0-.09.16.16,0,0,1,.07-.07l.09,0h.1l.07,0a.24.24,0,0,1,.06.08l0,.1v0l-.37.06a.23.23,0,0,0,.07.13.17.17,0,0,0,.14,0l.07,0,.06,0,0,.06-.07.05Zm-.22-.31.29,0a.14.14,0,0,0,0-.12.11.11,0,0,0-.11,0l-.05,0,0,0a.08.08,0,0,0,0,.06A.15.15,0,0,0,82.05,102.12Z"/><path class="cls-5" d="M82.86,102.35a.2.2,0,0,1-.14,0,.26.26,0,0,1-.06-.15l0-.36h.09l0,.34a.23.23,0,0,0,0,.11.08.08,0,0,0,.08,0,.11.11,0,0,0,.08,0l.06-.08-.06-.4h.1l.08.55h-.08l0-.08h0l-.07.09A.19.19,0,0,1,82.86,102.35Z"/><path class="cls-5" d="M83.35,101.58h0a.05.05,0,0,1,0,0s0,0,0,0,0,0,0,0h0l0,0a.08.08,0,0,1,0,0A.05.05,0,0,1,83.35,101.58Zm.05.67-.08-.55h.09l.08.55Z"/><path class="cls-5" d="M83.91,102.2h-.12l-.1,0,0-.07.08,0h.09a.1.1,0,0,0,.08,0,.14.14,0,0,0,0-.07l0,0,0,0h0l0,0h-.07l-.05,0,0,0a.14.14,0,0,1,0-.06v-.06l0-.06.06,0,.07,0a.17.17,0,0,1,.1,0l.09,0,0,.07-.06,0h-.07a.15.15,0,0,0-.08,0,.07.07,0,0,0,0,.06s0,0,0,0l0,0,0,0h0l.07,0,.05,0a.1.1,0,0,1,0,0l0,.06a.15.15,0,0,1,0,.07.09.09,0,0,1,0,.06l-.06,0Z"/><path class="cls-5" d="M84.32,102.12l-.08-.55h.08l0,.08h0l.07-.08a.18.18,0,0,1,.09,0,.16.16,0,0,1,.1,0,.23.23,0,0,1,.07.07l.08-.09a.19.19,0,0,1,.09,0,.15.15,0,0,1,.13,0,.35.35,0,0,1,.07.15l0,.35L85,102l0-.34a.16.16,0,0,0,0-.11.07.07,0,0,0-.08,0s-.08,0-.13.1l.06.4h-.09l0-.33a.23.23,0,0,0,0-.11.11.11,0,0,0-.08,0,.22.22,0,0,0-.13.11l.06.4Z"/><path class="cls-5" d="M85.57,102h-.1a.13.13,0,0,1-.09,0,.27.27,0,0,1-.07-.08.56.56,0,0,1,0-.12.28.28,0,0,1,0-.13.31.31,0,0,1,0-.1.16.16,0,0,1,.07-.07.16.16,0,0,1,.09,0h.1a.19.19,0,0,1,.09.05.27.27,0,0,1,.07.08.56.56,0,0,1,0,.12.28.28,0,0,1,0,.13.31.31,0,0,1,0,.1l-.07.07Zm0-.08.07,0,0,0a.19.19,0,0,0,0-.07.14.14,0,0,0,0-.09.29.29,0,0,0,0-.09l0-.06-.06,0h-.07l-.06,0a.1.1,0,0,0,0,0,.19.19,0,0,0,0,.07.14.14,0,0,0,0,.09.24.24,0,0,0,0,.09.21.21,0,0,0,0,.06.09.09,0,0,0,.06,0Z"/><path class="cls-5" d="M86.24,101.86a.2.2,0,0,1-.18,0,.34.34,0,0,1-.09-.2.28.28,0,0,1,0-.13,1,1,0,0,1,0-.1.46.46,0,0,1,.07-.07l.09,0h.08a.19.19,0,0,1,.08,0l0-.09,0-.21.1,0,.11.81h-.07l0-.06h0l-.07.07A.32.32,0,0,1,86.24,101.86Zm0-.08a.09.09,0,0,0,.07,0,.22.22,0,0,0,.06-.07l0-.28-.08,0s0,0-.06,0a.08.08,0,0,0-.06,0,.12.12,0,0,0,0,.05.19.19,0,0,0,0,.07.14.14,0,0,0,0,.09.26.26,0,0,0,.06.15A.13.13,0,0,0,86.25,101.78Z"/><path class="cls-5" d="M87.25,101.72h-.07a.09.09,0,0,1-.06,0l0-.05a.19.19,0,0,1,0-.07l0-.31h-.09v-.07l.09,0V101h.08l0,.15.15,0v.08l-.15,0,0,.3a.34.34,0,0,0,0,.08.08.08,0,0,0,.07,0h0s0,0,0,0l0,.07,0,0Z"/><path class="cls-5" d="M87.5,101h0a.05.05,0,0,1,0,0,0,0,0,0,1,0,0,.05.05,0,0,1,0,0h0l0,0s0,0,0,0Zm0,.67-.08-.55h.09l.08.55Z"/><path class="cls-5" d="M87.91,101.61l-.08-.55h.08l0,.07h0A.6.6,0,0,1,88,101a.25.25,0,0,1,.09,0,.2.2,0,0,1,.14,0,.27.27,0,0,1,.06.16l0,.35h-.09l-.05-.34a.23.23,0,0,0,0-.11.08.08,0,0,0-.08,0,.11.11,0,0,0-.08,0,.28.28,0,0,0-.06.08l0,.4Z"/><path class="cls-5" d="M88.84,101.49a.41.41,0,0,1-.11,0l-.09,0a.24.24,0,0,1-.06-.08.25.25,0,0,1,0-.12.28.28,0,0,1,0-.13.31.31,0,0,1,0-.1.23.23,0,0,1,.07-.07l.1,0a.16.16,0,0,1,.1,0,.15.15,0,0,1,.07,0l0,.07,0,0h-.06l-.07,0a.12.12,0,0,0,0,0,.19.19,0,0,0,0,.08.19.19,0,0,0,0,.08l0,.09,0,.06.06,0s0,0,.07,0a.09.09,0,0,0,.07,0l.06,0,.05,0a.27.27,0,0,1-.08.07A.32.32,0,0,1,88.84,101.49Z"/><path class="cls-5" d="M89.17,100.75h0s0,0,0,0a.07.07,0,0,1,0,0l0,0h0a.05.05,0,0,1,0,0,.09.09,0,0,1,0,0Zm0,.67-.08-.55h.1l.08.55Z"/><path class="cls-5" d="M89.78,101.36a.23.23,0,0,1-.18,0,.34.34,0,0,1-.09-.21.24.24,0,0,1,0-.12.3.3,0,0,1,0-.1.23.23,0,0,1,.07-.07.19.19,0,0,1,.09,0h.08l.08,0,0-.1,0-.21h.1l.11.81H90v-.07h0l-.06.07Zm0-.09.07,0,.06-.07,0-.29-.07,0h-.07l-.06,0,0,.06,0,.07v.08a.26.26,0,0,0,.07.16A.12.12,0,0,0,89.79,101.27Z"/><path class="cls-5" d="M90.46,101.26a.15.15,0,0,1-.13,0,.35.35,0,0,1-.07-.15l-.05-.35.1,0,0,.34a.23.23,0,0,0,0,.11.12.12,0,0,0,.15,0l.07-.08-.06-.39.09,0,.08.55-.07,0,0-.09h0a.31.31,0,0,1-.07.09A.23.23,0,0,1,90.46,101.26Z"/><path class="cls-5" d="M91,101.17l-.08-.56H91l0,.08h0a.27.27,0,0,1,.07-.08l.1,0a.14.14,0,0,1,.13,0,.21.21,0,0,1,.07.15l0,.35-.1,0,0-.34a.16.16,0,0,0,0-.11.07.07,0,0,0-.08,0,.09.09,0,0,0-.07,0,.46.46,0,0,0-.07.07l.06.4Z"/><path class="cls-5" d="M91.89,101.05a.11.11,0,0,1-.08,0,.05.05,0,0,1,0,0,.1.1,0,0,1,0,0s0,0,0-.08l0-.3h-.08v-.07l.08,0v-.16h.08l0,.16.15,0v.07l-.15,0,0,.31a.11.11,0,0,0,0,.08.08.08,0,0,0,.07,0h0l0,0,0,.07,0,0Z"/><path class="cls-5" d="M92.66,100.94a.16.16,0,0,1-.14,0,.26.26,0,0,1-.06-.16l0-.35h.09l0,.34a.23.23,0,0,0,0,.11.11.11,0,0,0,.08,0,.19.19,0,0,0,.08,0s0,0,.06-.09l-.06-.39h.09l.08.55h-.07l0-.08h0a.27.27,0,0,1-.07.08A.15.15,0,0,1,92.66,100.94Z"/><path class="cls-5" d="M93.37,100.84h-.08l-.05,0,0-.06a.14.14,0,0,1,0-.07l0-.31-.08,0v-.07l.09,0v-.16h.08l0,.15.15,0v.08l-.15,0,0,.31a.24.24,0,0,0,0,.07.06.06,0,0,0,.07,0h.06l0,.07,0,0Z"/><path class="cls-5" d="M94.08,100.74a.07.07,0,0,1-.08,0,.19.19,0,0,1,0-.09l-.1-.7H94l.1.7s0,0,0,0h0l0,.06h0Z"/><path class="cls-5" d="M94.48,100.68a.16.16,0,0,1-.12,0,.14.14,0,0,1-.06-.11.15.15,0,0,1,.06-.15.66.66,0,0,1,.25-.11s0,0,0-.05a.08.08,0,0,0,0,0l0,0h-.06l-.08,0-.07,0,0-.06.09-.06a.34.34,0,0,1,.12,0,.17.17,0,0,1,.15,0,.26.26,0,0,1,.07.16l0,.34h-.08v-.06h0l-.07.07A.17.17,0,0,1,94.48,100.68Zm0-.08a.09.09,0,0,0,.07,0l.07-.06,0-.16-.12,0-.07,0,0,0s0,0,0,0a.07.07,0,0,0,0,.06A.08.08,0,0,0,94.5,100.6Z"/><path class="cls-5" d="M95.23,100.58h-.1a.19.19,0,0,1-.09,0,.31.31,0,0,1-.07-.09.34.34,0,0,1,0-.12.24.24,0,0,1,0-.12.31.31,0,0,1,0-.1.23.23,0,0,1,.07-.07.16.16,0,0,1,.09,0,.17.17,0,0,1,.1,0,.19.19,0,0,1,.09,0,.27.27,0,0,1,.07.08.42.42,0,0,1,0,.12.28.28,0,0,1,0,.13.26.26,0,0,1,0,.09.16.16,0,0,1-.07.07Zm0-.08a.09.09,0,0,0,.07,0,.1.1,0,0,0,0,0,.14.14,0,0,0,0-.07.14.14,0,0,0,0-.09.19.19,0,0,0,0-.08l0-.06-.06,0h-.07l-.06,0a.1.1,0,0,0,0,.05.19.19,0,0,0,0,.07.14.14,0,0,0,0,.09.19.19,0,0,0,0,.08.43.43,0,0,0,0,.07s0,0,.06,0Z"/><path class="cls-5" d="M95.71,100.49l-.08-.55h.08l0,.1h0a.35.35,0,0,1,.06-.09.18.18,0,0,1,.08,0h.07V100h-.06s0,0-.07,0a.23.23,0,0,0,0,.1l0,.36Z"/><path class="cls-5" d="M96.4,100.41h-.1a.19.19,0,0,1-.09,0s-.06,0-.07-.09a.21.21,0,0,1,0-.11.28.28,0,0,1,0-.13.3.3,0,0,1,0-.1.46.46,0,0,1,.07-.07.32.32,0,0,1,.09,0h.1l.08,0a.18.18,0,0,1,0,.07.2.2,0,0,1,0,.11v0l-.38.06a.29.29,0,0,0,.08.13.17.17,0,0,0,.14,0l.07,0,.06,0,0,0-.08.05Zm-.22-.31.3,0a.23.23,0,0,0-.06-.13.15.15,0,0,0-.1,0l-.06,0,0,0,0,.06A.19.19,0,0,0,96.18,100.1Z"/><path class="cls-5" d="M97.05,100.31H97a.19.19,0,0,1-.1,0,.17.17,0,0,1-.06-.08.21.21,0,0,1,0-.12.24.24,0,0,1,0-.12.3.3,0,0,1,0-.1.46.46,0,0,1,.07-.07.16.16,0,0,1,.09,0h.1a.14.14,0,0,1,.08.05.13.13,0,0,1,.05.07.18.18,0,0,1,0,.11v0l-.38,0a.2.2,0,0,0,.08.13.16.16,0,0,0,.13,0s0,0,.07,0l.07,0,0,.06-.08,0A.17.17,0,0,1,97.05,100.31Zm-.22-.3.3-.05a.23.23,0,0,0-.06-.12.09.09,0,0,0-.1,0l-.06,0s0,0,0,0l0,.06A.19.19,0,0,0,96.83,100Z"/><path class="cls-5" d="M97.64,100.23h-.07l-.06,0,0-.06a.14.14,0,0,1,0-.07l0-.31h-.08V99.7h.09v-.16h.07l0,.15.15,0v.08l-.15,0,0,.31a.24.24,0,0,0,0,.07.06.06,0,0,0,.07,0h.06l0,.07,0,0Z"/><path class="cls-5" d="M98.44,100.12a.23.23,0,0,1-.18-.05.34.34,0,0,1-.09-.21.24.24,0,0,1,0-.12.3.3,0,0,1,0-.1l.07-.07a.12.12,0,0,1,.09,0,.11.11,0,0,1,.08,0l.08,0,0-.1,0-.21h.1l.11.81h-.08V100h0l-.06.07Zm0-.09.07,0,.06-.07,0-.29-.08,0h-.07l-.06,0,0,.06,0,.07v.08a.26.26,0,0,0,.07.16A.12.12,0,0,0,98.45,100Z"/><path class="cls-5" d="M99.18,100h-.1a.18.18,0,0,1-.09,0,.27.27,0,0,1-.07-.08.56.56,0,0,1,0-.12.53.53,0,0,1,0-.13.18.18,0,0,1,0-.1.23.23,0,0,1,.07-.07l.1,0h.1a.18.18,0,0,1,.09,0,.24.24,0,0,1,.06.08.4.4,0,0,1,0,.25.3.3,0,0,1,0,.1.27.27,0,0,1-.08.07Zm0-.08.06,0,0,0s0,0,0-.07V99.7l0-.09a.21.21,0,0,0,0-.06.13.13,0,0,0-.06,0s0,0-.06,0l-.07,0,0,0a.19.19,0,0,0,0,.08.11.11,0,0,0,0,.08.24.24,0,0,0,0,.09l0,.06.06,0Z"/><path class="cls-5" d="M99.76,99.93l-.08,0a.19.19,0,0,1,0-.09l-.1-.7.09,0,.1.71s0,0,0,0h0l0,.07h-.06Z"/><path class="cls-5" d="M100.25,99.86h-.09a.19.19,0,0,1-.09,0,.31.31,0,0,1-.07-.09.21.21,0,0,1,0-.12.24.24,0,0,1,0-.12.3.3,0,0,1,0-.1.27.27,0,0,1,.08-.07.16.16,0,0,1,.09,0,.17.17,0,0,1,.1,0l.09,0a.27.27,0,0,1,.07.08.42.42,0,0,1,0,.12.28.28,0,0,1,0,.13.26.26,0,0,1,0,.09.16.16,0,0,1-.07.07Zm0-.08s.05,0,.07,0a.1.1,0,0,0,0,0,.14.14,0,0,0,0-.07.14.14,0,0,0,0-.09.19.19,0,0,0,0-.08.15.15,0,0,0,0-.06l-.06,0h-.07l-.06,0a.1.1,0,0,0,0,.05l0,.07v.09l0,.08a.16.16,0,0,0,0,.07l.06,0Z"/><path class="cls-5" d="M100.74,99.77l-.08-.55h.08l0,.1h0a.35.35,0,0,1,.06-.09.14.14,0,0,1,.08,0H101v.09h-.06s0,0-.07,0a.23.23,0,0,0,0,.1l0,.36Z"/><path class="cls-5" d="M101.43,99.69h-.1l-.1,0a.2.2,0,0,1-.06-.09.21.21,0,0,1,0-.11.28.28,0,0,1,0-.13.3.3,0,0,1,0-.1.27.27,0,0,1,.08-.07.19.19,0,0,1,.08,0h.1a.12.12,0,0,1,.08,0,.18.18,0,0,1,0,.07.2.2,0,0,1,0,.11v0l-.38,0a.27.27,0,0,0,.08.14.15.15,0,0,0,.13,0l.08,0,.06,0,0,0-.08.05Zm-.22-.31.3,0a.23.23,0,0,0-.06-.13.15.15,0,0,0-.1,0l-.06,0,0,0,0,.06A.19.19,0,0,0,101.21,99.38Z"/><path class="cls-5" d="M102.17,99.57l-.08-.55.08,0,0,.08h0l.07-.08.09,0a.15.15,0,0,1,.1,0,.16.16,0,0,1,.07.07.35.35,0,0,1,.07-.09.18.18,0,0,1,.09,0,.17.17,0,0,1,.14,0,.34.34,0,0,1,.06.16l.05.35h-.09l0-.34a.19.19,0,0,0,0-.1.08.08,0,0,0-.08,0,.19.19,0,0,0-.13.11l.06.4h-.1l0-.34a.43.43,0,0,0,0-.11.1.1,0,0,0-.09,0,.21.21,0,0,0-.12.1l.05.4Z"/><path class="cls-5" d="M103.33,99.42a.28.28,0,0,1-.13,0,.17.17,0,0,1-.06-.11.15.15,0,0,1,.06-.15.67.67,0,0,1,.25-.1.43.43,0,0,0,0,0l0,0a.05.05,0,0,0,0,0h-.05l-.09,0a.18.18,0,0,0-.07,0l0-.06.08-.06a.28.28,0,0,1,.12,0,.17.17,0,0,1,.16,0,.3.3,0,0,1,.07.16l0,.33h-.07l0-.06h0l-.08.07Zm0-.08.07,0a.23.23,0,0,0,.07-.07l0-.15a.23.23,0,0,0-.11,0l-.08,0,0,0a.11.11,0,0,0,0,.05s0,.06,0,.07Z"/><path class="cls-5" d="M104.08,99.55H104l-.07,0-.06,0a.14.14,0,0,1,0-.06.09.09,0,0,1,0-.07.18.18,0,0,1,0-.07h0l0,0a.11.11,0,0,1,0-.06.07.07,0,0,1,0-.06l0-.05h0a.17.17,0,0,1-.06-.06.11.11,0,0,1,0-.08.21.21,0,0,1,0-.08.16.16,0,0,1,0-.07l.06,0,.08,0H104l.19,0v.07l-.11,0s0,0,0,0a.14.14,0,0,1,0,.06.28.28,0,0,1,0,.09.09.09,0,0,1,0,.06l-.06,0-.08,0h-.08s0,0,0,0,0,0,0,0,0,0,0,0h.19a.21.21,0,0,1,.14,0,.13.13,0,0,1,.07.09.22.22,0,0,1,0,.08l0,.07-.08,0A.2.2,0,0,1,104.08,99.55Zm-.08-.49h0l0,0s0,0,0,0a.06.06,0,0,0,0-.06.13.13,0,0,0,0-.09l-.09,0a.14.14,0,0,0-.08,0,.11.11,0,0,0,0,.1.08.08,0,0,0,0,0l0,0,0,0Zm.08.43.07,0a.1.1,0,0,0,0,0s0,0,0,0a.06.06,0,0,0,0,0s0,0,0,0H104l0,0s0,0,0,0,0,0,0,.07Z"/><path class="cls-5" d="M104.51,99.23l-.08-.55h.08l0,.08h0a.3.3,0,0,1,.08-.08.15.15,0,0,1,.09,0,.16.16,0,0,1,.14,0,.34.34,0,0,1,.06.16l0,.35h-.09l0-.33a.19.19,0,0,0,0-.11.08.08,0,0,0-.08,0l-.08,0a.22.22,0,0,0-.06.07l0,.4Z"/><path class="cls-5" d="M105.35,99.13a.21.21,0,0,1-.12,0,.14.14,0,0,1-.07-.11.15.15,0,0,1,.06-.15.76.76,0,0,1,.25-.1.43.43,0,0,0,0,0l0,0,0,0a.06.06,0,0,0-.06,0,.16.16,0,0,0-.09,0,.18.18,0,0,0-.07,0l0-.06.08-.06a.28.28,0,0,1,.12,0,.17.17,0,0,1,.16,0,.3.3,0,0,1,.07.16l.05.33h-.08l0-.06h0a.27.27,0,0,1-.08.07Zm0-.08.08,0,.06-.07,0-.15-.11,0a.2.2,0,0,0-.08,0l0,0a.11.11,0,0,0,0,0s0,.06,0,.07Z"/><path class="cls-5" d="M106.32,99a.16.16,0,0,1-.12,0,.14.14,0,0,1-.07-.11.15.15,0,0,1,.06-.15.76.76,0,0,1,.25-.1.07.07,0,0,0,0,0s0,0,0,0l0,0s0,0-.06,0a.16.16,0,0,0-.09,0l-.07,0,0-.06.08-.06a.28.28,0,0,1,.12,0,.17.17,0,0,1,.16,0,.34.34,0,0,1,.07.16l0,.33-.08,0,0-.07h0l-.08.07Zm0-.08a.13.13,0,0,0,.08,0l.06-.07,0-.15-.11,0-.07,0a.1.1,0,0,0,0,.05.06.06,0,0,0,0,0s0,.06,0,.07Z"/><path class="cls-5" d="M107,98.9s-.07,0-.08,0a.13.13,0,0,1,0-.09l-.1-.7h.09l.1.7s0,0,0,0h0l0,.07h0Z"/><path class="cls-5" d="M107.17,98.17h0a.05.05,0,0,1,0,0,.09.09,0,0,1,0-.05l0,0h0s0,0,0,0a.07.07,0,0,1,0,.05Zm0,.67-.08-.55h.09l.08.55Z"/><path class="cls-5" d="M108,99l0-.2v-.1s0,0-.07.06a.19.19,0,0,1-.09,0,.22.22,0,0,1-.17,0,.32.32,0,0,1-.09-.21.24.24,0,0,1,0-.12.3.3,0,0,1,0-.1.23.23,0,0,1,.07-.07.11.11,0,0,1,.08,0,.14.14,0,0,1,.09,0l.08,0h0v0H108l.11.78Zm-.18-.28.06,0s.05,0,.06-.07l0-.29a.11.11,0,0,0-.07,0h-.07l-.06,0a.1.1,0,0,0,0,0s0,0,0,.07v.09a.3.3,0,0,0,.06.15A.16.16,0,0,0,107.79,98.7Z"/><path class="cls-5" d="M108.46,98.68a.14.14,0,0,1-.13,0,.26.26,0,0,1-.07-.16l-.05-.35h.1l0,.33a.14.14,0,0,0,0,.11.1.1,0,0,0,.08,0l.07,0,.07-.08-.06-.39h.09l.08.55h-.08l0-.09h0a.22.22,0,0,1-.07.09Z"/><path class="cls-5" d="M109.13,98.58a.16.16,0,0,1-.12,0,.17.17,0,0,1-.06-.11.15.15,0,0,1,.06-.15.67.67,0,0,1,.25-.1s0,0,0,0,0,0,0-.05a.05.05,0,0,0,0,0h-.06l-.08,0-.07.06,0-.06L109,98a.22.22,0,0,1,.12-.05.15.15,0,0,1,.15.05.24.24,0,0,1,.07.15l.05.34h-.08v-.06h0a.46.46,0,0,1-.07.07A.17.17,0,0,1,109.13,98.58Zm0-.07.07,0,.07-.07,0-.15-.12,0-.07,0s0,0,0,0v.05a.1.1,0,0,0,0,.07Z"/><path class="cls-5" d="M109.66,98.5l-.08-.56h.08l0,.08h0l.07-.08.09,0a.15.15,0,0,1,.1,0A.16.16,0,0,1,110,98a.35.35,0,0,1,.07-.09.2.2,0,0,1,.09,0,.2.2,0,0,1,.14,0,.27.27,0,0,1,.06.16l0,.35h-.09l0-.34a.16.16,0,0,0,0-.11.08.08,0,0,0-.08,0,.27.27,0,0,0-.13.1l.06.4-.09,0,0-.34a.23.23,0,0,0,0-.11.09.09,0,0,0-.09,0s-.08,0-.12.1l0,.4Z"/><path class="cls-5" d="M111.23,98.29h-.11a.19.19,0,0,1-.09,0,.31.31,0,0,1-.07-.09.34.34,0,0,1,0-.12.24.24,0,0,1,0-.12.31.31,0,0,1,0-.1.23.23,0,0,1,.07-.07.11.11,0,0,1,.08,0h.1l.08.05a.13.13,0,0,1,0,.07.2.2,0,0,1,0,.11v0L111,98a.27.27,0,0,0,.08.14.17.17,0,0,0,.14,0l.07,0,.06,0,0,0-.08,0A.25.25,0,0,1,111.23,98.29ZM111,98l.3,0a.33.33,0,0,0,0-.12.2.2,0,0,0-.11,0l-.06,0s0,0,0,0l0,.06S111,98,111,98Z"/><path class="cls-5" d="M111.65,98.21l-.08-.55h.08l0,.1h0l.06-.1a.12.12,0,0,1,.08,0h.06v.09h-.06l-.07,0a.28.28,0,0,0,0,.11l0,.36Z"/><path class="cls-5" d="M112.23,98.14a.16.16,0,0,1-.12,0,.13.13,0,0,1-.06-.11.15.15,0,0,1,.06-.15.67.67,0,0,1,.24-.11.11.11,0,0,0,0,0,.08.08,0,0,0,0,0l0,0h-.06l-.09,0-.06,0,0-.06.09-.06a.34.34,0,0,1,.12,0,.15.15,0,0,1,.15,0,.26.26,0,0,1,.07.16l0,.34h-.08V98h0l-.08.06A.15.15,0,0,1,112.23,98.14Zm0-.08a.11.11,0,0,0,.07,0l.07-.06,0-.16-.11,0-.07,0,0,0s0,0,0,0a.06.06,0,0,0,0,.06A.11.11,0,0,0,112.25,98.06Z"/><path class="cls-5" d="M112.92,98h-.08l0,0a.1.1,0,0,1,0-.05s0,0,0-.08l0-.3h-.08v-.07l.08,0v-.16h.08l0,.16.15,0v.08l-.15,0,0,.31a.11.11,0,0,0,0,.08.08.08,0,0,0,.07,0h0l0,0,0,.07,0,0Z"/><path class="cls-16" d="M107.88,78.7s-2.54-4.74-4.74-5.59c0,0-.85-1.61,1.44-.76a2,2,0,0,1-.76-1,.2.2,0,0,1,.2-.26c1,.06,4.53.7,5.9,6.6l-2,1.44"/><rect class="cls-12" x="136.56" y="147.66" width="2.53" height="1.36" transform="translate(275.64 296.68) rotate(180)"/><rect class="cls-12" x="120.67" y="147.66" width="2.53" height="1.36" transform="translate(243.87 296.68) rotate(180)"/><path class="cls-9" d="M139.27,148.66v1.89h-6S132.29,147.42,139.27,148.66Z"/><path class="cls-9" d="M123.35,148.66v1.89h-6S116.37,147.42,123.35,148.66Z"/><path class="cls-17" d="M137.89,106.17,137.1,131a10.06,10.06,0,0,0,.11,1.82l2.33,14.93H135l-3.16-15.59a9.89,9.89,0,0,1-.18-1.33l-.93-14.8a.19.19,0,0,0-.37,0l-4.84,12.75a3.88,3.88,0,0,0-.24,1.06l-1.6,18h-3.9l-.2-19.52a3.5,3.5,0,0,1,.08-.85L124.12,106Z"/><path class="cls-18" d="M124.53,90.59l-8.82-1.1a3.1,3.1,0,0,1-2.32-1.12L106.46,79l4.13-2.9,5.27,7.31a3.11,3.11,0,0,0,2.39,1.3l18.9-1.23,2.18,27.3-16.75-2Z"/><path class="cls-18" d="M137.53,86.53l7.2,10.2a2.88,2.88,0,0,1-.69,4l-7,5-2.78-4.32,5.47-3a.26.26,0,0,0,.07-.4l-4.51-4.9.41-7.2.83-.82Z"/><path class="cls-16" d="M126.51,75.58a10.09,10.09,0,0,0-1.59,2l.51.43-.73,2,3.41.87,2.38-5.87Z"/><path class="cls-17" d="M130.47,71.86a3.23,3.23,0,0,0-3.61,1.58,7.06,7.06,0,0,0-.8,5.18,2.09,2.09,0,0,0-2.36,1.08,4.56,4.56,0,0,0-.46,3.42,3.93,3.93,0,0,0-2.09,1,2.86,2.86,0,0,0-.56,2.77A2.07,2.07,0,0,0,122.85,88L139,87.5a2.19,2.19,0,0,0,1.24-.29,2.64,2.64,0,0,0,.64-2.88c-.39-1-1.41-1.35-2.08-.75a3.76,3.76,0,0,0,.72-3.81c-.49-1.27-1.72-1.86-2.66-1.26a5.71,5.71,0,0,0-.17-5.37A4.53,4.53,0,0,0,133,70.88a11.06,11.06,0,0,0-4.11.87c0,.64,0,1.28,0,1.92"/></svg>