<svg id="BACKGROUND" xmlns="http://www.w3.org/2000/svg" viewBox="0 0 229.9 168.54"><defs><style>.cls-1{fill:#eddb8b;}.cls-1,.cls-2,.cls-3,.cls-4{fill-rule:evenodd;}.cls-2,.cls-3{fill:#f9ae3b;}.cls-3{opacity:0.7;}.cls-15,.cls-4{fill:#f9ed38;}.cls-5{opacity:0.5;}.cls-6{fill:#f5911e;}.cls-7{fill:#7c6d41;}.cls-8{fill:#ebebeb;}.cls-9{fill:#fafafa;}.cls-10{fill:#b3b3b3;}.cls-11{fill:#fff;}.cls-12{fill:#263238;}.cls-13{fill:#f1d34e;}.cls-14{fill:#875601;}.cls-16{fill:#ffbe9d;}.cls-17{fill:#eb996e;}.cls-18{opacity:0.6;}.cls-19{opacity:0.2;}.cls-20{fill:#c39c51;}</style></defs><path class="cls-1" d="M42.91,105a9.34,9.34,0,0,0,9.37-9.26h0a9.34,9.34,0,0,0-9.37-9.25H40a9.71,9.71,0,0,1-9.74-9.63h0A9.71,9.71,0,0,1,40,67.22h9.8s15.85-.72,18.9-9.67S74.2,44.11,91.62,44.11h6.45a6.44,6.44,0,0,0,6.46-6.38h0a6.44,6.44,0,0,0-6.46-6.39H93.78a4.45,4.45,0,0,1-4.46-4.41h0a4.45,4.45,0,0,1,4.46-4.41h44.69c11.46,0,12-5.29,16.51-5.29H168.2a3.41,3.41,0,0,1,3.42,3.38h0A3.41,3.41,0,0,1,168.2,24h-3.28a5,5,0,0,0-5,4.9h0a4.94,4.94,0,0,0,5,4.89H190.3A12.69,12.69,0,0,1,203,46.35h0A12.69,12.69,0,0,1,190.3,58.92h-5.67A12.2,12.2,0,0,0,172.39,71h0a12.21,12.21,0,0,0,12.24,12.1h0a28.87,28.87,0,0,1,29,28.6h0a28.87,28.87,0,0,1-29,28.6h-160A17.83,17.83,0,0,1,6.75,122.65h0A17.83,17.83,0,0,1,24.63,105H42.91ZM181.22,20.61A3.42,3.42,0,1,0,177.8,24,3.4,3.4,0,0,0,181.22,20.61Z"/><path class="cls-2" d="M137.65,66.22c-.4-1.71-.73-3.39-1-5s-.43-3.28-.54-4.85a43,43,0,0,1,1.65-15.66A34.55,34.55,0,0,1,145,27.92a39.22,39.22,0,0,1,10.28-8.18,51.57,51.57,0,0,1,13.44-5.11c1.6-.37,3.22-.68,4.85-.92s3.32-.42,5-.54h0a.68.68,0,0,1,.5.17.66.66,0,0,1,.23.47v0c0,.65.72,14.54-4,27.92-4.76,13.54-15,26.57-36.95,25a.66.66,0,0,1-.41-.17.63.63,0,0,1-.21-.37Zm40.88-52a73,73,0,0,0-7.95,5.57c1.83,0,6,.15,7.89.44.14-3,.09-5.16.06-6Zm-.09,6.67h0c-2.2-.35-7.81-.45-8.65-.46-2.06,1.67-4.37,3.68-6.78,6L177.75,28c.36-2.61.57-5,.69-7.08Zm-.78,7.72-15.27-1.54a98.84,98.84,0,0,0-6.87,7.56c3,.42,17.62,2.5,20.16,3.32a72.14,72.14,0,0,0,2-9.34Zm-2.16,10c-2.56-.84-18.64-3.1-20.46-3.35-1.84,2.28-3.66,4.75-5.41,7.42l22.94,3.53.08,0c.72-1.55,1.35-3.12,1.91-4.7.34-1,.65-1.95.94-2.93Zm-3.14,8.23-23.12-3.56c-1.36,2.1-2.67,4.32-3.91,6.66,3.74.64,22.86,3.45,22.92,3.45a.35.35,0,0,1,.14.06,41.07,41.07,0,0,0,4-6.61ZM168,54c-2-.29-19.92-2.92-23-3.46q-1.6,3-3,6.36c4.64,1.45,19.7,2.93,19.74,2.94A.34.34,0,0,1,162,60a31.56,31.56,0,0,0,6-6Zm-6.67,6.45c-2.42-.25-15.32-1.6-19.55-2.94-.6,1.43-1.16,2.9-1.7,4.41,1.76.39,9.61,2.06,14.47,1.8a.31.31,0,0,1,.31.19,29.34,29.34,0,0,0,6.47-3.46Zm-7.84,3.95c-5,0-12.13-1.53-13.62-1.86-.41,1.15-.79,2.33-1.15,3.53a38.58,38.58,0,0,0,14.77-1.67Zm-15.25,1c.33-1.1.69-2.18,1.06-3.25a40.11,40.11,0,0,1-2.46-6.57c0,.23,0,.45,0,.67.1,1.55.28,3.14.53,4.79.22,1.41.49,2.86.83,4.36Zm-1.47-11.51a.33.33,0,0,1,.33.24,53.43,53.43,0,0,0,2.49,7.18q.78-2.18,1.65-4.23A63.82,63.82,0,0,1,137.26,46a44.71,44.71,0,0,0-.53,7.92Zm.73-9a.31.31,0,0,1,.26.24,63.39,63.39,0,0,0,3.82,11.19q1.38-3.2,2.92-6.13c-.56-1.06-3.81-7.41-4.91-12.33-.4,1-.77,2-1.09,3a37.52,37.52,0,0,0-1,4ZM139.91,37a.32.32,0,0,1,.19.23c.88,4.48,3.8,10.4,4.73,12.22,1.23-2.3,2.53-4.48,3.86-6.55a35.26,35.26,0,0,1-5.35-11.87,33.59,33.59,0,0,0-3.43,6Zm3.89-6.59a.32.32,0,0,1,.12.21,33.38,33.38,0,0,0,5.16,11.68c1.76-2.67,3.58-5.15,5.43-7.44-1.77-2.73-4.17-9.83-4.5-10.8a35.41,35.41,0,0,0-4.53,4.3c-.59.66-1.15,1.34-1.68,2.05Zm6.74-6.77a.47.47,0,0,1,.05.1s2.52,7.6,4.35,10.58a99.58,99.58,0,0,1,6.95-7.67,36.63,36.63,0,0,1-2.24-8.34,44,44,0,0,0-4.07,2,41.69,41.69,0,0,0-5,3.31Zm9.72-5.59a.24.24,0,0,1,0,.08,37,37,0,0,0,2.11,8c2.46-2.41,4.81-4.46,6.91-6.17a24.17,24.17,0,0,1-.82-4.62,53.72,53.72,0,0,0-8.22,2.68Zm8.86-2.83a.43.43,0,0,0,0,.05,22.92,22.92,0,0,0,.72,4.28,77.57,77.57,0,0,1,8-5.65c-1.4.11-2.79.27-4.18.48S170.62,14.91,169.12,15.25Z"/><path class="cls-3" d="M161.4,76.07c1.8-3.75,5.81-10.16,14.28-17.24,13.41-11.2,22.77-24.72,16.75-30.89S166.92,38.47,154.1,74.25A39.35,39.35,0,0,0,161.4,76.07Z"/><path class="cls-4" d="M158,73.52a8.94,8.94,0,0,1,3-.06.2.2,0,0,0,.21-.17.19.19,0,0,0-.16-.21,10,10,0,0,0-2.87,0c.23-.59.47-1.18.7-1.76.65-.11,2.76-.49,3.55-.57a.19.19,0,0,0,.17-.21.19.19,0,0,0-.2-.17c-.74.08-2.52.39-3.35.54.45-1.08.9-2.13,1.35-3.16a44.11,44.11,0,0,1,4.82-.39.19.19,0,0,0,.19-.19.19.19,0,0,0-.2-.19c-2,0-3.81.26-4.63.36.46-1,.93-2,1.39-3a60.32,60.32,0,0,1,6.89-.56.19.19,0,0,0,.18-.2.19.19,0,0,0-.19-.18,64,64,0,0,0-6.68.52q.93-1.9,1.86-3.69a24.92,24.92,0,0,1,7.61-.41.18.18,0,0,0,.21-.16.19.19,0,0,0-.15-.22,24.61,24.61,0,0,0-7.45.36q1.15-2.18,2.31-4.15c1.25-.13,6.29-.53,8.87.75a.2.2,0,0,0,.26-.09.19.19,0,0,0-.09-.25c-2.51-1.25-7.18-1-8.79-.82q1.23-2.09,2.46-3.95A39.1,39.1,0,0,1,178,52.92a.19.19,0,0,0,.12-.37,39.71,39.71,0,0,0-8.56-1.61c.48-.73,1-1.44,1.45-2.13a43,43,0,0,1,9.94,1.9.19.19,0,1,0,.11-.37,44,44,0,0,0-9.79-1.89Q173,46,174.63,44c1.15.19,7,1.19,10.18,2.58a.19.19,0,0,0,.25-.1.19.19,0,0,0-.1-.25,52.84,52.84,0,0,0-10.05-2.57c.65-.79,1.29-1.53,1.92-2.23a56.55,56.55,0,0,1,9.78,2.66.18.18,0,0,0,.24-.11.19.19,0,0,0-.11-.25,56.47,56.47,0,0,0-9.61-2.63q2.2-2.43,4.19-4.21A34.37,34.37,0,0,1,190,38.67a.19.19,0,1,0,.14-.35,33.8,33.8,0,0,0-8.48-1.78c.55-.49,1.07-.94,1.58-1.36a29.59,29.59,0,0,1,7.4.69.2.2,0,0,0,.23-.15.19.19,0,0,0-.15-.22,30.49,30.49,0,0,0-7-.72,30.62,30.62,0,0,1,6.82-4.42.29.29,0,0,0,.15-.38.3.3,0,0,0-.38-.15,22.34,22.34,0,0,0-3.19,1.78,17.09,17.09,0,0,1,1.34-2.15.19.19,0,0,0,0-.27.18.18,0,0,0-.26,0,24.48,24.48,0,0,0-1.79,2.89c-.8.55-1.71,1.2-2.7,2l1.27-4a.18.18,0,0,0-.12-.24.19.19,0,0,0-.24.12l-1.45,4.54c-.68.55-1.4,1.17-2.14,1.85l1.31-4.69a.19.19,0,0,0-.13-.24.2.2,0,0,0-.24.13l-1.48,5.28c-1.11,1-2.29,2.22-3.52,3.55l1-4.81a.18.18,0,0,0-.14-.22.18.18,0,0,0-.23.14l-1.16,5.45c-.55.62-1.12,1.27-1.69,2l.82-4.32a.18.18,0,0,0-.15-.22.19.19,0,0,0-.22.15l-1,5q-1.59,1.93-3.24,4.21l.48-4.16a.19.19,0,0,0-.17-.21.2.2,0,0,0-.21.16l-.56,4.85c-.43.61-.86,1.25-1.3,1.9l.14-3.15a.18.18,0,0,0-.18-.19.18.18,0,0,0-.2.18l-.17,3.77c-.81,1.23-1.62,2.52-2.43,3.89l0-3.49a.19.19,0,0,0-.38,0l0,4.14c-.71,1.21-1.42,2.48-2.12,3.8l-.1-3.08a.2.2,0,0,0-.2-.18.18.18,0,0,0-.18.2l.12,3.74q-.93,1.74-1.83,3.63l-.41-2.73a.2.2,0,0,0-.22-.16.19.19,0,0,0-.16.22l.49,3.27c-.44.92-.87,1.86-1.3,2.82l-.66-2.27a.18.18,0,0,0-.23-.13.17.17,0,0,0-.13.23l.78,2.71c-.4.89-.79,1.8-1.18,2.74l-.51-1.46a.19.19,0,0,0-.24-.12.2.2,0,0,0-.12.25l.65,1.85c-.29.71-.58,1.42-.87,2.15l-.81-1.14a.2.2,0,0,0-.27,0,.19.19,0,0,0,0,.26l1,1.34c-.23.59-.47,1.19-.7,1.8l.56.15C157.59,74.66,157.81,74.08,158,73.52Z"/><path class="cls-2" d="M161.66,78.39a32.68,32.68,0,0,1,12-6.34c10.33-3.17,19.07-9,17.45-14.64-1.56-5.45-16.2-.95-32.46,17.07l3,3.9Z"/><path class="cls-4" d="M188.39,58.72a.37.37,0,1,0-.12-.72,24.82,24.82,0,0,0-3.15.77l1.54-1.44a.25.25,0,0,0,0-.34.25.25,0,0,0-.35,0L184,59.11c-.91.3-1.94.68-3.07,1.14l1.54-2a.24.24,0,0,0-.05-.34.23.23,0,0,0-.34,0l-2.06,2.7c-1.17.51-2.43,1.11-3.76,1.83l1.27-1.8a.24.24,0,1,0-.4-.28L175.31,63c-1.38.78-2.82,1.68-4.29,2.71l1-1.85a.24.24,0,0,0-.42-.24l-1.52,2.75c-1.37,1-2.77,2.12-4.17,3.37l.34-1.2a.23.23,0,0,0-.16-.3.25.25,0,0,0-.31.16l-.57,2c-1.06,1-2.11,2-3.17,3.15l.31-1.22a.24.24,0,0,0-.18-.29.24.24,0,0,0-.3.17l-.52,2.09c-.51.57-1,1.16-1.52,1.76l.46.6c.51-.61,1-1.2,1.52-1.77a9.09,9.09,0,0,1,2.7.06.23.23,0,0,0,.31-.15.24.24,0,0,0-.15-.31,7.65,7.65,0,0,0-2.38-.12c.4-.44.81-.87,1.21-1.29a10.55,10.55,0,0,1,3.13.45.24.24,0,1,0,.17-.45,10.05,10.05,0,0,0-2.83-.48c.84-.84,1.68-1.63,2.53-2.38a24,24,0,0,1,4.7,1.55.24.24,0,0,0,.33-.08.25.25,0,0,0-.09-.34A21.61,21.61,0,0,0,167,69.81c.9-.79,1.8-1.52,2.69-2.2a22,22,0,0,1,5.58,1.93.25.25,0,0,0,.33-.1.25.25,0,0,0-.09-.33,21.89,21.89,0,0,0-5.3-1.88q.66-.49,1.32-1a24,24,0,0,1,6.76,2.15.23.23,0,0,0,.32-.1.24.24,0,0,0-.1-.33,23.84,23.84,0,0,0-6.4-2.11,51.2,51.2,0,0,1,4.6-2.8,49.41,49.41,0,0,1,6.73,3.35.24.24,0,0,0,.28-.4,45.75,45.75,0,0,0-6.45-3.24c1.1-.57,2.15-1.07,3.13-1.5.93.5,4.36,2.37,5.17,2.87a.25.25,0,0,0,.26-.42c-.74-.46-3.61-2-4.85-2.69,1.29-.55,2.46-1,3.47-1.3.84.53,2.88,1.81,3.37,2.16a.24.24,0,1,0,.28-.39c-.43-.31-2.07-1.35-3-2A26.77,26.77,0,0,1,188.39,58.72Z"/><g class="cls-5"><rect class="cls-6" x="22.2" y="2.91" width="32.25" height="44.14" transform="translate(-4.41 8.65) rotate(-12.19)"/></g><path class="cls-7" d="M134.4,156.05h-123A4.66,4.66,0,0,1,6.7,151.4v-67H139.05v67A4.65,4.65,0,0,1,134.4,156.05Z"/><rect class="cls-8" x="6.7" y="84.36" width="132.35" height="13.32"/><circle class="cls-9" cx="14.78" cy="91.04" r="1.04"/><circle class="cls-9" cx="21.04" cy="91.04" r="1.04"/><circle class="cls-9" cx="27.31" cy="91.04" r="1.04"/><rect class="cls-8" x="73.16" y="108.42" width="49.97" height="1.81"/><rect class="cls-8" x="73.16" y="115.86" width="49.97" height="1.81"/><rect class="cls-8" x="73.16" y="123.3" width="49.97" height="1.81"/><rect class="cls-8" x="73.16" y="130.74" width="49.97" height="1.81"/><rect class="cls-8" x="73.16" y="138.19" width="24.99" height="1.81"/><rect class="cls-9" x="17.71" y="107.15" width="42.76" height="35.58"/><polygon class="cls-10" points="17.64 131.99 30.28 123.13 39.09 129.23 52.96 117.5 60.48 124.94 60.48 142.73 17.71 142.73 17.64 131.99"/><path class="cls-10" d="M43.42,117.5a3.59,3.59,0,1,1-3.59-3.59A3.59,3.59,0,0,1,43.42,117.5Z"/><rect class="cls-11" x="18.22" y="10.7" width="32.25" height="44.14" transform="translate(-6.14 7.99) rotate(-12.19)"/><path class="cls-12" d="M54.77,50.93s0-.07-.05-.21l-.14-.61c-.12-.54-.3-1.33-.52-2.35-.46-2.06-1.12-5.06-2-8.85-1.66-7.59-4-18.35-6.79-31.09l.16.1L14,14.74h0l.11-.17c3.47,16.11,6.69,31,9.29,43.15l-.14-.1,22.91-4.88,6.38-1.35,1.68-.34.58-.12-.55.14-1.65.37-6.34,1.4-23,5-.12,0,0-.12c-2.62-12.11-5.86-27-9.35-43.14l0-.14.15,0h0L45.43,7.66l.13,0,0,.13c2.73,12.79,5,23.59,6.67,31.2.8,3.79,1.43,6.79,1.87,8.84.21,1,.38,1.8.49,2.34l.12.59A1.1,1.1,0,0,1,54.77,50.93Z"/><path class="cls-12" d="M35.08,19.11c0,.08-3.4.88-7.63,1.8s-7.67,1.58-7.69,1.5,3.4-.88,7.63-1.79S35.07,19,35.08,19.11Z"/><path class="cls-12" d="M44.18,21.07c0,.08-5.26,1.28-11.77,2.69s-11.82,2.48-11.84,2.4,5.25-1.28,11.77-2.69S44.16,21,44.18,21.07Z"/><path class="cls-12" d="M45,25c0,.08-5.25,1.28-11.77,2.69s-11.82,2.48-11.83,2.4,5.25-1.28,11.77-2.69S45,24.9,45,25Z"/><path class="cls-12" d="M45.87,28.89c0,.08-5.26,1.28-11.77,2.69S22.28,34.07,22.26,34,27.51,32.7,34,31.29,45.85,28.81,45.87,28.89Z"/><path class="cls-12" d="M46.71,32.8c0,.08-5.25,1.28-11.77,2.69S23.12,38,23.11,37.9s5.25-1.29,11.77-2.7S46.7,32.72,46.71,32.8Z"/><path class="cls-12" d="M47.56,36.71c0,.08-5.26,1.29-11.77,2.69S24,41.89,24,41.81s5.25-1.29,11.77-2.7S47.54,36.63,47.56,36.71Z"/><path class="cls-12" d="M48.4,40.62c0,.08-5.25,1.29-11.77,2.69S24.81,45.8,24.79,45.72s5.26-1.29,11.78-2.7S48.38,40.54,48.4,40.62Z"/><path class="cls-12" d="M38.33,46.89c0,.08-2.81.76-6.31,1.51s-6.36,1.31-6.38,1.23,2.81-.76,6.31-1.52S38.31,46.81,38.33,46.89Z"/><polygon class="cls-13" points="173.07 132.51 182.37 156.4 186.25 150.14 191.63 157.19 198.04 151.1 191.93 145.21 197.57 141.4 173.07 132.51"/><path class="cls-12" d="M169.56,136a24.15,24.15,0,0,1-3.39,2.36,24.59,24.59,0,0,1-3.57,2.06,51.14,51.14,0,0,1,7-4.42Z"/><path class="cls-12" d="M170.29,131.23a6.67,6.67,0,0,1-1.5-.39c-.91-.29-2.15-.74-3.5-1.28s-2.55-1.09-3.41-1.49a7.29,7.29,0,0,1-1.37-.73,7.81,7.81,0,0,1,1.46.5l3.45,1.4,3.45,1.37A8.33,8.33,0,0,1,170.29,131.23Z"/><path class="cls-12" d="M173.09,120.38a4.9,4.9,0,0,1,.34,1.32c.16.82.35,2,.51,3.24s.26,2.42.31,3.26a5.07,5.07,0,0,1,0,1.36c-.09,0-.32-2-.64-4.58S173,120.4,173.09,120.38Z"/><path class="cls-12" d="M186,125.73c0,.09-1.68.84-3.62,2.08a41,41,0,0,1-3.54,2.24,4.33,4.33,0,0,1,.93-.82c.6-.46,1.44-1.09,2.43-1.71A12.85,12.85,0,0,1,186,125.73Z"/><path class="cls-12" d="M28.53,121.75a15.49,15.49,0,0,0-.38-2.51A10,10,0,0,0,27,116.52a10.19,10.19,0,0,0-12.26-4.33,9.62,9.62,0,0,0-2.58,1.38,11.81,11.81,0,0,0-1.15,1,12.7,12.7,0,0,0-1,1.18,10.15,10.15,0,0,0,0,12,12.7,12.7,0,0,0,1,1.18,11.81,11.81,0,0,0,1.15,1,9.48,9.48,0,0,0,2.58,1.38,10.14,10.14,0,0,0,9.65-1.44A10.39,10.39,0,0,0,27,127a10,10,0,0,0,1.15-2.72,15.49,15.49,0,0,0,.38-2.51.74.74,0,0,1,0,.17v.49a5,5,0,0,1-.06.8,7.28,7.28,0,0,1-.2,1.07,9.5,9.5,0,0,1-1.12,2.78,10.36,10.36,0,0,1-12.49,4.51A9.58,9.58,0,0,1,12,130.15a11.25,11.25,0,0,1-1.19-1,10.79,10.79,0,0,1-1-1.21,10.41,10.41,0,0,1,0-12.38,13.4,13.4,0,0,1,1-1.21,11.25,11.25,0,0,1,1.19-1,9.58,9.58,0,0,1,2.65-1.42,10.36,10.36,0,0,1,12.49,4.51,9.5,9.5,0,0,1,1.12,2.78,7.28,7.28,0,0,1,.2,1.07,5,5,0,0,1,.06.8v.49A.74.74,0,0,1,28.53,121.75Z"/><path class="cls-12" d="M18.21,126.93a45.64,45.64,0,0,1-.15-5.18,45.64,45.64,0,0,1,.15-5.18,45.64,45.64,0,0,1,.15,5.18A45.64,45.64,0,0,1,18.21,126.93Z"/><path class="cls-12" d="M23.39,121.75a45.64,45.64,0,0,1-5.18.15,45.64,45.64,0,0,1-5.18-.15,45.64,45.64,0,0,1,5.18-.15A45.64,45.64,0,0,1,23.39,121.75Z"/><rect class="cls-14" y="70.45" width="216.89" height="45.15"/><path class="cls-15" d="M14.16,103.5V90.63h4.32a8.55,8.55,0,0,1,1.94.21,4.44,4.44,0,0,1,1.58.69,3.36,3.36,0,0,1,1.07,1.28,5.12,5.12,0,0,1,0,3.92A3.71,3.71,0,0,1,22,98.09a4.42,4.42,0,0,1-1.56.79,6.8,6.8,0,0,1-1.89.26H17v4.36ZM17,96.83h1.39c1.54,0,2.31-.68,2.31-2a1.56,1.56,0,0,0-.62-1.42,3.13,3.13,0,0,0-1.77-.42H17Z"/><path class="cls-15" d="M25.41,103.5V89.67h2.83v3.39l-.13,1.76a6.86,6.86,0,0,1,1.25-.92,3.26,3.26,0,0,1,1.69-.42,2.53,2.53,0,0,1,2.27,1,5.25,5.25,0,0,1,.7,2.9v6.08H31.19V97.8a2.75,2.75,0,0,0-.28-1.46,1,1,0,0,0-.9-.4,1.6,1.6,0,0,0-.92.25,5.27,5.27,0,0,0-.85.7v6.61Z"/><path class="cls-15" d="M37.81,92.27a1.68,1.68,0,0,1-1.17-.42,1.42,1.42,0,0,1-.47-1.1,1.38,1.38,0,0,1,.47-1.08,1.87,1.87,0,0,1,2.36,0,1.4,1.4,0,0,1,.45,1.08,1.44,1.44,0,0,1-.45,1.1A1.7,1.7,0,0,1,37.81,92.27Zm-1.4,11.23V93.71h2.83v9.79Z"/><path class="cls-15" d="M46,103.73a5.22,5.22,0,0,1-1.91-.34,4.43,4.43,0,0,1-1.54-1,4.48,4.48,0,0,1-1-1.6,5.91,5.91,0,0,1-.37-2.17,5.68,5.68,0,0,1,.39-2.15,5,5,0,0,1,1-1.61,4.47,4.47,0,0,1,1.43-1,4.08,4.08,0,0,1,1.68-.35,4.13,4.13,0,0,1,1.78.35,3.55,3.55,0,0,1,1.27,1,4,4,0,0,1,.76,1.49,6.49,6.49,0,0,1,.25,1.86q0,.39,0,.75c0,.24-.06.41-.08.53H43.9a2.41,2.41,0,0,0,.85,1.57,2.62,2.62,0,0,0,1.63.51,3.82,3.82,0,0,0,2.06-.66l1,1.76a6.37,6.37,0,0,1-1.63.81A5.54,5.54,0,0,1,46,103.73Zm-2.33-11.4-.91-1,1.79-1.82h2.24l1.79,1.82-.91,1-2-1.28h-.08Zm.21,5.21h3.45A2.28,2.28,0,0,0,47,96.2a1.4,1.4,0,0,0-1.23-.51,1.75,1.75,0,0,0-1.19.45A2.28,2.28,0,0,0,43.88,97.54ZM48,90l1.52-2.5,1.5,1-1.94,2.37Z"/><path class="cls-15" d="M54.57,103.73a2.53,2.53,0,0,1-2.27-1,5.14,5.14,0,0,1-.7-2.9V93.71h2.83v5.7a2.64,2.64,0,0,0,.29,1.46,1,1,0,0,0,.91.4,1.52,1.52,0,0,0,.9-.26,3.35,3.35,0,0,0,.79-.83V93.71h2.83v9.79H57.84l-.21-1.36h-.06a5.1,5.1,0,0,1-1.32,1.17A3.22,3.22,0,0,1,54.57,103.73Z"/><path class="cls-15" d="M67.55,107.32a3.58,3.58,0,0,1-1.35-.19l.5-2.21L67,105a1.86,1.86,0,0,0,.33,0,1.52,1.52,0,0,0,1.09-.36,2.09,2.09,0,0,0,.58-.93l.14-.51-3.68-9.53h2.85l1.37,4.2c.14.45.26.91.38,1.37l.37,1.42h.07c.11-.46.21-.93.32-1.39s.22-.94.34-1.4l1.15-4.2H75l-3.31,9.89a14.84,14.84,0,0,1-.73,1.62,4.67,4.67,0,0,1-.86,1.17,3.36,3.36,0,0,1-1.12.7A4.13,4.13,0,0,1,67.55,107.32Z"/><path class="cls-15" d="M80.64,103.73a5.17,5.17,0,0,1-1.9-.34,4.34,4.34,0,0,1-1.54-1,4.48,4.48,0,0,1-1-1.6,6.41,6.41,0,0,1,0-4.32,5.15,5.15,0,0,1,1-1.61,4.36,4.36,0,0,1,1.43-1,4.08,4.08,0,0,1,1.68-.35,4.13,4.13,0,0,1,1.78.35,3.64,3.64,0,0,1,1.27,1,4.2,4.2,0,0,1,.76,1.49,6.49,6.49,0,0,1,.25,1.86,6.06,6.06,0,0,1,0,.75,3.36,3.36,0,0,1-.08.53H78.54A2.42,2.42,0,0,0,79.4,101a2.6,2.6,0,0,0,1.63.51,3.82,3.82,0,0,0,2.06-.66l.94,1.76a6.47,6.47,0,0,1-1.62.81A5.56,5.56,0,0,1,80.64,103.73ZM76.79,91.4l2.08-2.58h2.89l2.08,2.58-1.08,1-2.41-1.82h-.07l-2.41,1.82Zm1.74,6.14H82a2.28,2.28,0,0,0-.36-1.34,1.43,1.43,0,0,0-1.24-.51,1.72,1.72,0,0,0-1.18.45A2.28,2.28,0,0,0,78.53,97.54Z"/><path class="cls-15" d="M89.21,103.73a2.51,2.51,0,0,1-2.26-1,5.14,5.14,0,0,1-.7-2.9V93.71h2.83v5.7a2.55,2.55,0,0,0,.29,1.46,1,1,0,0,0,.9.4,1.57,1.57,0,0,0,.91-.26,3.75,3.75,0,0,0,.79-.83V93.71H94.8v9.79H92.49l-.21-1.36h-.06a5.1,5.1,0,0,1-1.32,1.17A3.23,3.23,0,0,1,89.21,103.73Z"/><path class="cls-15" d="M105.29,103.73a4.91,4.91,0,0,1-1.85-.34,4.25,4.25,0,0,1-1.5-1,4.73,4.73,0,0,1-1-1.61,6.09,6.09,0,0,1-.36-2.17,5.59,5.59,0,0,1,.4-2.19,4.68,4.68,0,0,1,1.09-1.6,4.52,4.52,0,0,1,1.59-1,5.22,5.22,0,0,1,1.88-.34,3.83,3.83,0,0,1,1.57.29,5.06,5.06,0,0,1,1.23.75L107,96.4a2,2,0,0,0-2.93.17,3.72,3.72,0,0,0,0,4.07,1.89,1.89,0,0,0,1.53.75,2,2,0,0,0,.9-.21,5.28,5.28,0,0,0,.82-.5l1.11,1.89a4.33,4.33,0,0,1-1.54.9A5.17,5.17,0,0,1,105.29,103.73Z"/><path class="cls-15" d="M111.67,90l-1.08.87-2-2.35,1.5-1Zm.67,13.69a3,3,0,0,1-1.18-.22,2.61,2.61,0,0,1-.9-.63,3,3,0,0,1-.56-.94,3.15,3.15,0,0,1-.21-1.16,2.77,2.77,0,0,1,1.27-2.41,9.26,9.26,0,0,1,4.11-1.17,1.65,1.65,0,0,0-.38-1,1.42,1.42,0,0,0-1.13-.39,3.31,3.31,0,0,0-1.22.24,9.83,9.83,0,0,0-1.3.65l-1-1.91a10.17,10.17,0,0,1,1.94-.93,6.32,6.32,0,0,1,2.14-.35,3.61,3.61,0,0,1,2.83,1.07,4.92,4.92,0,0,1,1,3.34v5.61h-2.31l-.2-1h-.07a6,6,0,0,1-1.29.9A3.23,3.23,0,0,1,112.34,103.73ZM112,92.33l-.91-1,1.79-1.82h2.24l1.79,1.82-.91,1-2-1.28h-.08Zm1.33,9.16a1.54,1.54,0,0,0,.82-.22,4.24,4.24,0,0,0,.74-.61V98.94a5.15,5.15,0,0,0-2.08.63,1.2,1.2,0,0,0-.58,1,.83.83,0,0,0,.3.7A1.29,1.29,0,0,0,113.31,101.49Z"/><path class="cls-15" d="M123,103.73a2.51,2.51,0,0,1-2.26-1,5.14,5.14,0,0,1-.7-2.9V93.71h2.83v5.7a2.64,2.64,0,0,0,.29,1.46,1,1,0,0,0,.9.4,1.55,1.55,0,0,0,.91-.26,3.54,3.54,0,0,0,.79-.83V93.71h2.83v9.79h-2.31l-.21-1.36H126a5.1,5.1,0,0,1-1.32,1.17A3.23,3.23,0,0,1,123,103.73Z"/><path class="cls-15" d="M134.88,103.5V93.71h2.31l.19,1.24h.08a8,8,0,0,1,1.35-1,3.16,3.16,0,0,1,1.71-.44,2.51,2.51,0,0,1,2.26,1,5.16,5.16,0,0,1,.71,2.9v6.08h-2.84V97.8a2.66,2.66,0,0,0-.28-1.46,1,1,0,0,0-.89-.4,1.6,1.6,0,0,0-.92.25,5.27,5.27,0,0,0-.85.7v6.61Z"/><path class="cls-15" d="M148.3,103.73a3,3,0,0,1-1.19-.22,2.48,2.48,0,0,1-.89-.63,3.2,3.2,0,0,1-.57-.94,3.36,3.36,0,0,1-.2-1.16,2.75,2.75,0,0,1,1.27-2.41,9.25,9.25,0,0,1,4.1-1.17,1.64,1.64,0,0,0-.37-1,1.43,1.43,0,0,0-1.13-.39,3.27,3.27,0,0,0-1.22.24,9.25,9.25,0,0,0-1.3.65l-1-1.91a10.08,10.08,0,0,1,1.93-.93,6.38,6.38,0,0,1,2.15-.35,3.6,3.6,0,0,1,2.82,1.07,4.86,4.86,0,0,1,1,3.34v5.61h-2.31l-.19-1h-.08a6,6,0,0,1-1.29.9A3.19,3.19,0,0,1,148.3,103.73Zm1.31,4.21a1.53,1.53,0,0,1-1.13-.43,1.45,1.45,0,0,1-.43-1.09,1.48,1.48,0,0,1,.43-1.1,1.73,1.73,0,0,1,2.26,0,1.48,1.48,0,0,1,.43,1.1,1.45,1.45,0,0,1-.43,1.09A1.53,1.53,0,0,1,149.61,107.94Zm-.35-6.45a1.58,1.58,0,0,0,.83-.22,4.21,4.21,0,0,0,.73-.61V98.94a5.26,5.26,0,0,0-2.08.63,1.23,1.23,0,0,0-.58,1,.83.83,0,0,0,.3.7A1.31,1.31,0,0,0,149.26,101.49Z"/><path class="cls-15" d="M156,107.13V93.71h2.31l.2,1h.07a5.3,5.3,0,0,1,1.26-.86,3.48,3.48,0,0,1,3,0,3.32,3.32,0,0,1,1.17,1,4.66,4.66,0,0,1,.74,1.57,7.21,7.21,0,0,1,.26,2,7,7,0,0,1-.33,2.24,5.23,5.23,0,0,1-.91,1.65,4,4,0,0,1-1.29,1,3.29,3.29,0,0,1-1.49.35,2.75,2.75,0,0,1-1.19-.26,3.73,3.73,0,0,1-1.08-.76l.09,1.56v2.86Zm4.35-5.76a1.56,1.56,0,0,0,1.26-.68,3.73,3.73,0,0,0,.52-2.2c0-1.77-.56-2.65-1.66-2.65a2.29,2.29,0,0,0-1.64.89v4a2.47,2.47,0,0,0,.77.49A2.3,2.3,0,0,0,160.39,101.37Z"/><path class="cls-15" d="M174.61,103.73a3.78,3.78,0,0,1-1.51-.27,2.77,2.77,0,0,1-1-.77,3.18,3.18,0,0,1-.57-1.2,6.13,6.13,0,0,1-.19-1.54V96H170V93.83l1.47-.12.33-2.6h2.35v2.6h2.29V96h-2.29v3.93a1.75,1.75,0,0,0,.33,1.19,1.2,1.2,0,0,0,.9.37,2,2,0,0,0,.47-.06,3.11,3.11,0,0,0,.43-.14l.45,2.11c-.26.08-.56.16-.91.24A5.48,5.48,0,0,1,174.61,103.73Z"/><path class="cls-15" d="M179.71,92.27a1.66,1.66,0,0,1-1.17-.42,1.42,1.42,0,0,1-.47-1.1,1.38,1.38,0,0,1,.47-1.08,1.66,1.66,0,0,1,1.17-.42,1.7,1.7,0,0,1,1.19.42,1.4,1.4,0,0,1,.45,1.08,1.44,1.44,0,0,1-.45,1.1A1.7,1.7,0,0,1,179.71,92.27Zm-1.4,11.23V93.71h2.83v9.79Z"/><path class="cls-15" d="M185.26,90l-1.08.87-2-2.35,1.5-1Zm2.64,13.69a5.22,5.22,0,0,1-1.91-.34,4.43,4.43,0,0,1-1.54-1,4.48,4.48,0,0,1-1-1.6,5.91,5.91,0,0,1-.37-2.17,5.68,5.68,0,0,1,.39-2.15,5,5,0,0,1,1-1.61,4.47,4.47,0,0,1,1.43-1,4.08,4.08,0,0,1,1.68-.35,4.13,4.13,0,0,1,1.78.35,3.55,3.55,0,0,1,1.27,1,4,4,0,0,1,.76,1.49,6.49,6.49,0,0,1,.25,1.86,6.06,6.06,0,0,1,0,.75c0,.24-.05.41-.07.53H185.8a2.41,2.41,0,0,0,.85,1.57,2.62,2.62,0,0,0,1.63.51,3.82,3.82,0,0,0,2.06-.66l.95,1.76a6.37,6.37,0,0,1-1.63.81A5.54,5.54,0,0,1,187.9,103.73Zm-2.33-11.4-.91-1,1.79-1.82h2.24l1.79,1.82-.91,1-2-1.28h-.08Zm.21,5.21h3.45a2.28,2.28,0,0,0-.37-1.34,1.43,1.43,0,0,0-1.23-.51,1.75,1.75,0,0,0-1.19.45A2.28,2.28,0,0,0,185.78,97.54Z"/><path class="cls-15" d="M193.6,103.5V93.71h2.31L196.1,95h.08a8,8,0,0,1,1.35-1,3.16,3.16,0,0,1,1.71-.44,2.51,2.51,0,0,1,2.26,1,5.16,5.16,0,0,1,.7,2.9v6.08h-2.83V97.8a2.66,2.66,0,0,0-.28-1.46,1,1,0,0,0-.89-.4,1.6,1.6,0,0,0-.92.25,5.27,5.27,0,0,0-.85.7v6.61Z"/><path class="cls-16" d="M101.9,81.66c-.51-.6-.57-1.11.6-1.22,2.56-.23,4.45-1.35,4.75-2s-.51-1.28-1.21-.89a9.77,9.77,0,0,1-2.5.71,6.6,6.6,0,0,1-2.08,0c-.6-.1-1.12-.2-1.59-.3A12.47,12.47,0,0,1,96,76.49l-5.75,6.14,2.7,3a4.08,4.08,0,0,0,3.6,1.7A18.57,18.57,0,0,0,102,85.48c.42-.64,4.14,1.65,5.34,2.51s2.08.65,2-.18c0-.56-3.64-3.29-4.85-4.11a15.56,15.56,0,0,1-2.58-2"/><path class="cls-17" d="M98.53,87s-.17.11-.47.11A2,2,0,0,1,97,86.7a2,2,0,0,1-.67-.92c-.09-.29-.06-.47,0-.48a3.68,3.68,0,0,0,.88,1.16A3.85,3.85,0,0,0,98.53,87Z"/><path class="cls-17" d="M100.8,86.1s-.16.1-.44.08a1.91,1.91,0,0,1-1-.41,1.85,1.85,0,0,1-.64-.88c-.09-.27-.07-.45,0-.45s.23.63.85,1.1A4.57,4.57,0,0,0,100.8,86.1Z"/><path class="cls-12" d="M107,22.24c.24,5,6.38,11.94,11,13.06,2.4.59,5.17.31,7.07,1.93,3.27,2.77,1.36,8.51,3.56,12.22,1.36,2.29,4,3.41,5.57,5.58,2.53,3.6.83,9-2.62,11.74s-8.06,3.2-12.39,3.08c-9.53-.24-19.28-3.27-26.17-10-3.23-3.17-15.89-13-11.48-36.18"/><path class="cls-6" d="M141.38,58.31,105.16,47.55A23,23,0,0,0,99.89,46l-12.23.08A11.76,11.76,0,0,0,83,47L50,58a6.29,6.29,0,0,0-4.13,6.12h0c0,3.52,2.53,6.37,5.66,6.37H66.75l-.06.22,53,.2v0l20.21,0c3.12,0,5.66-2.87,5.66-6.42A6.36,6.36,0,0,0,141.38,58.31Z"/><path class="cls-12" d="M134.12,62.22a1,1,0,0,1-.33,0l-.93-.1c-.81-.1-2-.23-3.43-.37a102.94,102.94,0,0,0-11.36-.48,108.39,108.39,0,0,0-11.35.77c-1.44.18-2.61.34-3.42.47l-.93.13-.32,0a1,1,0,0,1,.31-.08l.93-.19c.8-.16,2-.35,3.41-.55A89.71,89.71,0,0,1,118.07,61a91.81,91.81,0,0,1,11.38.57c1.45.16,2.62.33,3.43.47l.92.16Z"/><g class="cls-18"><path class="cls-11" d="M125.62,53.42s0,0-.1.12l-.32.34c-.28.29-.71.72-1.28,1.24a19.53,19.53,0,0,1-2.2,1.77,11,11,0,0,1-3.38,1.62,8.74,8.74,0,0,1-4.53-.09,22.75,22.75,0,0,1-4.76-2.11,29.14,29.14,0,0,0-5.16-2.42,7.91,7.91,0,0,0-5.9.31c-1.91.85-3.53,2.17-5.3,3.11-.44.24-.9.43-1.35.64s-.92.34-1.39.46a13.71,13.71,0,0,1-2.79.48,14.35,14.35,0,0,1-9.27-2.55,25.78,25.78,0,0,1-2.8-2.48,13.34,13.34,0,0,0-2.17-1.78,6.25,6.25,0,0,0-2.22-.83,3.53,3.53,0,0,1,.62.08A5.06,5.06,0,0,1,73,52a12.27,12.27,0,0,1,2.22,1.75A26.77,26.77,0,0,0,78,56.17a14.3,14.3,0,0,0,9.13,2.45,13.15,13.15,0,0,0,2.73-.48c.46-.12.9-.3,1.36-.46a14.43,14.43,0,0,0,1.32-.63c1.74-.93,3.36-2.24,5.32-3.12a8.19,8.19,0,0,1,6.1-.32,29.48,29.48,0,0,1,5.21,2.46,22.5,22.5,0,0,0,4.7,2.11,8.41,8.41,0,0,0,4.41.12,11,11,0,0,0,3.34-1.54A24,24,0,0,0,123.85,55c.58-.51,1-.93,1.31-1.2l.34-.32Z"/></g><g class="cls-19"><polygon class="cls-6" points="69.34 62.15 92.23 66.47 89.59 70.77 88.89 70.78 69.34 62.15"/></g><g class="cls-18"><path class="cls-11" d="M138.64,57.62a1.55,1.55,0,0,1,0,.36,8.73,8.73,0,0,1-.11,1,8.76,8.76,0,0,1-8.92,7.24,14.92,14.92,0,0,1-3.44-.62c-1.14-.33-2.24-.68-3.33-.9a9.74,9.74,0,0,0-3.16-.17,10.24,10.24,0,0,0-7.39,4.7l-.3.5-.19.38a1.52,1.52,0,0,1-.17.3,1.4,1.4,0,0,1,.12-.33l.16-.39.28-.51a9.34,9.34,0,0,1,2.42-2.79,10.23,10.23,0,0,1,5-2.13,10,10,0,0,1,3.26.15c1.11.22,2.22.58,3.36.9a14,14,0,0,0,3.36.62,8.41,8.41,0,0,0,3.12-.47A8.5,8.5,0,0,0,137,62.28,8.94,8.94,0,0,0,138.44,59C138.61,58.11,138.61,57.62,138.64,57.62Z"/></g><path class="cls-6" d="M50,69.73S91.42,88,91.2,87.58s6.58-12.39,6.58-12.39L64.24,58.61Z"/><path class="cls-12" d="M69,61a5.21,5.21,0,0,1,.85.36l2.28,1.07c1.91.92,4.55,2.2,7.46,3.64s5.54,2.75,7.43,3.72l2.24,1.16a5.65,5.65,0,0,1,.8.46,5.21,5.21,0,0,1-.85-.36L87,70c-1.91-.92-4.56-2.2-7.47-3.64S74,63.56,72.07,62.6l-2.24-1.16A5,5,0,0,1,69,61Z"/><g class="cls-18"><path class="cls-11" d="M78.12,66.52a3.78,3.78,0,0,1-.39,1.23,5.76,5.76,0,0,1-2.47,2.46A7.35,7.35,0,0,1,73,71a9,9,0,0,1-2.8,0,21.56,21.56,0,0,1-6-2,32.43,32.43,0,0,0-5.87-2.32,10.9,10.9,0,0,0-2.71-.31,8.35,8.35,0,0,0-2.34.4,6.25,6.25,0,0,0-2.89,1.81,10.93,10.93,0,0,0-.75,1,4,4,0,0,1,.66-1.1,6.3,6.3,0,0,1,2.91-1.93,8.75,8.75,0,0,1,2.4-.45,10.9,10.9,0,0,1,2.78.3,30.17,30.17,0,0,1,5.93,2.31,21.75,21.75,0,0,0,6,2,9.16,9.16,0,0,0,2.72,0A7.39,7.39,0,0,0,75.16,70a5.84,5.84,0,0,0,2.47-2.34C78,67,78.08,66.51,78.12,66.52Z"/></g><g class="cls-18"><path class="cls-11" d="M95.69,79s-.92-.1-2.4-.12a18.88,18.88,0,0,0-2.59.13,22.08,22.08,0,0,0-3.11.61,23.69,23.69,0,0,0-3,1.11A19.12,19.12,0,0,0,82.35,82c-1.25.79-1.94,1.4-2,1.36a2.49,2.49,0,0,1,.47-.46,13.31,13.31,0,0,1,1.4-1.08,17.34,17.34,0,0,1,2.27-1.32,20.87,20.87,0,0,1,3-1.14,19,19,0,0,1,3.16-.6,16,16,0,0,1,2.63-.07,14,14,0,0,1,1.76.18A3,3,0,0,1,95.69,79Z"/></g><g class="cls-19"><path d="M100.79,45.89c-.68,1.91.35,4,1.34,5.75a15.85,15.85,0,0,0,2.4,3.48,5.25,5.25,0,0,0,3.77,1.69c1.85-.06,3.52-1.43,5.37-1.32A7.1,7.1,0,0,1,117.09,57a26.87,26.87,0,0,0,5.74,3.18,10.35,10.35,0,0,0,6.45.41,6.43,6.43,0,0,0,4.46-4.42"/></g><path class="cls-16" d="M101,45.36c.09-2.23.21-4.24.21-4.24s5-.63,5.2-5.72-.29-16.78-.29-16.78L96.9,14.21l-9.86,8L88.59,45.5a6.18,6.18,0,0,0,6.46,5.78h0A6.2,6.2,0,0,0,101,45.36Z"/><path class="cls-12" d="M105.21,27.81a.65.65,0,0,1-.62.66.65.65,0,0,1-.65-.64.64.64,0,0,1,.62-.66A.65.65,0,0,1,105.21,27.81Z"/><path class="cls-12" d="M105.82,26.45c-.08.09-.55-.31-1.23-.34s-1.19.32-1.27.23.05-.2.27-.36a1.64,1.64,0,0,1,1-.29,1.67,1.67,0,0,1,1,.38C105.79,26.25,105.86,26.41,105.82,26.45Z"/><path class="cls-12" d="M97.65,27.81a.64.64,0,0,1-.62.66.65.65,0,0,1,0-1.3A.64.64,0,0,1,97.65,27.81Z"/><path class="cls-12" d="M98.27,26.58c-.08.09-.56-.31-1.24-.34s-1.19.32-1.26.23,0-.2.26-.36a1.66,1.66,0,0,1,2,.09C98.24,26.38,98.3,26.54,98.27,26.58Z"/><path class="cls-12" d="M100.83,32.45a4.34,4.34,0,0,1,1.11-.17c.17,0,.34,0,.37-.17a1.08,1.08,0,0,0-.11-.56c-.15-.46-.32-.94-.49-1.44a26.63,26.63,0,0,1-1.1-3.76A26,26,0,0,1,102,30c.16.51.32,1,.47,1.45a1.21,1.21,0,0,1,.08.74.44.44,0,0,1-.29.26,1.09,1.09,0,0,1-.3,0A4.44,4.44,0,0,1,100.83,32.45Z"/><path class="cls-11" d="M98.59,33.15c-.7-.46,1.92,1.13,3.31,1.11a1.85,1.85,0,0,1-2.25.69A1.47,1.47,0,0,1,98.59,33.15Z"/><path class="cls-17" d="M101.16,41.12A12.16,12.16,0,0,1,94.57,39s1.55,3.7,6.51,3.4Z"/><path class="cls-12" d="M81.69,27.17h0c0,4.4-1.17,16,6.85,17.64l-.29-16S96,25.13,97.33,17.51l0,0c.5,1.15,1.39,3.62.85,5.64L105.49,25l.84.76a10,10,0,0,0-2.41-10.82c-5-5.14-9.27-1.42-11.94-1.74C90.2,13,84,13,81.5,23.65Z"/><path class="cls-16" d="M88.45,29a1.79,1.79,0,0,0-2.14.51,2.92,2.92,0,0,0,2.9,4.8"/><path class="cls-17" d="M88.29,32.76s-.23.07-.58,0a1.52,1.52,0,0,1-1.06-1,1.13,1.13,0,0,1,.46-1.33c.32-.21.56-.19.57-.16s-.2.11-.44.33a1,1,0,0,0-.31,1.07,1.48,1.48,0,0,0,.85.84C88.08,32.68,88.3,32.71,88.29,32.76Z"/><path class="cls-20" d="M87.63,33.76a.61.61,0,0,0-.34.9.58.58,0,1,0,.56-.91"/><path class="cls-16" d="M102.36,70.91V62.56S90,65.13,89.73,70.81Z"/><path class="cls-12" d="M101.07,44.48a10.41,10.41,0,0,0,10.18,9.57c1.84,0,3.77-.41,5.44.34,1.45.65,2.39,2.06,3.53,3.17a10.5,10.5,0,0,0,10.41,2.35c1.5-.5,3.89-1.58,4.17-3.14.21-1.19-1.24-2.37-2.1-3.22a10.52,10.52,0,0,0-3.06-1.91c-8.83-4.15-18.32-7.17-28.07-7.69"/><ellipse id="_Path_" data-name="&lt;Path&gt;" class="cls-10" cx="114.95" cy="166.28" rx="114.95" ry="2.26"/></svg>