<svg id="BACKGROUND" xmlns="http://www.w3.org/2000/svg" viewBox="0 0 164.86 173.43"><defs><style>.cls-1{fill:#b3b3b3;}.cls-2{fill:#f5911e;}.cls-3{fill:#e0e0e0;}.cls-4{fill:#ffbe9d;}.cls-5{fill:#a47c52;}.cls-6{opacity:0.4;}.cls-7{opacity:0.2;}.cls-8{fill:#263238;}.cls-9{fill:#455a64;}.cls-10{fill:#fafafa;}.cls-11{fill:#c39c51;}.cls-12{opacity:0.3;}.cls-13{fill:#eb996e;}.cls-14{fill:#7c6d41;}.cls-15{fill:#f9ed38;}.cls-16{fill:#a88f55;}.cls-17{fill:#916217;}.cls-18{fill:#bc9731;}.cls-19{fill:#824110;}.cls-20{opacity:0.5;}.cls-21{fill:#ebebeb;}</style></defs><ellipse id="_Path_" data-name="&lt;Path&gt;" class="cls-1" cx="82.43" cy="166.92" rx="82.43" ry="6.51"/><rect class="cls-2" x="26.68" y="66.1" width="43.02" height="63.82" transform="translate(-60.21 111.38) rotate(-70.85)"/><path class="cls-3" d="M85.39,88.16a5.06,5.06,0,0,1-.75.35l-2.19.89-8.1,3.16L47.49,102.84l-.22.08-.12-.2-.31-.48L31.36,77.54c-1.93-3.13-3.51-5.68-4.63-7.51L25.49,68a7.89,7.89,0,0,1-.4-.74,4.18,4.18,0,0,1,.5.67l1.33,2,4.79,7.42,15.62,24.6.31.48-.35-.11L74.21,92.18l8.16-3,2.22-.79A5,5,0,0,1,85.39,88.16Z"/><path class="cls-3" d="M11,107.87c-.08-.14,6.39-4.14,14.45-8.93s14.66-8.56,14.74-8.43-6.38,4.14-14.44,8.93S11.07,108,11,107.87Z"/><path class="cls-3" d="M60.39,97c.15,0,2.71,7,5.72,15.83s5.32,16,5.16,16-2.71-7-5.71-15.83S60.24,97,60.39,97Z"/><rect class="cls-2" x="103.36" y="-0.15" width="29.36" height="43.57" transform="translate(54.71 123.57) rotate(-68.53)"/><path class="cls-3" d="M143.69,16.32a3.74,3.74,0,0,1-.52.22l-1.52.54L136,19l-18.6,6.27-.15.05-.09-.14-.19-.34L107.13,7.59l-2.95-5.26c-.33-.59-.59-1.07-.79-1.44a4,4,0,0,1-.25-.51,2.12,2.12,0,0,1,.32.47l.85,1.41,3.07,5.19c2.57,4.44,6.08,10.51,10,17.21l.2.34-.24-.09L136,18.76l5.65-1.82,1.54-.48A4.06,4.06,0,0,1,143.69,16.32Z"/><path class="cls-3" d="M92.4,27.71c-.05-.1,4.47-2.65,10.1-5.69s10.23-5.44,10.28-5.34-4.46,2.64-10.1,5.69S92.45,27.8,92.4,27.71Z"/><path class="cls-3" d="M126.4,21.64c.1,0,1.65,4.87,3.46,11s3.19,11,3.08,11.06-1.65-4.87-3.46-10.95S126.29,21.67,126.4,21.64Z"/><path class="cls-4" d="M38.65,60.28l5.6-2-2.4-3.21a12.21,12.21,0,0,1-.18-2.15,3.38,3.38,0,0,1,.19-1.09,5.12,5.12,0,0,1,.58-1.24c.27-.33,0-.82-.37-.72A3.5,3.5,0,0,0,40.6,52.2c-.33,1.32-1.24-.63-1.58-1.33A12.64,12.64,0,0,0,37.21,48c-.43-.09-.62.36-.26,1.05s1.29,2.86.91,3-2.07-3.44-2.07-3.44-.24-.83-.69-.66c-.8.31,1.28,4,1.49,4.36s-.26.43-.4.17-1.61-3.64-2.43-3.33c-.63.24,1.69,3.06,1.6,3.93S33.82,50.75,33.23,51c-.22.1-.37.2.73,1.91.37.57,1,1.42,1.76,2.3h0l2.93,5.07"/><path class="cls-5" d="M89,67.13a103.22,103.22,0,0,0-4.67-9.6A6.69,6.69,0,0,0,78.93,54a8.78,8.78,0,0,0-1.62-.33l-10.37-.09a9.88,9.88,0,0,0-6.19,2.27c-.48.4-4.07,4.55-8.82,10.48l-8.32-9-5,2.94S44,78.88,50.8,77.6a16.83,16.83,0,0,0,7.14-3.54l5.26-4.25.12.71c.11.86.38,2.24.58,3.08.63,2.66,1,6.16-.38,8.48,0,0-1.88,1.43-.38,3H82.65s2.77-1.87.24-4l-1.58-4,1-4.83.38-1.93,1.71,2.94s3.41,4.28,6.94,3.75c4.25-.63,6.71-8.37,2.88-18.61L89.63,59.9Z"/><g class="cls-6"><polygon points="38.65 60.28 39.14 61.83 44.65 58.47 43.61 57.34 38.65 60.28"/></g><g class="cls-7"><path d="M63.52,82.08a6.16,6.16,0,0,0,4.11-2.53,6.41,6.41,0,0,0,1.17-4.79A2.13,2.13,0,0,0,68,73.23c-.61-.39-1.45-.19-2.09-.53a4.14,4.14,0,0,1-1.17-1.32c-.36-.47-.87-1.2-1.41-1,0,0,.66,3.44.94,5a11.69,11.69,0,0,1-.16,5.35A7.2,7.2,0,0,1,63.52,82.08Z"/></g><path class="cls-8" d="M51.15,69.51a4.59,4.59,0,0,1,.29-1.61,10.16,10.16,0,0,1,.49-1.56A4.89,4.89,0,0,1,51.64,68,10.16,10.16,0,0,1,51.15,69.51Z"/><path class="cls-8" d="M52.38,68.65A3.16,3.16,0,0,1,52,67.51a3.59,3.59,0,0,1-.13-1.18,3.35,3.35,0,0,1,.34,1.14A3.3,3.3,0,0,1,52.38,68.65Z"/><polygon class="cls-9" points="89.6 45.86 82.52 57.34 88.09 58.9 94.28 49.35 89.6 45.86"/><path class="cls-4" d="M89.16,55.64l.24,1.68,1,1.27.1,1,3.56-1.08-1.44-5.08a10.53,10.53,0,0,0,.14-2.07l-1,1.29-.27-2.11L89.5,49a.49.49,0,0,0-.69.1h0a.49.49,0,0,0,.06.63l1.6,1.42.11,1.75L89.42,51.8a.85.85,0,0,0-.41-.21l-1.62-.32a.41.41,0,0,0-.5.37h0a.41.41,0,0,0,.29.44l1.47.46L90.14,54l-1.45-.56-2,.28a.39.39,0,0,0-.33.38h0a.38.38,0,0,0,.4.38L88,54.45l.74.23-1.7.45a.36.36,0,0,0-.26.35h0a.35.35,0,0,0,.37.33Z"/><g class="cls-6"><polygon points="89.63 59.9 89.47 61.78 94.87 60.29 94.25 58.49 89.63 59.9"/></g><path class="cls-8" d="M82.52,57.34s-.48-.64-.44-.75,6.74-11.15,6.74-11.15l.78.42Z"/><path class="cls-8" d="M91.38,48.75a.25.25,0,1,1,.12.41.26.26,0,0,1-.12-.41"/><path class="cls-10" d="M86.94,62.92a1.14,1.14,0,0,1-.2.27,1.83,1.83,0,0,1-.88.46,3.85,3.85,0,0,1-1.55,0,4.07,4.07,0,0,0-4.13,1.09,7.84,7.84,0,0,1-2.44,1.52,3.88,3.88,0,0,1-1.56.12,6.65,6.65,0,0,1-1.57-.43c-1-.41-2-1-3.1-1.37a5.49,5.49,0,0,0-3.26-.22c-1.06.22-2.06.59-3,.8A7.72,7.72,0,0,1,60,64.42a7.83,7.83,0,0,1-2.72-2.34,5.46,5.46,0,0,1-.65-1.15s.21.42.71,1.1A8,8,0,0,0,60,64.29a7.62,7.62,0,0,0,5.13.66c1-.21,2-.58,3-.81A6.3,6.3,0,0,1,69.89,64a6.81,6.81,0,0,1,1.7.37c1.1.41,2.09,1,3.09,1.37a6.67,6.67,0,0,0,1.52.43,3.71,3.71,0,0,0,1.49-.11,8.06,8.06,0,0,0,2.38-1.46,5.6,5.6,0,0,1,2.2-1.19,5.1,5.1,0,0,1,2.06.12,3.74,3.74,0,0,0,1.52,0,1.81,1.81,0,0,0,.86-.4C86.87,63,86.93,62.91,86.94,62.92Z"/><path class="cls-8" d="M89.16,70.37A7,7,0,0,1,89,68.64a7.32,7.32,0,0,1,0-1.75,7.23,7.23,0,0,1,.16,1.74A7.16,7.16,0,0,1,89.16,70.37Z"/><path class="cls-4" d="M76.94,142.37c.18.68,4.17,23.08,4.17,23.08l6.12-.46-1.12-22.87Z"/><path class="cls-11" d="M87.41,165.34l0-.64-6.52.13,0,2.13h.41c1.79.06,9.12.19,10.31-.17S87.41,165.34,87.41,165.34Z"/><g class="cls-12"><path d="M83.26,166.87a2.07,2.07,0,0,0-.85-1.28,2.35,2.35,0,0,0-1.53-.41l0,1.69Z"/></g><g class="cls-12"><path d="M90.12,166s1.95.48,1.71.78-7.64.43-10.92.23v-.14l8.65-.09S89.74,166,90.12,166Z"/></g><path class="cls-8" d="M80.82,166.82h.43l1.18,0c1,0,2.38,0,3.9,0s2.9-.08,3.89-.13l1.18-.07.32,0H91.4l-1.18,0c-1,0-2.37.08-3.89.11l-3.9,0H80.82Z"/><path class="cls-8" d="M89.57,166.83a2,2,0,0,1,.2-.53,2.54,2.54,0,0,1,.4-.43.83.83,0,0,0-.46.39A.73.73,0,0,0,89.57,166.83Z"/><path class="cls-8" d="M87.63,166s.11-.1.2-.24.15-.26.13-.27-.11.09-.2.24S87.61,166,87.63,166Z"/><path class="cls-8" d="M87.1,165.71a.51.51,0,0,0,.22-.15c.11-.09.19-.18.18-.2s-.12,0-.23.15S87.08,165.69,87.1,165.71Z"/><path class="cls-8" d="M86.75,165.15a.93.93,0,0,0,.34,0,.78.78,0,0,0,.34,0,.89.89,0,0,0-.34,0A.82.82,0,0,0,86.75,165.15Z"/><path class="cls-8" d="M86.63,164.75a.8.8,0,0,0,.38.09.87.87,0,0,0,.39-.05,1.91,1.91,0,0,0-.38,0A2.2,2.2,0,0,0,86.63,164.75Z"/><path class="cls-8" d="M87.84,165.43a1.37,1.37,0,0,0,.42,0,3.31,3.31,0,0,0,.44-.1,1.63,1.63,0,0,0,.25-.1.22.22,0,0,0,.1-.13.14.14,0,0,0-.07-.15.8.8,0,0,0-.94.23.63.63,0,0,0-.13.26.67.67,0,0,0,0,.1,1.44,1.44,0,0,1,.19-.33.64.64,0,0,1,.35-.22.67.67,0,0,1,.5,0c.06,0,0,.12,0,.16a1.73,1.73,0,0,1-.24.1c-.15.05-.3.08-.42.11S87.84,165.42,87.84,165.43Z"/><path class="cls-8" d="M88,165.45a.47.47,0,0,0,0-.28.66.66,0,0,0-.12-.28.44.44,0,0,0-.35-.19.17.17,0,0,0-.13.18.49.49,0,0,0,.08.18,1.14,1.14,0,0,0,.2.23.65.65,0,0,0,.24.15s-.08-.07-.2-.19a1.54,1.54,0,0,1-.18-.23c-.06-.08-.1-.23,0-.25a.39.39,0,0,1,.28.16.56.56,0,0,1,.12.25C88,165.34,87.93,165.44,88,165.45Z"/><path class="cls-8" d="M80.91,165.17s.19,0,.48,0a2.23,2.23,0,0,1,1.06.39,1.91,1.91,0,0,1,.67.84,2.58,2.58,0,0,1,.13.43s0,0,0-.12a1.34,1.34,0,0,0-.08-.32,1.82,1.82,0,0,0-.67-.89,2.08,2.08,0,0,0-1.1-.38,1.26,1.26,0,0,0-.36,0Z"/><path class="cls-8" d="M84.07,166.26a3.66,3.66,0,0,0,1,.07,3.62,3.62,0,0,0,1-.09s-.43,0-1,0S84.07,166.24,84.07,166.26Z"/><path class="cls-8" d="M82.8,166.28s0,.09.08.18.07.17.09.16,0-.09,0-.2S82.81,166.27,82.8,166.28Z"/><path class="cls-8" d="M82.3,165.74s0,.07.1.14.14.1.15.08,0-.07-.09-.14S82.32,165.72,82.3,165.74Z"/><path class="cls-8" d="M81.61,165.5s.09,0,.19,0,.17.08.18.07,0-.1-.16-.14S81.61,165.48,81.61,165.5Z"/><path class="cls-8" d="M81.12,165.39s0,.05.09.06.1,0,.11,0,0,0-.09-.07S81.13,165.37,81.12,165.39Z"/><path class="cls-4" d="M61.38,140.5c0,.7-2.58,22.51-2.58,22.51l6,1.33,5.53-22.22Z"/><path class="cls-11" d="M65.06,164.92l.14-.63-6.37-1.42-.46,2.07.38.11c1.73.49,8.82,2.35,10.06,2.28S65.06,164.92,65.06,164.92Z"/><g class="cls-12"><path d="M60.67,165.41a2.06,2.06,0,0,0-.53-1.44,2.29,2.29,0,0,0-1.38-.76l-.37,1.65Z"/></g><g class="cls-12"><path d="M67.55,166.15s1.78.93,1.48,1.17-7.53-1.4-10.66-2.38l0-.13,8.41,2S67.18,166.08,67.55,166.15Z"/></g><path class="cls-8" d="M58.31,164.78l.1,0,.31.09,1.14.3c1,.26,2.3.59,3.79.93s2.83.61,3.81.8l1.16.21.32.06h.11l-.11,0-.31-.07-1.16-.23c-1-.21-2.32-.49-3.81-.83s-2.82-.66-3.78-.9l-1.15-.28-.31-.07Z"/><path class="cls-8" d="M66.8,166.87a2.44,2.44,0,0,1,.33-.46,2.8,2.8,0,0,1,.48-.32.86.86,0,0,0-.54.27A.78.78,0,0,0,66.8,166.87Z"/><path class="cls-8" d="M65.13,165.57a.82.82,0,0,0,.25-.18c.12-.12.21-.22.19-.24a.76.76,0,0,0-.25.19C65.2,165.45,65.11,165.55,65.13,165.57Z"/><path class="cls-8" d="M64.67,165.2s.13,0,.26-.09.22-.13.21-.15-.12,0-.25.09S64.66,165.18,64.67,165.2Z"/><path class="cls-8" d="M64.47,164.57a1,1,0,0,0,.32.12.86.86,0,0,0,.34,0s-.14-.07-.32-.12A.85.85,0,0,0,64.47,164.57Z"/><path class="cls-8" d="M64.45,164.15s.13.12.34.19a.74.74,0,0,0,.39,0,1.67,1.67,0,0,0-.37-.11C64.61,164.21,64.46,164.14,64.45,164.15Z"/><path class="cls-8" d="M65.46,165.1a1.27,1.27,0,0,0,.4.09,2.28,2.28,0,0,0,.46,0,1.47,1.47,0,0,0,.27,0,.18.18,0,0,0,.12-.09.17.17,0,0,0,0-.17.8.8,0,0,0-1,0,.7.7,0,0,0-.19.22c0,.06,0,.1,0,.1a1.08,1.08,0,0,1,.25-.28.79.79,0,0,1,.4-.13.66.66,0,0,1,.47.14c.06.06,0,.12-.06.15a1.07,1.07,0,0,1-.25,0,2.23,2.23,0,0,1-.44,0C65.62,165.13,65.46,165.09,65.46,165.1Z"/><path class="cls-8" d="M65.56,165.15a.45.45,0,0,0,.1-.26.57.57,0,0,0,0-.3.44.44,0,0,0-.29-.27.16.16,0,0,0-.17.15.48.48,0,0,0,0,.18,1.46,1.46,0,0,0,.14.28c.1.14.19.21.2.2s-.07-.08-.16-.23a2.17,2.17,0,0,1-.12-.26c0-.1,0-.25.07-.24s.18.13.23.22a.7.7,0,0,1,.06.27A1,1,0,0,1,65.56,165.15Z"/><path class="cls-8" d="M58.79,163.2s.19,0,.47.12a2.32,2.32,0,0,1,.93.62,2,2,0,0,1,.45,1,4.35,4.35,0,0,1,0,.45.58.58,0,0,0,0-.12,1.77,1.77,0,0,0-.45-1.36,2.06,2.06,0,0,0-1.33-.7Z"/><path class="cls-8" d="M61.6,165a4.5,4.5,0,0,0,.9.29,4,4,0,0,0,.94.14s-.41-.09-.92-.21S61.6,165,61.6,165Z"/><path class="cls-8" d="M60.36,164.73s0,.09,0,.19,0,.18,0,.19.06-.09,0-.2S60.37,164.72,60.36,164.73Z"/><path class="cls-8" d="M60,164.09s0,.08.06.15.11.14.13.12,0-.08-.07-.15S60,164.08,60,164.09Z"/><path class="cls-8" d="M59.39,163.69s.09,0,.17.09.15.11.17.1,0-.1-.13-.16S59.39,163.67,59.39,163.69Z"/><path class="cls-8" d="M58.94,163.46s0,.06.07.09.1,0,.11,0,0-.06-.07-.09S59,163.45,58.94,163.46Z"/><path class="cls-8" d="M83.85,43.39c-.16-.47-.55-.82-.74-1.27a4.39,4.39,0,0,1,0-2.19A1.81,1.81,0,0,0,82.36,38a7.89,7.89,0,0,1-.86-.29C81,37.39,81,36.65,81,36a3.56,3.56,0,0,0-.31-1.16l.11,0a1.74,1.74,0,0,1,2,1,1,1,0,0,1-.07,1,.65.65,0,0,1-.76.24.54.54,0,0,1-.28-.59.38.38,0,0,1,.43-.25.43.43,0,0,1,.3.17c.05.07.05.12.07.12a.3.3,0,0,0,0-.14.43.43,0,0,0-.33-.23.56.56,0,0,0-.31,0,.42.42,0,0,0-.26.26.68.68,0,0,0,.32.79.82.82,0,0,0,1-.28A1.19,1.19,0,0,0,83,35.75a1.92,1.92,0,0,0-2.06-1.17,1.3,1.3,0,0,0,.12-1,1.46,1.46,0,0,0-.9-.9A1.9,1.9,0,0,0,79,32.57a2.65,2.65,0,0,0-.9.4c-.26.16-.45.34-.64.47a1.21,1.21,0,0,1-.53.2.89.89,0,0,1-.48-.1s.12.19.48.19a1.13,1.13,0,0,0,.59-.19c.21-.11.42-.29.66-.44A2.15,2.15,0,0,1,80,32.83a1.24,1.24,0,0,1,.76.77,1,1,0,0,1-.27,1,2.2,2.2,0,0,0-.84-.87,1.73,1.73,0,0,0-2.34.58l-6.43-2.21a3.11,3.11,0,0,0-3-.59l-.13,0a2,2,0,0,0-1.09.18,3.42,3.42,0,0,0-1.09,1,2.38,2.38,0,0,1-.62.51l-.12,0a4.91,4.91,0,0,1-.86,0,13.79,13.79,0,0,0-1.76-.5,2.85,2.85,0,0,0-1.12.08,2.1,2.1,0,0,0-1,.63,1.73,1.73,0,0,0-.43,1.14,3.37,3.37,0,0,0,.14.89,3.13,3.13,0,0,0-.19,1.21c0,.55.19,1.11.19,1.65a1.61,1.61,0,0,1-.52.27c-.34.11-.7.16-1.05.29a2.45,2.45,0,0,0-1.39,1.47A1.74,1.74,0,0,0,57.12,42a2.47,2.47,0,0,0,.45,2.07,12.9,12.9,0,0,1,1,1.08,5.49,5.49,0,0,1,.47,2.27c.1.77.55,1.64,1.33,1.69.63,0,1.19-.48,1.82-.43.87.07,1.23,1.12,1.74,1.84a3.13,3.13,0,0,0,2.92,1.27,6.33,6.33,0,0,1,2.37-.33c1,.25,1.57,1.4,2.58,1.55a2.6,2.6,0,0,0,2-.91,4.09,4.09,0,0,1,1.86-1.23c.9-.16,1.76.38,2.66.51a3,3,0,0,0,3-1.49c.5-.89.5-2,1-2.91a17.49,17.49,0,0,1,1.19-1.67A2.22,2.22,0,0,0,83.85,43.39ZM58.09,40.5a.53.53,0,0,0-.22,0l.17,0-.12.09a2.37,2.37,0,0,0-.75,1.16,1.61,1.61,0,0,1,0-1.33,2.21,2.21,0,0,1,1.28-1.33c.31-.12.67-.17,1-.28a1.63,1.63,0,0,0,.45-.2,1.65,1.65,0,0,1-.18.61C59.37,39.85,58.66,40.1,58.09,40.5Zm4.38-7.21a3.4,3.4,0,0,0-2.42,1.86,3.31,3.31,0,0,1-.06-.54,1.48,1.48,0,0,1,.37-1A2.16,2.16,0,0,1,62.27,33a4.23,4.23,0,0,1,1.06.27A6.11,6.11,0,0,0,62.47,33.29ZM65.7,33a2.34,2.34,0,0,1-.24.09c.12-.11.22-.22.32-.33a3.61,3.61,0,0,1,1-1,2.06,2.06,0,0,1,1-.2,2.16,2.16,0,0,0-.48.24A14.45,14.45,0,0,1,65.7,33Z"/><path class="cls-4" d="M79.62,46.47a41.28,41.28,0,0,0,0-7.67A4.1,4.1,0,0,0,75.15,35l-6.73.71a1.36,1.36,0,0,0-1.22,1.38l.7,16.54H66.34v3a6.2,6.2,0,1,0,12.4,0V54a9.59,9.59,0,0,0-2.59-.47h-.24c0-1.52.13-2.7.13-2.7S79,50.35,79.62,46.47Z"/><path class="cls-8" d="M78.66,41.31a.5.5,0,0,1-.48.5.48.48,0,0,1-.51-.45.5.5,0,0,1,.48-.5A.47.47,0,0,1,78.66,41.31Z"/><path class="cls-8" d="M79,40.44c-.07.07-.44-.21-1-.21s-.93.27-1,.2,0-.14.2-.27a1.42,1.42,0,0,1,.79-.24,1.31,1.31,0,0,1,.78.25C79,40.3,79,40.41,79,40.44Z"/><path class="cls-8" d="M73.43,41.31a.5.5,0,0,1-.48.5.48.48,0,0,1-.51-.45.49.49,0,0,1,.48-.5A.47.47,0,0,1,73.43,41.31Z"/><path class="cls-8" d="M73.72,40.54c-.06.07-.44-.21-1-.21s-.93.27-1,.2,0-.14.21-.27a1.4,1.4,0,0,1,.79-.24,1.26,1.26,0,0,1,.77.25C73.7,40.39,73.75,40.51,73.72,40.54Z"/><path class="cls-8" d="M75.67,44.51a3.42,3.42,0,0,1,.87-.16c.13,0,.26,0,.28-.13a.59.59,0,0,0-.09-.4l-.4-1a18.26,18.26,0,0,1-.91-2.72,18.82,18.82,0,0,1,1.13,2.64c.13.37.26.72.38,1.05a.81.81,0,0,1,.07.54.34.34,0,0,1-.22.2.69.69,0,0,1-.23,0A3.37,3.37,0,0,1,75.67,44.51Z"/><path class="cls-13" d="M76,50.85a9.85,9.85,0,0,1-5.2-1.39s1.26,2.67,5.14,2.3Z"/><path class="cls-13" d="M75.44,45.8a1,1,0,0,0-.87-.36.89.89,0,0,0-.6.33.58.58,0,0,0,0,.64.67.67,0,0,0,.71.18,2.37,2.37,0,0,0,.68-.41.56.56,0,0,0,.15-.16.16.16,0,0,0,0-.2"/><path class="cls-8" d="M74.09,44.88c.09,0,.09.58.59,1s1.11.35,1.12.43-.14.11-.4.12a1.42,1.42,0,0,1-.94-.33,1.26,1.26,0,0,1-.45-.82C74,45,74.05,44.88,74.09,44.88Z"/><path class="cls-8" d="M74,39.6c0,.15-.58.08-1.21.16s-1.14.24-1.22.11,0-.2.25-.34a2.07,2.07,0,0,1,.91-.31,1.85,1.85,0,0,1,1,.11C73.87,39.42,74,39.53,74,39.6Z"/><path class="cls-8" d="M78.79,39.35c-.1.12-.46,0-.91,0s-.82.08-.9-.05,0-.18.18-.3a1.28,1.28,0,0,1,.74-.2,1.21,1.21,0,0,1,.72.25C78.78,39.16,78.83,39.29,78.79,39.35Z"/><path class="cls-8" d="M81.12,35.33A2.88,2.88,0,0,0,79,33.15a16,16,0,0,0-2.08,0c-.58,0-.78-.49-1.33-.67-.91-.3-1.61-1.31-3.57-1.1a3.05,3.05,0,0,0-1.68,1.35,3.13,3.13,0,0,0-2.28.27,4,4,0,0,0-2,3,12.77,12.77,0,0,0,.14,3.9c.09.59.17,1.18.25,1.77a3.13,3.13,0,0,0,.32,1.13l-.9,8.3a3.45,3.45,0,0,0,4.39-2.41c.35-1.63-.56-3.3-.42-5,.09-1,.65-1.91.65-2.9a3.73,3.73,0,0,0-.14-1h0c1.58-1.28,2-2.31,1.91-3.51a3.06,3.06,0,0,0,1.65.54,7.32,7.32,0,0,1,2.47,0,4.24,4.24,0,0,1,1.38,1.13,2,2,0,0,0,1.57.72,4.66,4.66,0,0,0,.82-.28,1,1,0,0,1,.83,0A6.57,6.57,0,0,0,81.12,35.33Z"/><path class="cls-9" d="M57.92,43.83a6,6,0,0,0,1.29.74,4.6,4.6,0,0,0,1.68.36A3.57,3.57,0,0,0,63,44.28,3.29,3.29,0,0,0,64.42,42a2.43,2.43,0,0,0-.29-1.46,1.57,1.57,0,0,0-1.27-.79,1.11,1.11,0,0,0-.74.25,1.43,1.43,0,0,0-.45.67A1.7,1.7,0,0,0,62,42.3a2.79,2.79,0,0,0,1.54.91,4.25,4.25,0,0,0,1.88,0,3.92,3.92,0,0,0,1.71-.77,3.28,3.28,0,0,0,1.2-3.19,2.39,2.39,0,0,0-.29-.8,1.76,1.76,0,0,0-.52-.62,1.26,1.26,0,0,0-.72-.27.66.66,0,0,0-.6.33,1,1,0,0,0-.08.71,1.37,1.37,0,0,0,.38.6A3.39,3.39,0,0,0,71,39.06a3.7,3.7,0,0,0,.86-1.48A4.22,4.22,0,0,0,72,36.11a2,2,0,0,1,.06.38A3.38,3.38,0,0,1,72,37.6a3.65,3.65,0,0,1-.86,1.54,3.3,3.3,0,0,1-2.08,1,3.42,3.42,0,0,1-2.68-.8,1.45,1.45,0,0,1-.43-.69,1.08,1.08,0,0,1,.09-.84.86.86,0,0,1,.76-.43,1.4,1.4,0,0,1,.83.3,2,2,0,0,1,.59.68,2.8,2.8,0,0,1,.31.85,3.44,3.44,0,0,1-.14,1.85,3.48,3.48,0,0,1-1.13,1.56,4.21,4.21,0,0,1-1.8.81,4.51,4.51,0,0,1-2,0,3.06,3.06,0,0,1-1.65-1,1.92,1.92,0,0,1-.4-.87,2.13,2.13,0,0,1,.07-.94,1.67,1.67,0,0,1,.53-.77,1.35,1.35,0,0,1,.86-.28,1.73,1.73,0,0,1,1.43.89A2.58,2.58,0,0,1,64.6,42a3.41,3.41,0,0,1-1.48,2.37,3.6,3.6,0,0,1-2.23.64,4.64,4.64,0,0,1-1.71-.39,4.36,4.36,0,0,1-1-.57A2.07,2.07,0,0,1,58,43.9C57.94,43.86,57.92,43.84,57.92,43.83Z"/><path class="cls-9" d="M81.34,37.09a1,1,0,0,1-.19.13,2.33,2.33,0,0,1-1.65.2,2.73,2.73,0,0,1-1.23-.63,3.59,3.59,0,0,1-1-1.37,1.22,1.22,0,0,1,0-1,.76.76,0,0,1,.36-.39.61.61,0,0,1,.56,0,.87.87,0,0,1,.41,1,1.44,1.44,0,0,1-.77.82,3,3,0,0,1-2.26,0,5.11,5.11,0,0,1-1-.51,3.53,3.53,0,0,1-.89-.7.92.92,0,0,1-.09-1.12.58.58,0,0,1,.56-.19.81.81,0,0,1,.48.3.67.67,0,0,1,.15.53.91.91,0,0,1-.21.48,1.28,1.28,0,0,1-.86.43,2.29,2.29,0,0,1-.88-.11,6.52,6.52,0,0,1-.75-.29A2.63,2.63,0,0,1,71,33.9a1.45,1.45,0,0,1-.28-1,1.17,1.17,0,0,1,.22-.62.54.54,0,0,1,.17-.15,1.16,1.16,0,0,0-.31.77,1.49,1.49,0,0,0,.29.93,2.56,2.56,0,0,0,1.06.77,3.47,3.47,0,0,0,1.55.37,1.09,1.09,0,0,0,.73-.38.6.6,0,0,0,.06-.77c-.17-.24-.55-.34-.73-.1a.57.57,0,0,0-.1.43.83.83,0,0,0,.19.43,3.68,3.68,0,0,0,.84.65,5.15,5.15,0,0,0,1,.49,2.8,2.8,0,0,0,2.11,0,1.2,1.2,0,0,0,.66-.69.65.65,0,0,0-.3-.76.48.48,0,0,0-.66.29,1.06,1.06,0,0,0,0,.82,3.76,3.76,0,0,0,.9,1.32,2.84,2.84,0,0,0,1.16.63,2.45,2.45,0,0,0,1,0A3.51,3.51,0,0,0,81.34,37.09Z"/><path class="cls-9" d="M70,46.19s0,.06-.16.14a2,2,0,0,1-.57.23,1.85,1.85,0,0,1-1-.07,1.57,1.57,0,0,1-1-.84.65.65,0,0,1,.15-.77.69.69,0,0,1,.84,0,1.72,1.72,0,0,1,.6,1.67,2.06,2.06,0,0,1-1.13,1.61,2.31,2.31,0,0,1-2.1-.16,2.34,2.34,0,0,1-.81-.75,1.35,1.35,0,0,1-.19-1.07A1,1,0,0,1,65,45.7a.79.79,0,0,1,.52-.2,1,1,0,0,1,.84.57,2,2,0,0,1,.23.91,2.86,2.86,0,0,1-.08.88,2.81,2.81,0,0,1-.77,1.35,2,2,0,0,1-1.18.53,1.89,1.89,0,0,1-1-.15,1.58,1.58,0,0,1-.5-.34,1.66,1.66,0,0,1-.14-.17,2.31,2.31,0,0,0,.67.43,1.88,1.88,0,0,0,.92.11,1.82,1.82,0,0,0,1.08-.52,2.62,2.62,0,0,0,.71-1.29A3.17,3.17,0,0,0,66.4,47a2,2,0,0,0-.22-.83.8.8,0,0,0-.67-.45.62.62,0,0,0-.59.53,1.13,1.13,0,0,0,.17.9,2.17,2.17,0,0,0,.73.68,2.13,2.13,0,0,0,1.91.15,1.87,1.87,0,0,0,1-1.45A1.53,1.53,0,0,0,68.25,45a.53.53,0,0,0-.64,0,.52.52,0,0,0-.11.59,1.44,1.44,0,0,0,.87.78,1.91,1.91,0,0,0,.92.1A2.06,2.06,0,0,0,70,46.19Z"/><path class="cls-14" d="M53.86,141.38s2.62,5.09,9.45,2.62c0,0,6.69,3.63,13.08-.44,0,0,8.29,1.11,12.79-1.07l-5.79-50-.74-7.68H64.38S59,87.3,58.08,99.37,55.31,128,55.31,128Z"/><path class="cls-9" d="M76,143.71s0-.05,0-.15l0-.44c0-.4-.07-1-.13-1.71-.11-1.48-.25-3.62-.41-6.28-.32-5.3-.65-12.64-.83-20.75s-.16-15.45-.07-20.76c0-2.66.09-4.81.14-6.3q0-1.09.06-1.71l0-.44a.85.85,0,0,1,0-.15.85.85,0,0,1,0,.15v.44l0,1.71-.08,6.3c0,5.31,0,12.65.13,20.76s.49,15.44.77,20.74c.15,2.65.27,4.79.35,6.29l.09,1.71,0,.44Q76,143.71,76,143.71Z"/><path class="cls-9" d="M77.61,129.42s0-.06.14-.08a.65.65,0,0,1,.44,0,.78.78,0,0,1,.42.53.76.76,0,0,1-1.2.69.76.76,0,0,1-.24-.64.68.68,0,0,1,.18-.41c.08-.07.14-.09.14-.08s-.18.17-.18.5a.67.67,0,0,0,.22.48.52.52,0,0,0,.6,0,.55.55,0,0,0,.3-.53.66.66,0,0,0-.3-.43A.93.93,0,0,0,77.61,129.42Z"/><path class="cls-9" d="M77.2,114.57s0-.06.14-.08a.68.68,0,0,1,.45.05.8.8,0,0,1,.42.53.76.76,0,0,1-1.21.69.79.79,0,0,1-.24-.64.75.75,0,0,1,.18-.41c.08-.07.14-.09.14-.08a1,1,0,0,0-.17.5.62.62,0,0,0,.21.48.58.58,0,0,0,.9-.51.61.61,0,0,0-.3-.43A.83.83,0,0,0,77.2,114.57Z"/><path class="cls-9" d="M77,101.44s0,0,.14-.08a.64.64,0,0,1,.45.06A.73.73,0,0,1,78,102a.71.71,0,0,1-.38.73.74.74,0,0,1-.83-.05.76.76,0,0,1-.23-.63.63.63,0,0,1,.17-.41c.08-.08.14-.09.15-.08a.88.88,0,0,0-.18.5.63.63,0,0,0,.22.48.54.54,0,0,0,.6,0,.51.51,0,0,0,.29-.52.62.62,0,0,0-.3-.44A.93.93,0,0,0,77,101.44Z"/><path class="cls-9" d="M76.49,87.4s0-.05.15-.08a.66.66,0,0,1,.44.05.78.78,0,0,1,.42.53.76.76,0,0,1-1.2.69.75.75,0,0,1-.24-.63.63.63,0,0,1,.18-.41c.07-.08.13-.1.14-.09a1,1,0,0,0-.18.5.6.6,0,0,0,.22.48.52.52,0,0,0,.6,0,.54.54,0,0,0,.3-.53A.64.64,0,0,0,77,87.5.92.92,0,0,0,76.49,87.4Z"/><path class="cls-14" d="M130.61,19a22.79,22.79,0,0,0-22.79,22.79c0,.11,0,.23,0,.34l-9.71,7.69,11.54.95a22.79,22.79,0,1,0,21-31.77Z"/><path class="cls-15" d="M117.67,51.57h24.74l-3.34-3.84V38.51a9,9,0,0,0-9-9h0a9,9,0,0,0-9,9v8.77Z"/><path class="cls-15" d="M126.58,50.35a3.82,3.82,0,1,0,7.47-1.28"/><rect class="cls-15" x="128.99" y="25.75" width="2.43" height="5.16"/><path class="cls-11" d="M52.11,120.48c1.28,4.33.31,9.89-1.24,14.13a21.38,21.38,0,0,1-8.26,10.44,1.47,1.47,0,0,1-1.42.31,1.43,1.43,0,0,1-.57-1.06,22.07,22.07,0,0,1,11.49-23.82"/><path class="cls-16" d="M52.11,120.48c1.28,4.33.31,9.89-1.24,14.13a21.38,21.38,0,0,1-8.26,10.44,1.47,1.47,0,0,1-1.42.31,1.43,1.43,0,0,1-.57-1.06,22.07,22.07,0,0,1,11.49-23.82"/><path class="cls-17" d="M32.87,99.94c2.7-.07,4.48,2.93,4.75,5.61s-.33,5.47.46,8c1,3.28,4.06,5.63,5,8.93,1.09,3.88-1,7.92-1.14,12,0,2,.38,3.95,0,5.88a7.47,7.47,0,0,1-7,5.9,7.47,7.47,0,0,1-7.15-5.76c-.63-3,.7-6.24-.09-9.22-.6-2.21-2.31-4.08-2.45-6.36-.16-2.72,1.94-5.06,2.32-7.75s-1-5.32-1.17-8c-.36-4.87,1.65-8.68,6.5-9.21"/><path class="cls-8" d="M38.78,155.33a.91.91,0,0,0,.08-.27q.07-.3.18-.78c.14-.68.37-1.66.66-2.87.59-2.42,1.51-5.73,2.78-9.31a94.18,94.18,0,0,1,3.74-9c.53-1.13,1-2,1.3-2.65l.35-.72a.86.86,0,0,0,.11-.26,1.23,1.23,0,0,0-.15.24l-.4.69c-.35.61-.82,1.5-1.38,2.62a84.19,84.19,0,0,0-3.81,9,82.22,82.22,0,0,0-2.71,9.36c-.27,1.21-.47,2.2-.59,2.89,0,.32-.1.58-.13.79A1,1,0,0,0,38.78,155.33Z"/><path class="cls-8" d="M33,113.21a2.31,2.31,0,0,0,0,.43c0,.3.09.72.15,1.23.15,1.09.35,2.63.6,4.52.51,3.82,1.2,9.09,1.94,14.92s1.36,11.12,1.81,14.94c.23,1.89.41,3.43.54,4.53.07.51.12.92.16,1.23a2.47,2.47,0,0,0,.07.42,2.77,2.77,0,0,0,0-.43c0-.3-.06-.71-.11-1.23-.11-1.1-.27-2.64-.46-4.54-.41-3.83-1-9.12-1.74-14.95s-1.46-11.1-2-14.91c-.28-1.89-.51-3.42-.68-4.51-.08-.52-.15-.92-.2-1.23S33,113.21,33,113.21Z"/><rect class="cls-14" x="27.72" y="150.04" width="20.46" height="2.39"/><polygon class="cls-14" points="29.62 152.43 32.02 166.93 44.72 166.93 46.38 152.43 29.62 152.43"/><path class="cls-9" d="M46.44,152.33c0,.06-3.78.15-8.44.21s-8.44.06-8.44,0,3.77-.14,8.44-.2S46.44,152.28,46.44,152.33Z"/><path class="cls-9" d="M45.75,159.59h-.12l-.34,0a9.38,9.38,0,0,1-1.31-.05,3.94,3.94,0,0,1-1.93-.73,2.64,2.64,0,0,1-.84-1,2,2,0,0,1-.12-1.46,1.3,1.3,0,0,1,1.27-.92,1.13,1.13,0,0,1,.79.4,1.85,1.85,0,0,1,.4.82,2.79,2.79,0,0,1-1.95,3A3.12,3.12,0,0,1,38,158.07a2.76,2.76,0,0,1-.29-1.1,1.8,1.8,0,0,1,.29-1.12,1.44,1.44,0,0,1,1-.62,1.22,1.22,0,0,1,1.08.54,1.88,1.88,0,0,1,.35,1.14,2.65,2.65,0,0,1-.3,1.14,3.47,3.47,0,0,1-1.63,1.54,6.55,6.55,0,0,1-2.09.59,4.51,4.51,0,0,1-2.07-.18,3,3,0,0,1-1.56-1.22,2.17,2.17,0,0,1-.2-1.85,1.71,1.71,0,0,1,1.29-1.15,1.64,1.64,0,0,1,1.49.56,1.4,1.4,0,0,1,.14,1.44,2.24,2.24,0,0,1-.86,1,5.62,5.62,0,0,1-1,.5c-.32.12-.63.22-.9.3-.54.15-1,.24-1.27.29l-.34.05H31l.11,0,.33-.07c.29-.07.72-.16,1.26-.33.27-.08.56-.19.88-.31a5.12,5.12,0,0,0,1-.5,2.14,2.14,0,0,0,.81-.94,1.28,1.28,0,0,0-.13-1.3,1.49,1.49,0,0,0-1.36-.49A1.53,1.53,0,0,0,32.73,157a2,2,0,0,0,.19,1.7,2.9,2.9,0,0,0,1.47,1.14,4.58,4.58,0,0,0,2,.16,6.56,6.56,0,0,0,2-.57A3.35,3.35,0,0,0,39.94,158a2,2,0,0,0,0-2.07,1,1,0,0,0-.89-.45,1.23,1.23,0,0,0-.87.52,1.6,1.6,0,0,0-.26,1,2.53,2.53,0,0,0,.27,1,2.92,2.92,0,0,0,3.4,1.57,2.62,2.62,0,0,0,1.83-2.83A1.68,1.68,0,0,0,43,156a1,1,0,0,0-.68-.35,1.19,1.19,0,0,0-1.13.82,1.84,1.84,0,0,0,.1,1.35,2.71,2.71,0,0,0,.8,1,3.87,3.87,0,0,0,1.88.74,10.41,10.41,0,0,0,1.29.09h.46Z"/><polygon class="cls-18" points="89.59 92.15 156.53 104.86 149.42 150.68 80.33 136.37 89.59 92.15"/><path class="cls-11" d="M89.59,92.15,126.28,72.8a3.7,3.7,0,0,1,4.59.92l25.66,31.14"/><g class="cls-12"><path class="cls-19" d="M89.59,92.15,126.28,72.8a3.7,3.7,0,0,1,4.59.92l25.66,31.14"/></g><path class="cls-8" d="M80.33,136.37c-.07-.1,6.44-4.88,14.53-10.69s14.7-10.44,14.77-10.35S103.2,120.21,95.1,126,80.4,136.46,80.33,136.37Z"/><path class="cls-8" d="M149.42,150.68c-.1.06-4.18-6.7-9.12-15.09s-8.85-15.24-8.75-15.3,4.18,6.7,9.12,15.09S149.52,150.62,149.42,150.68Z"/><g class="cls-20"><polyline points="156.53 104.86 117.67 125.05 89.59 92.15"/></g><polygon class="cls-10" points="92.46 95.3 96.48 74.4 155.15 85.26 151.47 107.36 117.73 124.7 92.46 95.3"/><path class="cls-8" d="M92.46,95.3s.17.17.47.52l1.34,1.55,5.11,5.92,18.4,21.37-.07,0,33.73-17.35,0,.06c.7-4.22,1.44-8.64,2.19-13.14q.75-4.54,1.49-9l.06.09L96.47,74.44l.06,0c-1.27,6.57-2.29,11.79-3,15.37-.35,1.79-.62,3.16-.8,4.1l-.21,1.06-.08.36s0-.12.07-.36.11-.59.19-1.06c.18-.93.44-2.31.78-4.1.68-3.58,1.68-8.81,2.94-15.39v0h0l58.68,10.84h.07v.08c-.49,2.93-1,5.93-1.49,9-.75,4.51-1.49,8.93-2.19,13.14v0l0,0-33.75,17.32,0,0,0,0c-7.66-8.93-14-16.29-18.37-21.42l-5.08-5.93-1.33-1.56Z"/><path class="cls-8" d="M143.83,94s-9-1.64-20-3.75-20-3.86-20-3.9,9,1.63,20,3.75S143.83,93.91,143.83,94Z"/><path class="cls-8" d="M142.66,99.85s-9-1.64-20-3.76-20-3.86-20-3.9,9,1.64,20,3.76S142.67,99.81,142.66,99.85Z"/><path class="cls-8" d="M141.32,106.64s-9-1.64-20-3.75-20-3.86-20-3.9,9,1.64,20,3.75S141.33,106.6,141.32,106.64Z"/><path class="cls-8" d="M140,113.44s-8.57-1.56-19.11-3.58-19.09-3.68-19.09-3.72,8.57,1.56,19.12,3.58S140,113.4,140,113.44Z"/><path class="cls-8" d="M131.31,117.93l-.24,0-.67-.12-2.48-.44-8.18-1.5c-3.2-.57-6.09-1.13-8.18-1.54l-2.47-.49-.67-.14-.23-.06a.67.67,0,0,1,.23,0l.68.11,2.48.45,8.18,1.49c3.2.58,6.09,1.13,8.18,1.54l2.47.5.67.14A.79.79,0,0,1,131.31,117.93Z"/><path class="cls-8" d="M122.64,122.17s-1.92-.3-4.27-.76-4.26-.88-4.25-.92,1.92.3,4.28.77S122.65,122.13,122.64,122.17Z"/><circle class="cls-8" cx="144.66" cy="114.36" r="7.21"/><circle class="cls-9" cx="142.82" cy="114" r="7.21" transform="translate(3.31 232.03) rotate(-78.83)"/><path class="cls-21" d="M144.37,110.89l-1.17,5.87-1.09-.21,1-5-1.24-.25.18-.91Z"/></svg>