<svg xmlns="http://www.w3.org/2000/svg" xmlns:xlink="http://www.w3.org/1999/xlink" viewBox="0 0 300 200" style="width:100%; height:100vh;" preserveAspectRatio="none"><defs><style>.cls-1{fill:none;}.cls-2{isolation:isolate;}.cls-3{clip-path:url(#clip-path);}.cls-4{fill:#e9e9e9;}.cls-5{fill:url(#linear-gradient);}.cls-6{clip-path:url(#clip-path-2);}.cls-7{opacity:0.2;}.cls-8{mix-blend-mode:overlay;}.cls-9{fill:#7cb0bf;}.cls-10{fill:#088096;}.cls-11{fill:#4ec1ea;}.cls-12{fill:#33bce0;}</style><clipPath id="clip-path"><rect class="cls-1" width="300" height="200"/></clipPath><linearGradient id="linear-gradient" x1="123.78" y1="0.1" x2="176.53" y2="201.1" gradientUnits="userSpaceOnUse"><stop offset="0" stop-color="#15172d"/><stop offset="1" stop-color="#07b0cf"/></linearGradient><clipPath id="clip-path-2"><path class="cls-1" d="M300,0V29.32h-1.56V25.74H298v3.58h-1.56V64.57h-1.59V23.71h-1.56V20.12h-0.4v3.59h-1.56V64.57h-1.59v-28h-1.56V33h-0.4v3.59h-1.56v34h-1.59V42.31h-1.56V38.73h-0.4v3.58h-1.56V75.42h-1.59V39H278V35.42h-0.4V39H276V74.92h-1.59V49h-1.56V45.42h-0.4V49h-1.56V81.27h-1.59V58.92h-1.56V55.33h-0.4v3.59h-1.56v28.3h-1.59V60h-1.56V56.45h-0.4V60h-1.56V89.42h-1.59V66.66h-1.56V63.08h-0.4v3.58H255.6V94.91H254V67.62h-1.56V64h-0.4v3.58h-1.56V94.26H248.9v-21h-1.56V69.68h-0.4v3.58h-1.56V98.7h-1.59V64.56h-1.56V61h-0.4v3.58h-1.56V92.94h-1.59V56.08h-1.56V52.5h-0.4v3.58h-1.56V86.32h-1.59V68H232V64.38h-0.4V68h-1.56V95.63h-1.59V60.71H226.9V57.12h-0.4v3.59h-1.56V90.46h-1.59v-37h-1.56V49.9h-0.4v3.58h-1.56V84.8h-1.59V52.45h-1.56V48.86h-0.4v3.59h-1.56v35h-1.59V59.21h-1.56V55.63h-0.4v3.58h-1.56V88.66H208V47.91h-1.56V44.32h-0.4v3.59H204.5V83.43h-1.59V61.83h-1.56V58.25H201v3.58h-1.56V92.15H197.8V68.31h-1.56V64.72h-0.4v3.59h-1.56V97.66h-1.59V81h-1.56V77.43h-0.4V81h-1.56v25.76h-1.59V85.36H186V81.78h-0.4v3.58h-1.56V111.6h-1.59V77.87h-1.56V74.29h-0.4v3.58H179V103.6h-1.59V69.74H175.8V66.16h-0.4v3.58h-1.56V98.32h-1.59V83.72h-1.56V80.13h-0.4v3.59h-1.56v26.33h-1.59V90.34h-1.56V86.76h-0.4v3.58h-1.56V112.4H162V89.52h-1.56V85.94h-0.4v3.58h-1.56v26.75h-1.59V82.76h-1.56V79.18H155v3.58H153.4v25.33h-1.59V94h-1.56V90.43h-0.4V94h-1.56v24.51H146.7V104h-1.56v-3.59h-0.4V104h-1.56v21.81h-1.59V93.07H140V89.49h-0.4v3.58h-1.56v24.76h-1.59v-17.1h-1.56V97.15h-0.4v3.58H133v19.89h-1.59v-15h-1.56V102h-0.4v3.58h-1.56v21.77h-1.59V109.11h-1.55v-3.59H124.3v3.59h-1.56v19.1h-1.59V107.74H119.6v-3.59h-0.41v3.59h-1.56v19.64H116v-21h-1.55v-3.59h-0.41v3.59h-1.56v19h-1.59v-12h-1.55v-3.59H109v3.59h-1.56v19.27h-1.59V109.09h-1.55V105.5h-0.41v3.59H102.3v23.65h-1.59V117H99.16v-3.59H98.75V117H97.19v6.79s0,12.58,0,12.58H95.6V115.26H94.05v-3.59H93.64v3.59H92.09v21.09h-1.6v-16.6H88.94v-3.59H88.53v3.59H87v16.6h-1.6v-7.57H83.83v-3.59H83.42v3.59H81.87v15.31h-1.6v-3.54H78.72V137H78.31v3.59H76.76v12.89h-1.6V143H73.61v-3.59H73.2V143H71.65v16.65h-1.6v-0.93H68.5v-3.59H68.09v3.59H66.54v8.76h-1.6V150H63.39v-3.58H63V150H61.43v11.41h-1.6V144H58.28v-3.58H57.87V144H56.32v13.44H54.73V146.52H53.17v-3.58H52.76v3.58H51.21v11.61H49.62V142.21H48.06v-3.59H47.65v3.59H46.1V155.8H44.51v-15H43v-3.58H42.54v3.58H41v13.57H39.4V133.46H37.84v-3.58H37.43v3.58H35.88v14.86H34.29v-6.1H32.73v-3.59H32.32v3.59H30.77V155.8H29.18v-8.9H27.62v-3.58H27.21v3.58H25.66v14.47H24.07v-5.72H22.51v-3.58h-0.4v3.58H20.55v9.95H19v-4.71H17.4v-3.58H17v3.58H15.44v9.51H13.85v-3.55H12.29v-3.59h-0.4v3.59H10.33V176H8.74v-14.5H7.18V157.9H6.78v3.59H5.22v9.94H3.63V146.9H2.07v-3.58H1.67v3.58H0.11v16.26H0V0H300Z"/></clipPath></defs><title>background_login</title><g class="cls-2"><g id="Ñëîé_1" data-name="Ñëîé 1"><g id="bg"><g class="cls-3"><rect class="cls-4" width="300" height="200"/><rect class="cls-5" width="300" height="200"/><g class="cls-6"><g class="cls-7"><g class="cls-8"><path class="cls-9" d="M160.51,29H144.1a2.57,2.57,0,0,1-2.57-2.57V10a2.57,2.57,0,0,1,2.57-2.57h16.4A2.57,2.57,0,0,1,163.08,10v16.4A2.57,2.57,0,0,1,160.51,29ZM144.1,8.39A1.61,1.61,0,0,0,142.49,10v16.4A1.61,1.61,0,0,0,144.1,28h16.4a1.61,1.61,0,0,0,1.61-1.61V10a1.61,1.61,0,0,0-1.61-1.61H144.1Z"/><path class="cls-9" d="M86.36,59.15H70a2.57,2.57,0,0,1-2.57-2.57V40.18A2.57,2.57,0,0,1,70,37.61h16.4a2.57,2.57,0,0,1,2.57,2.57v16.4A2.57,2.57,0,0,1,86.36,59.15ZM70,38.57a1.61,1.61,0,0,0-1.61,1.61v16.4A1.61,1.61,0,0,0,70,58.2h16.4A1.61,1.61,0,0,0,88,56.59V40.18a1.61,1.61,0,0,0-1.61-1.61H70Z"/><rect class="cls-9" y="42.06" width="67.87" height="0.96"/><rect class="cls-9" x="47.42" y="47.9" width="20.45" height="0.96"/><rect class="cls-9" y="53.75" width="67.87" height="0.96"/><rect class="cls-9" y="11.88" width="142.01" height="0.96"/><rect class="cls-9" x="87.33" y="17.72" width="54.68" height="0.96"/><rect class="cls-9" y="23.57" width="142.01" height="0.96"/><path class="cls-9" d="M85.69,20.32a2.12,2.12,0,1,1,2.12-2.12A2.12,2.12,0,0,1,85.69,20.32Zm0-3.28a1.16,1.16,0,1,0,1.16,1.16A1.16,1.16,0,0,0,85.69,17Z"/><path class="cls-9" d="M44.14,20.32a2.12,2.12,0,1,1,2.12-2.12A2.12,2.12,0,0,1,44.14,20.32Zm0-3.28A1.16,1.16,0,1,0,45.3,18.2,1.16,1.16,0,0,0,44.14,17Z"/><path class="cls-9" d="M27.11,8.82A2.12,2.12,0,1,1,29.23,6.7,2.12,2.12,0,0,1,27.11,8.82Zm0-3.28A1.16,1.16,0,1,0,28.27,6.7,1.16,1.16,0,0,0,27.11,5.54Z"/><path class="cls-9" d="M53.1,20.32a2.12,2.12,0,1,1,2.12-2.12A2.12,2.12,0,0,1,53.1,20.32Zm0-3.28a1.16,1.16,0,1,0,1.16,1.16A1.16,1.16,0,0,0,53.1,17Z"/><path class="cls-9" d="M76.15,20.32a2.12,2.12,0,1,1,2.12-2.12A2.12,2.12,0,0,1,76.15,20.32Zm0-3.28a1.16,1.16,0,1,0,1.16,1.16A1.16,1.16,0,0,0,76.15,17Z"/><path class="cls-9" d="M78.16,33.57a2.12,2.12,0,1,1,2.12-2.12A2.12,2.12,0,0,1,78.16,33.57Zm0-3.28a1.16,1.16,0,1,0,1.16,1.16A1.16,1.16,0,0,0,78.16,30.28Z"/><path class="cls-9" d="M95.86,50.5A2.12,2.12,0,1,1,98,48.38,2.12,2.12,0,0,1,95.86,50.5Zm0-3.28A1.16,1.16,0,1,0,97,48.38,1.16,1.16,0,0,0,95.86,47.22Z"/><path class="cls-9" d="M142,42.7a2.12,2.12,0,1,1,2.12-2.12A2.12,2.12,0,0,1,142,42.7Zm0-3.28a1.16,1.16,0,1,0,1.16,1.16A1.16,1.16,0,0,0,142,39.42Z"/><path class="cls-9" d="M139.39,33.57a2.12,2.12,0,1,1,2.12-2.12A2.12,2.12,0,0,1,139.39,33.57Zm0-3.28a1.16,1.16,0,1,0,1.16,1.16A1.16,1.16,0,0,0,139.39,30.28Z"/><path class="cls-9" d="M95.86,59.64A2.12,2.12,0,1,1,98,57.52,2.12,2.12,0,0,1,95.86,59.64Zm0-3.28A1.16,1.16,0,1,0,97,57.52,1.16,1.16,0,0,0,95.86,56.36Z"/><path class="cls-9" d="M142,59.64a2.12,2.12,0,1,1,2.12-2.12A2.12,2.12,0,0,1,142,59.64Zm0-3.28a1.16,1.16,0,1,0,1.16,1.16A1.16,1.16,0,0,0,142,56.36Z"/><path class="cls-9" d="M95.86,41.06A2.12,2.12,0,1,1,98,38.94,2.12,2.12,0,0,1,95.86,41.06Zm0-3.28A1.16,1.16,0,1,0,97,38.94,1.16,1.16,0,0,0,95.86,37.78Z"/><path class="cls-9" d="M152.3,50.5a2.12,2.12,0,1,1,2.12-2.12A2.12,2.12,0,0,1,152.3,50.5Zm0-3.28a1.16,1.16,0,1,0,1.16,1.16A1.16,1.16,0,0,0,152.3,47.22Z"/><path class="cls-9" d="M191.63,15.1A2.12,2.12,0,1,1,193.75,13,2.12,2.12,0,0,1,191.63,15.1Zm0-3.28A1.16,1.16,0,1,0,192.79,13,1.16,1.16,0,0,0,191.63,11.82Z"/><path class="cls-9" d="M197.43,19.92a2.12,2.12,0,1,1,2.12-2.12A2.12,2.12,0,0,1,197.43,19.92Zm0-3.28a1.16,1.16,0,1,0,1.16,1.16A1.16,1.16,0,0,0,197.43,16.64Z"/><path class="cls-9" d="M178.17,25.74a2.12,2.12,0,1,1,2.12-2.12A2.12,2.12,0,0,1,178.17,25.74Zm0-3.28a1.16,1.16,0,1,0,1.16,1.16A1.16,1.16,0,0,0,178.17,22.45Z"/><path class="cls-9" d="M215.65,25.74a2.12,2.12,0,1,1,2.12-2.12A2.12,2.12,0,0,1,215.65,25.74Zm0-3.28a1.16,1.16,0,1,0,1.16,1.16A1.16,1.16,0,0,0,215.65,22.45Z"/><path class="cls-9" d="M243.36,17.37a2.12,2.12,0,1,1,2.12-2.12A2.12,2.12,0,0,1,243.36,17.37Zm0-3.28a1.16,1.16,0,1,0,1.16,1.16A1.16,1.16,0,0,0,243.36,14.09Z"/><path class="cls-9" d="M198.39,31.15A2.12,2.12,0,1,1,200.51,29,2.12,2.12,0,0,1,198.39,31.15Zm0-3.28A1.16,1.16,0,1,0,199.55,29,1.16,1.16,0,0,0,198.39,27.87Z"/><path class="cls-9" d="M193.27,38.13A2.12,2.12,0,1,1,195.39,36,2.12,2.12,0,0,1,193.27,38.13Zm0-3.28A1.16,1.16,0,1,0,194.43,36,1.16,1.16,0,0,0,193.27,34.85Z"/><path class="cls-9" d="M183.33,15.1A2.12,2.12,0,1,1,185.45,13,2.12,2.12,0,0,1,183.33,15.1Zm0-3.28A1.16,1.16,0,1,0,184.49,13,1.16,1.16,0,0,0,183.33,11.82Z"/><path class="cls-9" d="M173,4.8a2.12,2.12,0,1,1,2.12-2.12A2.12,2.12,0,0,1,173,4.8Zm0-3.28a1.16,1.16,0,1,0,1.16,1.16A1.16,1.16,0,0,0,173,1.52Z"/><path class="cls-9" d="M181.69,4.8a2.12,2.12,0,1,1,2.12-2.12A2.12,2.12,0,0,1,181.69,4.8Zm0-3.28a1.16,1.16,0,1,0,1.16,1.16A1.16,1.16,0,0,0,181.69,1.52Z"/><path class="cls-9" d="M27.32,31.92a2.12,2.12,0,1,1,2.12-2.12A2.12,2.12,0,0,1,27.32,31.92Zm0-3.28a1.16,1.16,0,1,0,1.16,1.16A1.16,1.16,0,0,0,27.32,28.64Z"/><path class="cls-9" d="M69.51,33.57a2.12,2.12,0,1,1,2.12-2.12A2.12,2.12,0,0,1,69.51,33.57Zm0-3.28a1.16,1.16,0,1,0,1.16,1.16A1.16,1.16,0,0,0,69.51,30.28Z"/><path class="cls-9" d="M59.14,61.28a2.12,2.12,0,1,1,2.12-2.12A2.12,2.12,0,0,1,59.14,61.28Zm0-3.28a1.16,1.16,0,1,0,1.16,1.16A1.16,1.16,0,0,0,59.14,58Z"/><path class="cls-9" d="M45.78,50.5a2.12,2.12,0,1,1,2.12-2.12A2.12,2.12,0,0,1,45.78,50.5Zm0-3.28a1.16,1.16,0,1,0,1.16,1.16A1.16,1.16,0,0,0,45.78,47.22Z"/><polygon class="cls-9" points="243.27 15.98 209.66 15.98 190.95 -2.73 153.95 -2.73 153.95 -3.69 191.35 -3.69 210.05 15.02 243.27 15.02 243.27 15.98"/><polygon class="cls-9" points="43.24 75.51 0 75.51 0 74.55 42.85 74.55 51.54 65.86 151.82 65.86 151.82 50.02 152.78 50.02 152.78 66.82 51.94 66.82 43.24 75.51"/><polygon class="cls-9" points="140.83 48.86 97.5 48.86 97.5 47.9 140.43 47.9 152.64 35.7 191.63 35.7 191.63 36.66 153.03 36.66 140.83 48.86"/><polygon class="cls-9" points="140.63 41.06 119.51 41.06 110.37 31.92 79.8 31.92 79.8 30.96 110.77 30.96 119.91 40.1 140.63 40.1 140.63 41.06"/><polygon class="cls-9" points="30.57 37.3 0 37.3 0 36.34 30.18 36.34 35.55 30.96 67.87 30.96 67.87 31.92 35.95 31.92 30.57 37.3"/><rect class="cls-9" y="29.32" width="25.68" height="0.96"/><path class="cls-9" d="M35.58,50.5a2.12,2.12,0,1,1,2.12-2.12A2.12,2.12,0,0,1,35.58,50.5Zm0-3.28a1.16,1.16,0,1,0,1.16,1.16A1.16,1.16,0,0,0,35.58,47.22Z"/><rect class="cls-9" y="47.9" width="33.93" height="0.96"/><polygon class="cls-9" points="34.13 66.38 0 66.38 0 65.42 33.74 65.42 40.48 58.68 57.49 58.68 57.49 59.64 40.87 59.64 34.13 66.38"/><rect class="cls-9" y="17.72" width="42.79" height="0.96"/><rect class="cls-9" x="54.75" y="17.72" width="19.77" height="0.96"/><polygon class="cls-9" points="86.15 7.18 28.75 7.18 28.75 6.22 85.75 6.22 95.66 -3.69 136.63 -3.69 136.63 -2.73 96.06 -2.73 86.15 7.18"/><rect class="cls-9" x="97.5" y="57.04" width="42.87" height="0.96"/><path class="cls-9" d="M162.64,50.5a2.12,2.12,0,1,1,2.12-2.12A2.12,2.12,0,0,1,162.64,50.5Zm0-3.28a1.16,1.16,0,1,0,1.16,1.16A1.16,1.16,0,0,0,162.64,47.22Z"/><path class="cls-9" d="M208.79,50.5a2.12,2.12,0,1,1,2.12-2.12A2.12,2.12,0,0,1,208.79,50.5Zm0-3.28A1.16,1.16,0,1,0,210,48.38,1.16,1.16,0,0,0,208.79,47.22Z"/><rect class="cls-9" x="164.28" y="47.9" width="42.87" height="0.96"/><path class="cls-9" d="M162.64,59.64a2.12,2.12,0,1,1,2.12-2.12A2.12,2.12,0,0,1,162.64,59.64Zm0-3.28a1.16,1.16,0,1,0,1.16,1.16A1.16,1.16,0,0,0,162.64,56.36Z"/><path class="cls-9" d="M208.79,59.64a2.12,2.12,0,1,1,2.12-2.12A2.12,2.12,0,0,1,208.79,59.64Zm0-3.28A1.16,1.16,0,1,0,210,57.52,1.16,1.16,0,0,0,208.79,56.36Z"/><rect class="cls-9" x="164.28" y="57.04" width="42.87" height="0.96"/><path class="cls-9" d="M162.64,68.77a2.12,2.12,0,1,1,2.12-2.12A2.12,2.12,0,0,1,162.64,68.77Zm0-3.28a1.16,1.16,0,1,0,1.16,1.16A1.16,1.16,0,0,0,162.64,65.49Z"/><path class="cls-9" d="M208.79,68.77a2.12,2.12,0,1,1,2.12-2.12A2.12,2.12,0,0,1,208.79,68.77Zm0-3.28A1.16,1.16,0,1,0,210,66.65,1.16,1.16,0,0,0,208.79,65.49Z"/><rect class="cls-9" x="164.28" y="66.17" width="42.87" height="0.96"/><polygon class="cls-9" points="195.78 18.28 179.42 18.28 165.37 4.23 99.62 4.23 99.62 3.27 165.77 3.27 179.81 17.32 195.78 17.32 195.78 18.28"/><rect class="cls-9" x="186.25" y="2.04" width="0.96" height="11.68" transform="translate(49.12 134.34) rotate(-45)"/><rect class="cls-9" x="177.69" y="2.04" width="0.96" height="11.68" transform="translate(46.61 128.29) rotate(-45)"/><polygon class="cls-9" points="196.74 29.51 173.22 29.51 162.26 18.54 162.94 17.86 173.62 28.55 196.74 28.55 196.74 29.51"/><rect class="cls-9" x="179.67" y="23.14" width="34.34" height="0.96"/><polygon class="cls-9" points="137.75 31.92 121.97 31.92 114.33 24.39 115.01 23.71 122.36 30.96 137.75 30.96 137.75 31.92"/><rect class="cls-9" x="97.5" y="38.46" width="20.87" height="0.96"/><path class="cls-9" d="M160.51,103.87H144.1a2.57,2.57,0,0,1-2.57-2.57V84.9a2.57,2.57,0,0,1,2.57-2.57h16.4a2.57,2.57,0,0,1,2.57,2.57v16.4A2.57,2.57,0,0,1,160.51,103.87ZM144.1,83.28a1.61,1.61,0,0,0-1.61,1.61v16.4a1.61,1.61,0,0,0,1.61,1.61h16.4a1.61,1.61,0,0,0,1.61-1.61V84.9a1.61,1.61,0,0,0-1.61-1.61H144.1Z"/><path class="cls-9" d="M86.36,134H70a2.57,2.57,0,0,1-2.57-2.57v-16.4A2.57,2.57,0,0,1,70,112.5h16.4a2.57,2.57,0,0,1,2.57,2.57v16.4A2.57,2.57,0,0,1,86.36,134ZM70,113.46a1.61,1.61,0,0,0-1.61,1.61v16.4A1.61,1.61,0,0,0,70,133.09h16.4A1.61,1.61,0,0,0,88,131.48v-16.4a1.61,1.61,0,0,0-1.61-1.61H70Z"/><rect class="cls-9" y="116.95" width="67.87" height="0.96"/><rect class="cls-9" x="47.42" y="122.8" width="20.45" height="0.96"/><rect class="cls-9" y="128.64" width="67.87" height="0.96"/><rect class="cls-9" y="86.77" width="142.01" height="0.96"/><rect class="cls-9" x="87.33" y="92.62" width="54.68" height="0.96"/><rect class="cls-9" y="98.46" width="142.01" height="0.96"/><path class="cls-9" d="M85.69,95.22a2.12,2.12,0,1,1,2.12-2.12A2.12,2.12,0,0,1,85.69,95.22Zm0-3.28a1.16,1.16,0,1,0,1.16,1.16A1.16,1.16,0,0,0,85.69,91.94Z"/><path class="cls-9" d="M44.14,95.22a2.12,2.12,0,1,1,2.12-2.12A2.12,2.12,0,0,1,44.14,95.22Zm0-3.28A1.16,1.16,0,1,0,45.3,93.1,1.16,1.16,0,0,0,44.14,91.94Z"/><path class="cls-9" d="M27.11,83.72a2.12,2.12,0,1,1,2.12-2.12A2.12,2.12,0,0,1,27.11,83.72Zm0-3.28a1.16,1.16,0,1,0,1.16,1.16A1.16,1.16,0,0,0,27.11,80.43Z"/><path class="cls-9" d="M53.1,95.22a2.12,2.12,0,1,1,2.12-2.12A2.12,2.12,0,0,1,53.1,95.22Zm0-3.28a1.16,1.16,0,1,0,1.16,1.16A1.16,1.16,0,0,0,53.1,91.94Z"/><path class="cls-9" d="M76.15,95.22a2.12,2.12,0,1,1,2.12-2.12A2.12,2.12,0,0,1,76.15,95.22Zm0-3.28a1.16,1.16,0,1,0,1.16,1.16A1.16,1.16,0,0,0,76.15,91.94Z"/><path class="cls-9" d="M78.16,108.46a2.12,2.12,0,1,1,2.12-2.12A2.12,2.12,0,0,1,78.16,108.46Zm0-3.28a1.16,1.16,0,1,0,1.16,1.16A1.16,1.16,0,0,0,78.16,105.18Z"/><path class="cls-9" d="M152.3,73.81a2.12,2.12,0,1,1,2.12-2.12A2.12,2.12,0,0,1,152.3,73.81Zm0-3.28a1.16,1.16,0,1,0,1.16,1.16A1.16,1.16,0,0,0,152.3,70.53Z"/><path class="cls-9" d="M137.75,73.81a2.12,2.12,0,1,1,2.12-2.12A2.12,2.12,0,0,1,137.75,73.81Zm0-3.28a1.16,1.16,0,1,0,1.16,1.16A1.16,1.16,0,0,0,137.75,70.53Z"/><path class="cls-9" d="M98,80.76a2.12,2.12,0,1,1,2.12-2.12A2.12,2.12,0,0,1,98,80.76Zm0-3.28a1.16,1.16,0,1,0,1.16,1.16A1.16,1.16,0,0,0,98,77.48Z"/><path class="cls-9" d="M172.4,79.6a2.12,2.12,0,1,1,2.12-2.12A2.12,2.12,0,0,1,172.4,79.6Zm0-3.28a1.16,1.16,0,1,0,1.16,1.16A1.16,1.16,0,0,0,172.4,76.32Z"/><path class="cls-9" d="M181.65,79.6a2.12,2.12,0,1,1,2.12-2.12A2.12,2.12,0,0,1,181.65,79.6Zm0-3.28a1.16,1.16,0,1,0,1.16,1.16A1.16,1.16,0,0,0,181.65,76.32Z"/><path class="cls-9" d="M183.29,90.49a2.12,2.12,0,1,1,2.12-2.12A2.12,2.12,0,0,1,183.29,90.49Zm0-3.28a1.16,1.16,0,1,0,1.16,1.16A1.16,1.16,0,0,0,183.29,87.21Z"/><path class="cls-9" d="M191.63,90.49a2.12,2.12,0,1,1,2.12-2.12A2.12,2.12,0,0,1,191.63,90.49Zm0-3.28a1.16,1.16,0,1,0,1.16,1.16A1.16,1.16,0,0,0,191.63,87.21Z"/><path class="cls-9" d="M95.86,125.4A2.12,2.12,0,1,1,98,123.28,2.12,2.12,0,0,1,95.86,125.4Zm0-3.28A1.16,1.16,0,1,0,97,123.28,1.16,1.16,0,0,0,95.86,122.11Z"/><path class="cls-9" d="M142,117.59a2.12,2.12,0,1,1,2.12-2.12A2.12,2.12,0,0,1,142,117.59Zm0-3.28a1.16,1.16,0,1,0,1.16,1.16A1.16,1.16,0,0,0,142,114.31Z"/><path class="cls-9" d="M139.39,108.46a2.12,2.12,0,1,1,2.12-2.12A2.12,2.12,0,0,1,139.39,108.46Zm0-3.28a1.16,1.16,0,1,0,1.16,1.16A1.16,1.16,0,0,0,139.39,105.18Z"/><path class="cls-9" d="M95.86,134.53A2.12,2.12,0,1,1,98,132.41,2.12,2.12,0,0,1,95.86,134.53Zm0-3.28A1.16,1.16,0,1,0,97,132.41,1.16,1.16,0,0,0,95.86,131.25Z"/><path class="cls-9" d="M142,134.53a2.12,2.12,0,1,1,2.12-2.12A2.12,2.12,0,0,1,142,134.53Zm0-3.28a1.16,1.16,0,1,0,1.16,1.16A1.16,1.16,0,0,0,142,131.25Z"/><path class="cls-9" d="M95.86,116A2.12,2.12,0,1,1,98,113.83,2.12,2.12,0,0,1,95.86,116Zm0-3.28A1.16,1.16,0,1,0,97,113.83,1.16,1.16,0,0,0,95.86,112.67Z"/><path class="cls-9" d="M152.3,125.4a2.12,2.12,0,1,1,2.12-2.12A2.12,2.12,0,0,1,152.3,125.4Zm0-3.28a1.16,1.16,0,1,0,1.16,1.16A1.16,1.16,0,0,0,152.3,122.11Z"/><path class="cls-9" d="M27.32,106.82a2.12,2.12,0,1,1,2.12-2.12A2.12,2.12,0,0,1,27.32,106.82Zm0-3.28a1.16,1.16,0,1,0,1.16,1.16A1.16,1.16,0,0,0,27.32,103.53Z"/><path class="cls-9" d="M69.51,108.46a2.12,2.12,0,1,1,2.12-2.12A2.12,2.12,0,0,1,69.51,108.46Zm0-3.28a1.16,1.16,0,1,0,1.16,1.16A1.16,1.16,0,0,0,69.51,105.18Z"/><path class="cls-9" d="M59.14,136.17a2.12,2.12,0,1,1,2.12-2.12A2.12,2.12,0,0,1,59.14,136.17Zm0-3.28a1.16,1.16,0,1,0,1.16,1.16A1.16,1.16,0,0,0,59.14,132.89Z"/><path class="cls-9" d="M45.78,125.4a2.12,2.12,0,1,1,2.12-2.12A2.12,2.12,0,0,1,45.78,125.4Zm0-3.28a1.16,1.16,0,1,0,1.16,1.16A1.16,1.16,0,0,0,45.78,122.11Z"/><polygon class="cls-9" points="243.27 90.87 209.66 90.87 190.95 72.17 153.95 72.17 153.95 71.21 191.35 71.21 210.05 89.91 243.27 89.91 243.27 90.87"/><polygon class="cls-9" points="43.24 150.4 0 150.4 0 149.44 42.85 149.44 51.54 140.75 151.82 140.75 151.82 124.92 152.78 124.92 152.78 141.71 51.94 141.71 43.24 150.4"/><polygon class="cls-9" points="140.83 123.75 97.5 123.75 97.5 122.8 140.43 122.8 152.64 110.59 191.63 110.59 191.63 111.55 153.03 111.55 140.83 123.75"/><polygon class="cls-9" points="140.63 115.95 119.51 115.95 110.37 106.82 79.8 106.82 79.8 105.86 110.77 105.86 119.91 114.99 140.63 114.99 140.63 115.95"/><polygon class="cls-9" points="30.57 112.19 0 112.19 0 111.23 30.18 111.23 35.55 105.86 67.87 105.86 67.87 106.82 35.95 106.82 30.57 112.19"/><rect class="cls-9" y="104.22" width="25.68" height="0.96"/><path class="cls-9" d="M35.58,125.4a2.12,2.12,0,1,1,2.12-2.12A2.12,2.12,0,0,1,35.58,125.4Zm0-3.28a1.16,1.16,0,1,0,1.16,1.16A1.16,1.16,0,0,0,35.58,122.11Z"/><rect class="cls-9" y="122.8" width="33.93" height="0.96"/><polygon class="cls-9" points="34.13 141.27 0 141.27 0 140.31 33.74 140.31 40.48 133.57 57.49 133.57 57.49 134.53 40.87 134.53 34.13 141.27"/><rect class="cls-9" y="92.62" width="42.79" height="0.96"/><rect class="cls-9" x="54.75" y="92.62" width="19.77" height="0.96"/><polygon class="cls-9" points="86.15 82.08 28.75 82.08 28.75 81.12 85.75 81.12 95.66 71.21 136.63 71.21 136.63 72.17 96.06 72.17 86.15 82.08"/><rect class="cls-9" x="97.5" y="131.93" width="42.87" height="0.96"/><polygon class="cls-9" points="195.78 93.17 179.42 93.17 165.37 79.12 99.62 79.12 99.62 78.16 165.77 78.16 179.81 92.21 195.78 92.21 195.78 93.17"/><rect class="cls-9" x="186.25" y="76.93" width="0.96" height="11.68" transform="translate(-3.84 156.28) rotate(-45)"/><rect class="cls-9" x="177.69" y="76.93" width="0.96" height="11.68" transform="translate(-6.34 150.23) rotate(-45)"/><polygon class="cls-9" points="196.74 104.4 173.22 104.4 162.26 93.44 162.94 92.76 173.62 103.44 196.74 103.44 196.74 104.4"/><rect class="cls-9" x="179.67" y="98.03" width="34.34" height="0.96"/><polygon class="cls-9" points="137.75 106.82 121.97 106.82 114.33 99.29 115.01 98.6 122.36 105.86 137.75 105.86 137.75 106.82"/><rect class="cls-9" x="97.5" y="113.35" width="20.87" height="0.96"/></g><g class="cls-8"><path class="cls-9" d="M295.51,49.7H279.1a2.57,2.57,0,0,1-2.57-2.57V30.73a2.57,2.57,0,0,1,2.57-2.57h16.4a2.57,2.57,0,0,1,2.57,2.57v16.4A2.57,2.57,0,0,1,295.51,49.7ZM279.1,29.12a1.61,1.61,0,0,0-1.61,1.61v16.4a1.61,1.61,0,0,0,1.61,1.61h16.4a1.61,1.61,0,0,0,1.61-1.61V30.73a1.61,1.61,0,0,0-1.61-1.61H279.1Z"/><rect class="cls-9" x="297.6" y="32.6" width="142.01" height="0.96"/><rect class="cls-9" x="297.6" y="38.45" width="54.68" height="0.96"/><rect class="cls-9" x="297.6" y="44.3" width="142.01" height="0.96"/><path class="cls-9" d="M287.3,19.64a2.12,2.12,0,1,1,2.12-2.12A2.12,2.12,0,0,1,287.3,19.64Zm0-3.28a1.16,1.16,0,1,0,1.16,1.16A1.16,1.16,0,0,0,287.3,16.36Z"/><path class="cls-9" d="M301.86,19.64A2.12,2.12,0,1,1,304,17.52,2.12,2.12,0,0,1,301.86,19.64Zm0-3.28A1.16,1.16,0,1,0,303,17.52,1.16,1.16,0,0,0,301.86,16.36Z"/><path class="cls-9" d="M297.6,63.42a2.12,2.12,0,1,1,2.12-2.12A2.12,2.12,0,0,1,297.6,63.42Zm0-3.28a1.16,1.16,0,1,0,1.16,1.16A1.16,1.16,0,0,0,297.6,60.14Z"/><path class="cls-9" d="M300.22,54.29a2.12,2.12,0,1,1,2.12-2.12A2.12,2.12,0,0,1,300.22,54.29Zm0-3.28a1.16,1.16,0,1,0,1.16,1.16A1.16,1.16,0,0,0,300.22,51Z"/><path class="cls-9" d="M297.6,80.36a2.12,2.12,0,1,1,2.12-2.12A2.12,2.12,0,0,1,297.6,80.36Zm0-3.28a1.16,1.16,0,1,0,1.16,1.16A1.16,1.16,0,0,0,297.6,77.08Z"/><path class="cls-9" d="M287.3,71.23a2.12,2.12,0,1,1,2.12-2.12A2.12,2.12,0,0,1,287.3,71.23Zm0-3.28a1.16,1.16,0,1,0,1.16,1.16A1.16,1.16,0,0,0,287.3,67.95Z"/><path class="cls-9" d="M248,35.83a2.12,2.12,0,1,1,2.12-2.12A2.12,2.12,0,0,1,248,35.83Zm0-3.28a1.16,1.16,0,1,0,1.16,1.16A1.16,1.16,0,0,0,248,32.55Z"/><path class="cls-9" d="M242.18,40.64a2.12,2.12,0,1,1,2.12-2.12A2.12,2.12,0,0,1,242.18,40.64Zm0-3.28a1.16,1.16,0,1,0,1.16,1.16A1.16,1.16,0,0,0,242.18,37.36Z"/><path class="cls-9" d="M261.44,46.46a2.12,2.12,0,1,1,2.12-2.12A2.12,2.12,0,0,1,261.44,46.46Zm0-3.28a1.16,1.16,0,1,0,1.16,1.16A1.16,1.16,0,0,0,261.44,43.18Z"/><path class="cls-9" d="M224,46.46a2.12,2.12,0,1,1,2.12-2.12A2.12,2.12,0,0,1,224,46.46Zm0-3.28a1.16,1.16,0,1,0,1.16,1.16A1.16,1.16,0,0,0,224,43.18Z"/><path class="cls-9" d="M241.22,51.88a2.12,2.12,0,1,1,2.12-2.12A2.12,2.12,0,0,1,241.22,51.88Zm0-3.28a1.16,1.16,0,1,0,1.16,1.16A1.16,1.16,0,0,0,241.22,48.59Z"/><path class="cls-9" d="M246.34,58.86a2.12,2.12,0,1,1,2.12-2.12A2.12,2.12,0,0,1,246.34,58.86Zm0-3.28a1.16,1.16,0,1,0,1.16,1.16A1.16,1.16,0,0,0,246.34,55.58Z"/><path class="cls-9" d="M256.28,35.83a2.12,2.12,0,1,1,2.12-2.12A2.12,2.12,0,0,1,256.28,35.83Zm0-3.28a1.16,1.16,0,1,0,1.16,1.16A1.16,1.16,0,0,0,256.28,32.55Z"/><path class="cls-9" d="M266.58,25.53a2.12,2.12,0,1,1,2.12-2.12A2.12,2.12,0,0,1,266.58,25.53Zm0-3.28a1.16,1.16,0,1,0,1.16,1.16A1.16,1.16,0,0,0,266.58,22.24Z"/><path class="cls-9" d="M257.92,25.53A2.12,2.12,0,1,1,260,23.41,2.12,2.12,0,0,1,257.92,25.53Zm0-3.28a1.16,1.16,0,1,0,1.16,1.16A1.16,1.16,0,0,0,257.92,22.24Z"/><polygon class="cls-9" points="229.95 36.7 196.34 36.7 196.34 35.75 229.56 35.75 248.26 17.04 285.66 17.04 285.66 18 248.66 18 229.95 36.7"/><polygon class="cls-9" points="439.61 96.24 396.36 96.24 387.67 87.54 286.82 87.54 286.82 70.75 287.78 70.75 287.78 86.58 388.07 86.58 396.76 95.28 439.61 95.28 439.61 96.24"/><polygon class="cls-9" points="342.11 69.59 298.78 69.59 286.57 57.38 247.98 57.38 247.98 56.42 286.97 56.42 299.18 68.63 342.11 68.63 342.11 69.59"/><polygon class="cls-9" points="320.1 61.78 298.98 61.78 298.98 60.83 319.7 60.83 328.84 51.69 359.81 51.69 359.81 52.65 329.24 52.65 320.1 61.78"/><rect class="cls-9" x="299.24" y="77.76" width="42.87" height="0.96"/><path class="cls-9" d="M277,71.23a2.12,2.12,0,1,1,2.12-2.12A2.12,2.12,0,0,1,277,71.23Zm0-3.28a1.16,1.16,0,1,0,1.16,1.16A1.16,1.16,0,0,0,277,67.95Z"/><path class="cls-9" d="M230.82,71.23a2.12,2.12,0,1,1,2.12-2.12A2.12,2.12,0,0,1,230.82,71.23Zm0-3.28A1.16,1.16,0,1,0,232,69.11,1.16,1.16,0,0,0,230.82,67.95Z"/><rect class="cls-9" x="232.46" y="68.63" width="42.87" height="0.96"/><path class="cls-9" d="M277,80.36a2.12,2.12,0,1,1,2.12-2.12A2.12,2.12,0,0,1,277,80.36Zm0-3.28a1.16,1.16,0,1,0,1.16,1.16A1.16,1.16,0,0,0,277,77.08Z"/><path class="cls-9" d="M230.82,80.36a2.12,2.12,0,1,1,2.12-2.12A2.12,2.12,0,0,1,230.82,80.36Zm0-3.28A1.16,1.16,0,1,0,232,78.24,1.16,1.16,0,0,0,230.82,77.08Z"/><rect class="cls-9" x="232.46" y="77.76" width="42.87" height="0.96"/><polygon class="cls-9" points="260.19 39 243.82 39 243.82 38.04 259.79 38.04 273.84 24 339.99 24 339.99 24.95 274.24 24.95 260.19 39"/><rect class="cls-9" x="247.04" y="28.13" width="11.68" height="0.96" transform="translate(53.72 187.05) rotate(-44.96)"/><rect class="cls-9" x="255.6" y="28.13" width="11.68" height="0.96" transform="translate(56.23 193.09) rotate(-44.96)"/><polygon class="cls-9" points="266.38 50.23 242.87 50.23 242.87 49.27 265.99 49.27 276.67 38.59 277.35 39.27 266.38 50.23"/><rect class="cls-9" x="225.6" y="43.86" width="34.34" height="0.96"/><path class="cls-9" d="M295.51,124.59H279.1a2.57,2.57,0,0,1-2.57-2.57v-16.4A2.57,2.57,0,0,1,279.1,103h16.4a2.57,2.57,0,0,1,2.57,2.57V122A2.57,2.57,0,0,1,295.51,124.59ZM279.1,104a1.61,1.61,0,0,0-1.61,1.61V122a1.61,1.61,0,0,0,1.61,1.61h16.4a1.61,1.61,0,0,0,1.61-1.61v-16.4a1.61,1.61,0,0,0-1.61-1.61H279.1Z"/><rect class="cls-9" x="297.6" y="107.5" width="142.01" height="0.96"/><rect class="cls-9" x="297.6" y="113.34" width="54.68" height="0.96"/><rect class="cls-9" x="297.6" y="119.19" width="142.01" height="0.96"/><path class="cls-9" d="M287.3,94.53a2.12,2.12,0,1,1,2.12-2.12A2.12,2.12,0,0,1,287.3,94.53Zm0-3.28a1.16,1.16,0,1,0,1.16,1.16A1.16,1.16,0,0,0,287.3,91.25Z"/><path class="cls-9" d="M301.86,94.53A2.12,2.12,0,1,1,304,92.41,2.12,2.12,0,0,1,301.86,94.53Zm0-3.28A1.16,1.16,0,1,0,303,92.41,1.16,1.16,0,0,0,301.86,91.25Z"/><path class="cls-9" d="M267.21,100.33a2.12,2.12,0,1,1,2.12-2.12A2.12,2.12,0,0,1,267.21,100.33Zm0-3.28a1.16,1.16,0,1,0,1.16,1.16A1.16,1.16,0,0,0,267.21,97Z"/><path class="cls-9" d="M258,100.33a2.12,2.12,0,1,1,2.12-2.12A2.12,2.12,0,0,1,258,100.33ZM258,97a1.16,1.16,0,1,0,1.16,1.16A1.16,1.16,0,0,0,258,97Z"/><path class="cls-9" d="M256.32,111.22a2.12,2.12,0,1,1,2.12-2.12A2.12,2.12,0,0,1,256.32,111.22Zm0-3.28a1.16,1.16,0,1,0,1.16,1.16A1.16,1.16,0,0,0,256.32,107.94Z"/><path class="cls-9" d="M248,111.22a2.12,2.12,0,1,1,2.12-2.12A2.12,2.12,0,0,1,248,111.22Zm0-3.28a1.16,1.16,0,1,0,1.16,1.16A1.16,1.16,0,0,0,248,107.94Z"/><path class="cls-9" d="M297.6,138.32a2.12,2.12,0,1,1,2.12-2.12A2.12,2.12,0,0,1,297.6,138.32Zm0-3.28a1.16,1.16,0,1,0,1.16,1.16A1.16,1.16,0,0,0,297.6,135Z"/><path class="cls-9" d="M300.22,129.18a2.12,2.12,0,1,1,2.12-2.12A2.12,2.12,0,0,1,300.22,129.18Zm0-3.28a1.16,1.16,0,1,0,1.16,1.16A1.16,1.16,0,0,0,300.22,125.9Z"/><path class="cls-9" d="M297.6,155.26a2.12,2.12,0,1,1,2.12-2.12A2.12,2.12,0,0,1,297.6,155.26Zm0-3.28a1.16,1.16,0,1,0,1.16,1.16A1.16,1.16,0,0,0,297.6,152Z"/><path class="cls-9" d="M287.3,146.12a2.12,2.12,0,1,1,2.12-2.12A2.12,2.12,0,0,1,287.3,146.12Zm0-3.28a1.16,1.16,0,1,0,1.16,1.16A1.16,1.16,0,0,0,287.3,142.84Z"/><polygon class="cls-9" points="229.95 111.6 196.34 111.6 196.34 110.64 229.56 110.64 248.26 91.93 285.66 91.93 285.66 92.89 248.66 92.89 229.95 111.6"/><polygon class="cls-9" points="439.61 171.13 396.36 171.13 387.67 162.44 286.82 162.44 286.82 145.64 287.78 145.64 287.78 161.48 388.07 161.48 396.76 170.17 439.61 170.17 439.61 171.13"/><polygon class="cls-9" points="342.11 144.48 298.78 144.48 286.57 132.27 247.98 132.27 247.98 131.31 286.97 131.31 299.18 143.52 342.11 143.52 342.11 144.48"/><polygon class="cls-9" points="320.1 136.68 298.98 136.68 298.98 135.72 319.7 135.72 328.84 126.58 359.81 126.58 359.81 127.54 329.24 127.54 320.1 136.68"/><rect class="cls-9" x="299.24" y="152.66" width="42.87" height="0.96"/><polygon class="cls-9" points="260.19 113.9 243.82 113.9 243.82 112.94 259.79 112.94 273.84 98.89 339.99 98.89 339.99 99.85 274.24 99.85 260.19 113.9"/><rect class="cls-9" x="247.04" y="103.02" width="11.68" height="0.96" transform="translate(0.88 209.13) rotate(-45)"/><rect class="cls-9" x="255.6" y="103.02" width="11.68" height="0.96" transform="translate(3.39 215.18) rotate(-45)"/><polygon class="cls-9" points="266.38 125.13 242.87 125.13 242.87 124.17 265.99 124.17 276.67 113.48 277.35 114.16 266.38 125.13"/><rect class="cls-9" x="225.6" y="118.76" width="34.34" height="0.96"/></g></g></g><polygon class="cls-10" points="9.76 159.04 -6.87 150.22 -6.63 149.78 9.74 158.46 51.47 133.3 66.38 137.81 77.83 117.79 77.93 117.76 99.89 111.77 120.44 98.21 129.39 99.16 152.22 70.23 152.38 70.29 168.71 75.72 189.21 60.5 227.01 55 227.05 55.01 249.15 59.48 258.64 47.77 274.43 40.45 280.8 21.81 303.91 12.52 304.09 12.98 281.2 22.19 274.83 40.81 258.91 48.2 249.35 60.02 249.2 59.99 226.99 55.5 189.35 60.99 168.79 76.28 168.67 76.24 152.39 70.82 129.61 99.69 120.56 98.72 100.07 112.24 78.17 118.21 66.62 138.4 51.53 133.84 9.76 159.04"/><g class="cls-7"><rect class="cls-11" x="296.48" y="44.42" width="3.52" height="168.08"/><rect class="cls-11" x="291.37" y="53.92" width="3.52" height="168.08"/><rect class="cls-11" x="286.26" y="61.41" width="3.52" height="160.59"/><rect class="cls-11" x="281.15" y="67.39" width="3.52" height="154.61"/><rect class="cls-11" x="276.04" y="66.78" width="3.52" height="155.22"/><rect class="cls-11" x="270.93" y="74.65" width="3.52" height="147.35"/><rect class="cls-11" x="265.82" y="82.04" width="3.52" height="139.96"/><rect class="cls-11" x="260.71" y="84.77" width="3.52" height="137.23"/><rect class="cls-11" x="255.6" y="91.59" width="3.52" height="130.41"/><rect class="cls-11" x="250.49" y="90.77" width="3.52" height="131.23"/><rect class="cls-11" x="245.38" y="96.29" width="3.52" height="125.71"/><rect class="cls-11" x="240.27" y="89.13" width="3.52" height="132.87"/><rect class="cls-11" x="235.16" y="80.92" width="3.52" height="141.08"/><rect class="cls-11" x="230.05" y="92.48" width="3.52" height="129.52"/><rect class="cls-11" x="224.94" y="86.05" width="3.52" height="135.95"/><rect class="cls-11" x="219.83" y="79.04" width="3.52" height="142.96"/><rect class="cls-11" x="214.72" y="82.29" width="3.52" height="139.71"/><rect class="cls-11" x="209.61" y="83.83" width="3.52" height="138.17"/><rect class="cls-11" x="204.5" y="77.33" width="3.52" height="144.67"/><rect class="cls-11" x="199.39" y="88.16" width="3.52" height="133.84"/><rect class="cls-11" x="194.28" y="95" width="3.52" height="127"/><rect class="cls-11" x="189.17" y="106.32" width="3.52" height="115.68"/><rect class="cls-11" x="184.06" y="112.29" width="3.52" height="109.71"/><rect class="cls-11" x="178.95" y="102.36" width="3.52" height="119.64"/><rect class="cls-11" x="173.84" y="95.81" width="3.52" height="126.19"/><rect class="cls-11" x="168.73" y="110.37" width="3.52" height="111.63"/><rect class="cls-11" x="163.62" y="113.28" width="3.52" height="108.72"/><rect class="cls-11" x="158.51" y="118.08" width="3.52" height="103.92"/><rect class="cls-11" x="153.4" y="107.94" width="3.52" height="114.06"/><rect class="cls-11" x="148.29" y="120.89" width="3.52" height="101.11"/><rect class="cls-11" x="143.18" y="129.98" width="3.52" height="92.02"/><rect class="cls-11" x="138.07" y="120.03" width="3.52" height="101.97"/><rect class="cls-11" x="132.96" y="123.49" width="3.52" height="98.51"/><rect class="cls-11" x="127.85" y="131.88" width="3.52" height="90.12"/><rect class="cls-11" x="122.74" y="132.9" width="3.52" height="89.1"/><rect class="cls-11" x="117.63" y="131.88" width="3.52" height="90.12"/><rect class="cls-11" x="112.52" y="129.5" width="3.52" height="92.5"/><rect class="cls-11" x="107.41" y="138.53" width="3.52" height="83.47"/><rect class="cls-11" x="102.3" y="138.53" width="3.52" height="83.47"/><rect class="cls-11" x="97.19" y="143" width="3.52" height="79"/><rect class="cls-11" x="92.09" y="143" width="3.52" height="79"/><rect class="cls-11" x="86.98" y="143" width="3.52" height="79"/><rect class="cls-11" x="81.87" y="152.61" width="3.52" height="69.39"/><rect class="cls-11" x="76.76" y="164.22" width="3.52" height="57.78"/><rect class="cls-11" x="71.65" y="168.01" width="3.52" height="53.99"/><rect class="cls-11" x="66.54" y="181.69" width="3.52" height="40.31"/><rect class="cls-11" x="61.43" y="174.07" width="3.52" height="47.93"/><rect class="cls-11" x="56.32" y="169.14" width="3.52" height="52.86"/><rect class="cls-11" x="51.21" y="170.04" width="3.52" height="51.96"/><rect class="cls-11" x="46.1" y="167.15" width="3.52" height="54.85"/><rect class="cls-11" x="40.99" y="165.32" width="3.52" height="56.68"/><rect class="cls-11" x="35.88" y="157.87" width="3.52" height="64.13"/><rect class="cls-11" x="30.77" y="167.15" width="3.52" height="54.85"/><rect class="cls-11" x="25.66" y="174.07" width="3.52" height="47.93"/><rect class="cls-11" x="20.55" y="179.31" width="3.52" height="42.69"/><rect class="cls-11" x="15.44" y="185.26" width="3.52" height="36.74"/><rect class="cls-11" x="10.33" y="192.2" width="3.52" height="29.8"/><rect class="cls-11" x="5.22" y="186.55" width="3.52" height="35.45"/><rect class="cls-11" x="0.11" y="176.28" width="3.52" height="45.72"/></g><rect class="cls-11" x="0.11" y="146.9" width="3.52" height="19.71"/><rect class="cls-11" x="1.67" y="143.32" width="0.4" height="26.88"/><rect class="cls-11" x="5.22" y="161.49" width="3.52" height="13.36"/><rect class="cls-11" x="6.78" y="157.9" width="0.4" height="20.53"/><rect class="cls-11" x="10.33" y="166.85" width="3.52" height="9.52"/><rect class="cls-11" x="11.89" y="163.26" width="0.4" height="16.69"/><rect class="cls-11" x="15.44" y="160.89" width="3.52" height="5.32"/><rect class="cls-11" x="17" y="157.31" width="0.4" height="12.49"/><rect class="cls-11" x="20.55" y="155.65" width="3.52" height="9.39"/><rect class="cls-11" x="22.11" y="152.07" width="0.4" height="16.56"/><rect class="cls-11" x="25.66" y="146.9" width="3.52" height="11.65"/><rect class="cls-11" x="27.22" y="143.32" width="0.4" height="18.82"/><rect class="cls-11" x="30.77" y="142.22" width="3.52" height="10.14"/><rect class="cls-11" x="32.32" y="138.63" width="0.4" height="17.31"/><rect class="cls-11" x="35.88" y="133.46" width="3.52" height="8.06"/><rect class="cls-11" x="37.43" y="129.88" width="0.4" height="15.23"/><rect class="cls-11" x="40.99" y="140.76" width="3.52" height="7.33"/><rect class="cls-11" x="42.54" y="137.18" width="0.4" height="14.5"/><rect class="cls-11" x="46.1" y="142.21" width="3.52" height="19.71"/><rect class="cls-11" x="47.65" y="138.62" width="0.4" height="26.88"/><rect class="cls-11" x="51.21" y="146.52" width="3.52" height="7.76"/><rect class="cls-11" x="52.76" y="142.94" width="0.4" height="14.93"/><rect class="cls-11" x="56.32" y="143.97" width="3.52" height="10.18"/><rect class="cls-11" x="57.87" y="140.39" width="0.4" height="17.35"/><rect class="cls-11" x="61.43" y="149.96" width="3.52" height="8.39"/><rect class="cls-11" x="62.98" y="146.38" width="0.4" height="15.56"/><rect class="cls-11" x="66.54" y="158.76" width="3.52" height="3.18"/><rect class="cls-11" x="68.09" y="155.17" width="0.4" height="10.35"/><rect class="cls-11" x="71.65" y="143.04" width="3.52" height="12.95"/><rect class="cls-11" x="73.2" y="139.45" width="0.4" height="20.12"/><rect class="cls-11" x="76.76" y="140.55" width="3.52" height="7.76"/><rect class="cls-11" x="78.31" y="136.96" width="0.4" height="14.93"/><rect class="cls-11" x="81.87" y="128.78" width="3.52" height="7.09"/><rect class="cls-11" x="83.42" y="125.19" width="0.4" height="14.26"/><rect class="cls-11" x="86.98" y="119.75" width="3.52" height="4.84"/><rect class="cls-11" x="88.53" y="116.16" width="0.4" height="12.01"/><rect class="cls-11" x="92.09" y="115.26" width="3.52" height="11.77"/><rect class="cls-11" x="93.64" y="111.67" width="0.4" height="18.94"/><rect class="cls-11" x="97.19" y="116.98" width="3.52" height="6.8"/><rect class="cls-11" x="98.75" y="113.39" width="0.4" height="13.97"/><rect class="cls-11" x="102.3" y="109.09" width="3.52" height="19.71"/><rect class="cls-11" x="103.86" y="105.5" width="0.4" height="26.88"/><rect class="cls-11" x="107.41" y="113.47" width="3.52" height="7.54"/><rect class="cls-11" x="108.97" y="109.88" width="0.4" height="14.71"/><rect class="cls-11" x="112.52" y="106.41" width="3.52" height="4.11"/><rect class="cls-11" x="114.08" y="102.82" width="0.4" height="11.28"/><rect class="cls-11" x="117.63" y="107.74" width="3.52" height="8.38"/><rect class="cls-11" x="119.19" y="104.15" width="0.4" height="15.55"/><rect class="cls-11" x="122.74" y="109.11" width="3.52" height="4.97"/><rect class="cls-11" x="124.3" y="105.52" width="0.4" height="12.14"/><rect class="cls-11" x="127.85" y="105.61" width="3.52" height="12.34"/><rect class="cls-11" x="129.41" y="102.03" width="0.4" height="19.51"/><rect class="cls-11" x="132.96" y="100.73" width="3.52" height="4.29"/><rect class="cls-11" x="134.52" y="97.15" width="0.4" height="11.46"/><rect class="cls-11" x="138.07" y="93.07" width="3.52" height="9.95"/><rect class="cls-11" x="139.63" y="89.49" width="0.4" height="17.12"/><rect class="cls-11" x="143.18" y="104.04" width="3.52" height="8.91"/><rect class="cls-11" x="144.74" y="100.45" width="0.4" height="16.08"/><rect class="cls-11" x="148.29" y="94.01" width="3.52" height="8.6"/><rect class="cls-11" x="149.85" y="90.43" width="0.4" height="15.77"/><rect class="cls-11" x="153.4" y="82.76" width="3.52" height="6.67"/><rect class="cls-11" x="154.96" y="79.18" width="0.4" height="13.84"/><rect class="cls-11" x="158.51" y="89.52" width="3.52" height="10.83"/><rect class="cls-11" x="160.07" y="85.94" width="0.4" height="18"/><rect class="cls-11" x="163.62" y="90.34" width="3.52" height="1.88"/><rect class="cls-11" x="165.18" y="86.76" width="0.4" height="9.05"/><rect class="cls-11" x="168.73" y="83.72" width="3.52" height="10.57"/><rect class="cls-11" x="170.29" y="80.13" width="0.4" height="17.74"/><rect class="cls-11" x="173.84" y="69.74" width="3.52" height="19.71"/><rect class="cls-11" x="175.4" y="66.16" width="0.4" height="26.88"/><rect class="cls-11" x="178.95" y="77.87" width="3.52" height="7.09"/><rect class="cls-11" x="180.51" y="74.29" width="0.4" height="14.26"/><rect class="cls-11" x="184.06" y="85.36" width="3.52" height="13.05"/><rect class="cls-11" x="185.62" y="81.78" width="0.4" height="20.22"/><rect class="cls-11" x="189.17" y="81.02" width="3.52" height="8.44"/><rect class="cls-11" x="190.73" y="77.43" width="0.4" height="15.61"/><rect class="cls-11" x="194.28" y="68.31" width="3.52" height="13.62"/><rect class="cls-11" x="195.84" y="64.72" width="0.4" height="20.79"/><rect class="cls-11" x="199.39" y="61.83" width="3.52" height="8.87"/><rect class="cls-11" x="200.95" y="58.25" width="0.4" height="16.04"/><rect class="cls-11" x="204.5" y="47.91" width="3.52" height="15.17"/><rect class="cls-11" x="206.06" y="44.32" width="0.4" height="22.34"/><rect class="cls-11" x="209.61" y="59.21" width="3.52" height="4.84"/><rect class="cls-11" x="211.17" y="55.63" width="0.4" height="12.01"/><rect class="cls-11" x="214.72" y="52.45" width="3.52" height="19.71"/><rect class="cls-11" x="216.28" y="48.86" width="0.4" height="26.88"/><rect class="cls-11" x="219.83" y="53.48" width="3.52" height="8.15"/><rect class="cls-11" x="221.39" y="49.9" width="0.4" height="15.32"/><rect class="cls-11" x="224.94" y="60.71" width="3.52" height="7.87"/><rect class="cls-11" x="226.5" y="57.12" width="0.4" height="15.04"/><rect class="cls-11" x="230.05" y="67.96" width="3.52" height="7.72"/><rect class="cls-11" x="231.61" y="64.38" width="0.4" height="14.89"/><rect class="cls-11" x="235.16" y="56.08" width="3.52" height="7"/><rect class="cls-11" x="236.72" y="52.5" width="0.4" height="14.17"/><rect class="cls-11" x="240.27" y="64.56" width="3.52" height="4.86"/><rect class="cls-11" x="241.83" y="60.98" width="0.4" height="12.03"/><rect class="cls-11" x="245.38" y="73.26" width="3.52" height="6.72"/><rect class="cls-11" x="246.94" y="69.68" width="0.4" height="13.89"/><rect class="cls-11" x="250.49" y="67.62" width="3.52" height="2.74"/><rect class="cls-11" x="252.05" y="64.04" width="0.4" height="9.91"/><rect class="cls-11" x="255.6" y="66.66" width="3.52" height="5.83"/><rect class="cls-11" x="257.16" y="63.08" width="0.4" height="13"/><rect class="cls-11" x="260.71" y="60.04" width="3.52" height="6.86"/><rect class="cls-11" x="262.27" y="56.45" width="0.4" height="14.03"/><rect class="cls-11" x="265.82" y="58.92" width="3.52" height="2.76"/><rect class="cls-11" x="267.38" y="55.33" width="0.4" height="9.93"/><rect class="cls-11" x="270.93" y="49" width="3.52" height="12.29"/><rect class="cls-11" x="272.49" y="45.42" width="0.4" height="19.46"/><rect class="cls-11" x="276.04" y="39.01" width="3.52" height="11.85"/><rect class="cls-11" x="277.6" y="35.42" width="0.4" height="19.02"/><rect class="cls-11" x="281.15" y="42.31" width="3.52" height="6.4"/><rect class="cls-11" x="282.71" y="38.73" width="0.4" height="13.57"/><rect class="cls-11" x="286.26" y="36.61" width="3.52" height="5.2"/><rect class="cls-11" x="287.82" y="33.02" width="0.4" height="12.37"/><rect class="cls-11" x="291.37" y="23.71" width="3.52" height="11.21"/><rect class="cls-11" x="292.93" y="20.12" width="0.4" height="18.38"/><rect class="cls-11" x="296.48" y="29.32" width="3.52" height="5.07"/><rect class="cls-11" x="298.04" y="25.74" width="0.4" height="12.24"/><polygon class="cls-12" points="0.16 190.97 -0.16 190.03 34.25 178.64 34.38 178.66 54.61 182.36 90.42 156.78 105.79 162.45 121.03 154.5 141.36 154.5 161.76 130.22 177.11 127.19 188.96 114.52 223.88 115 261.98 94.51 275.67 91.5 280.74 78.68 311.11 57.52 311.68 58.34 281.56 79.32 276.41 92.36 262.26 95.47 224.12 116 189.39 115.53 177.62 128.11 162.3 131.13 141.83 155.5 121.28 155.5 105.86 163.55 90.57 157.9 54.84 183.42 34.32 179.66 0.16 190.97"/><circle class="cls-12" cx="34.42" cy="179.06" r="1.73"/><circle class="cls-12" cx="54.73" cy="182.97" r="1.73"/><circle class="cls-12" cx="90.54" cy="157.34" r="1.73"/><circle class="cls-12" cx="106.02" cy="162.82" r="1.73"/><circle class="cls-12" cx="121.34" cy="154.91" r="1.73"/><circle class="cls-12" cx="141.74" cy="154.91" r="1.73"/><circle class="cls-12" cx="162.06" cy="130.76" r="1.73"/><circle class="cls-12" cx="177.29" cy="127.3" r="1.73"/><circle class="cls-12" cx="189.2" cy="115.14" r="1.73"/><circle class="cls-12" cx="224.17" cy="115.64" r="1.73"/><circle class="cls-12" cx="262.14" cy="94.99" r="1.73"/><circle class="cls-12" cx="276.04" cy="91.91" r="1.73"/><circle class="cls-12" cx="280.87" cy="79.17" r="1.73"/></g></g></g></g></svg>
