<?xml version="1.0" encoding="utf-8"?>
<!-- Generator: Adobe Illustrator 20.0.0, SVG Export Plug-In . SVG Version: 6.00 Build 0)  -->
<svg version="1.1" id="Layer_1" xmlns="http://www.w3.org/2000/svg" xmlns:xlink="http://www.w3.org/1999/xlink" x="0px" y="0px"
	 viewBox="0 0 205.8 123.7" style="enable-background:new 0 0 205.8 123.7;" xml:space="preserve">
<style type="text/css">
	.st0{fill:url(#SVGID_1_);}
	.st1{fill:url(#SVGID_2_);}
	.st2{fill:url(#SVGID_3_);}
	.st3{fill:#063701;}
</style>
<g>
	<g>
		<linearGradient id="SVGID_1_" gradientUnits="userSpaceOnUse" x1="34.372" y1="1.9144" x2="34.372" y2="87.0007">
			<stop  offset="0" style="stop-color:#C36464"/>
			<stop  offset="0.4409" style="stop-color:#C61D1D"/>
			<stop  offset="1" style="stop-color:#FF0000"/>
		</linearGradient>
		<path class="st0" d="M17,43.5l0.4-1.9c4.9-19.1,16.7-26,26.1-26.1c7.6-0.1,14.9,6.8,14.9,6.8L68.7,8.4c0,0-3.3-2.8-7.9-4.9
			C56.3,1.4,50.5,0,45.4,0C26.8,0,11,12.9,3.7,32.7h4.6C14.9,14.9,28.6,4.6,45.1,4.6c8,0,13.2,2.9,17.2,5.2l-4.5,6
			c-2.7-1.8-8-4.7-14.4-4.6c-10.7,0.1-24,7.5-29.8,27.9H1.7l-0.3,1.6c-2.7,14.1-1.5,26.5,4.5,34.8c4.7,6.5,11.5,10,21.2,11.2
			c1.4,0.2,2.7,0.3,4.1,0.3c13.1,0,27.5-8.5,27.5-8.5l-5.2-14.3c0,0-5.9,3.6-12.1,5.7c-6.5,2.2-13.7,1.2-16.8-0.7
			c-5.3-3.2-8.2-9.8-8.1-18.7l-4.7,0C11.3,61,15.3,69.3,22,73.2c5,3,14.3,4.8,28.8-2.6l2.3,6c-3.9,2-15,7.1-25.5,5.8
			c-7.5-0.9-13.7-4.3-17.8-9.9c-5.1-7-6.6-17.1-4.5-29H17z"/>
		<linearGradient id="SVGID_2_" gradientUnits="userSpaceOnUse" x1="96.8876" y1="1.9144" x2="96.8876" y2="87.0007">
			<stop  offset="0" style="stop-color:#C36464"/>
			<stop  offset="0.4409" style="stop-color:#C61D1D"/>
			<stop  offset="1" style="stop-color:#FF0000"/>
		</linearGradient>
		<polygon class="st1" points="73.4,38.5 110.2,38.5 108.7,45.2 72.2,45.2 65.1,85.7 81.2,85.7 86.5,56.2 82.1,56.2 77.6,81.2 
			70.3,81.2 75.8,49.5 112.4,49.5 115.8,33.9 78.6,33.9 83.4,6.3 123.1,6.3 122,12.9 89.8,12.9 87.3,27.3 91.6,27.3 93.4,17.2 
			125.9,17.2 128.7,1.6 79.8,1.6 		"/>
		<linearGradient id="SVGID_3_" gradientUnits="userSpaceOnUse" x1="168.1284" y1="1.9144" x2="168.1284" y2="87.0007">
			<stop  offset="0" style="stop-color:#C36464"/>
			<stop  offset="0.4409" style="stop-color:#C61D1D"/>
			<stop  offset="1" style="stop-color:#FF0000"/>
		</linearGradient>
		<polygon class="st2" points="188.4,1.8 163.3,48.6 164.6,55.7 191,6.4 198.4,6.4 161,75.7 147.8,1.8 130.4,1.8 145.8,85.9 
			150.7,85.9 136.2,6.4 143.7,6.4 157.8,85.9 158.8,85.9 160.7,85.9 160.7,85.9 205.8,1.8 		"/>
	</g>
	<g>
		<path class="st3" d="M7.4,104.6h2.9l-0.2,0.9c-0.3,1.5-0.8,2.7-1.5,3.5c-0.9,1-2.1,1.4-3.7,1.4c-1.5,0-2.6-0.3-3.3-0.9
			c-0.6-0.5-0.9-1.4-1-2.5c0-0.8,0.1-2,0.4-3.7l0.4-2.2c0.4-2.3,0.9-3.9,1.6-4.9c1-1.3,2.5-1.9,4.6-1.9c1.3,0,2.3,0.3,3,1
			c0.7,0.7,0.9,1.7,0.7,2.9l-0.1,0.8l-0.1,0.3H8.2c0-1.2,0.1-1.8,0.1-1.8c-0.1-0.7-0.4-1-1.1-1c-0.8,0-1.5,0.4-2,1.1
			c-0.3,0.5-0.6,1.2-0.7,2.1l-0.1,0.6l-0.7,4.3c-0.2,0.9-0.2,1.7-0.1,2.1c0.2,0.8,0.7,1.2,1.6,1.2c0.7,0,1.2-0.5,1.6-1.4
			C7.1,106.3,7.2,105.6,7.4,104.6z"/>
		<path class="st3" d="M16.3,107.8h6.6l-0.4,2.3H13l2.5-15.3h9.5L24.7,97h-6.6l-0.6,3.8h6.2l-0.4,2.2h-6.2L16.3,107.8z"/>
		<path class="st3" d="M35.1,97.7l0.5-3h2.9L36,110.1H33l-1.4-5.5c-0.4-1.6-0.8-3.6-1.1-6.1c-0.1,1.5-0.3,2.9-0.4,4.4
			c-0.1,0.5-0.2,1.3-0.3,2.3c-0.1,1-0.2,1.6-0.3,2l-0.5,2.9H26l2.5-15.3h3.1l1.3,5.6c0.2,1,0.4,1.9,0.6,2.8c0.2,0.9,0.3,2,0.5,3.3
			l0.5-4.3c0.1-0.7,0.2-1.4,0.3-2C34.9,99.4,35,98.6,35.1,97.7z"/>
		<path class="st3" d="M41.4,97l0.4-2.3h9.8L51.2,97h-3.4l-2.2,13.1h-2.9L44.8,97H41.4z"/>
		<path class="st3" d="M55.2,107.8h6.6l-0.4,2.3h-9.5l2.5-15.3H64L63.6,97H57l-0.6,3.8h6.2l-0.4,2.2H56L55.2,107.8z"/>
		<path class="st3" d="M69.5,103.4H69l-1.1,6.6H65l2.5-15.3h5.6c1.4,0,2.4,0.3,3,0.8c0.8,0.6,1,1.6,0.8,2.9c-0.2,1-0.5,1.8-0.9,2.4
			c-0.5,0.8-1.2,1.2-2.2,1.3c0.8,0.1,1.3,0.5,1.6,1c0.2,0.4,0.3,1.1,0.2,1.9l-0.1,0.7c-0.1,0.9-0.2,1.8-0.3,2.6c0,0.9,0,1.4,0.3,1.5
			l0,0.3h-3.2c-0.1-0.3-0.1-0.8,0-1.4c0.1-0.6,0.1-1.2,0.2-1.8l0.1-0.7c0.1-0.7,0.2-1.2,0.1-1.5c0-0.6-0.3-0.9-0.7-1
			c-0.2-0.1-0.5-0.1-0.9-0.1C70.7,103.5,70.2,103.4,69.5,103.4z M70.1,97l-0.7,4.2h2.3c0.5,0,1-0.2,1.3-0.5c0.4-0.4,0.6-0.9,0.7-1.7
			c0.1-0.8,0.1-1.3-0.2-1.6c-0.3-0.3-0.7-0.4-1.3-0.4H70.1z"/>
		<path class="st3" d="M87.9,103.4l0.4-2.2c0.4-2.3,0.9-3.9,1.6-4.9c1-1.3,2.5-1.9,4.6-1.9c2.2,0,3.5,0.6,4,1.9
			c0.4,0.9,0.4,2.6,0,4.9l-0.4,2.2c-0.3,1.7-0.6,2.9-0.9,3.6c-0.4,1.1-1.1,2-1.8,2.5c-0.9,0.6-2.1,0.9-3.6,0.9
			c-1.5,0-2.6-0.3-3.3-0.9c-0.6-0.5-0.9-1.4-1-2.5C87.5,106.2,87.6,105,87.9,103.4z M91.4,100.5l-0.7,4.3c-0.2,0.9-0.2,1.7-0.1,2.1
			c0.2,0.8,0.7,1.2,1.6,1.2c0.9,0,1.6-0.4,2-1.2c0.3-0.5,0.5-1.3,0.7-2.3l0.7-4.1c0.2-1.1,0.2-1.9,0.1-2.4c-0.2-1-0.7-1.5-1.6-1.5
			c-0.8,0-1.5,0.4-2,1.1c-0.3,0.5-0.6,1.2-0.7,2.1L91.4,100.5z"/>
		<path class="st3" d="M103.6,110.1h-2.9l2.5-15.3h8.3l-0.4,2.3h-5.4l-0.6,3.9h5l-0.4,2.3h-5L103.6,110.1z"/>
		<path class="st3" d="M123.6,110.1h-2.9l2.5-15.3h8.3l-0.4,2.3h-5.4l-0.6,3.9h5l-0.4,2.3h-5L123.6,110.1z"/>
		<path class="st3" d="M135.3,110.1h-2.9l2.5-15.3h2.9L135.3,110.1z"/>
		<path class="st3" d="M148.5,97.7l0.5-3h2.9l-2.5,15.3h-3.1l-1.4-5.5c-0.4-1.6-0.8-3.6-1.1-6.1c-0.1,1.5-0.3,2.9-0.4,4.4
			c-0.1,0.5-0.2,1.3-0.3,2.3c-0.1,1-0.2,1.6-0.3,2l-0.5,2.9h-2.9l2.5-15.3h3.1l1.3,5.6c0.2,1,0.4,1.9,0.6,2.8c0.2,0.9,0.3,2,0.5,3.3
			l0.5-4.3c0.1-0.7,0.2-1.4,0.3-2C148.3,99.4,148.4,98.6,148.5,97.7z"/>
		<path class="st3" d="M155.5,110.1h-3.1l6.3-15.3h4l1,15.3h-3.1l-0.2-3.9h-3.4L155.5,110.1z M159.4,99.5l-1.6,4.4h2.5l-0.1-4.4
			c0-0.4,0-0.6,0-0.8c0-0.2,0-0.6,0.1-1.3c0-0.2,0-0.3,0.1-0.6c0-0.2,0-0.4,0-0.5l-0.3,1c-0.1,0.4-0.2,0.7-0.3,1.1
			C159.6,98.8,159.5,99.2,159.4,99.5z"/>
		<path class="st3" d="M175.7,97.7l0.5-3h2.9l-2.5,15.3h-3.1l-1.4-5.5c-0.4-1.6-0.8-3.6-1.1-6.1c-0.1,1.5-0.3,2.9-0.4,4.4
			c-0.1,0.5-0.2,1.3-0.3,2.3c-0.1,1-0.2,1.6-0.3,2l-0.5,2.9h-2.9l2.5-15.3h3.1l1.3,5.6c0.2,1,0.4,1.9,0.6,2.8c0.2,0.9,0.3,2,0.5,3.3
			l0.5-4.3c0.1-0.7,0.2-1.4,0.3-2C175.5,99.4,175.6,98.6,175.7,97.7z"/>
		<path class="st3" d="M188.1,104.6h2.9l-0.2,0.9c-0.3,1.5-0.8,2.7-1.5,3.5c-0.9,1-2.1,1.4-3.7,1.4c-1.5,0-2.6-0.3-3.3-0.9
			c-0.6-0.5-0.9-1.4-1-2.5c0-0.8,0.1-2,0.4-3.7l0.4-2.2c0.4-2.3,0.9-3.9,1.6-4.9c1-1.3,2.5-1.9,4.6-1.9c1.3,0,2.3,0.3,3,1
			c0.7,0.7,0.9,1.7,0.7,2.9l-0.1,0.8l-0.1,0.3h-2.9c0-1.2,0.1-1.8,0.1-1.8c-0.1-0.7-0.4-1-1.1-1c-0.8,0-1.5,0.4-2,1.1
			c-0.3,0.5-0.6,1.2-0.7,2.1l-0.1,0.6l-0.7,4.3c-0.2,0.9-0.2,1.7-0.1,2.1c0.2,0.8,0.7,1.2,1.6,1.2c0.7,0,1.2-0.5,1.6-1.4
			C187.8,106.3,187.9,105.6,188.1,104.6z"/>
		<path class="st3" d="M197,107.8h6.6l-0.4,2.3h-9.5l2.5-15.3h9.5l-0.4,2.3h-6.6l-0.6,3.8h6.2l-0.4,2.2h-6.2L197,107.8z"/>
	</g>
	<g>
		<path class="st3" d="M9.7,114.3l1.6,0l-5.8,9.3H3.6L2,114.3h1.6l1,8.6L9.7,114.3z"/>
		<path class="st3" d="M35.2,123.7h-1.5l2.1-9.3h1.5L35.2,123.7z"/>
		<path class="st3" d="M62.1,122.7h5.8l-0.2,0.9h-7.2l2.1-9.3h7.2l-0.2,0.9h-5.7l-0.7,3.1h5.4l-0.2,0.9h-5.4L62.1,122.7z"/>
		<path class="st3" d="M94.2,115.3l0.2-0.9h8.1l-0.2,0.9H99l-1.9,8.4h-1.4l1.9-8.4H94.2z"/>
		<path class="st3" d="M132.3,121.9l1.7-7.6h1.4l-2.1,9.3l-2.3,0l-2-7.5c-0.1-0.4-0.2-0.9-0.2-1.4c0,0.1-0.1,0.2-0.1,0.3
			c0,0.1,0,0.2-0.1,0.2c0,0.2-0.1,0.3-0.1,0.5c0,0.1-0.1,0.3-0.1,0.4l-1.7,7.4h-1.4l2.1-9.3h2.3l2,7.6c0,0.2,0.1,0.3,0.1,0.5
			c0,0.2,0.1,0.3,0.1,0.5c0-0.1,0-0.1,0.1-0.2c0-0.1,0-0.1,0-0.2c0-0.1,0-0.2,0.1-0.3C132.3,122.2,132.3,122.1,132.3,121.9z"/>
		<path class="st3" d="M157.7,123.7l5.8-9.3h1.9l1.5,9.3l-1.6,0l-0.4-2.7h-4.1l-1.5,2.7L157.7,123.7z M164.8,120l-0.5-5l-2.9,5
			H164.8z"/>
		<path class="st3" d="M197.4,121.6l4.2-7.3h2.5l-2.1,9.3h-1.4l2-8.9l-0.7,1.3l-4.4,7.6h-1.7l-1-7.7c0-0.2-0.1-0.3-0.1-0.5
			c0-0.2,0-0.4,0-0.6l-0.3,1.2l-1.7,7.7h-1.5l2.1-9.3h2.6l0.9,7.3c0,0.3,0,0.5,0,0.7c0,0.2,0,0.4-0.1,0.7
			C196.9,122.5,197.1,122.1,197.4,121.6z"/>
	</g>
</g>
</svg>
