<svg xmlns="http://www.w3.org/2000/svg" xmlns:xlink="http://www.w3.org/1999/xlink" viewBox="0 0 220 86.43"><defs><style>.cls-1{fill:url(#linear-gradient);}.cls-2{mask:url(#mask);}.cls-3{fill:url(#linear-gradient-2);}.cls-4{fill:url(#linear-gradient-3);}</style><linearGradient id="linear-gradient" x1="132.76" y1="43.22" x2="215.49" y2="43.22" gradientUnits="userSpaceOnUse"><stop offset="0" stop-color="#fff"/><stop offset="1"/></linearGradient><mask id="mask" x="0" y="0" width="443.62" height="86.43" maskUnits="userSpaceOnUse"><rect class="cls-1" width="220" height="86.43"/></mask><linearGradient id="linear-gradient-2" x1="-3.07" y1="43.22" x2="442.39" y2="43.22" gradientUnits="userSpaceOnUse"><stop offset="0" stop-color="#af7d04"/><stop offset="0.25" stop-color="#f1dd39"/><stop offset="0.52" stop-color="#ffff8e"/><stop offset="0.77" stop-color="#f1dd39"/><stop offset="1" stop-color="#af7d04"/></linearGradient><linearGradient id="linear-gradient-3" x1="221.81" y1="86.43" x2="221.81" y2="0" xlink:href="#linear-gradient-2"/></defs><g id="OBJECTS"><g class="cls-2"><path class="cls-3" d="M443.62,86.43H0V5A5,5,0,0,1,5,0H438.62a5,5,0,0,1,5,5Z"/><path class="cls-4" d="M438.62,5V81.43H5V5H438.62m0-5H5A5,5,0,0,0,0,5V86.43H443.62V5a5,5,0,0,0-5-5Z"/></g></g></svg>