<svg xmlns="http://www.w3.org/2000/svg" xmlns:xlink="http://www.w3.org/1999/xlink" viewBox="0 0 150.68 55.18"><defs><style>.cls-1{fill:url(#linear-gradient);}.cls-2{fill:url(#linear-gradient-2);}</style><linearGradient id="linear-gradient" y1="27.59" x2="150.68" y2="27.59" gradientUnits="userSpaceOnUse"><stop offset="0" stop-color="#af7d04"/><stop offset="0.25" stop-color="#f1dd39"/><stop offset="0.52" stop-color="#ffff8e"/><stop offset="0.77" stop-color="#f1dd39"/><stop offset="1" stop-color="#af7d04"/></linearGradient><linearGradient id="linear-gradient-2" x1="75.34" y1="55.18" x2="75.34" y2="0" xlink:href="#linear-gradient"/></defs><g id="OBJECTS"><path class="cls-1" d="M150.68,55.18H0V15A15,15,0,0,1,15,0H135.68a15,15,0,0,1,15,15Z"/><path class="cls-2" d="M135.68,7a8,8,0,0,1,8,8V48.18H7V15a8,8,0,0,1,8-8H135.68m0-7H15A15,15,0,0,0,0,15V55.18H150.68V15a15,15,0,0,0-15-15Z"/></g></svg>