<svg xmlns="http://www.w3.org/2000/svg" xmlns:xlink="http://www.w3.org/1999/xlink" viewBox="0 0 145 63.02"><defs><style>.cls-1{fill:url(#linear-gradient);}.cls-2{fill:url(#linear-gradient-2);}</style><linearGradient id="linear-gradient" x1="-138.49" y1="31.51" x2="283.49" y2="31.51" gradientUnits="userSpaceOnUse"><stop offset="0" stop-color="#af7d04"/><stop offset="0.25" stop-color="#f1dd39"/><stop offset="0.52" stop-color="#ffff8e"/><stop offset="0.77" stop-color="#f1dd39"/><stop offset="1" stop-color="#af7d04"/></linearGradient><linearGradient id="linear-gradient-2" x1="72.5" y1="63.02" x2="72.5" y2="0" xlink:href="#linear-gradient"/></defs><g id="DESIGNED_BY_FREEPIK" data-name="DESIGNED BY FREEPIK"><path class="cls-1" d="M283.49,63h-422V10a10,10,0,0,1,10-10h402a10,10,0,0,1,10,10Z"/><path class="cls-2" d="M273.49,7a3,3,0,0,1,3,3V56h-408V10a3,3,0,0,1,3-3h402m0-7h-402a10,10,0,0,0-10,10V63h422V10a10,10,0,0,0-10-10Z"/></g></svg>