<svg id="BACKGROUND" xmlns="http://www.w3.org/2000/svg" xmlns:xlink="http://www.w3.org/1999/xlink" viewBox="0 0 480 52.9"><defs><style>.cls-1{fill:url(#linear-gradient);}.cls-2{mask:url(#mask);}.cls-3{fill:url(#linear-gradient-2);}.cls-4{fill:url(#linear-gradient-3);}</style><linearGradient id="linear-gradient" x1="97.17" y1="7.48" x2="305.26" y2="7.48" gradientTransform="translate(312.28 33.92) rotate(180)" gradientUnits="userSpaceOnUse"><stop offset="0" stop-color="#fff"/><stop offset="1"/></linearGradient><mask id="mask" x="-589.15" y="0" width="1069.15" height="52.9" maskUnits="userSpaceOnUse"><rect class="cls-1" width="480" height="52.9"/></mask><linearGradient id="linear-gradient-2" x1="-589.15" y1="26.45" x2="480" y2="26.45" gradientUnits="userSpaceOnUse"><stop offset="0" stop-color="#af7d04"/><stop offset="0.25" stop-color="#f1dd39"/><stop offset="0.52" stop-color="#ffff8e"/><stop offset="0.77" stop-color="#f1dd39"/><stop offset="1" stop-color="#af7d04"/></linearGradient><linearGradient id="linear-gradient-3" x1="-54.57" y1="52.9" x2="-54.57" y2="0" xlink:href="#linear-gradient-2"/></defs><g class="cls-2"><path class="cls-3" d="M480,52.9H-589.15V15a15,15,0,0,1,15-15H465a15,15,0,0,1,15,15Z"/><path class="cls-4" d="M465,7a8,8,0,0,1,8,8V45.9H-582.15V15a8,8,0,0,1,8-8H465m0-7H-574.15a15,15,0,0,0-15,15V52.9H480V15A15,15,0,0,0,465,0Z"/></g></svg>