<svg id="BACKGROUND" xmlns="http://www.w3.org/2000/svg" xmlns:xlink="http://www.w3.org/1999/xlink" viewBox="0 0 500 52.9"><defs><style>.cls-1{fill:url(#linear-gradient);}.cls-2{fill:url(#linear-gradient-2);}</style><linearGradient id="linear-gradient" x1="-284.57" y1="26.45" x2="784.57" y2="26.45" gradientUnits="userSpaceOnUse"><stop offset="0" stop-color="#af7d04"/><stop offset="0.25" stop-color="#f1dd39"/><stop offset="0.52" stop-color="#ffff8e"/><stop offset="0.77" stop-color="#f1dd39"/><stop offset="1" stop-color="#af7d04"/></linearGradient><linearGradient id="linear-gradient-2" x1="250" y1="52.9" x2="250" y2="0" xlink:href="#linear-gradient"/></defs><path class="cls-1" d="M784.57,52.9H-284.57V15a15,15,0,0,1,15-15H769.57a15,15,0,0,1,15,15Z"/><path class="cls-2" d="M769.57,7a8,8,0,0,1,8,8V45.9H-277.57V15a8,8,0,0,1,8-8H769.57m0-7H-269.57a15,15,0,0,0-15,15V52.9H784.57V15a15,15,0,0,0-15-15Z"/></svg>