<svg id="BACKGROUND" xmlns="http://www.w3.org/2000/svg" xmlns:xlink="http://www.w3.org/1999/xlink" viewBox="0 0 1069.15 52.9"><defs><style>.cls-1{fill:url(#linear-gradient);}.cls-2{fill:url(#linear-gradient-2);}</style><linearGradient id="linear-gradient" y1="26.45" x2="1069.15" y2="26.45" gradientUnits="userSpaceOnUse"><stop offset="0" stop-color="#af7d04"/><stop offset="0.25" stop-color="#f1dd39"/><stop offset="0.52" stop-color="#ffff8e"/><stop offset="0.77" stop-color="#f1dd39"/><stop offset="1" stop-color="#af7d04"/></linearGradient><linearGradient id="linear-gradient-2" x1="534.57" y1="52.9" x2="534.57" y2="0" xlink:href="#linear-gradient"/></defs><path class="cls-1" d="M1069.15,52.9H0V15A15,15,0,0,1,15,0H1054.15a15,15,0,0,1,15,15Z"/><path class="cls-2" d="M1054.15,7a8,8,0,0,1,8,8V45.9H7V15a8,8,0,0,1,8-8H1054.15m0-7H15A15,15,0,0,0,0,15V52.9H1069.15V15a15,15,0,0,0-15-15Z"/></svg>