<svg xmlns="http://www.w3.org/2000/svg" xmlns:xlink="http://www.w3.org/1999/xlink" viewBox="0 0 145 63.02"><defs><style>.cls-1{fill:url(#linear-gradient);}.cls-2{fill:url(#linear-gradient-2);}</style><linearGradient id="linear-gradient" y1="31.51" x2="421.98" y2="31.51" gradientUnits="userSpaceOnUse"><stop offset="0" stop-color="#af7d04"/><stop offset="0.25" stop-color="#f1dd39"/><stop offset="0.52" stop-color="#ffff8e"/><stop offset="0.77" stop-color="#f1dd39"/><stop offset="1" stop-color="#af7d04"/></linearGradient><linearGradient id="linear-gradient-2" x1="210.99" y1="63.02" x2="210.99" y2="0" xlink:href="#linear-gradient"/></defs><g id="DESIGNED_BY_FREEPIK" data-name="DESIGNED BY FREEPIK"><path class="cls-1" d="M422,63H0V10A10,10,0,0,1,10,0H412a10,10,0,0,1,10,10Z"/><path class="cls-2" d="M412,7a3,3,0,0,1,3,3V56H7V10a3,3,0,0,1,3-3H412m0-7H10A10,10,0,0,0,0,10V63H422V10A10,10,0,0,0,412,0Z"/></g></svg>